<?xml version="1.0" encoding="utf-8"?>
<!-- Generator: Adobe Illustrator 23.0.4, SVG Export Plug-In . SVG Version: 6.00 Build 0)  -->
<svg version="1.1" id="Layer_1" xmlns="http://www.w3.org/2000/svg" xmlns:xlink="http://www.w3.org/1999/xlink" x="0px" y="0px"
	 viewBox="0 0 400 400" style="enable-background:new 0 0 400 400;" xml:space="preserve">
<style type="text/css">
	.st0{fill:#FFFFFF;}
</style>
<path class="st0" d="M340.73,74.72H59.27c-18.87,0-34.32,15.44-34.32,34.32v182.09c0,18.87,15.44,34.32,34.32,34.32h281.47
	c18.87,0,34.32-15.44,34.32-34.32V109.03C375.05,90.16,359.61,74.72,340.73,74.72z M66.13,90.68h267.74c2.39,0,4.71,0.36,6.89,1.03
	l-135,135c0,0-6.67,6.41-13.69-0.61c-4.18-4.18-73.89-72.87-134.76-133.7C60.03,91.3,63.01,90.68,66.13,90.68z M180.8,239.7
	c0,0,12.55,14.59,17.87,14.59c6.23,0,13.43-7.37,20.66-14.59c3.64-3.64,9.38-9.38,16.51-16.51l86.29,86.29H75.67l87.46-87.46
	L180.8,239.7z M42.52,285.86V114.3c0-3.74,0.88-7.28,2.45-10.44l105.36,105.36l-96.67,96.67C46.98,301.7,42.52,294.28,42.52,285.86z
	 M357.48,285.86c0,8.99-5.09,16.85-12.54,20.83l-96.31-96.31c34.19-34.19,85.06-85.06,106.44-106.44c1.54,3.13,2.4,6.64,2.4,10.35
	V285.86z"/>
</svg>
