<?xml version="1.0" encoding="utf-8"?>
<!-- Generator: Adobe Illustrator 23.0.4, SVG Export Plug-In . SVG Version: 6.00 Build 0)  -->
<svg version="1.1" id="Layer_1" xmlns="http://www.w3.org/2000/svg" xmlns:xlink="http://www.w3.org/1999/xlink" x="0px" y="0px"
	 viewBox="0 0 50 50" style="enable-background:new 0 0 50 50;" xml:space="preserve">
<style type="text/css">
	.st0{fill:#FFFFFF;}
</style>
<g>
	<path class="st0" d="M36.5,10.8c-1.4,0-2.5,1.1-2.5,2.5c0,1.4,1.1,2.5,2.5,2.5c1.4,0,2.5-1.1,2.5-2.5
		C38.9,11.8,37.9,10.8,36.5,10.8z"/>
	<path class="st0" d="M25.1,13.6c-6.1,0-11,4.9-11,11c0,6.1,4.9,11,11,11c6.1,0,11-4.9,11-11C36.1,18.5,31.1,13.6,25.1,13.6z
		 M25.1,31.7c-3.9,0-7.1-3.2-7.1-7.1c0-4,3.2-7.1,7.1-7.1c3.9,0,7.1,3.2,7.1,7.1C32.3,28.6,29,31.7,25.1,31.7z"/>
	<path class="st0" d="M46.1,15.7C46.2,9,40.7,3.5,34,3.5H16.1C9.4,3.5,3.9,9,3.9,15.7v17.8c0,6.7,5.5,12.2,12.2,12.2h17.8
		c6.7,0,12.2-5.5,12.2-12.2V15.7z M34,41.8H16.1c-4.6,0-8.3-3.7-8.3-8.3V15.7c0-4.6,3.7-8.3,8.3-8.3h17.8c4.6,0,8.3,3.7,8.3,8.3
		v17.8h0.1C42.3,38.1,38.6,41.8,34,41.8z"/>
</g>
</svg>
