<?xml version="1.0" encoding="utf-8"?>
<!-- Generator: Adobe Illustrator 22.1.0, SVG Export Plug-In . SVG Version: 6.00 Build 0)  -->
<svg version="1.1" id="Layer_1" xmlns="http://www.w3.org/2000/svg" xmlns:xlink="http://www.w3.org/1999/xlink" x="0px" y="0px"
	 viewBox="0 0 80 80" style="enable-background:new 0 0 80 80;" xml:space="preserve">
<style type="text/css">
	.st0{fill:#6D6E71;}
</style>
<path class="st0" d="M43.9,79h-6c-3,0-5.5-2.5-5.5-5.5V7.5c0-3,2.5-5.5,5.5-5.5h6c3,0,5.5,2.5,5.5,5.5v66.1
	C49.3,76.6,46.9,79,43.9,79z"/>
<path class="st0" d="M2.4,43.5v-6c0-3,2.5-5.5,5.5-5.5h66.1c3,0,5.5,2.5,5.5,5.5v6c0,3-2.5,5.5-5.5,5.5H7.8
	C4.8,49,2.4,46.5,2.4,43.5z"/>
</svg>
