<?xml version="1.0" encoding="utf-8"?>
<!-- Generator: Adobe Illustrator 21.1.0, SVG Export Plug-In . SVG Version: 6.00 Build 0)  -->
<svg version="1.1" id="Layer_1" xmlns="http://www.w3.org/2000/svg" xmlns:xlink="http://www.w3.org/1999/xlink" x="0px" y="0px"
	 viewBox="0 0 80 80" style="enable-background:new 0 0 80 80;" xml:space="preserve">
<path d="M73.2,18.2H7.6c-1.8,0-3.3-1.5-3.3-3.3V3.3C4.3,1.5,5.8,0,7.6,0h65.6c1.8,0,3.3,1.5,3.3,3.3V15C76.4,16.8,75,18.2,73.2,18.2
	z"/>
<path d="M73.2,49.1H7.6c-1.8,0-3.3-1.5-3.3-3.3V34.1c0-1.8,1.5-3.3,3.3-3.3h65.6c1.8,0,3.3,1.5,3.3,3.3v11.7
	C76.4,47.7,75,49.1,73.2,49.1z"/>
<path d="M73.2,80H7.6c-1.8,0-3.3-1.5-3.3-3.3V65c0-1.8,1.5-3.3,3.3-3.3h65.6c1.8,0,3.3,1.5,3.3,3.3v11.7C76.4,78.5,75,80,73.2,80z"
	/>
</svg>
