<?xml version="1.0" encoding="utf-8"?>
<!-- Generator: Adobe Illustrator 22.1.0, SVG Export Plug-In . SVG Version: 6.00 Build 0)  -->
<svg version="1.1" id="Layer_1" xmlns="http://www.w3.org/2000/svg" xmlns:xlink="http://www.w3.org/1999/xlink" x="0px" y="0px"
	 viewBox="0 0 140 140" style="enable-background:new 0 0 140 140;" xml:space="preserve">
<g>
	<path d="M29.1,23.9c0,5.2-1.1,9.1-3.3,12s-5.5,4.2-9.8,4.2H7.6V7.6H16c4.3,0,7.5,1.4,9.7,4.3C28,14.8,29.1,18.8,29.1,23.9z
		 M23.4,23.9c0-1.9-0.2-3.6-0.5-5.1c-0.3-1.4-0.9-2.6-1.5-3.6S20,13.5,19,13.1c-0.9-0.5-1.9-0.7-3-0.7h-2.7v22.9H16
		c1,0,2.1-0.2,3-0.7s1.7-1.2,2.4-2.1c0.7-1,1.2-2.1,1.5-3.5C23.3,27.5,23.4,25.8,23.4,23.9z"/>
	<path d="M56.6,23.8c0,2.6-0.3,4.9-0.8,7c-0.6,2.1-1.4,3.9-2.4,5.4s-2.3,2.7-3.8,3.5s-3.2,1.2-5,1.2c-1.9,0-3.6-0.4-5.1-1.2
		s-2.8-2-3.8-3.5s-1.8-3.3-2.4-5.4s-0.8-4.4-0.8-7s0.3-4.9,0.8-7s1.3-3.9,2.4-5.4S38,8.8,39.5,8s3.2-1.2,5.1-1.2
		c1.8,0,3.5,0.4,5,1.2s2.8,2,3.8,3.5s1.8,3.3,2.4,5.4C56.4,18.9,56.6,21.2,56.6,23.8z M50.8,23.8c0-1.7-0.1-3.2-0.4-4.7
		c-0.3-1.4-0.7-2.7-1.2-3.8s-1.2-1.9-1.9-2.5c-0.8-0.6-1.7-0.9-2.7-0.9s-1.9,0.3-2.7,0.9c-0.8,0.6-1.4,1.4-1.9,2.5
		c-0.5,1-0.9,2.3-1.1,3.8c-0.3,1.4-0.4,3-0.4,4.7s0.1,3.2,0.4,4.7c0.3,1.4,0.7,2.7,1.1,3.8c0.5,1.1,1.2,1.9,1.9,2.5
		c0.8,0.6,1.7,0.9,2.7,0.9s1.9-0.3,2.7-0.9c0.8-0.6,1.4-1.4,1.9-2.5c0.5-1.1,0.9-2.3,1.1-3.8C50.7,27,50.8,25.5,50.8,23.8z"/>
	<path d="M74,40.1l-5.2-13.9h-3.1v13.9h-5.5V7.6h9.5c1.4,0,2.7,0.2,3.8,0.5c1.2,0.3,2.1,0.9,3,1.7c0.8,0.8,1.5,1.7,2,2.9
		s0.7,2.5,0.7,4.2c0,1.3-0.2,2.4-0.5,3.3c-0.3,1-0.7,1.8-1.3,2.4c-0.5,0.7-1,1.2-1.7,1.6c-0.6,0.4-1.2,0.7-1.8,0.8l6,15L74,40.1
		L74,40.1z M73.6,17.2c0-1-0.1-1.8-0.4-2.4c-0.3-0.7-0.7-1.1-1.1-1.5c-0.4-0.3-1-0.6-1.5-0.8c-0.6-0.1-1.1-0.2-1.7-0.2h-3.2v10h3.2
		c1.4,0,2.5-0.4,3.4-1.3C73.2,20.1,73.6,18.8,73.6,17.2z"/>
	<path d="M84.4,40.1V7.6h5.7v32.5H84.4z"/>
	<path d="M105.2,12.3v27.8h-5.6V12.3h-6.3V7.6h18.1v4.7C111.4,12.3,105.2,12.3,105.2,12.3z"/>
	<path d="M126.8,27.7v12.5h-5.6V27.7l-8.3-20.1h6.1l5,14.5l0.1-0.1l5.1-14.4h6L126.8,27.7z"/>
	<path d="M28.7,69.6c0,5.2-1.1,9.1-3.3,12c-2.2,2.8-5.5,4.2-9.8,4.2H7.2V53.3h8.4c4.3,0,7.5,1.4,9.7,4.3
		C27.5,60.4,28.7,64.4,28.7,69.6z M23,69.6c0-1.9-0.2-3.6-0.5-5.1c-0.3-1.4-0.9-2.6-1.5-3.6s-1.4-1.7-2.4-2.1
		c-0.9-0.5-1.9-0.7-3-0.7h-2.7V81h2.7c1,0,2.1-0.2,3-0.7s1.7-1.2,2.4-2.1s1.2-2.1,1.5-3.5C22.8,73.1,23,71.5,23,69.6z"/>
	<path d="M32.7,85.8V53.3h14.9v4.9h-9.5v8.7H47v4.5h-8.8V81h10v4.9L32.7,85.8L32.7,85.8z"/>
	<path d="M66.4,59.6c-1.2-1.4-2.8-2.1-4.6-2.1c-0.5,0-1,0.1-1.6,0.3c-0.5,0.2-1,0.4-1.4,0.8c-0.4,0.3-0.7,0.8-1,1.4
		c-0.2,0.6-0.3,1.3-0.3,2.1c0,1.4,0.4,2.4,1.3,3.2c0.8,0.7,2,1.4,3.4,2.1c0.8,0.4,1.7,0.9,2.5,1.4c0.8,0.5,1.6,1.1,2.3,1.9
		c0.7,0.7,1.3,1.6,1.7,2.6c0.4,1,0.7,2.2,0.7,3.6c0,1.6-0.3,3-0.8,4.2s-1.2,2.3-2.1,3.1s-1.9,1.5-3.1,1.9c-1.2,0.4-2.4,0.7-3.7,0.7
		c-1.8,0-3.6-0.3-5.2-1s-2.8-1.6-3.8-2.7l3.1-4c0.7,0.9,1.6,1.5,2.6,2s2.1,0.7,3.1,0.7c1.2,0,2.2-0.4,3-1.2c0.8-0.8,1.2-1.9,1.2-3.4
		c0-1.4-0.5-2.5-1.4-3.4c-1-0.8-2.1-1.6-3.6-2.3c-0.9-0.4-1.7-0.9-2.6-1.4c-0.8-0.5-1.5-1.1-2.1-1.9c-0.6-0.7-1.1-1.6-1.4-2.5
		s-0.5-2.1-0.5-3.5c0-1.7,0.3-3.1,0.8-4.3c0.6-1.2,1.3-2.2,2.2-3s1.9-1.4,3.1-1.7c1.1-0.4,2.3-0.6,3.5-0.6c1.7,0,3.2,0.3,4.5,0.8
		c1.4,0.5,2.4,1.3,3.4,2.4L66.4,59.6z"/>
	<path d="M74.5,85.8V53.3h5.7v32.5H74.5z"/>
	<path d="M102.8,85.7c-1.4,0.5-3.1,0.7-5,0.7c-2,0-3.8-0.4-5.3-1.2c-1.6-0.8-2.9-2-4-3.5s-1.9-3.3-2.5-5.4s-0.9-4.4-0.9-6.9
		s0.3-4.8,0.8-6.9c0.6-2.1,1.4-3.9,2.4-5.4s2.4-2.7,3.9-3.5s3.2-1.3,5.1-1.3c2,0,3.7,0.3,5.2,1c1.4,0.7,2.6,1.7,3.5,2.9l-3.3,3.8
		c-1.3-1.8-3-2.7-5.1-2.7c-1.2,0-2.2,0.3-3.1,1s-1.6,1.5-2.1,2.6c-0.6,1.1-1,2.4-1.3,3.8c-0.3,1.4-0.4,3-0.4,4.5
		c0,1.7,0.1,3.2,0.4,4.7c0.3,1.4,0.7,2.7,1.3,3.8c0.6,1.1,1.3,1.9,2.1,2.5c0.9,0.6,1.9,0.9,3.1,0.9c0.7,0,1.4-0.1,2.1-0.3
		c0.6-0.2,1.1-0.4,1.5-0.7v-8.4h-4.1v-4.8h9.2v16.5C105.4,84.6,104.2,85.3,102.8,85.7z"/>
	<path d="M126.6,85.8l-9.5-22.9H117l0.1,22.9H112V53.3h6.5l9.4,23.1h0.1V53.3h4.9v32.5H126.6z"/>
	<path d="M33.5,132.3H27l-4.6-24.4h-0.1l-4.6,24.4h-6.5L4.8,99.8h5.8l4.3,25.3H15l4.5-25.3h5.9l4.6,25.3h0.1l4.3-25.3h5.5
		L33.5,132.3z"/>
	<path d="M65.2,116c0,2.6-0.3,4.9-0.8,7c-0.6,2.1-1.4,3.9-2.4,5.4c-1,1.5-2.3,2.7-3.8,3.5s-3.2,1.2-5,1.2c-1.9,0-3.6-0.4-5.1-1.2
		s-2.8-2-3.8-3.5s-1.8-3.3-2.4-5.4c-0.6-2.1-0.8-4.4-0.8-7s0.3-4.9,0.8-7s1.3-3.9,2.4-5.4s2.3-2.7,3.8-3.5s3.2-1.2,5.1-1.2
		c1.8,0,3.5,0.4,5,1.2s2.8,2,3.8,3.5s1.8,3.3,2.4,5.4C65,111.1,65.2,113.4,65.2,116z M59.4,116c0-1.7-0.1-3.2-0.4-4.7
		c-0.3-1.4-0.7-2.7-1.2-3.8s-1.2-1.9-1.9-2.5c-0.8-0.6-1.7-0.9-2.7-0.9s-1.9,0.3-2.7,0.9s-1.4,1.4-1.9,2.5c-0.5,1-0.9,2.3-1.1,3.8
		c-0.3,1.4-0.4,3-0.4,4.7s0.1,3.2,0.4,4.7c0.3,1.4,0.7,2.7,1.1,3.8c0.5,1.1,1.2,1.9,1.9,2.5c0.8,0.6,1.7,0.9,2.7,0.9
		s1.9-0.3,2.7-0.9s1.4-1.4,1.9-2.5s0.9-2.3,1.1-3.8C59.2,119.2,59.4,117.7,59.4,116z"/>
	<path d="M83.4,132.3l-5.2-13.9h-3.1v13.9h-5.5V99.8h9.5c1.4,0,2.7,0.2,3.8,0.5c1.2,0.3,2.1,0.9,3,1.7c0.8,0.8,1.5,1.7,2,2.9
		c0.5,1.2,0.7,2.5,0.7,4.2c0,1.3-0.2,2.4-0.5,3.3c-0.3,1-0.7,1.8-1.3,2.4c-0.5,0.7-1,1.2-1.7,1.6c-0.6,0.4-1.2,0.7-1.8,0.8l6,15
		L83.4,132.3L83.4,132.3z M83.1,109.4c0-1-0.1-1.8-0.4-2.4c-0.3-0.7-0.7-1.1-1.1-1.5c-0.4-0.3-1-0.6-1.5-0.8
		c-0.6-0.1-1.1-0.2-1.7-0.2h-3.2v10h3.2c1.4,0,2.5-0.4,3.4-1.3C82.6,112.3,83.1,111,83.1,109.4z"/>
	<path d="M108.6,132.3l-8.9-15.8h-0.1v15.8h-5.7V99.8h5.7v14.1h0.1l8.5-14.1h6.4l-9.8,15l10.4,17.5H108.6z"/>
	<path d="M132,106.1c-1.2-1.4-2.8-2.1-4.6-2.1c-0.5,0-1,0.1-1.6,0.3s-1,0.4-1.4,0.8s-0.7,0.8-1,1.4c-0.2,0.6-0.3,1.3-0.3,2.1
		c0,1.4,0.4,2.4,1.3,3.2c0.8,0.7,2,1.4,3.4,2.1c0.8,0.4,1.7,0.9,2.5,1.4s1.6,1.1,2.3,1.9c0.7,0.7,1.3,1.6,1.7,2.6s0.7,2.2,0.7,3.6
		c0,1.6-0.3,3-0.8,4.2c-0.5,1.2-1.2,2.3-2.1,3.1c-0.9,0.8-1.9,1.5-3.1,1.9c-1.2,0.4-2.4,0.7-3.7,0.7c-1.8,0-3.6-0.3-5.2-1
		s-2.8-1.6-3.8-2.7l3.1-4c0.7,0.9,1.6,1.5,2.6,2s2.1,0.7,3.1,0.7c1.2,0,2.2-0.4,3-1.2c0.8-0.8,1.2-1.9,1.2-3.4
		c0-1.4-0.5-2.5-1.4-3.4c-1-0.8-2.1-1.6-3.6-2.3c-0.9-0.4-1.7-0.9-2.6-1.4c-0.8-0.5-1.5-1.1-2.1-1.9c-0.6-0.7-1.1-1.6-1.4-2.5
		c-0.3-1-0.5-2.1-0.5-3.5c0-1.7,0.3-3.1,0.8-4.3c0.6-1.2,1.3-2.2,2.2-3c0.9-0.8,1.9-1.4,3.1-1.7c1.1-0.4,2.3-0.6,3.5-0.6
		c1.7,0,3.2,0.3,4.5,0.8c1.4,0.5,2.4,1.3,3.4,2.4L132,106.1z"/>
</g>
</svg>
