<?xml version="1.0" encoding="utf-8"?>
<!-- Generator: Adobe Illustrator 22.1.0, SVG Export Plug-In . SVG Version: 6.00 Build 0)  -->
<svg version="1.1" id="Layer_1" xmlns="http://www.w3.org/2000/svg" xmlns:xlink="http://www.w3.org/1999/xlink" x="0px" y="0px"
	 viewBox="0 0 304.2 50" style="enable-background:new 0 0 304.2 50;" xml:space="preserve">
<style type="text/css">
	.st0{opacity:0.5;}
	.st1{fill:#010101;stroke:#010101;stroke-miterlimit:10;}
	.st2{fill:#010101;}
</style>
<g class="st0">
	<path class="st1" d="M22,24.6c0,3.6-0.8,6.3-2.3,8.4s-3.8,2.9-6.8,2.9H7.1V13.3h5.8c3,0,5.2,1,6.8,3C21.3,18.3,22,21.1,22,24.6z
		 M18.1,24.6c0-1.3-0.1-2.5-0.3-3.5c-0.2-1-0.6-1.8-1-2.5c-0.4-0.7-1-1.2-1.7-1.5c-0.6-0.3-1.3-0.5-2.1-0.5H11v15.9h1.9
		c0.7,0,1.5-0.1,2.1-0.5c0.6-0.3,1.2-0.8,1.7-1.5c0.5-0.7,0.8-1.5,1-2.4C18,27.1,18.1,25.9,18.1,24.6z"/>
	<path class="st1" d="M41.2,24.6c0,1.8-0.2,3.4-0.6,4.9c-0.4,1.5-1,2.7-1.7,3.8s-1.6,1.9-2.6,2.4c-1,0.6-2.2,0.8-3.5,0.8
		c-1.3,0-2.5-0.3-3.5-0.8c-1-0.6-1.9-1.4-2.6-2.4c-0.7-1-1.3-2.3-1.7-3.8c-0.4-1.5-0.6-3.1-0.6-4.9s0.2-3.4,0.6-4.9
		c0.3-1.5,0.9-2.7,1.7-3.8s1.6-1.8,2.6-2.4c1-0.6,2.2-0.8,3.5-0.8c1.3,0,2.4,0.3,3.5,0.8c1,0.6,1.9,1.4,2.6,2.4s1.3,2.3,1.7,3.8
		C41.1,21.1,41.2,22.7,41.2,24.6z M37.2,24.6c0-1.2-0.1-2.2-0.3-3.3c-0.2-1-0.5-1.9-0.8-2.6c-0.3-0.8-0.8-1.3-1.3-1.7
		c-0.6-0.4-1.2-0.6-1.9-0.6s-1.3,0.2-1.9,0.6c-0.6,0.4-1,1-1.3,1.7c-0.3,0.7-0.6,1.6-0.8,2.6c-0.2,1-0.3,2.1-0.3,3.3
		s0.1,2.2,0.3,3.3c0.2,1,0.5,1.9,0.8,2.6c0.3,0.8,0.8,1.3,1.3,1.7c0.6,0.4,1.2,0.6,1.9,0.6s1.3-0.2,1.9-0.6c0.6-0.4,1-1,1.3-1.7
		c0.3-0.8,0.6-1.6,0.8-2.6C37.1,26.8,37.2,25.7,37.2,24.6z"/>
	<path class="st1" d="M53.3,35.9l-3.6-9.7h-2.2v9.7h-3.8V13.3h6.6c1,0,1.9,0.1,2.6,0.3c0.8,0.2,1.5,0.6,2.1,1.2c0.6,0.6,1,1.2,1.4,2
		c0.3,0.8,0.5,1.7,0.5,2.9c0,0.9-0.1,1.7-0.3,2.3c-0.2,0.7-0.5,1.3-0.9,1.7c-0.3,0.5-0.7,0.8-1.2,1.1c-0.4,0.3-0.8,0.5-1.3,0.6
		l4.2,10.4L53.3,35.9L53.3,35.9z M53,20c0-0.7-0.1-1.3-0.3-1.7c-0.2-0.5-0.5-0.8-0.8-1c-0.3-0.2-0.7-0.4-1-0.6
		c-0.4-0.1-0.8-0.1-1.2-0.1h-2.2v7h2.2c1,0,1.7-0.3,2.4-0.9C52.7,22,53,21.1,53,20z"/>
	<path class="st1" d="M60.5,35.9V13.3h4v22.6H60.5z"/>
	<path class="st1" d="M75,16.5v19.4h-3.9V16.5h-4.4v-3.3h12.6v3.3C79.3,16.5,75,16.5,75,16.5z"/>
	<path class="st1" d="M90.1,27.3V36h-3.9v-8.7l-5.8-14h4.2l3.5,10.1l0.1-0.1l3.5-10h4.2L90.1,27.3z"/>
</g>
<g class="st0">
	<path class="st1" d="M122.5,24.8c0,3.6-0.8,6.3-2.3,8.4c-1.5,1.9-3.8,2.9-6.8,2.9h-5.8V13.4h5.8c3,0,5.2,1,6.8,3
		C121.7,18.4,122.5,21.1,122.5,24.8z M118.6,24.8c0-1.3-0.1-2.5-0.3-3.5c-0.2-1-0.6-1.8-1-2.5c-0.4-0.7-1-1.2-1.7-1.5
		c-0.6-0.3-1.3-0.5-2.1-0.5h-1.9v15.9h1.9c0.7,0,1.5-0.1,2.1-0.5c0.6-0.3,1.2-0.8,1.7-1.5c0.5-0.6,0.8-1.5,1-2.4
		C118.4,27.2,118.6,26.1,118.6,24.8z"/>
	<path class="st1" d="M125.3,36V13.4h10.4v3.4h-6.6v6.1h6.2V26h-6.1v6.7h7v3.4L125.3,36L125.3,36z"/>
	<path class="st1" d="M148.8,17.8c-0.8-1-1.9-1.5-3.2-1.5c-0.3,0-0.7,0.1-1.1,0.2c-0.3,0.1-0.7,0.3-1,0.6c-0.3,0.2-0.5,0.6-0.7,1
		c-0.1,0.4-0.2,0.9-0.2,1.5c0,1,0.3,1.7,0.9,2.2c0.6,0.5,1.4,1,2.4,1.5c0.6,0.3,1.2,0.6,1.7,1s1.1,0.8,1.6,1.3
		c0.5,0.5,0.9,1.1,1.2,1.8c0.3,0.7,0.5,1.5,0.5,2.5c0,1.1-0.2,2.1-0.6,2.9c-0.3,0.8-0.8,1.6-1.5,2.2s-1.3,1-2.2,1.3
		c-0.8,0.3-1.7,0.5-2.6,0.5c-1.3,0-2.5-0.2-3.6-0.7c-1.1-0.5-1.9-1.1-2.6-1.9l2.2-2.8c0.5,0.6,1.1,1,1.8,1.4
		c0.7,0.3,1.5,0.5,2.2,0.5c0.8,0,1.5-0.3,2.1-0.8c0.6-0.6,0.8-1.3,0.8-2.4c0-1-0.3-1.7-1-2.4c-0.7-0.6-1.5-1.1-2.5-1.6
		c-0.6-0.3-1.2-0.6-1.8-1c-0.6-0.3-1-0.8-1.5-1.3c-0.4-0.5-0.8-1.1-1-1.7c-0.2-0.6-0.3-1.5-0.3-2.4c0-1.2,0.2-2.2,0.6-3
		c0.4-0.8,0.9-1.5,1.5-2.1s1.3-1,2.2-1.2c0.8-0.3,1.6-0.4,2.4-0.4c1.2,0,2.2,0.2,3.1,0.6c1,0.3,1.7,0.9,2.4,1.7L148.8,17.8z"/>
	<path class="st1" d="M154.4,36V13.4h4V36H154.4z"/>
	<path class="st1" d="M174.1,36c-1,0.3-2.2,0.5-3.5,0.5c-1.4,0-2.6-0.3-3.7-0.8c-1.1-0.6-2-1.4-2.8-2.4s-1.3-2.3-1.7-3.8
		c-0.4-1.5-0.6-3.1-0.6-4.8c0-1.7,0.2-3.3,0.6-4.8c0.4-1.5,1-2.7,1.7-3.8c0.7-1,1.7-1.9,2.7-2.4c1-0.6,2.2-0.9,3.5-0.9
		c1.4,0,2.6,0.2,3.6,0.7c1,0.5,1.8,1.2,2.4,2l-2.3,2.6c-0.9-1.3-2.1-1.9-3.5-1.9c-0.8,0-1.5,0.2-2.2,0.7c-0.6,0.5-1.1,1-1.5,1.8
		c-0.4,0.8-0.7,1.7-0.9,2.6c-0.2,1-0.3,2.1-0.3,3.1c0,1.2,0.1,2.2,0.3,3.3c0.2,1,0.5,1.9,0.9,2.6c0.4,0.8,0.9,1.3,1.5,1.7
		c0.6,0.4,1.3,0.6,2.2,0.6c0.5,0,1-0.1,1.5-0.2c0.4-0.1,0.8-0.3,1-0.5v-5.8h-2.9v-3.3h6.4v11.5C175.9,35.2,175.1,35.7,174.1,36z"/>
	<path class="st1" d="M190.7,36l-6.6-15.9H184l0.1,15.9h-3.5V13.4h4.5l6.5,16.1h0.1V13.4h3.4V36H190.7z"/>
</g>
<g class="st0">
	<path class="st1" d="M225.1,35.8h-4.5l-3.2-17h-0.1l-3.2,17h-4.5l-4.5-22.6h4l3,17.6h0.1l3.1-17.6h4.1l3.2,17.6h0.1l3-17.6h3.8
		L225.1,35.8z"/>
	<path class="st1" d="M247.2,24.5c0,1.8-0.2,3.4-0.6,4.9c-0.4,1.5-1,2.7-1.7,3.8c-0.7,1-1.6,1.9-2.6,2.4c-1,0.6-2.2,0.8-3.5,0.8
		c-1.3,0-2.5-0.3-3.5-0.8s-1.9-1.4-2.6-2.4c-0.7-1-1.3-2.3-1.7-3.8c-0.4-1.5-0.6-3.1-0.6-4.9c0-1.8,0.2-3.4,0.6-4.9s0.9-2.7,1.7-3.8
		c0.8-1,1.6-1.9,2.6-2.4c1-0.6,2.2-0.8,3.5-0.8c1.3,0,2.4,0.3,3.5,0.8c1,0.6,1.9,1.4,2.6,2.4s1.3,2.3,1.7,3.8
		C247.1,21.1,247.2,22.7,247.2,24.5z M243.2,24.5c0-1.2-0.1-2.2-0.3-3.3c-0.2-1-0.5-1.9-0.8-2.6c-0.3-0.8-0.8-1.3-1.3-1.7
		c-0.6-0.4-1.2-0.6-1.9-0.6c-0.7,0-1.3,0.2-1.9,0.6s-1,1-1.3,1.7c-0.3,0.7-0.6,1.6-0.8,2.6c-0.2,1-0.3,2.1-0.3,3.3
		c0,1.2,0.1,2.2,0.3,3.3c0.2,1,0.5,1.9,0.8,2.6c0.3,0.8,0.8,1.3,1.3,1.7c0.6,0.4,1.2,0.6,1.9,0.6c0.7,0,1.3-0.2,1.9-0.6
		c0.6-0.4,1-1,1.3-1.7c0.3-0.8,0.6-1.6,0.8-2.6C243,26.7,243.2,25.7,243.2,24.5z"/>
	<path class="st1" d="M259.9,35.8l-3.6-9.7h-2.2v9.7h-3.8V13.2h6.6c1,0,1.9,0.1,2.6,0.3c0.8,0.2,1.5,0.6,2.1,1.2
		c0.6,0.6,1,1.2,1.4,2c0.3,0.8,0.5,1.7,0.5,2.9c0,0.9-0.1,1.7-0.3,2.3c-0.2,0.7-0.5,1.3-0.9,1.7c-0.3,0.5-0.7,0.8-1.2,1.1
		c-0.4,0.3-0.8,0.5-1.3,0.6l4.2,10.4L259.9,35.8L259.9,35.8z M259.7,19.9c0-0.7-0.1-1.3-0.3-1.7c-0.2-0.5-0.5-0.8-0.8-1
		c-0.3-0.2-0.7-0.4-1-0.6c-0.4-0.1-0.8-0.1-1.2-0.1h-2.2v7h2.2c1,0,1.7-0.3,2.4-0.9C259.3,21.9,259.7,21,259.7,19.9z"/>
	<path class="st1" d="M277.4,35.8l-6.2-11h-0.1v11h-4V13.2h4V23h0.1l5.9-9.8h4.5l-6.8,10.4l7.2,12.2H277.4z"/>
	<path class="st1" d="M293.7,17.6c-0.8-1-1.9-1.5-3.2-1.5c-0.3,0-0.7,0.1-1.1,0.2s-0.7,0.3-1,0.6c-0.3,0.3-0.5,0.6-0.7,1
		c-0.1,0.4-0.2,0.9-0.2,1.5c0,1,0.3,1.7,0.9,2.2c0.6,0.5,1.4,1,2.4,1.5c0.6,0.3,1.2,0.6,1.7,1c0.6,0.3,1.1,0.8,1.6,1.3
		c0.5,0.5,0.9,1.1,1.2,1.8c0.3,0.7,0.5,1.5,0.5,2.5c0,1.1-0.2,2.1-0.6,2.9c-0.3,0.8-0.8,1.6-1.5,2.2c-0.6,0.6-1.3,1-2.2,1.3
		s-1.7,0.5-2.6,0.5c-1.3,0-2.5-0.2-3.6-0.7c-1.1-0.5-1.9-1.1-2.6-1.9l2.2-2.8c0.5,0.6,1.1,1,1.8,1.4c0.7,0.3,1.5,0.5,2.2,0.5
		c0.8,0,1.5-0.3,2.1-0.8c0.6-0.6,0.8-1.3,0.8-2.4c0-1-0.3-1.7-1-2.4c-0.7-0.6-1.5-1.1-2.5-1.6c-0.6-0.3-1.2-0.6-1.8-1
		c-0.6-0.3-1-0.8-1.5-1.3c-0.4-0.5-0.8-1.1-1-1.7c-0.2-0.7-0.3-1.5-0.3-2.4c0-1.2,0.2-2.2,0.6-3c0.4-0.8,0.9-1.5,1.5-2.1
		s1.3-1,2.2-1.2c0.8-0.3,1.6-0.4,2.4-0.4c1.2,0,2.2,0.2,3.1,0.6c1,0.3,1.7,0.9,2.4,1.7L293.7,17.6z"/>
</g>
<rect x="7.1" y="44.2" class="st2" width="288.8" height="0.9"/>
</svg>
