<?xml version="1.0" encoding="utf-8"?>
<!-- Generator: Adobe Illustrator 22.1.0, SVG Export Plug-In . SVG Version: 6.00 Build 0)  -->
<svg version="1.1" id="Layer_1" xmlns="http://www.w3.org/2000/svg" xmlns:xlink="http://www.w3.org/1999/xlink" x="0px" y="0px"
	 viewBox="0 0 280.2 140" style="enable-background:new 0 0 280.2 140;" xml:space="preserve">
<style type="text/css">
	.st0{stroke:#000000;stroke-width:0.4;stroke-miterlimit:10;}
	.st1{fill:#231F20;}
</style>
<g>
	<path class="st0" d="M101.5,25.5c0,1.9-0.4,3.4-1.2,4.5c-0.8,1.1-2,1.6-3.7,1.6h-3.1V19.4h3.1c1.6,0,2.8,0.5,3.7,1.6
		C101.1,22.1,101.5,23.6,101.5,25.5z M99.4,25.5c0-0.7-0.1-1.3-0.2-1.9s-0.3-1-0.5-1.3c-0.2-0.4-0.5-0.6-0.9-0.8
		c-0.3-0.2-0.7-0.3-1.1-0.3h-1v8.6h1c0.4,0,0.8-0.1,1.1-0.3c0.3-0.2,0.6-0.4,0.9-0.8s0.4-0.8,0.5-1.3C99.3,26.9,99.4,26.2,99.4,25.5
		z"/>
	<path class="st0" d="M111.8,25.5c0,1-0.1,1.8-0.3,2.6c-0.2,0.8-0.5,1.5-0.9,2s-0.9,1-1.4,1.3s-1.2,0.4-1.9,0.4
		c-0.7,0-1.3-0.2-1.9-0.4c-0.5-0.3-1-0.8-1.4-1.3s-0.7-1.2-0.9-2c-0.2-0.8-0.3-1.7-0.3-2.6c0-1,0.1-1.8,0.3-2.6
		c0.2-0.8,0.5-1.5,0.9-2s0.9-1,1.4-1.3s1.2-0.4,1.9-0.4c0.7,0,1.3,0.2,1.9,0.4c0.5,0.3,1,0.8,1.4,1.3s0.7,1.2,0.9,2
		C111.7,23.6,111.8,24.5,111.8,25.5z M109.6,25.5c0-0.6-0.1-1.2-0.2-1.8c-0.1-0.5-0.3-1-0.4-1.4c-0.2-0.4-0.4-0.7-0.7-0.9
		c-0.3-0.2-0.6-0.3-1-0.3s-0.7,0.1-1,0.3c-0.3,0.2-0.5,0.5-0.7,0.9s-0.3,0.9-0.4,1.4s-0.2,1.1-0.2,1.8s0.1,1.2,0.2,1.8
		c0.1,0.5,0.3,1,0.4,1.4c0.2,0.4,0.4,0.7,0.7,0.9c0.3,0.2,0.6,0.3,1,0.3s0.7-0.1,1-0.3c0.3-0.2,0.5-0.5,0.7-0.9s0.3-0.9,0.4-1.4
		C109.6,26.7,109.6,26.1,109.6,25.5z"/>
	<path class="st0" d="M118.3,31.6l-1.9-5.2h-1.2v5.2h-2V19.4h3.6c0.5,0,1,0.1,1.4,0.2s0.8,0.3,1.1,0.6c0.3,0.3,0.5,0.6,0.8,1.1
		c0.2,0.4,0.3,0.9,0.3,1.6c0,0.5-0.1,0.9-0.2,1.2c-0.1,0.4-0.3,0.7-0.5,0.9c-0.2,0.3-0.4,0.4-0.6,0.6s-0.4,0.3-0.7,0.3l2.3,5.6
		L118.3,31.6L118.3,31.6z M118.2,23c0-0.4-0.1-0.7-0.2-0.9c-0.1-0.3-0.3-0.4-0.4-0.5c-0.2-0.1-0.4-0.2-0.5-0.3
		c-0.2-0.1-0.4-0.1-0.6-0.1h-1.2V25h1.2c0.5,0,0.9-0.2,1.3-0.5C118,24.1,118.2,23.6,118.2,23z"/>
	<path class="st0" d="M122.2,31.6V19.4h2.2v12.2C124.4,31.6,122.2,31.6,122.2,31.6z"/>
	<path class="st0" d="M130,21.2v10.4h-2.1V21.2h-2.4v-1.8h6.8v1.8H130z"/>
	<path class="st0" d="M138.1,26.9v4.7H136v-4.7l-3.1-7.5h2.3l1.9,5.4l0.1-0.1l1.9-5.4h2.3L138.1,26.9z"/>
	<path class="st0" d="M101.4,42.6c0,1.9-0.4,3.4-1.2,4.5c-0.8,1-2,1.6-3.7,1.6h-3.2V36.5h3.1c1.6,0,2.8,0.5,3.7,1.6
		C100.9,39.2,101.4,40.6,101.4,42.6z M99.2,42.6c0-0.7-0.1-1.3-0.2-1.9s-0.3-1-0.5-1.3c-0.2-0.4-0.5-0.6-0.9-0.8
		c-0.3-0.2-0.7-0.3-1.1-0.3h-1v8.6h1c0.4,0,0.8-0.1,1.1-0.3c0.3-0.2,0.6-0.4,0.9-0.8c0.3-0.3,0.4-0.8,0.5-1.3
		C99.2,43.9,99.2,43.3,99.2,42.6z"/>
	<path class="st0" d="M102.9,48.7V36.5h5.6v1.8h-3.6v3.3h3.3v1.7H105v3.6h3.8v1.8L102.9,48.7L102.9,48.7z"/>
	<path class="st0" d="M115.5,38.9c-0.4-0.5-1-0.8-1.7-0.8c-0.2,0-0.4,0.1-0.6,0.1c-0.2,0.1-0.4,0.2-0.5,0.3
		c-0.2,0.1-0.3,0.3-0.4,0.5s-0.1,0.5-0.1,0.8c0,0.5,0.2,0.9,0.5,1.2s0.8,0.5,1.3,0.8c0.3,0.2,0.6,0.3,0.9,0.5s0.6,0.4,0.9,0.7
		s0.5,0.6,0.6,1c0.2,0.4,0.3,0.8,0.3,1.3c0,0.6-0.1,1.1-0.3,1.6s-0.4,0.9-0.8,1.2c-0.3,0.3-0.7,0.5-1.2,0.7
		c-0.4,0.2-0.9,0.3-1.4,0.3c-0.7,0-1.3-0.1-1.9-0.4c-0.6-0.3-1-0.6-1.4-1l1.2-1.5c0.3,0.3,0.6,0.5,1,0.8c0.4,0.2,0.8,0.3,1.2,0.3
		c0.4,0,0.8-0.2,1.1-0.4c0.3-0.3,0.4-0.7,0.4-1.3c0-0.5-0.2-0.9-0.5-1.3c-0.4-0.3-0.8-0.6-1.3-0.9c-0.3-0.2-0.6-0.3-1-0.5
		c-0.3-0.2-0.5-0.4-0.8-0.7c-0.2-0.3-0.4-0.6-0.5-0.9c-0.1-0.3-0.2-0.8-0.2-1.3c0-0.6,0.1-1.2,0.3-1.6c0.2-0.4,0.5-0.8,0.8-1.1
		s0.7-0.5,1.2-0.6c0.4-0.2,0.9-0.2,1.3-0.2c0.6,0,1.2,0.1,1.7,0.3s0.9,0.5,1.3,0.9L115.5,38.9z"/>
	<path class="st0" d="M118.5,48.7V36.5h2.2v12.2H118.5z"/>
	<path class="st0" d="M129.1,48.7c-0.5,0.2-1.2,0.3-1.9,0.3c-0.8,0-1.4-0.2-2-0.4c-0.6-0.3-1.1-0.8-1.5-1.3s-0.7-1.2-0.9-2
		c-0.2-0.8-0.3-1.7-0.3-2.6c0-0.9,0.1-1.8,0.3-2.6c0.2-0.8,0.5-1.5,0.9-2s0.9-1,1.5-1.3c0.5-0.3,1.2-0.5,1.9-0.5
		c0.8,0,1.4,0.1,1.9,0.4c0.5,0.3,1,0.6,1.3,1.1l-1.2,1.4c-0.5-0.7-1.1-1-1.9-1c-0.4,0-0.8,0.1-1.2,0.4c-0.3,0.3-0.6,0.5-0.8,1
		s-0.4,0.9-0.5,1.4s-0.2,1.1-0.2,1.7c0,0.6,0.1,1.2,0.2,1.8c0.1,0.5,0.3,1,0.5,1.4s0.5,0.7,0.8,0.9s0.7,0.3,1.2,0.3
		c0.3,0,0.5-0.1,0.8-0.1c0.2-0.1,0.4-0.2,0.5-0.3v-3.1H127v-1.8h3.4V48C130.1,48.2,129.6,48.5,129.1,48.7z"/>
	<path class="st0" d="M138,48.7l-3.6-8.6h-0.1l0.1,8.6h-1.9V36.5h2.4l3.5,8.7h0.1v-8.7h1.8v12.2H138z"/>
	<path class="st0" d="M103.1,66.1h-2.4L99,57h-0.1l-1.7,9.1h-2.4l-2.4-12.2h2.2l1.6,9.5h0.1l1.7-9.5h2.2l1.7,9.5h0.1l1.6-9.5h2
		L103.1,66.1z"/>
	<path class="st0" d="M115,60c0,1-0.1,1.8-0.3,2.6c-0.2,0.8-0.5,1.5-0.9,2s-0.9,1-1.4,1.3s-1.2,0.4-1.9,0.4s-1.3-0.2-1.9-0.4
		c-0.5-0.3-1-0.8-1.4-1.3s-0.7-1.2-0.9-2c-0.2-0.8-0.3-1.7-0.3-2.6s0.1-1.8,0.3-2.6c0.2-0.8,0.5-1.5,0.9-2s0.9-1,1.4-1.3
		s1.2-0.4,1.9-0.4s1.3,0.2,1.9,0.4c0.5,0.3,1,0.8,1.4,1.3s0.7,1.2,0.9,2C114.9,58.1,115,59,115,60z M112.9,60c0-0.6-0.1-1.2-0.2-1.8
		c-0.1-0.5-0.3-1-0.4-1.4c-0.2-0.4-0.4-0.7-0.7-0.9c-0.3-0.2-0.6-0.3-1-0.3s-0.7,0.1-1,0.3s-0.5,0.5-0.7,0.9s-0.3,0.9-0.4,1.4
		s-0.2,1.1-0.2,1.8c0,0.6,0.1,1.2,0.2,1.8c0.1,0.5,0.3,1,0.4,1.4c0.2,0.4,0.4,0.7,0.7,0.9c0.3,0.2,0.6,0.3,1,0.3s0.7-0.1,1-0.3
		c0.3-0.2,0.5-0.5,0.7-0.9s0.3-0.9,0.4-1.4C112.8,61.2,112.9,60.6,112.9,60z"/>
	<path class="st0" d="M121.9,66.1l-1.9-5.2h-1.2v5.2h-2V53.9h3.6c0.5,0,1,0.1,1.4,0.2c0.4,0.1,0.8,0.3,1.1,0.6
		c0.3,0.3,0.5,0.6,0.8,1.1c0.2,0.4,0.3,0.9,0.3,1.6c0,0.5-0.1,0.9-0.2,1.2c-0.1,0.4-0.3,0.7-0.5,0.9c-0.2,0.3-0.4,0.4-0.6,0.6
		c-0.2,0.2-0.4,0.3-0.7,0.3l2.3,5.6L121.9,66.1L121.9,66.1z M121.7,57.5c0-0.4-0.1-0.7-0.2-0.9c-0.1-0.3-0.3-0.4-0.4-0.5
		s-0.4-0.2-0.5-0.3c-0.2-0.1-0.4-0.1-0.6-0.1h-1.2v3.8h1.2c0.5,0,0.9-0.2,1.3-0.5C121.5,58.6,121.7,58.1,121.7,57.5z"/>
	<path class="st0" d="M131.3,66.1l-3.3-5.9h-0.1v5.9h-2.2V53.9h2.2v5.3h0.1l3.2-5.3h2.4l-3.7,5.6l3.9,6.6H131.3z"/>
	<path class="st0" d="M140.1,56.3c-0.4-0.5-1-0.8-1.7-0.8c-0.2,0-0.4,0.1-0.6,0.1c-0.2,0.1-0.4,0.2-0.5,0.3
		c-0.2,0.2-0.3,0.3-0.4,0.5c-0.1,0.2-0.1,0.5-0.1,0.8c0,0.5,0.2,0.9,0.5,1.2s0.8,0.5,1.3,0.8c0.3,0.2,0.6,0.3,0.9,0.5
		c0.3,0.2,0.6,0.4,0.9,0.7c0.3,0.3,0.5,0.6,0.6,1c0.2,0.4,0.3,0.8,0.3,1.3c0,0.6-0.1,1.1-0.3,1.6c-0.2,0.4-0.4,0.9-0.8,1.2
		c-0.3,0.3-0.7,0.5-1.2,0.7c-0.4,0.2-0.9,0.3-1.4,0.3c-0.7,0-1.3-0.1-1.9-0.4c-0.6-0.3-1-0.6-1.4-1l1.2-1.5c0.3,0.3,0.6,0.5,1,0.8
		c0.4,0.2,0.8,0.3,1.2,0.3s0.8-0.2,1.1-0.4c0.3-0.3,0.4-0.7,0.4-1.3c0-0.5-0.2-0.9-0.5-1.3c-0.4-0.3-0.8-0.6-1.3-0.9
		c-0.3-0.2-0.6-0.3-1-0.5c-0.3-0.2-0.5-0.4-0.8-0.7c-0.2-0.3-0.4-0.6-0.5-0.9c-0.1-0.4-0.2-0.8-0.2-1.3c0-0.6,0.1-1.2,0.3-1.6
		c0.2-0.4,0.5-0.8,0.8-1.1s0.7-0.5,1.2-0.6c0.4-0.2,0.9-0.2,1.3-0.2c0.6,0,1.2,0.1,1.7,0.3s0.9,0.5,1.3,0.9L140.1,56.3z"/>
</g>
<g>
	<path class="st1" d="M38.6,62.4C38.5,62.4,38.5,62.5,38.6,62.4C38.4,62.6,38.5,62.6,38.6,62.4z"/>
	<path class="st1" d="M80.5-1c0,0-0.8-1.2-0.5,0.9c0.4,2.1,0.4,6.1,0,9c0,0-0.7-1.4-3-3.7c-2.3-2.4-3.5-3.4-3.7-3.1
		c0,0,0.7,1,1.1,1.6c0.4,0.6,5.3,6.2,4,7.4c-1.3,1.2-9-7.7-9.4-9.1c0,0-0.7-0.1-0.4,0.8c0.3,0.9,5.2,8.8,6.1,10.3
		c0,0,0.4,8.8-2.7,12.1c0.6-2.1,1.1-5.6,0-8.5c0,0-0.7-1.3-0.4,0.2c0.3,1.4,0.8,6.6-1.9,9.9c-3.2,2-5.3,3.2-6.5,3.7
		c-1.4,0.6-2.6,1.5-3.9,2.8c-0.3,0.3-0.5,0.5-0.7,0.7c0.6-1,2-3.9,2.4-5.1c0.5-1.3,0.4-4.1,0.4-6.1c-0.1-2,0.2-2.9,0.3-3.2
		c0.2-0.3,0.2-0.6,0.1-0.5c-0.2,0.1-0.4,0.3-0.9,1.2c-0.5,1-0.6,6.3-0.8,7.6c-0.2,1.3-2.4,5-3.7,6.6c-0.1,0-0.2-0.1-0.3-0.1
		c-1.4-0.2-2.2,1-2.7,1.1s-1.9,0.5-2.3,0.1c-0.9-1.1-1.9-1.3-2.8-1.1c-0.9-0.7-1.4-1.2-2.2-3.1c-0.8-2-2.3-4-2.8-5.6
		c-0.4-1.6-0.6-3.1-1-4.8c-0.4-1.7-0.7-3.9-1-3.3C41,18.3,41.5,19,41.7,21s0.4,3.5,0.5,4.5c0.1,1,0.9,3.4,1.7,4.6
		c0.8,1.2,1.5,1.8,1.6,2.8c0.1,0.2,0.1,0.3,0.2,0.5c-0.9-0.8-2.1-1.7-3-2.3c-2.2-1.2-6.9-2.5-7.9-6.6c-0.9-4.1-0.9-7.6-1.3-7.2
		c-0.4,0.3-0.4,2.5-0.2,4.3c0.2,1.8,0.5,4.4,1,5.4c0.3,0.4,1,1.2,1.8,2c-2.3-1.3-4.2-2.6-6.8-5.5c-3.5-3.9-2.8-10.7-1.1-12.3
		c1.7-1.6,4.1-8.7,4.2-9.3c0.2-0.6,0.8-2.1,0.3-1.8c-0.5,0.3-1,2-1.8,2.3c-0.8,0.3-1.2,0.9-1.2,0.9c-0.6,2.9-3.4,6.2-4,7.1
		c-0.6,0.9-1.4,1.5-2.1,1.2c-0.7-0.3-0.7-1.4-0.5-2.2c0.2-0.8,3.1-5.3,4.3-6.8C28.6,1.1,28,0.9,28,0.9c-1.9,1-6.1,7.1-6.1,7.1
		c-1.2-4.3,1-10,1.7-11.3c0.7-1.2,0.2-1.5,0.2-1.5c-4.4,5.3-4.2,9.4-4,12.8c0.3,3.3,3.1,9,5.3,14.6c2.2,5.7,10.8,9.1,13.9,10.2
		c2.8,1,4.3,1.3,6,2.8c0.1,0.1,0.1,0.2,0.2,0.3l0.1,0.6c-0.1,0.2-0.2,0.4-0.3,0.7c-0.2-0.1-0.5-0.3-1-0.7c-1.2-1-4.9-3.3-7.9-3.5
		l-0.4,0.1c0,0,0.1,0.3,0.2,0.8c0.1,0.4,1.4,4.7,3.1,6c1.7,1.4,1.4,0.6,3.1,1.1c0,0,1.2,0.8,1.6,2.3c0,0,0.1,0.5,0.6,0.7
		c0,0.4,0.1,0.9,0.1,1.5c-0.1,0.6-0.8,1-1.2,1.6c-0.4,0.5-2.3,2.7-1.8,2.2s0.7-0.4,0.7-0.2c-0.1,0.2-0.2,1.1-0.9,2.1
		c-0.7,0.9-2.2,3.3-1.8,3.1c0.4-0.3,0.9-0.2,0.9-0.2c-1.9,1-2.8,3.2-2.1,2.3c0.7-0.9,1.6-0.8,1.6-0.8c-1.1,0.8-2.3,4.6-1.7,3.2
		c0.6-1.4,2.1-1.9,2.1-1.9s-1.9,2.6-1.1,1.9s0.4,0.1,0.2,0.2c-0.2,0.2-2.1,3.1-1.5,2.5c0.6-0.6,1.7-0.8,1.5-0.4
		c-0.1,0.3-0.5,1-0.7,1.3c0.3-0.3,1-0.4,1-0.4s0.7,0.5-0.4,1.8c-1.1,1.4-1.1,2.3-1.1,2.3c0.9-1.2,1.8-1.1,1.8-1.1
		c-1,1.1-1.1,3.9-1.1,3.9h30.5c0,0,0.9-3.7,0.4-4.1c-0.5-0.3-0.8-0.7-1.9-0.9c-1.1-0.2-1.4-0.5-2.2-0.9c-0.8-0.4-1.2-1.8-1.2-1.8
		c0.5,0.6,1,0.4,1,0.4c-0.3-0.1-1.1-1.8-1.1-1.8c-1.1-2-0.9-3.4-0.9-3.4c1.1,0.3,1.7,2.2,1.7,2.2s0.3-0.2-0.1-1.1
		c-0.4-0.9-0.9-1.2-0.8-1.4c0.1-0.2,0.9,0.5,0.9,0.5l-0.4-0.7c-0.6-0.8-1.3-3.1-2.2-5.9c-0.9-2.8-1.9-4.4-1.9-4.4s-0.1,0-0.2-0.1
		c0-0.2,0-0.3,0-0.3c0-0.7,1.1-1.6,1.7-2.6c0.1-0.1,0.1-0.3,0.1-0.5c0.3-0.2,0.7-0.5,1.2-0.5c0.9-0.1,3.5-1.1,4.2-2.2
		c0.7-1.1,2.3-4.1,2.3-5.2c-0.1-1-0.7-0.7-1.1-0.6c-0.4,0.1-1.9-0.1-4.3,1.1c-2.3,1.2-3.3,1.6-3.8,2.2c0,0-0.3,0.2-0.6,0.2
		C60,37,60,36.9,60,36.9c-0.1-0.1-0.1-0.3-0.2-0.4c0.4-0.4,1-1,1.8-1.7c2.2-1.3,5.6-3.3,7.9-4.5c3.9-2,9.5-4.8,10.6-10.3
		c1.1-5.5,1.9-8.8,2.4-10.6C82.4,7.8,81.6,0.2,80.5-1z M49.4,39.9c0.2-0.3,0.6-0.6,0.9-0.6c0.1,0,0.3,0,0.3,0.1
		c0.1,0.1,0.2,0.2,0.3,0.3c0.1,0.1,0.1,0.1,0.2,0.2c0.1,0.1,0.1,0.1,0.2,0.2c0.1,0.1,0.2,0.2,0.3,0.3c0.2,0.1,0.4,0.1,0.6,0.1
		c0.3,0,0.6-0.1,0.6-0.2l0.2-0.2c0.4-0.4,0.8-0.6,1.2-0.6c0.2,0,0.4,0.1,0.5,0.2c0.2,0.2,0.3,0.4,0.3,0.7c0,0.1-0.1,0.3-0.1,0.3
		l-0.2,0.2l-0.2-0.2c0,0-0.1-0.2-0.2-0.2c-0.1,0-0.1,0-0.1,0.1c-0.1,0.1-0.3,0.3-0.5,0.4l-0.4,0.4l0,0.4l-1,1.2l-1.1-1.3l0-0.6
		c0,0,0,0,0,0c0,0-0.1,0-0.1-0.1c-0.2-0.2-0.4-0.3-0.4-0.5c-0.1-0.2-0.3-0.4-0.3-0.4c-0.4,0.2-0.6,0.2-0.7,0.2h-0.2V39.9z
		 M50.5,53.6c0,0.1-0.1,0.2-0.3,0.2h-0.1c-0.1,0-0.1-0.1-0.2-0.1c-0.1,0-0.2-0.1-0.2-0.2c0-0.1,0-0.2,0.1-0.4c0-0.1,0.2-0.9,0.8-1
		c0,0,0,0,0,0c0.4,0,0.6,0.2,0.8,0.4c0.2,0.2,0.4,0.4,0.7,0.4c0.4,0,0.5-0.2,0.7-0.4c0.2-0.2,0.4-0.4,0.8-0.4c0.7,0,0.8,0.8,0.8,1.1
		c0.1,0.1,0.1,0.2,0.1,0.3c0,0.1-0.1,0.3-0.4,0.3H54c-0.3,0-0.4-0.3-0.4-0.4c-0.1,0.1-0.1,0.1-0.1,0.2c0,0.1-0.1,0.2-0.3,0.3
		c-0.1,0.3-0.3,0.3-0.6,0.3c-0.2,0-0.5-0.1-0.5-0.1c0,0-0.1,0-0.1,0c-0.1,0-0.2,0.1-0.4,0.1c-0.4,0-0.6-0.2-0.7-0.2
		C50.7,53.8,50.6,53.6,50.5,53.6C50.6,53.5,50.6,53.5,50.5,53.6C50.6,53.5,50.5,53.5,50.5,53.6C50.5,53.5,50.5,53.5,50.5,53.6z
		 M43,40.6l-0.3-0.1c0,0-0.2-0.3-0.9-0.3c-0.2,0-0.3,0-0.5,0.1l-0.2,0c-0.9,0-1.7-0.5-2.6-1.5l-0.3-0.3c-0.3-0.3-1-1.7-2-4l0-0.1
		l0.1-0.2c0,0,0.1-0.1,0.3-0.1c0.1,0,0.2,0,0.3,0.1c0,0,0.1,0.1,0.2,0.3c0.5,0.7,2.2,2.7,3.2,3.5c1.1,1,3,1.3,3.1,1.3l0.3,0L43,40.6
		z M47.1,56.3l-0.3-0.4c0,0-0.7-0.7-1.6-1.7c-1-1.3-1.6-2.3-1.7-3.3c-0.1-0.7,0.4-1.9,0.8-3c0.2-0.5,0.4-1,0.4-1.2l0.2-0.5l0.3,0.3
		l0.1,0.1c0.1,0.1,0.2,0.4,0.1,0.9c-0.1,0.3-0.2,0.6-0.3,1c-0.2,0.7-0.4,1.6-0.5,2.3c-0.1,1.2,1.3,2.9,2,3.6l0.2,0.3
		c0.5,0.6,0.5,1,0.5,1.1l0.1,0.4L47.1,56.3z M47.4,44.4l-0.1,0.3c0,0-0.1,0.2-0.3,0.3c-0.2,0.2-0.6,0.3-0.9,0.3
		c-0.1,0-0.2,0-0.3-0.1c-0.3-0.1-0.6-0.5-0.9-1.1l0,0l0-0.2l0,0l0.1-0.1l0.2-0.2l0.1,0c0,0,0.2,0.1,0.4,0.3c0.3,0.4,0.7,0.6,1.2,0.6
		c0.2,0,0.3-0.1,0.3-0.1l0.4-0.2c0-0.2-0.1-0.5-0.1-0.6c-0.1-0.7-0.3-0.8-0.4-0.8c-0.1,0-0.6-0.4-1.3-0.9c-0.4-0.3-0.7-0.3-1.1-0.3
		h-0.4l0,0.1l-0.2-0.1l0.2-0.6h0.1c0.1-0.1,2-1,2.6-1c0.1,0,0.1,0,0.2,0.1c0,0,0.1,0,0.1,0c0.1,0.1,0.2,0.2,0.2,0.2
		c0,0.1,0,0.2-0.1,0.2c-0.3,0.6,0.4,1.4,0.4,1.4c0,0,0.2,0.3,0.6,0.8c0.3,0.3,0.5,1.2,0.5,2.5c0.1,0.4,0.1,0.8,0.1,1.1
		c0.1,0.5,0.2,0.7,0.5,0.7h0.2l0.2,0.3l-1.1,0.8L48.2,48c-0.1-0.1-0.3-0.4-0.4-0.7c-0.1-0.1-0.2-0.5-0.3-2.4
		C47.5,44.7,47.4,44.5,47.4,44.4z M48.5,56.9c0.1,0.2,0.1,0.6,0,0.7l-0.2,0.2v-0.2h0.1c0,0-0.1,0-0.1,0c-0.1,0-0.1,0-0.2-0.1
		c-0.2-0.2-0.4-1.4-0.4-1.9c0.2-1,0.4-1.9,0.7-2.5l0.2-0.5c0.1-0.2,0.1-0.4,0.2-0.5c0,0,0-0.1,0.1-0.1c0-0.1,0.1-0.2,0.1-0.2
		c0.1-0.3,0.2-0.5,0.3-0.9c0-0.2,0-0.3-0.1-0.4c0-0.1,0-0.1,0-0.2c-0.1,0-0.2-0.2-0.2-0.3c0-0.2,0.2-0.6,0.5-0.6
		c0.2,0,0.2,0,0.2,0.2c0.1,0,0.1,0.1,0.1,0.3l0.1,0.2c0.1,0.3,0.1,0.6,0.1,0.8c0,0,0.1,0.1,0.1,0.1l0.1,0c0.1,0,0.2,0,0.3,0
		c0.2,0,0.5-0.1,1-0.2l0.2,0V51c0,0,0,0.1,0,0.2c-0.1,0.2-0.5,0.5-0.9,0.6c-0.1,0-0.2,0.1-0.3,0.1c-0.1,0-0.2,0-0.2,0.1L50.2,52
		c-0.2,0.1-0.5,0.2-0.6,0.3c-0.3,0.4-0.9,1.6-1,2.1C48.5,55,48.4,56.6,48.5,56.9z M53.8,59.7c0,0-0.1,0.1-0.1,0.1
		c0,0.1-0.1,0.1-0.1,0.2c-0.4,0.5-0.9,1.1-0.9,2.6l-0.3,2.6h-0.5l-0.2-2.6c0-1.5-0.5-2.2-0.8-2.6c-0.2-0.2-0.3-0.3-0.3-0.4l-0.1,0
		l-0.1-0.1l0.3-0.2l0.1,0c0.4,0,0.6,0.2,0.7,0.2c0.2,0.1,0.4,0.2,0.6,0.2c0.3,0,0.5-0.1,0.7-0.2c0.2-0.1,0.4-0.2,0.6-0.2h0.1
		l0.2,0.1l0.1,0.1L53.8,59.7z M53.6,58.1c-0.4,0-0.9-0.2-1.5-0.7c-0.5,0.4-1,0.7-1.5,0.7c-0.9,0-1.7-0.7-1.7-0.9l0.2-0.3l0.1-0.1
		l0.1,0c0,0,0.7,0.4,1.2,0.4h0.1c0.3-0.1,0.6-0.2,0.8-0.3c0,0,0.1-0.1,0.2-0.1c0,0,0,0,0,0l-0.3-0.3l0.7-0.7l0.2,0
		c0.2,0,0.3,0.1,0.6,0.5l0.2,0.2l-0.3,0.3c0,0,0.1,0,0.1,0c0.3,0.2,0.6,0.3,0.9,0.3h0.1c0.6,0,1.2-0.4,1.2-0.4l0.1,0l0.3,0.3
		C55.3,57.4,54.5,58.1,53.6,58.1z M56.3,57.2c-0.2,0.3-0.2,0.3-0.4,0.3c-0.1,0-0.1,0-0.2-0.1h0l-0.1,0c-0.1-0.1-0.1-0.4,0-0.7
		c0.1-0.3,0.1-1.9-0.1-2.4c-0.1-0.5-0.6-1.8-1-2.1c-0.2-0.2-0.5-0.3-0.8-0.4c-0.1,0-0.2-0.1-0.3-0.1c-0.1,0-0.2-0.1-0.3-0.1
		c-0.3-0.2-0.8-0.6-0.8-0.8v-0.1l0.1-0.1h0.1c0.8,0.2,1.2,0.2,1.4,0.2h0.2c0,0,0.1-0.1,0.1-0.1c0.1-0.1,0.1-0.6,0.1-0.8l0-0.2
		c0.1-0.3,0.1-0.5,0.3-0.5l0-0.1c0,0,0,0,0,0c0.3,0,0.5,0.3,0.5,0.6c0,0.1,0,0.1-0.1,0.2c0,0,0,0.1,0,0.1c-0.1,0.2-0.2,0.4-0.1,0.6
		c0,0.3,0.1,0.5,0.2,0.7l0.1,0.1c0.1,0.1,0.1,0.1,0.1,0.2c0.1,0.1,0.1,0.1,0.1,0.2c0,0,0.1,0.2,0.1,0.3c0.1,0.2,0.1,0.4,0.3,0.7
		c0.4,1,0.7,2,0.7,2.5C56.8,55.9,56.5,56.9,56.3,57.2z M61.1,50.8c-0.2,1.1-0.8,2.2-1.7,3.2c-0.8,1-1.6,1.7-1.6,1.7l-0.3,0.3
		L57.3,56l0.1-0.3c0,0,0.1-0.4,0.5-1l0.2-0.3c0.8-1,2-2.5,2-3.6c-0.1-0.9-0.3-1.7-0.5-2.3c-0.1-0.4-0.2-0.7-0.3-1
		c-0.1-0.7,0.1-1,0.1-1l0.3-0.3l0.2,0.5c0,0.1,0.1,0.2,0.2,0.5c0.1,0.2,0.1,0.5,0.2,0.7C60.7,48.9,61.2,50.1,61.1,50.8z M60.1,38.4
		c0,0,0.2-0.1,0.4-0.4c0.1-0.1,0.1-0.1,0.1-0.1l0-0.1c0.3-0.6,0.8-1.6,6-3.1l0.5-0.2L66.9,35c0,0.1-0.1,0.3-1.2,0.7
		c-3.6,1.5-4.3,2.7-4.2,3.4l-0.3,1.1h-0.9l-0.4-1.8H60.1z M59.9,41.1L59.9,41.1L59.9,41.1l0.4,0.8l-0.4-0.2l-0.4,0
		c-0.3,0-0.8,0.1-1.2,0.3c-0.7,0.5-1.2,0.9-1.2,0.9l-0.2,0c0,0-0.3,0.1-0.3,0.8c-0.1,0.2-0.1,0.4-0.1,0.6l0.2,0.1
		c0,0,0.2,0.1,0.4,0.1c0.5,0,0.9-0.2,1.2-0.6c0.2-0.3,0.3-0.3,0.5-0.3c0.2,0,0.2,0,0.2,0.2c0.1,0,0.1,0.1,0.1,0.2l0,0.1l-0.1,0
		c-0.1,0.3-0.4,0.9-0.9,1.1l0,0.1c0,0.1-0.1,0.1-0.2,0.1c-0.4,0-0.8-0.1-1.1-0.3c-0.2-0.1-0.3-0.2-0.3-0.4l0-0.1
		c0,0.2,0,0.3-0.1,0.5c-0.1,0.6-0.1,1.2-0.2,1.6c0,0.4-0.1,0.7-0.1,0.8c-0.2,0.2-0.3,0.4-0.3,0.4L55.7,48l-1.3-0.6l0.2-0.3h0.1
		c0.1,0,0.4,0,0.6-0.7c0.1-0.3,0.1-0.7,0.1-1.1c0.1-1.1,0.2-2,0.5-2.5c0.5-0.5,0.6-0.8,0.6-0.8c0,0,0.7-0.8,0.4-1.4
		c0,0-0.1-0.1-0.1-0.2c0-0.1,0-0.2,0.1-0.2c0.1-0.1,0.2-0.1,0.4-0.1C57.9,40.1,59.8,41,59.9,41.1z"/>
</g>
<g>
	<path class="st1" d="M53.3,16.3c0-0.1,0-0.2,0-0.4c0.1,0,0.1,0,0.1,0c0,0.2,0,0.2,0.1,0.3c0.7-0.1,1.5,0.1,2.1,0.1
		c0.1,0.2,0.1,0.3,0.4,0.3c0.3-0.4,0.4-0.4,0.6-0.8c0.4-0.1,0.6,0,0.9,0.1c0,0.2,0.1,0.3,0.1,0.5c-0.2,0.1-0.2,0.3-0.4,0.4v0.1
		c0.1,0,0.2,0,0.2,0c0.2-0.1,0.5,0,0.7,0.1v-0.1c-0.1-0.1-0.2-0.3-0.3-0.4c0.3-0.1,0.3-0.2,0.6-0.2c0.1,0.1,0.1,0.1,0.2,0.2
		c-0.1,0.2-0.1,0.3,0,0.5c0.1,0,0.2,0,0.2,0c0.2-0.1,0.4,0.1,0.5,0c0.3-0.1,0.3-0.4,0.5-0.5c0.2,0,0.4-0.1,0.6-0.1
		c0.1-0.1,0.1-0.2,0.2-0.2c0.3-0.2,0.7-0.1,1,0V16c-0.1-0.1-0.1-0.1-0.1-0.2c0.2,0,0.3,0.1,0.4,0.1C62,16,62,16,62,16.1
		c-0.1,0.1,0,0-0.1,0.1s-0.2,0.1-0.3,0.1c0.1,0.1,0,0.1,0,0.2c0.1,0,0.1,0,0.1,0c0.1-0.1,0.3-0.2,0.4-0.2c0.1,0.1,0.1,0.1,0.2,0.1
		c0.2-0.3,0.6-0.2,0.9-0.1c-0.1,0.1,0,0-0.1,0.1s-0.2,0.1-0.2,0.1c0.1,0,0.1,0,0.1,0c0.1,0.1,0.4,0.1,0.5,0.1c0,0.1,0,0.2,0,0.3
		c-0.1,0.1,0,0-0.1,0.1c-0.5,0-1,0-1.6,0c-0.1,0.1-0.9,0.2-1,0.2c0-0.2,0.1-0.1-0.1-0.2c-0.1,0.1-0.4,0.1-0.6,0.1
		c-0.1,0.2-0.1,0.2-0.2,0.2c-0.1-0.2-0.1-0.2-0.3-0.3c0,0.1,0,0.1,0,0.2c-0.2,0-0.4-0.1-0.5,0c-0.2,0.1-0.2,0.1-0.2,0.4
		c-0.4,0-0.4-0.2-0.6-0.2c-0.1,0.1-0.3,0.2-0.5,0.2l-0.1-0.1c0-0.1,0.1-0.1,0.1-0.2c-0.3-0.1-0.2-0.1-0.5-0.2
		c0.1,0.3,0.1,0.2,0.1,0.4c-0.3-0.1-0.6-0.3-0.9-0.2c-0.2,0.1-0.2,0.2-0.4,0.2c0-0.1,0-0.1,0-0.2c-0.1-0.1-0.1-0.1-0.2-0.2
		c-0.6,0.4-1.4,0-1.9-0.2s-1.1,0.2-1.4-0.2c0.2-0.1,0.2-0.1,0.2-0.2c-0.1,0-0.1,0-0.2,0c-0.1,0.2-0.3,0.1-0.5,0.2c0,0.1,0,0.1,0,0.2
		c-0.5,0-2.4,0.2-2.7-0.1c0.2-0.1,0.1-0.1,0-0.3l0.1-0.1c0.5,0,0.5-0.1,0.9-0.2c0.1,0.1,0.3,0.2,0.4,0.4c0.1-0.2,0.2-0.2,0.4-0.2
		c0,0.1,0,0.1,0,0.2c-0.2,0-0.1-0.1-0.2,0c-0.1,0.1,0,0-0.1,0.1c0.1,0,0.1,0,0.2,0c0.7-0.6,1.2-1,1.7-1.7c0.2-0.2,0.4-0.3,0.5-0.4
		c0.4-0.5,0.7-1.1,1.4-1.4v0.1c-0.3,0.2-0.5,0.6-0.7,0.9c-0.1,0.1-0.2,0.2-0.4,0.2c-0.1,0.2-0.3,0.6-0.5,0.7c-0.1,0-0.2,0.1-0.2,0.1
		c-0.1,0.1-0.1,0.2-0.1,0.3c-0.3,0.4-0.8,0.8-1.1,1.1c0,0.1,0,0.1,0,0.1c0.1,0,0.1,0,0.1,0c0.2-0.3,0.4-0.6,0.9-0.6
		c0.2,0.2,0.2,0.2,0.4,0.2C53.1,16.4,53,16.4,53.3,16.3z"/>
	<path class="st1" d="M43.1,13.7c0.1,0,0.2,0,0.4,0c0.1,0.2,0.2,0.2,0.2,0.4h-0.1c-0.1,0.2-0.3,0.2-0.4,0.4
		c-0.1-0.1-0.2-0.1-0.3-0.1c-0.1-0.1,0,0-0.1-0.1C43,14,43,13.8,43.1,13.7z"/>
	<path class="st1" d="M45.7,13.7C45.8,13.7,45.8,13.7,45.7,13.7c0.1,0.1,0.1,0.1,0.1,0.1c-0.1,0-0.1,0-0.1,0S45.7,13.8,45.7,13.7z"
		/>
	<path class="st1" d="M45.6,13.9C45.7,13.9,45.7,13.9,45.6,13.9l0.1,0.1C45.6,14,45.6,14,45.6,13.9z"/>
	<path class="st1" d="M49,14C49.1,14,49.1,14,49,14c0.1,0.1,0.1,0.1,0.1,0.1c-0.1,0-0.1,0-0.1,0V14z"/>
	<path class="st1" d="M46.7,14.2c0.1,0,0.2,0,0.2,0c0.1,0.1,0.1,0.2,0.1,0.4c-0.1,0.1,0,0-0.1,0.1s-0.1,0-0.1,0.1
		c-0.2-0.1-0.3-0.1-0.4-0.2c0-0.1,0.1-0.1,0.1-0.2C46.5,14.3,46.6,14.2,46.7,14.2z"/>
	<path class="st1" d="M44.1,14.3c0.2,0.1,0.2,0,0.2,0.2c-0.1,0.1-0.1,0-0.1,0.1c-0.1-0.1-0.1,0-0.1-0.1C44,14.4,44,14.4,44.1,14.3z"
		/>
	<path class="st1" d="M39.7,14.3c0.2,0.1,0.1-0.1,0.2,0.1c-0.1,0-0.1,0-0.2,0C39.7,14.4,39.7,14.4,39.7,14.3z"/>
	<path class="st1" d="M48.8,14.3c0.1,0,0.2,0,0.2,0c0,0.1,0,0.1,0,0.1h-0.1c-0.1,0.1-0.1,0.1-0.2,0.1C48.8,14.4,48.8,14.4,48.8,14.3
		z"/>
	<path class="st1" d="M41.2,14.4c0.2,0.1,0.1-0.1,0.2,0.1c-0.1,0-0.1,0-0.2,0C41.2,14.5,41.2,14.5,41.2,14.4z"/>
	<path class="st1" d="M39.3,14.6c0.2,0.1,0.1-0.1,0.2,0.1c-0.1,0-0.1,0-0.2,0C39.3,14.7,39.3,14.6,39.3,14.6z"/>
	<path class="st1" d="M49.1,14.6c0.1,0,0.1,0,0.2,0c0,0.1,0,0.1,0,0.2c-0.1,0-0.1,0-0.2,0C49.1,14.7,49.1,14.7,49.1,14.6z"/>
	<path class="st1" d="M51,14.6c0.2,0.1,0.1-0.1,0.2,0.1c-0.1,0-0.1,0-0.2,0C51,14.7,51,14.6,51,14.6z"/>
	<path class="st1" d="M33.4,14.7c0.2,0,0.2,0.1,0.2,0.1c0,0.1,0,0.1,0,0.1c-0.1,0-0.2,0-0.3,0C33.4,14.8,33.4,14.8,33.4,14.7z"/>
	<path class="st1" d="M42.5,14.7C42.6,14.7,42.6,14.7,42.5,14.7L42.5,14.7l0.1,0.1C42.5,14.8,42.5,14.8,42.5,14.7z"/>
	<path class="st1" d="M52.9,14.7c0,0.1,0,0.1-0.1,0.2C52.7,15,52.7,15,52.6,15c0-0.1,0-0.1,0-0.1C52.8,14.8,52.8,14.7,52.9,14.7z"/>
	<path class="st1" d="M49.8,14.8c0.1,0.1,0.1,0.1,0.2,0.2c-0.2,0.1-0.2,0.2-0.5,0.2c0-0.1,0-0.1,0-0.1
		C49.6,14.9,49.7,14.9,49.8,14.8z"/>
	<path class="st1" d="M54.7,14.8c0.1,0.2,0.1,0.1-0.1,0.2C54.6,14.9,54.6,14.9,54.7,14.8z"/>
	<path class="st1" d="M35.1,15c0,0.2-0.1,0.2-0.1,0.2c-0.1-0.1-0.1,0-0.1-0.1c-0.2-0.1-0.1,0-0.1-0.1C34.9,15,35,15,35.1,15z"/>
	<path class="st1" d="M44.9,15c0,0.1,0,0.2,0,0.2l-0.1,0.1c-0.3,0-0.3,0.1-0.6,0.1c-0.1-0.1-0.3-0.2-0.4-0.3C44,15,44,15,44.1,14.9
		C44.3,15.2,44.6,15,44.9,15z"/>
	<path class="st1" d="M40.3,15.2c0.2,0.1,0.1,0,0.1,0.2l-0.1,0.1l-0.1-0.1C40.2,15.2,40.2,15.3,40.3,15.2z"/>
	<path class="st1" d="M48.8,15.2C48.9,15.2,48.9,15.2,48.8,15.2c0.1,0.1,0.1,0.1,0.1,0.1c-0.1,0-0.1,0-0.1,0
		C48.8,15.2,48.8,15.2,48.8,15.2z"/>
	<path class="st1" d="M42.5,15.2c0.1,0,0.1,0,0.2,0c0.1,0.1,0.1,0.1,0.1,0.1c0,0.1,0,0.1,0,0.1c-0.1,0-0.1,0-0.1,0
		c-0.1,0.1-0.1,0.1-0.2,0.1C42.4,15.3,42.4,15.4,42.5,15.2z"/>
	<path class="st1" d="M30.3,15.3c0.1,0.1,0.1,0.1,0,0.1C30.3,15.3,30.3,15.3,30.3,15.3z"/>
	<path class="st1" d="M34.4,15.3c0.2,0.1,0.1-0.1,0.2,0.1C34.4,15.3,34.5,15.4,34.4,15.3z"/>
	<path class="st1" d="M42.5,16c0,0.1,0,0.1,0.1,0.2s0,0,0.1,0.1s0.2,0.1,0.3,0.1c0,0.1,0,0.2,0,0.2c-0.2,0.1-0.3,0.1-0.3,0.3h0.1
		L42.7,17c0.1,0,0.3,0,0.6,0c0-0.1-0.1-0.2-0.1-0.3c0.4-0.1,0.4-0.3,0.8-0.4c0.1,0.1,0,0,0.1,0.1c0,0.1,0,0.1,0,0.2
		c-0.2,0.1-0.3,0.2-0.4,0.3c0.1,0.1,0.1,0.1,0.1,0.1h-0.1c-0.3,0.3-1,0.3-1.4,0.5c-0.1,0,0-0.2-0.2-0.1v0.1
		c-0.2,0.1-0.4,0.1-0.6,0.1c-0.1,0.1-0.1,0.1-0.1,0.2c-0.3,0.1-1.2-0.2-1.5-0.2c-0.3-0.1-0.8,0.2-0.9,0.2c-0.6,0.1-1.1-0.3-1.7-0.2
		c-0.1,0-0.3,0.2-0.3,0.2c-0.4,0.1-0.6-0.2-1-0.1c-0.2,0.1-0.4,0.2-0.5,0.2c-0.2,0-0.4-0.1-0.6-0.1c-0.1,0.1-0.2,0.3-0.2,0.3
		c-0.5,0.2-1.1-0.2-1.4-0.1c-0.1,0.1-0.2,0.3-0.2,0.3c-0.1,0-0.2,0-0.3,0c-0.1,0.1-0.1,0.2-0.2,0.2c-0.1,0-0.2,0-0.3,0
		c-0.2,0.1-0.2,0.4-0.5,0.6c0.1,0.2,0.1,0.3,0.2,0.5c-0.1,0-0.1,0-0.2,0c0,0.1,0,0.1,0,0.2c0.3,0.1,0.4,0.3,0.5,0.5
		c-0.1,0-0.2,0-0.4,0c-0.1,0.1-0.1,0-0.2,0c0,0.1,0,0.1,0,0.2c0.1,0,0.2,0,0.2,0l0.1,0.1c0,0.1,0,0.1,0,0.1c-0.1,0-0.1,0-0.2,0
		c-0.1-0.1,0,0-0.1-0.1c0,0.1,0,0.2,0,0.3c-0.1,0.1,0.3,0.9,0.3,1c0.1,0.1,0.1,0.1,0.2,0.1c-0.1,0.1-0.1,0.1-0.2,0.1
		c-0.1,0.1,0.1,0.2,0.1,0.2c0,0.1-0.1,0.2-0.1,0.2c-0.1,0.1-0.1,0.1-0.2,0.1c0,0.5-0.2,0.6-0.2,1c-0.1,0-0.1,0-0.2,0
		c-0.1,0.2-0.2,0.2-0.2,0.3c0.1,0.1,0.1,0.1,0.1,0.2c-0.1,0-0.1,0-0.2,0.1c0.3,0.4,0,0.4,0.1,0.7c0.2,0.2,0.1,0.2,0.1,0.4
		c-0.1,0-0.1,0-0.2,0c-0.3,1.4-0.2,3.5-0.2,5.3c-0.1,0.1-0.1,0.1-0.2,0.1c-0.1-0.1,0,0-0.1-0.1c0.1-0.2-0.2-0.4-0.1-0.6
		c0.1-0.4,0.2-0.4,0.2-0.9L30.6,29c-0.2,0-0.3,0.1-0.5,0C30,28.9,30,28.9,30,28.8c-0.2-0.1-0.4,0.2-0.6,0.2
		c-0.2-0.2-0.3-0.2-0.3-0.4c0.1-0.1,0.1-0.2,0.1-0.2c0.6-0.1,0.7,0.2,1.2,0.3c0.1-0.1,0.1-0.2,0.2-0.2c-0.2-0.1-0.4-0.2-0.6-0.2
		c0-0.1-0.1-0.2-0.1-0.3c0.2-0.1,0.1,0,0.1-0.1c-0.2-0.1-0.3-0.1-0.4-0.2c0.3-0.2,0.4-0.4,0.7-0.5l0.7-0.6c-0.1-0.2-0.2-0.1-0.4-0.1
		c-0.2,0.2-0.4,0.2-0.7,0.2c0-0.1,0-0.1,0-0.1c0.2-0.1,0.3-0.2,0.4-0.3c-0.1,0-0.1,0-0.1,0c-0.1,0.1-0.1,0.1-0.2,0.1
		c-0.1-0.1,0,0-0.1-0.1c0.2-0.1,0.5-0.2,0.6-0.4c-0.1,0-0.1,0-0.2,0c-0.1,0.1-0.3,0-0.5,0.1s-0.6,0.2-0.8,0.3
		c-0.1-0.1-0.1-0.1-0.1-0.3c0.4,0,0.8-0.2,1.1-0.3c0-0.1,0.1-0.1,0.1-0.2c-0.3,0-0.4,0-0.5,0c-0.1-0.1-0.1-0.1-0.1-0.2
		c0.1-0.1,0.1-0.1,0.2-0.1c-0.2-0.1-0.5-0.2-0.6-0.3c0.3,0,1.4,0.2,1.4,0.1c0.1-0.1,0,0,0.1-0.1c-0.2-0.1-0.1-0.1-0.1-0.2
		c-0.1-0.1-0.2-0.1-0.3-0.2c0.3-0.2,0-0.5,0.1-0.9c0.1,0,0.1-0.1,0.1-0.1c-0.1-0.2-0.4-0.5-0.5-0.8c-0.1-0.1,0.1-0.1,0.1-0.2
		c0.1-0.2-0.1-0.2-0.1-0.2C30,22.1,30,22,30,21.7c-0.1,0-0.2,0-0.4,0c0-0.1,0-0.1,0-0.1l0.1-0.1c0.2,0,0.2,0.1,0.3,0v-0.1
		c-0.2,0-0.5-0.1-0.7-0.1c-0.2,0.1-0.2,0.2-0.4,0.2c-0.3-0.1-0.5-0.2-1-0.1c0,0.2-0.1,0.2-0.1,0.2c-0.1,0-0.1,0-0.1,0
		c-0.1-0.3-0.6-0.3-1-0.3c0-0.1,0-0.1,0-0.1c0.8,0,0.9-0.1,1.5-0.2c0.1,0.2,0.1,0.1,0.2,0.2c0.1-0.2,0.3-0.3,0.5-0.4
		c0,0.1,0,0.1,0,0.1C28.8,21,28.7,21,28.7,21l0.1,0.1v0.1c0.4,0,0.8,0,1.2,0c0.1-0.1,0.1-0.3,0.1-0.5c-0.1-0.1,0-0.2,0-0.4
		c-0.3-0.1-0.7-0.1-1.1-0.1c-0.1-0.1-0.1-0.1-0.2-0.1l-0.1,0.1c0,0.2,0,0.1,0,0.2c-0.1,0-0.2,0-0.2,0c0-0.1,0-0.1,0-0.1
		c0.1-0.1,0.1-0.1,0.1-0.2c-0.1,0-0.2,0-0.3,0c-0.1,0.2-0.2,0.2-0.5,0.2c-0.3-0.5-0.5-0.2-0.7-0.5c0.3,0,0.5,0,0.7,0
		c0.3,0.2,1.5,0.2,2,0.2c0.1-0.1,0.1-0.1,0.1-0.2c-0.2-0.1-0.2-0.1-0.2-0.2c0.3,0,0.2,0.1,0.3-0.1c-0.2,0-0.1,0-0.2-0.1
		c-0.1,0.1-0.1,0.1-0.2,0.1c0-0.1,0-0.1,0-0.2c0.1-0.1,0.1-0.1,0.1-0.2c0.3,0,0.3-0.1,0.6-0.1c0-0.2-0.3-1-0.4-1c-0.8,0-1.6,0-2.4,0
		c-0.2-0.1-0.9-0.2-1.2-0.2c0-0.1,0-0.1,0-0.1c1.3,0.1,2.4,0.1,3.7,0.1c0-0.1,0.1-0.1,0.1-0.2s0.1-0.2,0.1-0.3c-0.2,0-0.4,0-0.5,0
		c-0.3-0.2-0.9,0-1.4-0.1c-0.4-0.1-1-0.2-1.6-0.2c0-0.1,0-0.1,0-0.1c0.9-0.1,2.3,0.2,3.2,0c0.5-0.1,1.1,0.1,1.4-0.3
		c-0.6,0-1.2,0-1.8,0c-0.3-0.2-1.2,0-1.4-0.1c-0.1-0.1,0,0-0.1-0.1c0.1,0,0.1,0,0.1,0c0.3-0.2,0.8,0.1,1.1,0c0.8-0.2,1.9,0,2.9,0
		v-0.1c-0.2-0.1-0.7-0.5-0.7-0.6l0.1-0.1c0.4,0.2,0.2-0.1,0.4,0c0.3,0.1,0.6,0.5,0.8,0.7c0.3-0.1,0.7,0.1,1-0.1
		c0.9-0.2,2.1-0.4,3.2-0.4c0-0.1,0-0.1,0-0.1c-0.2-0.1-0.2-0.3-0.3-0.4c0.1-0.1,0.1-0.1,0.2-0.1c0.2,0.3,0.5,0.4,0.5,0.7
		c0.4,0.1,0.5,0.2,0.9,0.2c0.2-0.3,0.3-0.4,0.7-0.4c0.1-0.1,0.1-0.1,0.3,0c0.1,0.2,0.1,0.4,0.2,0.5c0.1-0.1,0.1-0.2,0.1-0.2
		c0.3,0.2,0.6,0.3,0.9,0.2c0-0.1,0-0.2,0-0.2c0.3,0,0.4,0.1,0.5,0.1c0.3-0.1,0.5-0.3,0.7-0.4c0.1,0.2,0.4,0.5,0.6,0.5
		C42.3,16.1,42.4,16.1,42.5,16c0.1,0,0,0.1,0.1,0c-0.2-0.2-0.1-0.2-0.4-0.3c-0.1,0.2-0.1,0.1-0.2,0.2c-0.1-0.4-0.2-0.4-0.2-0.7
		c0.2-0.1,0.3-0.2,0.4-0.3V15c0.1,0.1,0.1,0.2,0.1,0.4c-0.1,0.1-0.1,0.1-0.1,0.2c0,0.1,0.1,0.1,0.1,0.2C42.3,16,42.4,16,42.5,16z"/>
	<path class="st1" d="M53.6,16c0-0.3,0.1-0.4,0.2-0.5c0.1,0,0-0.1,0.1,0s0.1,0.3,0.1,0.4C53.8,15.9,53.8,16,53.6,16z"/>
	<path class="st1" d="M54.7,15.4c0.1,0,0.1,0.1,0.2,0.1c0,0.1,0,0.1,0,0.1c-0.1,0.1-0.1,0-0.1,0.1c-0.1-0.1-0.1,0-0.1-0.1
		c-0.1-0.1,0,0-0.1-0.1C54.7,15.5,54.7,15.5,54.7,15.4z"/>
	<path class="st1" d="M56.4,15.5c0,0.1,0,0.2,0,0.2c-0.2,0-0.2,0-0.4,0c0-0.1-0.1-0.1-0.1-0.2c0.1,0,0.1-0.1,0.2-0.1
		C56.2,15.4,56.2,15.5,56.4,15.5z"/>
	<path class="st1" d="M30.6,15.5c0.1,0,0.1,0,0.2,0c0.1,0.1,0.2,0.2,0.3,0.4c0,0.1,0,0.1,0,0.1C31,16,31,16,31,16
		C30.7,15.8,30.6,15.8,30.6,15.5z"/>
	<path class="st1" d="M59.3,15.9c0,0.1,0,0.2,0,0.2c-0.1,0.1-0.2,0.1-0.2,0.2c-0.1,0-0.1-0.1-0.2-0.1c-0.1-0.1,0-0.1-0.1-0.1
		c0.1-0.2,0.1-0.2,0.1-0.3c-0.1,0-0.2,0-0.2,0c-0.1,0.1-0.1,0.1-0.2,0.1c0-0.1,0-0.1,0-0.1c0.3-0.2,0.4-0.4,0.7-0.4
		c0.2,0.2,0.3,0.2,0.5,0.1c0,0.1,0,0.1,0,0.1c-0.1,0-0.1,0-0.1,0c-0.2,0.2-0.4,0.1-0.6,0.1l0.1,0.1C59.1,15.9,59.1,15.9,59.3,15.9z"
		/>
	<path class="st1" d="M52.4,15.5c0.1,0.1,0.1,0.1,0.1,0.2c-0.1,0-0.1,0-0.1,0S52.4,15.6,52.4,15.5z"/>
	<path class="st1" d="M41.3,15.6c0.1,0,0.1,0,0.2,0c0.1,0.2,0.2,0.2,0.2,0.4c-0.2,0.1-0.2,0.2-0.4,0.1s-0.2,0-0.2-0.2
		C41.2,15.9,41.2,15.7,41.3,15.6z"/>
	<path class="st1" d="M46.2,15.7C46.3,15.7,46.3,15.7,46.2,15.7l0.1,0.1C46.3,15.7,46.3,15.8,46.2,15.7z"/>
	<path class="st1" d="M49.2,15.7c0.1,0,0.2,0,0.2,0v0.1l-0.1,0.1c-0.1,0-0.1,0.1-0.2,0.1C49.2,15.8,49.2,15.8,49.2,15.7z"/>
	<path class="st1" d="M38.5,15.8c0.2,0,0.2,0.1,0.2,0.1L38.6,16c0,0,0,0-0.1,0C38.5,15.9,38.5,15.9,38.5,15.8z"/>
	<path class="st1" d="M45,15.8c0.2,0.1,0.1-0.1,0.2,0.1c-0.1,0-0.1,0-0.2,0C45,15.9,45,15.9,45,15.8z"/>
	<path class="st1" d="M48.1,15.8c0.1,0,0.2,0,0.3,0c0,0.1,0,0.1,0,0.1L48.3,16C48.2,15.9,48.1,15.9,48.1,15.8z"/>
	<path class="st1" d="M37.4,15.9c0.1,0.1,0,0,0.1,0.1h-0.1V15.9z"/>
	<path class="st1" d="M44.4,15.9C44.5,15.9,44.5,15.9,44.4,15.9C44.4,16,44.4,15.9,44.4,15.9z"/>
	<path class="st1" d="M65.2,16.8c0-0.2,0.1-0.2,0.1-0.2l0.1,0.1c0.1,0.1,0.1,0.3,0.1,0.5c-0.1,0-0.2,0-0.3,0c-0.3,0.2-1.2,0.1-1.6,0
		c-0.1-0.1,0-0.1-0.1-0.1c0.2-0.3,0.3-0.3,0.4-0.6c-0.1,0-0.1,0-0.2,0c-0.1,0.1-0.2,0.1-0.4,0.1v-0.1h0.1c0.2-0.1,0.5,0,0.6-0.1
		c0.2-0.1,0.1-0.2,0.3-0.3c0,0.1,0,0.1,0,0.1c-0.1,0.2-0.1,0.3-0.2,0.5s-0.3,0.1-0.4,0.4c0.1,0,0.1,0,0.1,0c0.2-0.2,0.3-0.2,0.5-0.2
		c0.1-0.1,0-0.2,0.1-0.2C64.7,16.6,65,16.7,65.2,16.8z"/>
	<path class="st1" d="M54.9,15.9C55,16,55.1,16,55,16.1S54.9,16,54.9,15.9z"/>
	<path class="st1" d="M47,16c0.1,0,0.2,0,0.2,0l0.1,0.1c0,0.1,0,0.1,0,0.1c-0.1,0-0.2,0-0.3,0C47,16.1,47,16,47,16z"/>
	<path class="st1" d="M39.4,16c0.1,0.1,0.1,0.1,0.1,0.2c-0.1,0-0.1,0-0.2,0C39.3,16.2,39.4,16.1,39.4,16z"/>
	<path class="st1" d="M44.6,16.1c0.2,0,0.2,0.1,0.2,0.1c0,0.1,0,0.1,0,0.1c-0.1,0-0.1,0-0.2,0v-0.1C44.6,16.2,44.7,16.2,44.6,16.1z"
		/>
	<path class="st1" d="M55.8,16.2c0.1,0,0.1,0.1,0.2,0.1l-0.1,0.1c-0.1,0-0.1,0.1-0.2,0.1C55.8,16.3,55.8,16.2,55.8,16.2z"/>
	<path class="st1" d="M66,16.2C66.1,16.2,66.1,16.2,66,16.2c0.1,0.1,0.1,0.1,0.1,0.1c-0.1,0-0.1,0-0.1,0C66,16.3,66,16.2,66,16.2z"
		/>
	<path class="st1" d="M47.5,16.3C47.6,16.3,47.6,16.3,47.5,16.3l0.1,0.1C47.5,16.3,47.5,16.3,47.5,16.3z"/>
	<path class="st1" d="M48.8,16.3c0.2,0.1,0.1-0.1,0.2,0.1c-0.1,0-0.1,0-0.2,0C48.8,16.3,48.8,16.3,48.8,16.3z"/>
	<path class="st1" d="M65,16.3c0.1,0,0.1,0.1,0.2,0.1v0.1C65,16.3,65,16.4,65,16.3z"/>
	<path class="st1" d="M79.4,16.3c0.1,0,0.1,0,0.2,0c0.1,0.1,0.1,0.1,0.1,0.3c-0.1,0-0.1,0-0.2,0C79.4,16.4,79.4,16.4,79.4,16.3z"/>
	<path class="st1" d="M78.9,16.3c0.1,0,0.2,0,0.2,0c0.1,0.1,0.1,0.1,0.1,0.3c-0.1,0.1-0.1,0.1-0.2,0.1c-0.1-0.1,0,0-0.1-0.1
		s0-0.1-0.1-0.1C78.8,16.4,78.9,16.4,78.9,16.3z"/>
	<path class="st1" d="M31.7,16.4c0.1,0.1,0.1,0.1,0.2,0.1v-0.1C31.8,16.4,31.7,16.4,31.7,16.4z"/>
	<path class="st1" d="M52.8,16.4C52.9,16.4,52.9,16.4,52.8,16.4l0.1,0.1C52.9,16.4,52.9,16.4,52.8,16.4z"/>
	<path class="st1" d="M53.3,16.4c0.1,0.1,0.2,0.2,0.1,0.1C53.3,16.4,53.4,16.4,53.3,16.4z"/>
	<path class="st1" d="M39.9,16.4C40,16.4,40,16.4,39.9,16.4C39.9,16.5,40,16.5,39.9,16.4z"/>
	<path class="st1" d="M48.6,16.4C48.7,16.4,48.7,16.4,48.6,16.4L48.6,16.4l0.1,0.1C48.6,16.5,48.6,16.5,48.6,16.4z"/>
	<path class="st1" d="M65,16.4c0.1,0,0.1,0,0.2,0.1C65,16.5,65,16.5,65,16.4z"/>
	<path class="st1" d="M65.9,16.4C66,16.4,66,16.4,65.9,16.4c0.1,0.1,0.1,0.1,0.1,0.1c-0.1,0-0.1,0-0.1,0S65.9,16.5,65.9,16.4z"/>
	<path class="st1" d="M49.5,16.5c0.2,0.1,0.1-0.1,0.2,0.1l-0.1,0.1l-0.1-0.1C49.5,16.5,49.5,16.6,49.5,16.5z"/>
	<path class="st1" d="M72.1,17.7c0,0.1,0,0.2,0,0.3l0.1,0.1c0.4,0,0.4,0.1,0.6,0.1l-0.1,0.1c-0.2,0.2-0.4,0.1-0.6,0
		c0,0.1,0,0.1,0,0.1h0.1c0.1,0.1,0.2,0.1,0.2,0.2c-0.2,0.1-0.3,0.1-0.4,0.2c0-0.2-0.1-0.2-0.1-0.2c-0.2,0.1-0.2,0.2-0.4,0.2
		c-0.1-0.2-0.1-0.1-0.2-0.2c0.1-0.1,0.1-0.1,0.2-0.1c-0.2,0-0.8-0.1-0.8-0.1c-0.2-0.1-0.1,0-0.1-0.1c0.2-0.1,0-0.1,0.1-0.2
		c0.1,0.1,0.3,0.1,0.4-0.1c-0.1-0.1-0.3-0.1-0.5-0.1c0-0.1-0.1-0.1-0.1-0.2c-0.2-0.1-0.2,0.2-0.3,0.1c-0.2-0.1-0.3-0.3-0.7-0.3
		c0,0.1,0,0.2,0,0.2c-0.4-0.1-0.4-0.3-0.8-0.3c0-0.1,0-0.2,0-0.3c-0.2-0.1-0.3-0.1-0.4-0.2l0.1-0.1c0.3,0.1,0.3,0.1,0.6,0.1
		c0-0.2,0-0.2,0.1-0.3c0.1,0.1,0.1,0.2,0.1,0.2c0.3,0.2,0.7-0.1,0.9,0c0.2,0,0.4,0.2,0.6,0.2c0.1,0,0.3-0.2,0.5-0.1s0.3,0.2,0.5,0.2
		c0.1-0.2,0.1-0.1,0.2-0.2c0.1,0.2,0.2,0.4,0.3,0.5c-0.2,0-0.2,0-0.2,0.1C72.1,17.6,72.1,17.6,72.1,17.7c0.2-0.1,0.2-0.1,0.3-0.1
		c0.1,0.1,0.1,0.1,0.1,0.2C72.2,17.7,72.1,17.7,72.1,17.7z"/>
	<path class="st1" d="M80,16.5c0.2,0.1,0.2,0.1,0.2,0.2h-0.1c-0.1,0.1-0.1,0.1-0.2,0.1C80,16.6,80,16.7,80,16.5z"/>
	<path class="st1" d="M46,16.5c0.1,0.1,0,0,0.1,0.1H46C46,16.7,46,16.6,46,16.5z"/>
	<path class="st1" d="M48.7,16.7c0.1,0,0.2,0,0.3,0c0,0.1,0,0.1,0,0.1c-0.1,0-0.1,0-0.1,0c-0.1,0.1-0.1,0.1-0.2,0.1
		C48.7,16.8,48.7,16.7,48.7,16.7z"/>
	<path class="st1" d="M64.6,16.7c0.1,0.1,0,0,0.1,0.1C64.7,16.7,64.7,16.7,64.6,16.7z"/>
	<path class="st1" d="M45.6,16.7c0.1,0,0.2,0,0.2,0v0.1h-0.1C45.7,16.8,45.7,16.8,45.6,16.7z"/>
	<path class="st1" d="M27.5,16.8c0.1,0,0.1,0.1,0.2,0.1V17c-0.1,0-0.1,0-0.2,0C27.5,16.8,27.5,16.8,27.5,16.8z"/>
	<path class="st1" d="M66.2,16.9c0.2-0.1,0.2-0.1,0.4-0.1l0.1,0.1c-0.2,0.2-0.1,0.3-0.5,0.3v-0.1C66.2,17,66.2,17,66.2,16.9z"/>
	<path class="st1" d="M81.3,17.4c-0.1-0.3-0.1-0.2-0.1-0.5l0.1-0.1c0.5,0.2,0.3,0.4,0.6,0.6c0.1,0,0.2,0,0.2,0
		c0.1,0.1,0.1,0.3,0.2,0.4c0.1,0,0.2,0,0.3,0c0.1,0.1,0,0.2,0.2,0.3c0-0.1,0-0.1,0-0.1c0.1-0.1,0.3-0.3,0.4-0.5
		c-0.2-0.1-0.1,0-0.1-0.1c0.1,0,0.2-0.1,0.3-0.1c0.1,0.1,0,0.4,0.1,0.5c0.2,0.3,0.3,0,0.2,0.5c-0.2,0.1-0.7,0.3-0.7,0.3
		c0.5,0,0.7,0.2,1,0.1c0.1,0.2,0.1,0.2,0.1,0.3c-0.3,0-0.5,0-0.7,0.1c0,0.1,0,0.1,0,0.2c0.2,0.1,0.2,0,0.2,0.2l-0.1,0.1
		c-0.1,0-0.1,0-0.2,0c0-0.1-0.1-0.2-0.1-0.3c-0.1,0-0.1,0-0.1,0v0.1c-0.2,0.1-0.2,0.1-0.3,0.1c0.1,0.1,0,0,0.1,0.1s0.2,0.1,0.3,0.2
		h-0.1c-0.2,0.1-0.4,0.2-0.6,0.2c-0.1-0.2-0.1-0.3-0.2-0.5v0.1c-0.1,0.1-0.2,0.3-0.2,0.6c0.2-0.1,0.4-0.1,0.6-0.1c0,0.1,0,0.1,0,0.2
		c-0.2,0-0.2,0-0.3,0.1c0.1,0.1,0.1,0.1,0.1,0.2c-0.2,0-0.5,0-0.7,0.1c0.6,0,0.7,0.2,1.1,0.1v0.1H83c-0.2,0.2-0.7,0.2-0.8,0.4
		c0.2,0.3,0.1,0.4,0.1,0.6c0.1,0,0.1,0,0.1,0c0.1-0.2,0-0.1,0.2-0.1c0.1,0.1,0.1,0.1,0.2,0.1c-0.1,0.2-0.1,0.2-0.1,0.4
		c0.1,0,0.1,0,0.2,0c0,0.1,0,0.2,0,0.2c0.1,0,0.2,0,0.3,0c0.1,0.2,0.3,0.3,0.4,0.4c-0.2,0.3-0.2,0.9-0.4,1c-0.1,0.1-0.2,0-0.3,0.1
		H83c0.1,0.1,0.2,0.1,0.4,0.1c0.2-0.3,0.7-0.2,0.9,0L84,23.8c-0.3,0.2-0.6-0.1-0.9,0.1c0,0.2,0.1,0.1-0.1,0.2
		c-0.1,0.1-0.1,0.1-0.2,0.1C82.7,24,82.7,24,82.6,24v0.1h-0.1c0.1,0.2,0.1,0.1,0.1,0.4c0.1,0,0.2,0,0.2,0v0.1
		c-0.1,0.1-0.1,0-0.1,0.1c0.1,0.1,0.1,0.1,0.4,0.1C83,25.1,83,25.1,83,25.4c-0.1,0-0.1,0-0.1,0c-0.2,0.1-0.3-0.1-0.4,0
		s-0.1,0.2-0.1,0.2c-0.2,0.1-0.4,0.1-0.6,0.2c0.2,0.1-0.1,0.1,0.1,0.2c0.8,0.7,0.3,0.5,0.4,1.2c-0.3,0.1-0.3,0.1-0.6,0.1
		c0,0.2,0.1,0.1-0.1,0.2c-0.2-0.2-0.2,0-0.5-0.1c-0.1,0.5-0.5,0.3-0.5,0.9c0.1,0.1,0.1,0.1,0.1,0.2c0.2,0,0.1-0.1,0.2,0
		c-0.1,0.3,0,0.4,0.4,0.4c0,0.2-0.1,0.2-0.1,0.2c0.2,0,0.2,0.1,0.2,0.1c0,0.1,0,0.1,0,0.1l-0.4,0c-0.1,0.1,0.1,0.3,0.1,0.4
		c-0.2,0.2-0.3,0.3-0.4,0.4c0.1,0,0.1,0,0.2,0C81,30,81,30,81.2,30c0.1-0.2,0.1-0.2,0.1-0.3c0.4,0,0.5-0.1,0.8-0.1
		c0,0.1,0,0.1,0,0.1H82c-0.3,0.3-0.7,0.3-1.1,0.5c0,0.1,0,0.1,0,0.1c0.2,0,0.1-0.1,0.2,0v0.1c-0.2,0.1-0.2,0.1-0.3,0.1v0.1
		c0.2,0,0.2,0.1,0.4,0.1c0,0.1,0,0.1,0,0.1c-0.3,0.1-0.3,0.2-0.4,0.4c0.1,0,0.1,0,0.1,0c0.1,0.1,0.1,0.1,0.2,0.1c0,0.1,0,0.1,0,0.2
		c-0.3,0-0.6,0-0.7,0.1s-0.1,0.1-0.2,0.1c0.1,0.2,0.1,0.2,0.1,0.5c0.1-0.1,0.1-0.1,0.2,0c-0.2,0.2-0.4,0.3-0.4,0.6
		c0.1,0.1,0.2,0.1,0.3,0.1c0,0.3-0.1,0.7-0.1,0.7c-0.1,0.2-0.3,0.2-0.4,0.4c-0.2,0.2-0.2,0.9-0.1,1.2c-0.1,0.1-0.2,0.1-0.4,0.1
		c0-1.7,0-3.3,0-4.9c-0.1-0.1-0.3-0.2-0.3-0.4c-0.2-0.5-0.4-1-0.5-1.5c0-0.2,0-0.3,0-0.4c-0.4-1-0.8-2.2-1.1-3.4
		c-0.2-0.8,0.3-1.5,0.4-2c0.2-0.6-0.1-1.3-0.1-1.9c-0.2-0.1-0.2-0.2-0.4-0.2c-0.1,0-0.1,0.1-0.2,0.1c-0.3,0-0.6-0.4-0.7-0.5
		c0-0.1,0.1-0.1,0.1-0.2c0.1-0.1,0.1-0.1,0.2-0.1l0.1,0.1c0,0.1,0,0.1,0,0.1c-0.1,0-0.1,0.1-0.2,0.1v0.1c0.1,0.1,0.1,0,0.1,0.1
		c0.1-0.1,0.4-0.1,0.5-0.2c-0.2-0.1-0.4-0.2-0.5-0.5c0.2-0.1,0.1,0,0.1-0.2c-0.1-0.1-0.2-0.2-0.2-0.3c0.1-0.1,0.1-0.1,0.1-0.2
		c-0.2-0.1-0.3-0.1-0.4-0.2c0.1-0.1,0.1-0.1,0.1-0.2c-0.2-0.1-0.2-0.1-0.4-0.1L76,18.6c0.1,0.1,0.1,0.1,0.1,0.1c-0.1,0-0.2,0-0.4,0
		c-0.4-0.5-0.9,0.5-1.7,0.3c-0.4-0.2-0.4-0.5-1-0.5c-0.1,0.1-0.3,0.2-0.4,0.1s0,0-0.1-0.1c0.1-0.1,0.3-0.2,0.4-0.2
		c-0.1-0.1-0.1-0.1-0.1-0.2c-0.2,0-0.2,0.1-0.2-0.1c0-0.1,0.1-0.1-0.1-0.1C72.3,18,72.1,18,71.9,18v-0.1H72c0.2-0.2,0.4-0.2,0.6-0.1
		c0.2-0.1,0.2-0.2,0.4-0.3c0,0.2-0.1,0.1,0,0.2c0.2-0.1,0.2-0.2,0.5-0.3c0,0.1,0,0.2,0,0.2c0.2,0,0.4-0.2,0.5-0.1s0.1,0.1,0.1,0.2
		c0.2,0,0.4,0,0.6,0l0.1-0.1c0-0.1,0-0.1,0-0.2c0.1,0,0.1,0,0.2,0c0,0.1,0,0.2,0,0.2c0.1,0,0.1,0,0.1,0c0.2,0.1,0.2-0.1,0.3-0.1
		c0.1,0.1,0.2,0.1,0.4,0.1c0.2-0.1,0.5-0.3,0.7-0.4c0.2,0.1,0.4,0.2,0.5,0.2c0-0.2,0.1-0.2,0.1-0.2c0.2,0.1,0.2,0.2,0.4,0.1
		c0.1,0,0.1-0.2,0.2-0.1c0.2,0.1,0.2,0.3,0.2,0.3c0.1,0.1,0.5,0.1,0.6,0.1c0.2-0.3,0.3,0,0.6-0.2c0.1-0.1,0.1-0.2,0.1-0.4l-0.1-0.1
		c-0.1,0-0.1,0-0.2,0c0-0.1,0-0.1,0-0.2c0.2-0.1,0.2-0.2,0.4-0.2c0.2,0.2,0.4,0.2,0.7,0.1c0,0.3-0.1,0.4,0.2,0.5
		C80.5,17.4,81,17.4,81.3,17.4z"/>
	<path class="st1" d="M82.2,16.8c0.1,0,0.2,0,0.3,0l0.1,0.1c-0.1,0.1,0,0.1-0.1,0.1C82.3,17.1,82.2,16.9,82.2,16.8z"/>
	<path class="st1" d="M64.8,16.9c0.1,0.1,0,0,0.1,0.1C64.8,16.9,64.8,16.9,64.8,16.9z"/>
	<path class="st1" d="M65.7,16.9C65.8,16.9,65.8,16.9,65.7,16.9l0.1,0.1C65.8,16.9,65.8,16.9,65.7,16.9z"/>
	<path class="st1" d="M66.9,16.9c0.1,0,0.2,0,0.2,0V17l0,0c-0.1,0-0.1,0-0.2,0V16.9z"/>
	<path class="st1" d="M70.1,16.9c0.1,0.1,0.1,0.1,0.2,0C70.2,16.9,70.1,16.9,70.1,16.9z"/>
	<path class="st1" d="M48.5,16.9c0.2,0.1,0.1-0.1,0.2,0.1h-0.1c-0.1,0.1-0.1,0.1-0.2,0.1C48.4,17,48.4,17,48.5,16.9z"/>
	<path class="st1" d="M66.5,16.9c0.1,0,0.1,0.1,0.2,0.1c0,0.1,0,0.1,0,0.1h-0.1C66.6,17,66.6,17.1,66.5,16.9z"/>
	<path class="st1" d="M44.4,17C44.5,17,44.5,17,44.4,17c0.1,0.1,0.1,0.1,0.1,0.1c-0.1,0-0.1,0-0.1,0V17z"/>
	<path class="st1" d="M45.5,17c0.2,0,0.4,0,0.5,0.1C45.8,17.1,45.6,17.1,45.5,17z"/>
	<path class="st1" d="M65.9,17C66,17,66,17,65.9,17l0.1,0.1C65.9,17.1,65.9,17.1,65.9,17z"/>
	<path class="st1" d="M68.2,17C68.3,17,68.3,17,68.2,17C68.3,17.1,68.3,17.1,68.2,17z"/>
	<path class="st1" d="M78.2,17.1c0.2,0,0.2,0.1,0.2,0.1c0,0.1,0,0.1,0,0.1c-0.1,0-0.1,0-0.2,0C78.2,17.1,78.2,17.3,78.2,17.1z"/>
	<path class="st1" d="M25,17.2c0.4,0,1.1-0.1,1.2,0.2c-0.4,0-0.8,0-1.2,0C25,17.3,25,17.2,25,17.2z"/>
	<path class="st1" d="M78.8,17.2c0.2,0,0.2,0,0.3,0.1c0,0.1-0.1,0.1-0.1,0.1c-0.1,0.1-0.1,0.1-0.2,0.1
		C78.8,17.3,78.8,17.3,78.8,17.2z"/>
	<path class="st1" d="M79.5,17.2c0,0.1,0,0.2,0,0.2l0.1,0.1c0.3,0,0.3,0.1,0.5,0.1c0-0.1,0-0.1,0-0.1H80c-0.1-0.2-0.1-0.2-0.2-0.3
		C79.8,17.2,79.7,17.2,79.5,17.2z"/>
	<path class="st1" d="M70.2,17.3c0.1,0.2-0.1,0.1,0.1,0.2c0-0.1,0-0.1,0-0.1C70.3,17.3,70.2,17.3,70.2,17.3z"/>
	<path class="st1" d="M82.5,17.7c-0.1,0-0.2,0-0.4,0c0-0.1-0.1-0.1-0.1-0.2c0.1-0.1,0.1-0.1,0.2-0.2v0.1c0.2,0.1,0.1,0,0.1,0.1
		C82.5,17.5,82.5,17.5,82.5,17.7z"/>
	<path class="st1" d="M72.8,17.4c0.1,0,0.1,0.1,0.2,0.1v0.1c-0.1,0-0.1,0-0.2,0C72.8,17.5,72.8,17.4,72.8,17.4z"/>
	<path class="st1" d="M55.9,17.4c0.1,0,0.1,0,0.2,0.1H56c-0.1,0.1-0.1,0.1-0.2,0.1c0-0.1,0-0.1,0-0.1C55.9,17.5,55.9,17.5,55.9,17.4
		z"/>
	<path class="st1" d="M59.3,17.5C59.4,17.5,59.4,17.5,59.3,17.5c0.1,0.1,0.1,0.1,0.1,0.1c-0.1,0-0.1,0-0.1,0V17.5z"/>
	<path class="st1" d="M83.5,17.9C83.6,17.9,83.6,17.9,83.5,17.9L83.5,17.9l0.1,0.1C83.5,18,83.5,18,83.5,17.9z"/>
	<path class="st1" d="M71.6,18c0.1,0.1,0.1,0.1,0.2,0C71.7,18,71.6,18,71.6,18z"/>
	<path class="st1" d="M70.3,18.3c0.1,0,0.1,0,0.2,0.1C70.4,18.4,70.4,18.4,70.3,18.3z"/>
	<path class="st1" d="M76.9,18.6c0.1,0.1,0,0,0.1,0.1C76.9,18.6,77,18.6,76.9,18.6z"/>
	<path class="st1" d="M29,18.7c0.1,0,0.1,0,0.1,0v0.1C29,18.7,29.1,18.8,29,18.7z"/>
	<path class="st1" d="M74.7,18.7c0,0.1,0,0.1,0.1,0.2c0.1-0.1,0.1-0.1,0.1-0.1v-0.1C74.8,18.7,74.7,18.7,74.7,18.7z"/>
	<path class="st1" d="M83,18.9c0,0.2-0.1,0.1,0.2,0.1l0,0C83.1,19,83.1,19,83,18.9z"/>
	<path class="st1" d="M76.7,19c0.1,0,0.1,0.1,0.2,0.1c0,0.1,0,0.1,0,0.1c-0.1,0-0.1,0-0.1,0v-0.1C76.7,19,76.8,19.1,76.7,19z"/>
	<path class="st1" d="M77.9,19.2c-0.1,0.1-0.1,0.1-0.2,0.1c0,0.1,0,0.1,0,0.1c0.1,0,0.1,0,0.2,0c0.1-0.1,0,0,0.1-0.1
		C77.9,19.3,77.9,19.3,77.9,19.2L77.9,19.2z"/>
	<path class="st1" d="M74.8,19.3C74.9,19.3,74.9,19.3,74.8,19.3c0.1,0.1,0.1,0.1,0.1,0.1c-0.1,0-0.1,0-0.1,0
		C74.8,19.3,74.8,19.3,74.8,19.3z"/>
	<path class="st1" d="M76.9,19.5c0,0.1,0,0.1,0,0.2c-0.1,0-0.1,0-0.1,0s-0.1,0-0.2-0.1h0.1C76.7,19.5,76.7,19.5,76.9,19.5z"/>
	<path class="st1" d="M27.8,19.8c0.1-0.2-0.1-0.1,0.1-0.2c0,0.1,0.1,0.1,0.1,0.2C28,19.8,27.9,19.8,27.8,19.8z"/>
	<path class="st1" d="M32.6,19.6C32.7,19.6,32.7,19.6,32.6,19.6c0.1,0.1,0.1,0.1,0.1,0.1c-0.1,0-0.1,0-0.1,0S32.6,19.7,32.6,19.6z"
		/>
	<path class="st1" d="M29,19.8c0.2,0,0.2,0.1,0.4,0.1L29.3,20c0,0-0.1,0-0.3,0C29,19.9,29,20,29,19.8z"/>
	<path class="st1" d="M76.2,20.1c-0.1,0-0.1,0-0.2-0.1c0,0,0,0.1,0,0l0.1-0.1c0.1,0.1,0.1,0,0.1,0.1C76.2,20,76.1,20,76.2,20.1z"/>
	<path class="st1" d="M83.8,20.1c0.1,0,0.1,0,0.2,0.1C83.9,20.2,83.9,20.2,83.8,20.1z"/>
	<path class="st1" d="M81.9,20.4c-0.1-0.2,0.1-0.1-0.1-0.2c0,0.1-0.1,0.1-0.1,0.2C81.8,20.4,81.8,20.4,81.9,20.4z"/>
	<path class="st1" d="M83,20.3c0.1,0.1,0.1,0.1,0.1,0.2c-0.1,0-0.1,0-0.1,0C83,20.4,83,20.3,83,20.3z"/>
	<path class="st1" d="M77.8,20.3c-0.1,0.1-0.3,0.1-0.4,0.2c0.1,0.1,0,0,0.1,0.1c0.2,0,0.4,0.1,0.5,0.1c0.1-0.1,0.1-0.1,0.1-0.2
		C77.9,20.4,77.9,20.4,77.8,20.3z"/>
	<path class="st1" d="M76.2,20.5c0.1,0,0.1,0.1,0.2,0.1v0.1c-0.1,0-0.1,0-0.2,0C76.2,20.6,76.2,20.5,76.2,20.5z"/>
	<path class="st1" d="M29.1,21c0-0.1,0-0.2,0-0.3c0.1,0,0.1-0.1,0.2-0.1s0.2,0,0.4,0c0,0.1,0,0.1,0,0.1h-0.1
		C29.4,20.9,29.3,21,29.1,21z"/>
	<path class="st1" d="M77.1,20.7c0.1,0,0.1,0.1,0.2,0.1l-0.1,0.1c-0.1,0.1,0,0-0.1,0.1C77.1,20.8,77.1,20.8,77.1,20.7z"/>
	<path class="st1" d="M77.3,20.8C77.4,20.8,77.4,20.8,77.3,20.8c0.1,0.1,0.1,0.1,0.1,0.1c-0.1,0-0.1,0-0.1,0V20.8z"/>
	<path class="st1" d="M81.1,20.8L81.1,20.8C81,20.9,81,20.9,81,20.9c0.1,0.1,0.1,0.1,0.2,0.1C81.2,20.9,81.2,20.9,81.1,20.8
		C81.3,20.8,81.2,20.8,81.1,20.8z"/>
	<path class="st1" d="M76.9,20.9c0.2,0.1,0.1,0,0.1,0.1v0.1C76.8,21,76.9,21.1,76.9,20.9z"/>
	<path class="st1" d="M29.7,21c0,0.1,0,0.1,0,0.2c-0.1,0-0.2,0-0.3,0c0-0.1,0-0.1,0-0.1C29.5,21,29.5,21,29.7,21z"/>
	<path class="st1" d="M81.3,21.1c-0.1,0.1-0.1,0.1-0.1,0.1h0.1c0.1,0.2,0.2,0.3,0.4,0.3c0.1-0.1,0.1-0.1,0.2-0.1
		c0.1-0.1,0,0,0.1-0.1C81.6,21.3,81.6,21.2,81.3,21.1z"/>
	<path class="st1" d="M76.7,21.3c0.2,0.1,0.1,0.1,0.1,0.1c-0.1,0.1,0,0-0.1,0.1C76.7,21.4,76.7,21.4,76.7,21.3z"/>
	<path class="st1" d="M26,21.4c0.1,0,0.1,0,0.1,0c0,0.1,0,0.1,0,0.1C26,21.4,26,21.5,26,21.4z"/>
	<path class="st1" d="M77.6,21.5c0.1,0,0.1,0.1,0.2,0.1v0.1c-0.1,0-0.1,0-0.2,0C77.6,21.7,77.6,21.6,77.6,21.5z"/>
	<path class="st1" d="M80.9,21.5c0,0.2-0.1,0.1,0.2,0.2c0-0.1,0-0.1,0-0.1H81C80.9,21.5,81,21.6,80.9,21.5z"/>
	<path class="st1" d="M28.6,21.9c0.2,0.1,0.1,0.1,0.2,0.1c-0.1,0.2-0.1,0.2-0.1,0.4c-0.2,0-0.3,0-0.4,0c-0.1-0.1,0-0.1-0.1-0.1
		C28.3,22.1,28.5,22,28.6,21.9z"/>
	<path class="st1" d="M83,22.3C83.1,22.3,83.1,22.3,83,22.3c0.1,0.1,0.1,0.1,0.1,0.1c-0.1,0-0.1,0-0.1,0C83,22.3,83,22.3,83,22.3z"
		/>
	<path class="st1" d="M29.1,22.3c0.2,0,0.2,0.1,0.2,0.1c0,0.1,0,0.1,0,0.1c-0.1,0-0.1,0-0.2,0v-0.1C29.1,22.4,29.2,22.4,29.1,22.3z"
		/>
	<path class="st1" d="M28.7,22.8c0-0.1,0-0.2,0-0.2c0.1-0.1,0.2-0.1,0.3-0.1c0.1,0.1,0.2,0.2,0.3,0.3L29.2,23
		C29,22.8,29,22.8,28.7,22.8z"/>
	<path class="st1" d="M27.1,22.8c0.1,0.1,0.1,0.1,0.1,0.3c-0.1,0-0.1,0-0.1,0C27.1,23,27.1,22.8,27.1,22.8z"/>
	<path class="st1" d="M27.6,22.8c0.1,0,0.2,0,0.2,0c0,0.1,0,0.1,0,0.1c0.1,0.2,0.2,0.4,0.2,0.6c-0.2,0.1-0.2,0.1-0.4,0.1
		c-0.2-0.2-0.4-0.2-0.6-0.3c-0.1-0.1,0,0-0.1-0.1c0.1,0,0.1,0,0.1,0c0.1-0.1,0.3,0.1,0.5,0.1c0-0.1,0.1-0.1,0.1-0.2
		C27.7,23,27.6,23,27.6,22.8z"/>
	<path class="st1" d="M28.7,23c0.1,0,0.2,0,0.3,0l0,0l0,0c-0.1,0.1-0.1,0.1-0.2,0.1C28.7,23,28.7,23,28.7,23z"/>
	<path class="st1" d="M28.6,23.4c0.1,0,0.1,0,0.1,0v0.1C28.6,23.4,28.7,23.4,28.6,23.4z"/>
	<path class="st1" d="M28.1,23.5c0.2,0.1,0.1,0.1,0.1,0.1c-0.1,0.1-0.1,0.1-0.2,0.1C28.1,23.6,28.1,23.6,28.1,23.5z"/>
	<path class="st1" d="M28.6,23.6c0.1,0,0.2,0.1,0.3,0.1c0,0.1,0,0.1,0,0.1h-0.1c-0.1,0.1-0.1,0.1-0.2,0.1
		C28.5,23.7,28.5,23.8,28.6,23.6z"/>
	<path class="st1" d="M29.2,23.7c0.2,0,0.3,0,0.4,0c0,0.1,0,0.1,0,0.1c-0.2,0-0.3,0-0.4,0C29.2,23.8,29.2,23.7,29.2,23.7z"/>
	<path class="st1" d="M27.9,23.8c0.1,0,0.2,0,0.2,0c0,0.1,0,0.1,0,0.1c-0.1,0-0.2,0-0.2,0V23.8z"/>
	<path class="st1" d="M27.6,24c0.1,0,0.2,0.1,0.2,0.1C27.7,24.3,27.6,24.2,27.6,24z"/>
	<path class="st1" d="M29.5,24.3c-0.2,0-0.3,0-0.5,0c0-0.1,0-0.1,0-0.2c0.2-0.1,0.2-0.1,0.4-0.1C29.4,24.1,29.4,24.2,29.5,24.3z"/>
	<path class="st1" d="M28.6,24.6c0.2,0.1,0.1-0.1,0.2,0.1c-0.1,0-0.1,0-0.2,0V24.6z"/>
	<path class="st1" d="M28.8,24.7c0.4,0,0.7,0,1,0c0,0.1,0,0.1,0,0.1h-0.1c-0.3,0.2-0.7,0.1-1,0.1C28.8,24.8,28.8,24.7,28.8,24.7z"/>
	<path class="st1" d="M28.2,25.2c0.1,0,0.1,0.1,0.2,0.1c0,0.1,0,0.1,0,0.1c-0.1,0-0.2,0-0.2,0C28.2,25.4,28.2,25.3,28.2,25.2z"/>
	<path class="st1" d="M28.7,25.4c0.1,0,0.2,0,0.2,0c0,0.1,0,0.1,0,0.1h-0.1c-0.1,0.1-0.2,0.1-0.4,0.1c0-0.1-0.1-0.1-0.1-0.1
		C28.6,25.5,28.7,25.5,28.7,25.4z"/>
	<path class="st1" d="M27.3,25.5c0.1,0,0.2,0,0.3,0c0,0.1,0,0.1,0,0.1c-0.1,0-0.1,0-0.1,0c-0.1,0.1-0.1,0.1-0.2,0.1
		C27.3,25.6,27.3,25.6,27.3,25.5z"/>
	<path class="st1" d="M29.1,26.6c0.2,0,0.2,0,0.3,0.1c0,0.1-0.1,0.1-0.1,0.2c-0.2,0.1-0.3,0.1-0.4,0C29,26.8,29.1,26.7,29.1,26.6z"
		/>
	<path class="st1" d="M28.7,26.7c0.1,0.1,0,0,0.1,0.1h-0.1C28.7,26.8,28.7,26.8,28.7,26.7z"/>
	<path class="st1" d="M29.6,26.7c0.1,0,0.1,0,0.1,0c0,0.1,0,0.1,0,0.1c-0.1,0-0.1,0-0.1,0C29.6,26.8,29.6,26.8,29.6,26.7z"/>
	<path class="st1" d="M28.5,27.3c0.2,0,0.4,0.1,0.5,0.2s0.1,0.1,0.1,0.2C29,27.8,29,27.9,28.9,28c0,0-1.9-0.2-2.2-0.3
		c-0.3-0.1-0.6,0.1-0.8-0.1c0.8-0.1,1.6,0,2.4,0C28.2,27.5,28.3,27.5,28.5,27.3z"/>
	<path class="st1" d="M29.5,27.9c0.1,0,0.1,0,0.1,0c0,0.1,0,0.1,0,0.1c-0.1,0-0.1,0-0.1,0V27.9z"/>
	<path class="st1" d="M28.7,28.2c0.2,0.1,0.1-0.1,0.2,0.1c-0.1,0-0.1,0-0.2,0C28.7,28.3,28.7,28.2,28.7,28.2z"/>
	<path class="st1" d="M81.3,28.6c0.2,0,0.2,0.1,0.2,0.1l-0.1,0.1c-0.1,0.1-0.1,0.1-0.2,0.1C81.3,28.7,81.3,28.6,81.3,28.6z"/>
	<path class="st1" d="M80.5,29.8c-0.1,0.1-0.1,0.1-0.2,0.1c0,0.1,0,0.1,0,0.1c0.1,0.1,0.1,0.1,0.1,0.1c0.2-0.1,0.2-0.1,0.3-0.2h-0.1
		C80.6,29.8,80.6,29.8,80.5,29.8z"/>
	<path class="st1" d="M31.1,30.5c0.2,0.1,0.3,0.1,0.4,0.2c0,0.1,0,0.3,0,0.5c-0.1,0-0.1,0.1-0.2,0.1c-0.1,0.1-0.1,0.1-0.2,0.1
		C31,31.2,31,31.3,31,31.2c0.2-0.1,0.2-0.1,0.2-0.3c-0.1-0.1-0.1-0.2-0.2-0.2C31,30.6,31.1,30.6,31.1,30.5z"/>
	<path class="st1" d="M80.7,31c0,0.1,0,0.1,0,0.1h0.1C80.8,31,80.8,31,80.7,31L80.7,31z"/>
	<path class="st1" d="M31.3,31.8c0.1,0,0.1,0,0.1,0c0,0.1,0,0.1,0,0.1c-0.1,0-0.1,0-0.1,0V31.8z"/>
	<path class="st1" d="M80.7,32C80.8,32,80.8,32,80.7,32c0.1,0.1,0.1,0.2,0.1,0.2h-0.1c0-0.1,0-0.1,0-0.1
		C80.7,32.1,80.7,32.1,80.7,32z"/>
	<path class="st1" d="M31.4,32.1c0,0.2,0,0.2,0,0.4c-0.1,0-0.1,0-0.2,0c0.1-0.2,0.1-0.1-0.1-0.3l0.1-0.1
		C31.3,32.1,31.4,32.1,31.4,32.1z"/>
	<path class="st1" d="M80.5,32.4c0.1,0,0.1,0.1,0.2,0.1c-0.1,0.1,0,0.1-0.1,0.1c-0.1,0.2,0,0.1-0.1,0.1c-0.1-0.1,0-0.1-0.1-0.1
		C80.5,32.6,80.5,32.5,80.5,32.4z"/>
	<path class="st1" d="M31.3,32.9c0.1,0,0.1,0,0.1,0c0,0.1,0,0.2,0,0.4l-0.1,0.1l-0.1-0.1c-0.1-0.1-0.1-0.1-0.1-0.3
		C31.3,33,31.3,33,31.3,32.9z"/>
	<path class="st1" d="M79.8,34.8C79.9,34.8,79.9,34.8,79.8,34.8C79.9,34.9,79.9,34.9,79.8,34.8C79.8,34.9,79.8,34.9,79.8,34.8
		C79.8,34.9,79.8,34.9,79.8,34.8z"/>
	<path class="st1" d="M79.4,35.7c0.1-0.2-0.1-0.1,0.1-0.2c0.1,0.1,0,0,0.1,0.1L79.4,35.7C79.5,35.6,79.5,35.6,79.4,35.7z"/>
	<path class="st1" d="M79.8,35.8c0.2,0.1,0.4,0.1,0.5,0.2c0,0.1,0,0.1,0,0.1c-0.2,0-0.3,0-0.4,0C79.8,35.9,79.8,35.9,79.8,35.8z"/>
	<path class="st1" d="M31.3,35.8c0,0,0.1,0.1,0.1,0.2C31.3,35.9,31.4,35.9,31.3,35.8z"/>
	<path class="st1" d="M79.7,35.9c0,0.1,0,0.1,0,0.2c0.2,0.1,0.4,0.2,0.5,0.2c-0.1,0-0.1,0-0.1,0c-0.1,0.1-0.2,0.1-0.4,0.1
		c-0.1-0.2-0.1-0.2-0.2-0.3c0.1-0.1,0-0.1,0-0.2C79.5,35.9,79.6,35.9,79.7,35.9z"/>
	<path class="st1" d="M79.4,36.3C79.5,36.3,79.5,36.3,79.4,36.3C79.5,36.4,79.5,36.4,79.4,36.3z"/>
	<path class="st1" d="M31.4,38.8c-0.2-0.1-0.3-0.2-0.5-0.1c0.2,0.1,0.1-0.1,0.2,0.1c-0.1,0-0.1,0-0.2,0c-0.1-0.1,0,0-0.1-0.1
		c-0.1-0.4,0-0.2-0.2-0.4h0.1c0.1-0.1,0.2-0.1,0.3-0.2c-0.1-0.1-0.1-0.1-0.2-0.2c0.2-0.1,0.1-0.1,0.2-0.2c0.1,0.1,0.2,0,0.4,0
		c0,0.1,0,0.1,0,0.1C31.4,38,31.4,38.5,31.4,38.8z"/>
	<path class="st1" d="M30.6,38.2c0.1,0,0.1,0,0.1,0v0.1C30.6,38.2,30.6,38.2,30.6,38.2z"/>
	<path class="st1" d="M31.1,45.9c-0.1,0-0.1,0-0.2,0c0,0.1,0,0.2,0,0.2c-0.1,0-0.1,0-0.1,0c-0.1-0.1-0.2-0.2-0.2-0.2
		c0.1-0.1,0.1-0.1,0.1-0.2c-0.2-0.1-0.3-0.1-0.4-0.2l0.1-0.1c0.2,0,0.2,0,0.2-0.1c-0.2-0.1-0.3-0.1-0.4-0.3c0.1-0.1,0.1-0.1,0.2-0.1
		c-0.2-0.1-0.2,0-0.3-0.3c0.2-0.2,0.1-0.2,0-0.4c0.1-0.1,0.1-0.2,0.2-0.2c0.1,0.1,0,0.1,0.1,0.1V44c0.1-0.1,0.1-0.2,0.2-0.4
		c0.2,0.1,0.3,0.2,0.4,0.1h0.1c-0.1-0.1-0.1-0.1-0.2-0.2c0.1-0.1,0.1-0.1,0.1-0.2c-0.3-0.2-0.3-0.5-0.5-0.6c0,0,0,0.2-0.1,0.1v-0.1
		c-0.1-0.1-0.1-0.3-0.2-0.4c-0.3,0.1-0.4-0.3-0.5-0.4c0.1,0,0.1,0,0.1,0c0.1-0.1,0.1-0.2,0.2-0.3l0.1-0.1H30c0,0.5-0.4,0.6-0.5,0.5
		s0,0-0.1-0.1c0.3,0,0.4-0.1,0.5-0.1c-0.1-0.1-0.1-0.1-0.1-0.2c0.1,0,0.1,0,0.1,0c0.1,0.1,0.2,0.2,0.5,0.2v-0.1
		c-0.2-0.1-0.2-0.2-0.4-0.3c0.1-0.2,0.1-0.3,0.1-0.4c0-0.1-0.2-0.1-0.2-0.2c0-0.1,0.2-0.2,0.2-0.5c0.3-0.1,0.5-0.2,0.7-0.4v-0.1
		c-0.1-0.1-0.1-0.1-0.1-0.1c0.3-0.1,0.4-0.2,0.5-0.4c0.2,1.6,0.1,3.7,0.1,5.5c0,0.7-0.1,1,0,1.4c0,0.5,0,1,0,1.5c-0.1,0-0.1,0-0.1,0
		c-0.1-0.2-0.2-0.1-0.2-0.2c-0.1-0.2,0.1-0.2,0-0.4c-0.1-0.1-0.2-0.1-0.2-0.2c0.1-0.1,0.2-0.1,0.3-0.2C31,46.6,31,46.6,31,46.5
		c0.1-0.1,0.2-0.1,0.2-0.1l-0.1-0.1c-0.1,0.1-0.1,0.1-0.2,0l0.1,0.2c0.2-0.1,0.2-0.1,0.2-0.2C31.1,46.1,31.1,46.1,31.1,45.9z"/>
	<path class="st1" d="M30.2,40.2c0.1,0,0.1,0,0.1,0c0,0.1,0,0.1,0,0.1C30.2,40.3,30.2,40.3,30.2,40.2C30.2,40.2,30.2,40.2,30.2,40.2
		z"/>
	<path class="st1" d="M28.6,41.6c0.2,0,0.2,0.1,0.2,0.1c0,0.1,0,0.1,0,0.1c-0.1,0-0.1,0-0.2,0V41.6C28.6,41.6,28.7,41.7,28.6,41.6z"
		/>
	<path class="st1" d="M30.3,42.1L30.3,42.1c-0.2,0.1,0.1,0.1,0.1,0.1l0.1-0.1C30.4,42.1,30.4,42.1,30.3,42.1z"/>
	<path class="st1" d="M30.8,43.2c0.1,0.1,0,0,0.1,0.1C30.8,43.2,30.9,43.2,30.8,43.2z"/>
	<path class="st1" d="M79.4,43.5c0.3,0,0.4,0.1,0.6,0.1c0.2,0.2,0.3,0.3,0.4,0.5h-0.1c-0.2,0.3-0.4,0.4-0.9,0.4
		C79.4,44.2,79.4,43.9,79.4,43.5z"/>
	<path class="st1" d="M31,44c0,0.1-0.1,0.1,0,0.2c0,0.1,0.1-0.2,0.1-0.2H31z"/>
	<path class="st1" d="M30.3,44.4c0,0.1,0,0.2,0,0.2h0.1v-0.1c0.1-0.1,0,0,0.1-0.1C30.4,44.4,30.4,44.4,30.3,44.4z"/>
	<path class="st1" d="M81.5,44.6c0.2,0,0.2,0,0.3,0.1c0,0.1-0.1,0.1-0.1,0.1c-0.2,0-0.1,0.1-0.2,0C81.4,44.7,81.5,44.7,81.5,44.6
		C81.5,44.6,81.4,44.6,81.5,44.6z"/>
	<path class="st1" d="M80.3,44.7c0.2,0.1,0.1-0.1,0.2,0.1l-0.1,0.1L80.3,44.7C80.3,44.7,80.3,44.8,80.3,44.7z"/>
	<path class="st1" d="M80.8,44.7c0.1,0,0.2,0,0.3,0l0.1,0.1c-0.1,0.1,0,0.1-0.1,0.1C81,45,80.9,45,80.8,45
		C80.8,44.8,80.8,44.8,80.8,44.7z"/>
	<path class="st1" d="M80.5,45c0.2,0,0.2,0.1,0.2,0.1c-0.1,0.1,0,0.1-0.1,0.1C80.4,45.2,80.4,45.2,80.5,45z"/>
	<path class="st1" d="M80.8,45.2c0.2,0.1,0.1-0.1,0.2,0.1C80.9,45.3,80.9,45.3,80.8,45.2v0.2C80.8,45.4,80.8,45.3,80.8,45.2z"/>
	<path class="st1" d="M29.8,45.7c0.1,0,0.2,0.1,0.2,0.1c0,0.1,0,0.1,0,0.1c-0.1,0-0.1,0-0.2,0C29.8,45.7,29.8,45.8,29.8,45.7z"/>
	<path class="st1" d="M31.1,45.7c0.1,0.1,0,0,0.1,0.1C31.2,45.8,31.2,45.8,31.1,45.7z"/>
	<path class="st1" d="M82.2,46.6C82.3,46.6,82.3,46.6,82.2,46.6C82.3,46.7,82.3,46.7,82.2,46.6C82.2,46.7,82.2,46.7,82.2,46.6
		C82.2,46.7,82.2,46.7,82.2,46.6z"/>
	<path class="st1" d="M82.1,47c0.1,0,0.2,0,0.2,0c0,0.1,0,0.1,0,0.1C82.2,47.1,82.1,47.1,82.1,47C82.1,47,82.1,47,82.1,47z"/>
	<path class="st1" d="M29.3,47.9c0.2,0,0.4,0,0.5,0.1C29.5,48,29.4,48.1,29.3,47.9z"/>
	<path class="st1" d="M31.3,47.9c0.1,0,0.1,0,0.1,0C31.4,48,31.3,48,31.3,47.9c-0.1,0.1-0.1,0.2-0.2,0.2c0-0.1,0-0.1,0-0.1
		C31.3,47.9,31.3,48,31.3,47.9z"/>
	<path class="st1" d="M87.2,48.1c0,0.1,0,0.1,0,0.2c-0.3,0-0.7,0.1-1,0.2c0-0.1,0-0.1,0-0.1c0.2-0.1,0.2-0.2,0.5-0.2
		C87,47.9,87,48,87.2,48.1z"/>
	<path class="st1" d="M31.3,48.2c0.2,0.1,0.2,0,0.2,0.2c-0.2,0.1-0.2,0.1-0.4,0.1c0-0.1,0-0.1,0-0.1C31.2,48.3,31.2,48.3,31.3,48.2z
		"/>
	<path class="st1" d="M82,48.4c0.3,0,0.6,0,0.9,0c0,0.1,0,0.1,0,0.1C82.6,48.6,82,48.8,82,48.4z"/>
	<path class="st1" d="M31.4,48.6c0.2,0.1,0.1-0.1,0.2,0.1c-0.1,0.1,0,0.5,0,0.5c0.1,0.1,0.1,0.2,0.2,0.3h0.1c0-0.2-0.1-0.2,0.1-0.2
		c0,0.1,0,0.1,0,0.1c0.1,0.1,0.2,0.7,0.1,0.8c-0.1,0.2-0.2,0.2-0.2,0.4c0.1,0.1,0.1,0.1,0,0.3c0.1,0,0.1,0,0.2,0
		c0.1-0.1,0.1-0.1,0.2-0.1c0.2,0.1,0.2,0.1,0.2,0.2c-0.4,0-0.6,0.1-0.6,0.2c0.2,0.2,0.4,0.3,0.4,0.6c-0.1,0-0.2,0-0.2,0
		c0,0.1,0,0.1,0,0.1c0.1,0.1,0.1,0.2,0.2,0.2V52c0.1-0.1,0.1-0.2,0.1-0.3l0.1,0.1c0.1,0.3,0.1,0.8,0.1,0.9v0.1
		c-0.1-0.1-0.1-0.1-0.3-0.1c0,0.2-0.1,0.3,0,0.4c0.1,0.1,0.1,0.1,0.2,0.2c-0.3,0.3-0.2,0.7-0.1,0.8c0.1,0.1,0.2,0.2,0.2,0.2
		c0-0.1,0-0.2,0-0.4c-0.1-0.1-0.1-0.1-0.1-0.1l0.1-0.1c0.1,0,0.1,0.1,0.1,0.1c0.1,0.2,0.2,0.7,0.2,0.7c0.2,0.1,0.3,0.1,0.4,0.2
		c-0.3,0-0.2,0-0.5,0.1c0,0.1,0,0.1,0,0.2c-0.2,0-0.2-0.1-0.2,0c-0.1,0.1-0.1,0-0.1,0.1h0.1c0.1,0.2,0,0.1,0.2,0.1
		c0.1-0.1,0.2-0.1,0.3-0.2c0.1,0.2,0.1,0.2,0.1,0.3c-0.3-0.1-0.4-0.1-0.6,0.1v0.1c0.2,0,0.2-0.1,0.2,0.1c0,0.1,0.1,0.1,0.2,0.2
		c-0.1,0-0.2,0-0.3,0c-0.1-0.1-0.3-0.1-0.5-0.1c0,0.1,0,0.1,0,0.1c0.2,0.1,0.2,0.1,0.4,0.1V56c-0.2,0-0.2-0.1-0.3,0.1
		c0.2,0.1,0.1,0,0.1,0.1c-0.2,0-0.4,0-0.5,0.1c0.1,0.2,0.1,0.2,0.4,0.2c0,0.1,0,0.2,0,0.2c0.3,0,0.6,0.2,0.7,0.4
		c0,0.1,0.1,0.1,0.1,0.2c0.2,0.1,0.2-0.2,0.4,0.1c-0.2,0-0.3-0.1-0.4,0.1c0.1,0.1,0.1,0.1,0.1,0.2c-0.2,0.1-0.2,0.1-0.3,0.2
		c0.1,0.3-0.1,0.2-0.2,0.4c0,0,0.2,0.2,0.2,0.3c0.2,0,0.2,0,0.3-0.1c0,0.1,0,0.1,0,0.1c-0.1,0.1-0.1,0.1-0.2,0.2
		c0.2,0.1,0.1,0.2,0.3,0.2c0.1,0.1,0.2,0.1,0.3,0.2c-0.1,0.1-0.1,0.1-0.1,0.1H33c0.1,0.1,0.1,0.1,0.1,0.2c-0.2,0-0.2,0.1-0.2,0.1
		c0.2,0.2,0.2,0.4,0.2,0.7l-0.1,0c-0.2-0.1-0.2-0.1-0.4-0.1c0.1,0.1,0.2,0.3,0.2,0.4c0.2,0.1,0.1-0.1,0.2,0.1
		c-0.2,0.1-0.1-0.1-0.2,0.1c0.2,0.1,0.1,0.1,0.1,0.4c0.3,0.2,1.1,0.8,1.1,1.1c-0.1,0-0.1,0-0.2,0c0,0.1-0.1,0.1-0.1,0.1l-0.1,0.1
		c0.1,0,0.2,0.1,0.3,0.1c0,0.1,0,0.1,0,0.1c-0.3,0-0.3,0.1-0.4,0.2h-0.1l0.1,0.1c0.2,0.2,0.5,0.3,0.6,0.5c0.1,0.1,0.1,0.4,0.2,0.5
		c-0.2,0-0.3,0-0.4,0c-0.1-0.1-0.1-0.1-0.3-0.1c0,0.1,0,0.2,0,0.3c-0.1,0-0.2,0-0.2,0c0,0.1,0,0.1,0,0.1c0.3,0.1,0.3,0.1,0.6,0.1
		c0,0.1,0.1,0.2,0.1,0.4c-0.1,0-0.2,0-0.2,0c-0.1-0.1-0.1-0.1-0.2-0.1v0.1h0.1c0.2,0.3,0.4,0.4,0.7,0.5c0,0.1,0,0.1,0,0.1
		c-0.1,0-0.1,0-0.2,0c-0.1-0.1-0.3-0.1-0.5,0c0,0.1,0,0.1,0,0.1c0.7,0.2,0.6,0.6,1.2,0.7l0.1-0.1V66c-0.1-0.1,0,0-0.1-0.1
		c0.2-0.1,0.3-0.1,0.5-0.1c0.1,0.3,1,0.6,1.5,0.6c-0.1-0.2,0-0.2,0.1-0.4c0.1,0,0.1,0,0.1,0c-0.1,0.3,0.1,0.4,0.5,0.4
		c0-0.1,0-0.1,0-0.2c0.1-0.1,0.2-0.1,0.2-0.2c0.5,0.1,0.6-0.2,1.4-0.2c0,0.1,0,0.1,0,0.1c-0.1,0.1,0,0-0.1,0.1c0.1,0,0.2,0,0.3,0
		l0.1-0.1c0,0.1,0,0.1,0,0.1c-0.1,0.1,0,0-0.1,0.1c0.4,0.1,0.7,0.2,1,0.1c0,0.2,0,0.3,0.1,0.4c0.3,0,0.3,0.1,0.5,0.1
		c0,0.2-0.1,0.2,0.3,0.2V67c-0.2,0-0.2-0.1-0.2-0.1c0-0.1,0-0.1,0-0.1c0.1,0,0.2,0,0.3,0c0.1,0.1,0.2,0.2,0.4,0.2
		c0-0.1-0.1-0.2-0.1-0.3c0.1,0,0.2,0,0.2,0c0.1,0.2-0.1,0.1,0.1,0.2c0.1-0.1,0.1-0.1,0.2-0.1c0-0.2-0.1-0.2,0.1-0.3
		c0.2,0.2,0.8,0.6,1.1,0.6c0-0.2-0.1-0.2-0.1-0.2c0.1,0,0.2,0,0.3,0c0.1,0.1,0.3,0.3,0.4,0.2c0.1-0.2-0.1-0.2,0.2-0.2l0.1,0.1
		c0,0.1,0,0.1,0,0.2c0.1,0,0.1,0,0.2,0c0.1-0.1,0.1-0.1,0.2-0.2c0-0.1,0-0.1,0-0.2c-0.2,0-0.3,0.1-0.4,0.1c0-0.1,0-0.1,0-0.1
		c0.4-0.1,0.5,0.1,0.9,0.1c0,0.2,0.1,0.2,0.1,0.2c0.1,0,0.1,0,0.1,0c0.1-0.1,0.1-0.1,0.1-0.2c0,0-0.2,0-0.1-0.1h0.1
		c0.1-0.1,0.1-0.1,0.1-0.2c0.2,0,0.4,0,0.5,0c-0.1-0.2-0.1-0.2-0.1-0.4c0.1,0,0.1,0,0.1,0c0.2,0.2,0.5,0.1,0.6-0.1
		c-0.1-0.1,0,0-0.1-0.1c0.1,0,0.2,0,0.2,0c0.1,0.1,0.2,0.2,0.4,0.4c0.1,0,0.2-0.1,0.2-0.1c0,0.1,0,0.1,0,0.1c0.1,0.1,0,0.2,0.1,0.4
		l0.1-0.1c0.1-0.2-0.1-0.2,0.1-0.3c0.2,0.3,0.7,0.7,1.2,0.7c0-0.2-0.1-0.1,0.1-0.2c0.2-0.2,0.4-0.1,0.4-0.1c0.1-0.1,0.2-0.3,0.2-0.3
		c0.2-0.1,0.4,0.4,0.5,0.4c0-0.2,0.1-0.2,0.1-0.2l0.1,0.1c0.1,0.1,0.1,0.2,0.2,0.3c0.1-0.1,0.1-0.1,0.2-0.1c0,0.1,0,0.1,0.1,0.2
		s0.6,0.2,0.7,0.2c0.7-0.2,2.5,0.1,3.2-0.2c0-0.2-0.1-0.2,0.1-0.2c0.2,0.3,0.3,0.4,0.7,0.4c0-0.1,0-0.1,0-0.1c0.2,0,0.4,0.1,0.6,0.1
		c0-0.1,0.1-0.1,0.1-0.2c0.1,0,0.4,0.1,0.6,0.1V67c-0.1-0.1-0.1-0.1-0.1-0.2c0.1,0,0.1,0,0.1,0c0.2,0.2,0.4,0.3,0.7,0.3
		c0,0.1,0,0.1,0,0.2c-0.1,0-0.2,0-0.4,0c-0.1,0.1-0.1,0.1-0.1,0.2c0.2,0,0.3,0.1,0.5,0.1l-0.1,0.1c-0.1,0.1-0.3,0.1-0.5,0.1
		c-0.3-0.4-0.8,0-1.2,0.1c-0.2,0-0.3,0.2-0.5,0.2c-0.4,0.1-0.9-0.1-1.1-0.1c-0.2,0-0.4-0.1-0.6-0.1c-0.2,0.1-0.2,0.2-0.5,0.2
		C53,68,53,67.9,53,67.8c-0.1,0-0.2,0-0.3,0c0,0.1,0,0.1,0,0.1c0.1,0,0.1,0,0.2,0.1c-0.1,0-0.1,0-0.1,0c-0.5,0-0.7,0-0.8,0.2
		c0.1,0.1,0.3,0.2,0.2,0.2c-0.1,0.1-0.1,0.1-0.2,0.1c-0.1-0.1-0.1-0.2-0.1-0.3c-0.1,0-0.1,0-0.1,0c-0.1,0.2-0.2,0.4-0.5,0.4
		c-0.1-0.2-0.2-0.2-0.3-0.2c-0.3-0.4,0-0.4-0.5-0.5c-0.1,0.1-0.1,0.1-0.3,0c0-0.3,0.1-0.2-0.1-0.2C50,67.9,49.9,68,49.6,68
		c-0.1-0.2-0.3-0.3-0.5-0.4L49,67.7c0.1,0.2,0.1,0.2,0.1,0.4c-0.1,0.1-0.1,0.1-0.2,0.1C48.7,68,48.5,68,48.2,68
		c0-0.1-0.2-0.5-0.2-0.5c-0.1-0.1-0.7-0.2-0.8-0.2v0.1c0.2,0.2,0.1,0,0.1,0.2c-0.2-0.1-0.3,0.1-0.5,0l-0.5-0.2
		c0-0.1-0.1-0.1-0.1-0.2c-0.2-0.1-0.5,0.1-0.6,0.1c-0.3-0.2-1.4,0.1-1.7,0.1s-0.6,0-0.9,0c-0.1,0.1-0.1,0.1-0.2,0.2
		c-0.3,0.1-0.5-0.1-0.9,0c-0.3,0.1-0.5,0.3-0.9,0.2v0.1c0.1,0.1,0.2,0.2,0.3,0.4h-0.1c-0.4-0.3-0.4,0.1-0.7,0.2
		c-0.2,0.1-0.3-0.1-0.5-0.1c-0.1-0.1-0.1-0.2-0.1-0.3c-0.8-0.2-1.6,0.1-2.6-0.1c0,0.1,0.1,0.1,0.1,0.2c-0.4,0.1-0.5,0.3-1,0.3
		c-0.1-0.1,0,0-0.1-0.1c-0.1-0.2-0.1-0.4,0-0.6c-0.1,0-0.1-0.1-0.2-0.1c-0.3-0.2-0.7,0.1-1,0.1c-0.1,0.3-0.1,0.3-0.3,0.4
		C35,68.1,35,68,35,68.3c-0.1,0-0.1,0-0.1,0c-0.2-0.2-0.5-0.1-0.7-0.2L34.1,68c0.4-0.1,0.5-0.4,0.9-0.5v-0.1c-0.1,0-0.2,0-0.2,0
		c-0.1-0.1-0.2,0.1-0.4-0.1c-0.2,0.1-0.5,0-0.6,0.1c-0.1,0-0.3,0.2-0.3,0.2c-0.1,0-0.2-0.1-0.3-0.1c0,0.1-0.1,0.1-0.1,0.2
		c-0.2,0.1-0.4,0-0.5,0.1h0.1c0.1,0.1,0.1-0.1,0.2,0.2c-0.1,0-0.1,0-0.1,0c-0.1-0.1-0.1,0-0.2,0c0-0.1,0-0.2,0-0.2
		c-0.7,0-0.9,0.3-1.4,0.1c-0.1,0.1-0.1,0.2-0.3,0.2c-0.5-0.1-0.6-0.5-1.1-0.5c0,0.1-0.1,0.3-0.1,0.1l-0.1-0.1
		c0.2-0.1,0.3-0.3,0.4-0.5c-0.1-0.2-0.1-0.5-0.2-0.7c0.1-0.1,0.1,0,0.1-0.1c-0.1-0.1-0.1-0.1-0.2-0.2c0.2,0,0.2,0.1,0.3-0.1l0,0
		c-0.2,0-0.2,0-0.3-0.1v-0.1c0.1-0.1,0.1-0.1,0.1-0.2c-0.3-0.1-0.2-0.1-0.2-0.3c-0.2,0.1-0.1,0.1-0.2-0.1c0.1-0.1,0.1-0.1,0.1-0.1
		c-0.1,0-0.2,0-0.4,0c0,0.1,0,0.1,0,0.2c-0.2,0.1-0.2,0.1-0.4,0.1c-0.1,0.1,0,0-0.1,0.1v-0.1c0.1-0.1,0.1-0.2,0.1-0.3
		c0.2-0.1,0.4-0.2,0.5-0.3c0.1,0,0.2,0,0.4,0c0,0.2,0,0.2,0.1,0.2c0-0.1,0-0.2,0-0.4l-0.1-0.1c-0.3,0.1-0.4,0.1-0.7,0.1v-0.1
		c0.1-0.1,0.2-0.2,0.3-0.3c-0.2-0.1-0.1-0.2-0.1-0.4c0.2-0.1,0.5-0.2,0.7-0.3c0,0.1,0,0.1,0,0.2c-0.1,0.1,0,0-0.1,0.1
		c-0.1,0-0.2,0.1-0.3,0.1V64c0.1,0,0.2,0,0.3,0c0-0.1,0.1-0.1,0.1-0.2c0.4,0.5,0.4,0.5,0.4,0.4c0.2,0,0.2,0.1,0.2,0s0,0,0.1-0.1
		c-0.2,0-0.2,0.1-0.3-0.1c0.3,0,0.2,0,0.3-0.2c-0.2-0.1-0.5-0.2-0.6-0.3c0.2-0.1,0.1,0,0.1-0.2c-0.1,0-0.2,0.1-0.4,0.1
		c-0.1-0.1,0-0.1-0.1-0.1c0.1-0.1,0.1-0.3,0.1-0.5c-0.1,0-0.1,0-0.2-0.1c0.2-0.1,0-0.2,0.2-0.2c0.1,0.2,0,0.1,0.2,0.1l0.1-0.1
		c-0.1-0.1-0.1-0.3-0.2-0.4c0.2-0.1,0.2-0.2,0.3-0.4c-0.3-0.2-0.2-0.3-0.3-0.6c0.1-0.1,0.1-0.1,0.2-0.1c-0.1-0.1-0.1-0.1-0.2-0.1
		c0,0.2,0.1,0.2-0.2,0.2c-0.1-0.2-0.3-0.2-0.4-0.3c0.1-0.1,0.1-0.1,0.2-0.1c0.1,0.1,0.2,0.1,0.4,0.1c0-0.1,0-0.1,0-0.2
		c0.3,0.1,0.2,0.2,0.4,0.2c0-0.1,0-0.2,0-0.2c-0.1-0.1-0.1-0.1-0.2-0.2c0.1,0,0.2,0,0.2,0C30,60.2,30,60.2,30,60
		c0.2-0.1,0.3-0.1,0.5-0.2c-0.1-0.2-0.1,0-0.1-0.3c0.2,0.1,0.2,0.1,0.3,0.1c0-0.2,0-0.2,0.1-0.2c0.1,0.1,0.1,0.1,0.2,0s0,0,0.1-0.1
		c-0.2-0.1-0.1,0.1-0.2-0.1c0.3,0,0.3,0,0.4-0.2c0-0.1,0-0.2,0-0.4c-0.2-0.2-0.7-0.4-0.9-0.6c0.1-0.1,0.1,0,0.1-0.1
		c-0.1,0-0.2,0.1-0.4,0.1c-0.1-0.3-0.3-0.3-0.4-0.5c0.2-0.1,0.2-0.4,0.3-0.5c0.1,0,0.1,0.1,0.2,0.1c0-0.1-0.1-0.2-0.1-0.3
		c0.2,0,0.5,0,0.7,0c0-0.3,0-0.2,0.1-0.4c-0.1-0.1-0.1,0-0.1-0.1c0.1,0,0.1,0,0.2,0c0-0.4,0.1-0.5-0.1-0.7c-0.1-0.1-0.2-0.1-0.4-0.1
		c-0.1,0.1-0.1,0.1-0.3,0.1c0.1-0.3,0.2-0.3,0.3-0.5c-0.1,0-0.1,0-0.1,0c0,0.1,0,0.1,0,0.2c-0.1,0-0.2-0.1-0.3-0.1
		c0-0.1-0.1-0.1-0.1-0.1c0.1-0.1,0.2-0.1,0.2-0.2c-0.2,0-0.3,0.1-0.4-0.1c0.1-0.1,0.2-0.1,0.4-0.1c0.1-0.1,0.3-0.1,0.4-0.1v0.1h-0.1
		c-0.1,0.1-0.1,0.1-0.2,0.1c0.1,0.1,0,0,0.1,0.1c0.1,0.2,0,0.1,0.1,0.1c0.1-0.1,0.3-0.1,0.4-0.2v-0.1c-0.2,0-0.2-0.1-0.2-0.1
		c0-0.2,0.1-0.2,0-0.2c-0.1-0.1-0.3-0.1-0.4-0.2c0.1-0.1,0.3-0.3,0.4-0.4h0.1l-0.1-0.1c-0.2-0.1-0.2-0.1-0.2-0.3
		c0.2-0.1,0.2-0.1,0.2-0.2c-0.1-0.1-0.1-0.1-0.1-0.1c-0.4,0.1-0.7,0.3-1.2,0.4c0,0.1,0,0.1-0.1,0.2c-0.1,0.1-0.2,0.1-0.4,0.1
		c0-0.1,0-0.1,0-0.1c0.1-0.1,0.1-0.3,0.1-0.6L28.9,53c-0.2,0-0.2,0-0.3-0.1c0.1,0,0.1,0,0.1,0c0.1-0.1,0.2-0.2,0.4-0.2
		c0,0.2,0,0.3,0,0.5c0.1,0.1,0.1,0.1,0.2,0.1v-0.1c0.1-0.2,0.1-0.4,0.3-0.6c-0.4,0-0.4,0-0.6-0.2l0.1-0.1c0.3-0.3,0.9-0.2,1-0.6
		C30,51.6,30,51.6,30,51.6c0.1,0,0.1,0,0.1,0c0.1-0.1,0.2-0.1,0.3-0.1c0-0.1,0-0.2,0-0.2c0.1,0,0.1,0,0.2,0c0.1,0.1,0.1,0.1,0.1,0.1
		c-0.1,0.2-0.1,0.1-0.2,0.3c0.2,0.1,0.2,0.1,0.5,0.1c0-0.1,0.1-0.1,0.1-0.1c-0.1,0.9-0.1,1-0.1,0.8c0.2-0.1,0.5-0.1,0.6-0.3
		c-0.1-0.1-0.2-0.1-0.2-0.1c0.1-0.1,0.1-0.1,0.1-0.2l-0.1-0.1c-0.2,0.2-0.3,0.3-0.6,0.3c0-0.3,0.1-0.2,0.1-0.4l-0.1-0.1
		c-0.2,0-0.3,0-0.4-0.1c0.1,0,0.1,0,0.1,0c0.2-0.1,0.4,0,0.5-0.1c0.2-0.1,0.2-0.1,0.2-0.3c-0.2-0.2-0.3-0.4-0.4-0.6
		c0.3-0.1,0.4-0.3,0.5-0.5c0.2,0.1,0.3,0.2,0.4,0.3c0-0.2,0.1-0.3,0.1-0.5C31.7,50,31.7,50,31.6,50c0,0.2,0,0.2-0.1,0.3
		c-0.3-0.2-1.1-0.1-1.1-0.6c0.3-0.2,0.4-0.5,0.7-0.6L31,49.2c-0.1,0.1,0.1,0.1,0.1,0.1c0.1,0.1,0.1,0.1,0.2,0.1
		C31.4,48.8,31.4,48.7,31.4,48.6z"/>
	<path class="st1" d="M31.8,48.6c0.1,0,0.1,0,0.1,0c0,0.2,0,0.3,0,0.4c-0.1,0-0.1,0-0.1,0C31.8,48.8,31.8,48.7,31.8,48.6z"/>
	<path class="st1" d="M80.9,48.6C81.1,48.7,81,48.7,80.9,48.6C80.9,48.8,80.9,48.7,80.9,48.6z"/>
	<path class="st1" d="M29.3,49c0.2,0.1,0.1-0.1,0.2,0.1C29.4,49.1,29.4,49.1,29.3,49C29.3,49,29.3,49,29.3,49z"/>
	<path class="st1" d="M80.7,49c0.1,0,0.1,0.1,0.2,0.1l-0.1,0.1c-0.1,0.1,0,0-0.1,0.1C80.7,49.1,80.7,49,80.7,49z"/>
	<path class="st1" d="M86.3,49C86.4,49,86.4,49,86.3,49C86.4,49.1,86.4,49.1,86.3,49C86.3,49.1,86.3,49.1,86.3,49
		C86.3,49,86.3,49,86.3,49z"/>
	<path class="st1" d="M79.4,50c0-0.1,0-0.1,0.1-0.2c0.1-0.1,0.3-0.1,0.5-0.1l0.1,0.1c-0.1,0.1,0,0.1-0.1,0.1
		C79.9,50,79.7,50,79.4,50z"/>
	<path class="st1" d="M85.1,49.7C85.3,49.8,85.2,49.7,85.1,49.7v0.2H85C85.1,49.8,85.1,49.8,85.1,49.7z"/>
	<path class="st1" d="M82.1,50.2c0,0.1,0,0.1,0,0.2c-0.1,0-0.1,0-0.2-0.1s0,0-0.1-0.1C81.9,50.2,82,50.2,82.1,50.2z"/>
	<path class="st1" d="M31.5,50.2c0,0.1-0.1,0.1-0.1,0.2c0.1,0,0.1,0,0.2,0c0-0.1,0-0.1,0-0.1C31.6,50.3,31.5,50.3,31.5,50.2z"/>
	<path class="st1" d="M32,50.3c0.2,0.1,0.1,0,0.1,0.2c-0.1,0-0.1,0-0.1,0C32,50.5,32,50.4,32,50.3z"/>
	<path class="st1" d="M31.4,50.7c0,0.1,0,0.1,0.1,0.2v-0.1c0.1-0.1,0,0,0.1-0.1C31.5,50.7,31.5,50.7,31.4,50.7z"/>
	<path class="st1" d="M81.6,50.9c0.2,0,0.3,0,0.4,0.1h-0.1c-0.2,0.1-0.5,0.1-0.7,0.1c0-0.1,0-0.1,0-0.1C81.5,51,81.5,51,81.6,50.9z"
		/>
	<path class="st1" d="M30.8,51c0.1,0,0.1,0.1,0.2,0.1c0,0.1,0,0.1,0,0.1c-0.2,0-0.4,0-0.6,0v-0.1h0.1C30.5,51,30.7,51,30.8,51z"/>
	<path class="st1" d="M31.3,51.4C31.3,51.5,31.3,51.5,31.3,51.4L31.3,51.4l0.1,0.1C31.3,51.4,31.4,51.4,31.3,51.4z"/>
	<path class="st1" d="M79.7,51.4c0.1,0,0.2,0,0.3,0v0.1l0,0C79.7,51.6,79.7,51.5,79.7,51.4z"/>
	<path class="st1" d="M86,51.5c0.2,0,0.2,0.1,0.2,0.1c-0.1,0.1,0,0-0.1,0.1v0.1L86,51.7C86,51.5,86.1,51.6,86,51.5z"/>
	<path class="st1" d="M79.5,51.8c0.2,0,0.3,0,0.4,0.2c-0.1,0-0.2,0-0.2,0C79.6,51.9,79.6,52,79.5,51.8z"/>
	<path class="st1" d="M29.9,52c0.2,0,0.2,0.1,0.2,0.1c0,0.1-0.1,0.1-0.1,0.2c-0.1,0-0.1-0.1-0.1-0.1C29.9,52.1,29.9,52.1,29.9,52z"
		/>
	<path class="st1" d="M30.8,52.1c0.1,0,0.1,0,0.1,0c0,0.1,0,0.1,0,0.1C30.8,52.2,30.8,52.2,30.8,52.1C30.8,52.1,30.8,52.1,30.8,52.1
		z"/>
	<path class="st1" d="M80.2,52.2L80.2,52.2C80.2,52.3,80.1,52.2,80.2,52.2z"/>
	<path class="st1" d="M84.2,52.3c0.1,0.1,0.1,0,0.2,0.1C84.2,52.4,84.3,52.4,84.2,52.3z"/>
	<path class="st1" d="M31.3,52.5C31.3,52.6,31.3,52.6,31.3,52.5c0.1,0.1,0.1,0.1,0.1,0.1c0-0.1,0-0.1,0-0.1S31.4,52.5,31.3,52.5z"/>
	<path class="st1" d="M79.9,52.6c0.2,0,0.2,0,0.3,0.1l-0.1,0.1c-0.1,0.1-0.3,0.1-0.4,0.1c0-0.1,0-0.1,0-0.1
		C79.8,52.7,79.8,52.7,79.9,52.6z"/>
	<path class="st1" d="M30.5,53.2c0-0.1,0-0.2,0-0.4h-0.1l-0.1,0.1c-0.1,0.2-0.1,0.2-0.1,0.2C30.3,53.2,30.3,53.1,30.5,53.2z"/>
	<path class="st1" d="M79.4,53.1c0.3,0,0.6-0.1,0.7,0.1c0.2,0.1,0.3,0.1,0.3,0.4c-0.3,0.3-0.4,0.3-1,0.3
		C79.4,53.6,79.4,53.3,79.4,53.1z"/>
	<path class="st1" d="M81.5,53.2c0.3,0.1,0.5,0.1,0.8,0.1c0.1,0.1,0.1,0.1,0.1,0.1c0,0.1,0,0.1,0,0.1c-0.1,0-0.1,0-0.1,0
		c-0.2,0.1-0.8,0-0.9-0.1l-0.1-0.1C81.4,53.2,81.5,53.2,81.5,53.2z"/>
	<path class="st1" d="M81,53.2c0,0.1,0,0.1,0,0.2c-0.1,0-0.2,0-0.3,0c0-0.1-0.1-0.1-0.1-0.2C80.8,53.2,80.9,53.2,81,53.2z"/>
	<path class="st1" d="M86.8,53.2C87,53.3,86.9,53.2,86.8,53.2L86.8,53.2c-0.1,0.2,0,0.1-0.1,0.2C86.8,53.3,86.8,53.3,86.8,53.2z"/>
	<path class="st1" d="M31.4,53.5c0.1,0,0.1,0,0.2-0.1c-0.1-0.1-0.1-0.1-0.1-0.2h-0.1C31.4,53.4,31.4,53.4,31.4,53.5z"/>
	<path class="st1" d="M83.4,53.4c0.2,0.1,0.1-0.1,0.2,0.1C83.5,53.5,83.5,53.5,83.4,53.4C83.4,53.5,83.4,53.5,83.4,53.4z"/>
	<path class="st1" d="M27,53.6c0.4,0,0.6,0,0.9,0.1c0.1,0.1,0.1,0.1,0.1,0.2c0,0,0,0.1-0.1,0.1c-0.3,0.2-0.9,0.3-1.2,0.1
		c-0.1-0.1,0,0-0.1-0.1C26.8,53.8,26.9,53.7,27,53.6z"/>
	<path class="st1" d="M28.6,53.7c0.1,0,0.1,0,0.1,0v0.1C28.6,53.7,28.6,53.7,28.6,53.7z"/>
	<path class="st1" d="M29.9,53.7c-0.1,0-0.1,0-0.2,0.1l0.1,0.1c0.1,0,0.1,0.1,0.1,0.1C29.9,53.8,29.9,53.7,29.9,53.7z"/>
	<path class="st1" d="M80.5,53.7c0.1,0,0.1,0,0.2,0.1C80.6,53.8,80.6,53.8,80.5,53.7z"/>
	<path class="st1" d="M82.5,53.8c0.2,0,0.3,0,0.4,0.1V54c-0.2,0-0.2,0.1-0.3,0C82.5,53.8,82.6,53.9,82.5,53.8z"/>
	<path class="st1" d="M87.2,53.8c0.2,0,0.2,0.1,0.2,0.1c0,0.1,0,0.1,0,0.1c-0.1,0-0.1,0-0.2,0V53.8C87.3,53.9,87.3,53.9,87.2,53.8z"
		/>
	<path class="st1" d="M28.7,53.9l0.1,0.1C28.7,54,28.6,53.9,28.7,53.9z"/>
	<path class="st1" d="M81.9,53.9c0.2,0,0.5,0.1,0.7,0.1c0,0.1,0,0.1,0,0.1c-0.2,0-0.4,0-0.5,0C82,54,82,54.1,81.9,53.9z"/>
	<path class="st1" d="M29.8,54.3c0.1,0.1,0,0,0.1,0.1L29.8,54.3C29.8,54.4,29.8,54.4,29.8,54.3z"/>
	<path class="st1" d="M32.9,54.4C33,54.4,33,54.4,32.9,54.4L32.9,54.4C32.9,54.5,32.9,54.5,32.9,54.4z"/>
	<path class="st1" d="M31,54.6c0,0.2-0.1,0.1,0.2,0.2c0.1-0.1,0,0,0.1-0.1v-0.1C31.1,54.6,31.1,54.6,31,54.6z"/>
	<path class="st1" d="M80.8,54.6c0.2,0.1,0.1-0.1,0.2,0.1C80.8,54.6,80.8,54.6,80.8,54.6z"/>
	<path class="st1" d="M81.3,54.6C81.4,54.6,81.4,54.6,81.3,54.6L81.3,54.6L81.3,54.6C81.3,54.6,81.4,54.7,81.3,54.6z"/>
	<path class="st1" d="M31.8,54.8c0.1,0.1,0,0,0.1,0.1C31.8,54.8,31.9,54.9,31.8,54.8z"/>
	<path class="st1" d="M79.7,54.8c0.1,0,0.1,0.1,0.2,0.1c-0.1,0.1,0,0.1-0.1,0.1v0c-0.1,0-0.1,0-0.1,0C79.6,54.9,79.6,55,79.7,54.8z"
		/>
	<path class="st1" d="M81.3,55.2c0.3,0,0.7,0.1,0.9,0.3c-0.1,0-0.1,0-0.1,0C81.7,55.3,81.3,55.5,81.3,55.2z"/>
	<path class="st1" d="M80.2,55.8c0.1,0,0.2,0.1,0.4,0.1c0,0.4,0.1,0.4,0.2,0.6c-0.1,0-0.6,0.2-0.6,0.3c0.1,0.1,0.1,0.1,0.1,0.2
		c0.1,0,0.1,0,0.1,0c0.1-0.3,0.2-0.2,0.4-0.3c0-0.1,0-0.1,0-0.2c0.3,0.1,0.5,0.3,0.7,0.4c0,0.2,0,0.3,0.1,0.4c0.2,0,0.1-0.1,0.2,0
		s0,0,0.1,0.1c-0.4-0.2-0.8,0.1-1,0.2c0.2,0,0.3,0,0.4,0c0.1,0.4,0.1,0.6,0.1,1c-0.1,0.1-0.2,0.1-0.3,0.1c0-0.1,0-0.1,0-0.2
		c0.1-0.1,0.1-0.1,0.1-0.1c-0.1,0-0.1,0-0.1,0c-0.3,0.3-0.8,0.2-0.8,0.8c0.2,0.1,0.2,0.1,0.3,0.3h-0.1c-0.2,0.2-0.2,0-0.2,0.2
		c0.1,0.1,0.1,0.1,0.1,0.2c0.2,0,0.3,0,0.5,0c0.1,0.2,0.2,0.2,0.2,0.5c-0.3,0.2-0.9,0.7-0.9,1.1H80c0.2-0.1,0.2-0.1,0.4-0.1
		c0,0.1-0.1,0.1-0.1,0.1c-0.1,0.1-0.2,0.1-0.3,0.1c0.1,0.7,0.7,0.4,0.9,0.8h-0.1c-0.1,0.2-0.4,0.3-0.5,0.4c0-0.2,0-0.2-0.3-0.2
		c0,0.1,0,0.2,0,0.3c0.3,0.2,0.3,0.4,0.7,0.5c0,0.1-0.1,0.1-0.1,0.1c-0.1,0.1-0.2,0.1-0.3,0.1c-0.1-0.1-0.1-0.1-0.3-0.1
		c0,0.1,0,0.1,0,0.1c0.1,0.1,0,0.3,0.1,0.5c0.1,0.1,0.1,0.1,0.2,0.2c0,0.2-0.1,0.3-0.1,0.5c0.1,0.1,0.2,0.3,0.3,0.4
		c0.1,0,0.1,0,0.1,0c0-0.2-0.1-0.1,0.1-0.2c0.1-0.1,0.3-0.1,0.4-0.1c0-0.1,0-0.1,0-0.2c0.1,0,0.1,0,0.1,0c0.2-0.1,0.5,0,0.7,0
		c0,0.1-0.1,0.2-0.1,0.4c-0.4,0.1-0.6,0.5-0.6,0.9c-0.3,0-0.4,0-0.6,0c0,0.1,0,0.1,0,0.1h0.1c0.3,0.2,0.6,0,0.6,0.5
		c-0.1,0.1-0.1,0.3,0.1,0.4c0.2-0.1,0.5,0.1,0.6,0.2s0.1,0.1,0,0.2c0.6,0.1,1.5,0.1,1.7,0.4l0.1,0.1c-0.2,0-0.3,0-0.5,0
		c-0.1-0.1-0.1-0.1-0.4-0.1c0-0.1,0-0.1-0.1-0.2s-0.1-0.1-0.2-0.1c-0.2,0.1-1.5,0-1.6-0.1c-0.2-0.3-0.2-0.5-0.6-0.5
		C80.3,67,80.3,67,80.2,67c0.1,0.1,0.1,0.3,0.1,0.3c0.2,0.2,0.3,0.1,0.4,0.4c-0.1,0.1-0.3,0.1-0.4,0.2c0.2,0.1,0.3,0.1,0.4,0.2
		s-0.1,0.1,0,0.2c0.2,0.2,0.4,0.3,0.6,0.4c-0.1,0.1,0,0.2-0.1,0.2c0.2,0.1,0.2,0.1,0.1,0.1c-0.4-0.4-0.2-0.1-0.6-0.3
		c-0.4-0.2-0.1-0.8-0.8-0.8c-0.1,0.3-0.4,0.3-0.6,0.4c0.1,0.1,0,0.1,0.1,0.1v0.1c0.2-0.1,0.2-0.1,0.4,0c0,0.1,0,0.1,0,0.2
		c-0.1,0.1-0.1,0.1-0.1,0.2l0.1,0.1c0.1-0.1,0.1-0.2,0.2-0.1c0.2,0.1,0.3,0.1,0.3,0.3c-0.1,0.1-0.2,0.1-0.2,0.1v0.1
		c0.1,0,0.1,0,0.2,0c0.1-0.1,0.1-0.1,0.2-0.1l0.1,0.1c0,0.1,0,0.1,0,0.1c-0.4,0.1-0.4,0.2-0.8,0.1c0-0.1,0-0.1,0-0.1
		c0.2-0.1,0.2,0,0.2-0.2C79.5,69,79.5,69,79.4,69c-0.2,0.1-0.2,0.2-0.2,0.2c-0.3,0.1-0.7-0.1-1,0.1s-0.6,0.5-1,0.6s-0.7-0.1-1.1-0.1
		c0,0.2,0.1,0.3,0.1,0.5c-0.1,0.1-0.1,0-0.1,0.1c-0.1-0.1-0.1,0-0.1-0.1c-0.1,0-0.1-0.1-0.2-0.1c0.1-0.3,0.2-0.5,0.2-0.8
		c-0.4-0.2-1-0.2-1.5-0.3c-0.4-0.1-1.1-0.3-1.6-0.4c-0.7-0.2-1.2,0.2-1.9,0c-0.3-0.1-1.2-0.3-1.7-0.1c-0.3,0.1-0.5,0.3-0.9,0.4
		c-0.6,0.1-1.5-0.1-1.9-0.2c-0.3-0.1-0.6,0.1-0.8,0.1c-0.2,0.1-0.2-0.1-0.3-0.1c-0.5,0-1.1,0.1-1.6,0.1c-0.1-0.1-0.1-0.1-0.1-0.2
		s0-0.1,0-0.1c0.1,0,0.1-0.1,0.1-0.1c0.3-0.2,0.8,0.1,1.2,0.1c1.2,0,2.4,0.2,3.4-0.1c0-0.1,0-0.1,0-0.1c-0.1,0-0.1-0.1-0.2-0.1
		c-0.6-0.5-1.4,0.2-1.7,0.1c-0.1-0.1-0.2-0.2-0.2-0.2c-0.2,0-0.4,0.1-0.6,0.1l-0.1-0.2c-0.3,0-0.6,0.1-0.9,0.1c0,0.1,0,0.2,0,0.2
		c-0.4,0-0.3-0.2-0.5-0.2c-0.4,0.1-0.7,0.1-1.1,0.1c0,0.3,0,0.2,0.1,0.4c-0.1,0.1-0.1,0-0.1,0.1c-0.1-0.1-0.1,0-0.1-0.1
		c-0.1-0.2,0.1-0.3-0.4-0.3c-0.2-0.2-0.4,0.1-0.6,0.1c-0.1-0.1-0.1-0.1-0.2-0.2c0-0.1,0.1,0,0-0.1s-0.1-0.1-0.2-0.1
		c-0.2,0.2-1.5,0.2-1.8,0.1c-0.1-0.1,0,0-0.1-0.1c0.1-0.1,0.2-0.1,0.4-0.2v-0.1c-0.2,0-0.3,0-0.4-0.1c-0.1-0.1-0.1-0.2-0.1-0.3
		c0.5-0.1,0.5-0.3,1-0.3c0,0.1,0,0.1,0,0.1c-0.1,0.1-0.1,0.1-0.1,0.1c0.2,0,0.3,0,0.5,0c0.1-0.1,2.2,0.1,2.7,0.1c2.4,0,4.7,0,7.1,0
		l0.1-0.1c0-0.1,0-0.1,0-0.2c0.2,0,0.3,0.1,0.5,0.1c0-0.1,0-0.1,0.1-0.2s0.1-0.1,0.2-0.1c0.1,0.2,0.5,0.3,0.5,0.3
		c0.1-0.1,0,0,0.1-0.1c-0.2-0.1-0.1-0.2-0.1-0.4c0.1-0.1,0.1-0.1,0.2-0.1c0,0.2,0,0.3,0.1,0.4c0.2,0.1,0.6,0.1,0.8,0.2
		c0,0.1,0,0.1,0,0.1c-0.2,0-0.2-0.1-0.2,0.1c0.1,0,0.1,0,0.2,0c0.1-0.1,0.2-0.2,0.3-0.3c0.1,0.2,0.4,0.4,0.6,0.1
		c-0.2-0.1-0.1,0-0.2-0.2c0.1,0,0.1,0,0.2,0c0.1,0.1,0.3,0.1,0.4,0.1c0.2-0.3,0.5-0.6,0.7-0.7c0,0.2-0.1,0.2,0.1,0.3
		c0.1,0.1,0.1,0.1,0.2,0.2c0,0.1,0,0.1,0.2,0.1c0.1-0.1,0.2-0.1,0.3-0.1c0,0.1,0,0.1,0,0.1c-0.1,0-0.1,0-0.2,0.1
		c0.2,0.1,0.4,0.1,0.6,0.1l-0.1,0.1c-0.1,0.1-0.2,0.1-0.2,0.1c0.1,0,0.1,0,0.1,0c0.2,0.1,0.6,0.1,0.7,0c0-0.1,0.1-0.3,0.1-0.5
		c0.6,0,1-0.2,1.1-0.6c-0.2-0.1-0.1,0-0.1-0.1c0.2-0.1,0.5-0.4,0.6-0.6c0-0.1-0.1-0.1-0.1-0.2c0.2-0.1,0.2,0,0.5,0
		c0-0.1,0-0.1,0-0.1c-0.1-0.1,0,0-0.1-0.1c0.1,0,0.1,0,0.2-0.1c-0.2,0-0.3,0.1-0.5,0.1v-0.1c0.2-0.2,0.1-0.4,0-0.6
		c0.3-0.2,0.2-0.2,0.4-0.5c-0.1-0.1-0.1-0.1-0.2-0.1c0,0.2,0.1,0.2-0.1,0.2c-0.3-0.2-0.6,0.2-0.7,0.3c0-0.4-0.1-0.5-0.2-0.8
		c0.2-0.1,0.3-0.2,0.4-0.5c-0.2,0-0.3,0.1-0.4-0.1c0.3-0.1,0.4-0.1,0.5-0.4c-0.2,0-0.3,0-0.4-0.1c0.3-0.1,0.3-0.2,0.6-0.2l0.1,0.1
		c0,0.1,0,0.1,0,0.1c-0.1,0-0.2,0.1-0.2,0.1c0.1,0.1,0.1,0.1,0.1,0.2c0.1,0.1,0.3,0.1,0.4,0.1c0,0.1,0,0.1,0.1,0H79
		C78.8,63,78.8,63,78.8,63s-0.1-0.1-0.1-0.2c0.4,0,0.3,0.1,0.6,0.2c-0.1-0.2-0.1-0.2-0.2-0.3c0.3-0.1,0.2-0.4,0.1-0.7
		c-0.1,0-0.2,0-0.2,0v-0.1h0.1c0.1-0.1,0.1-0.1,0.2-0.2c-0.1-0.1-0.1-0.1-0.2-0.1c0.1-0.1,0.1-0.1,0.1-0.1c-0.2,0-0.2,0-0.3-0.1H79
		c0.1-0.1,0.2-0.1,0.3-0.1c-0.1-0.2-0.1-0.2-0.2-0.3l0.1-0.1c0.1,0,0.1,0,0.2,0c0-0.7,0-1.4,0-2.1c0.2,0,0.2,0,0.3,0.1
		c-0.1,0.1-0.2,0.2-0.1,0.3c0.1,0.2,0.1,0.2,0.2,0.2c0.1,0.1,0.1,0.1,0.3,0c0-0.1,0-0.1,0-0.2c-0.2-0.2,0.1-0.3-0.1-0.5
		c-0.1-0.1-0.3-0.2-0.4-0.2c0-0.1-0.1-0.2-0.1-0.4c0-0.1-0.2-0.1-0.2-0.1c-0.1-0.2,0-2.4,0.1-2.6C79.7,55.6,79.9,55.6,80.2,55.8
		C80.2,55.7,80.2,55.7,80.2,55.8z"/>
	<path class="st1" d="M31.9,55.4c0,0.1,0.1,0.1,0.1,0.2c0.1,0,0.1,0,0.2,0v-0.1c-0.1-0.1,0,0-0.1-0.1C32.1,55.4,32,55.4,31.9,55.4z"
		/>
	<path class="st1" d="M33.2,55.4C33.3,55.5,33.2,55.4,33.2,55.4L33.2,55.4C33.2,55.5,33.2,55.5,33.2,55.4z"/>
	<path class="st1" d="M80.9,55.9c0.1,0,0.1,0.1,0.2,0.1c0,0.1,0,0.1,0,0.1C80.8,56.1,80.9,56.1,80.9,55.9z"/>
	<path class="st1" d="M31.7,56.2C31.7,56.3,31.7,56.3,31.7,56.2c0.1,0.1,0.1,0.1,0.1,0.1c0-0.1,0-0.1,0-0.1
		C31.7,56.2,31.7,56.2,31.7,56.2z"/>
	<path class="st1" d="M81.4,56.3c0.1,0.1,0.1,0.1,0.1,0.2c-0.1,0-0.1,0-0.2,0C81.4,56.4,81.4,56.3,81.4,56.3z"/>
	<path class="st1" d="M83.9,56.3c0.1,0,0.2,0.1,0.2,0.1c0,0.1,0,0.1,0,0.1c-0.1,0-0.2,0-0.4,0c0-0.1,0-0.1,0-0.1
		C83.9,56.3,83.8,56.3,83.9,56.3z"/>
	<path class="st1" d="M29.3,56.3c0.1,0,0.1,0.1,0.2,0.1l-0.1,0.1c-0.1,0.1-0.1,0.1-0.2,0.1C29.3,56.4,29.3,56.4,29.3,56.3z"/>
	<path class="st1" d="M32.3,56.4c0.1,0,0.1,0,0.2,0.1h-0.1c-0.1,0.1,0,0-0.1,0.1C32.3,56.5,32.3,56.4,32.3,56.4z"/>
	<path class="st1" d="M81.4,56.5c0.1,0,0.1,0.1,0.2,0.1v0.1C81.4,56.6,81.4,56.6,81.4,56.5z"/>
	<path class="st1" d="M30.5,56.9c0.2,0.1,0.1,0,0.1,0.2c-0.1,0-0.1,0-0.1,0C30.5,57,30.5,56.9,30.5,56.9z"/>
	<path class="st1" d="M80.2,57c0,0.2-0.1,0.1,0,0.2c0.1,0.1,0,0,0.1,0.1C80.3,57.2,80.3,57.2,80.2,57C80.3,57,80.2,57,80.2,57z"/>
	<path class="st1" d="M32.4,57.5C32.4,57.6,32.4,57.6,32.4,57.5c0.1,0.1,0.2,0.1,0.2,0.1v-0.1l-0.1-0.1
		C32.5,57.5,32.4,57.5,32.4,57.5z"/>
	<path class="st1" d="M33.1,57.8c0.2,0.1,0.1-0.1,0.2,0.1C33.2,57.9,33.2,57.9,33.1,57.8C33.1,57.8,33.1,57.8,33.1,57.8z"/>
	<path class="st1" d="M83.3,58.2c0.2,0.1,0.1-0.1,0.2,0.1C83.2,58.3,83.3,58.4,83.3,58.2z"/>
	<path class="st1" d="M30.7,58.4c0,0.1,0.1,0.2,0.3,0.3c0-0.1,0-0.1,0-0.1C31,58.5,30.8,58.4,30.7,58.4z"/>
	<path class="st1" d="M80.5,58.8c0.3,0,0.3-0.1,0.5,0.1C80.9,59,80.8,59,80.8,59l0.1,0.2c-0.1,0-0.2,0-0.3,0
		C80.6,59,80.6,59.1,80.5,58.8z"/>
	<path class="st1" d="M27.7,58.9c0.3,0.1,0.8,0.1,1.1,0.2c0.1,0.2,0.2,0.4,0.3,0.6c0.2-0.1,0.2-0.1,0.5-0.1c0,0.1,0,0.2,0,0.2
		c-0.2,0.1-0.2,0.1-0.4,0.1c-0.1-0.1-0.1-0.2-0.2-0.3c-0.3,0.3-0.5,0.5-0.9,0.6c0-0.2-0.1-0.3-0.1-0.4c-0.1,0.1-0.1,0.1-0.1,0.1
		l-0.5-0.3c0.1-0.1,0.1-0.3,0.1-0.6C27.5,59,27.6,59,27.7,58.9z"/>
	<path class="st1" d="M32.4,59.2c0.1,0.2,0,0.1,0.2,0.2c0.1,0.1,0.1,0.1,0.2,0.1v-0.1c-0.1-0.1-0.1-0.1-0.1-0.2
		C32.5,59.2,32.5,59.2,32.4,59.2z"/>
	<path class="st1" d="M30,59.4c0.1,0.1,0.1,0.1,0.1,0.2C29.9,59.5,30,59.5,30,59.4z"/>
	<path class="st1" d="M80.8,59.4c0.1,0,0.2,0,0.3,0c0.1,0.1,0.1,0.2,0.1,0.4c-0.1,0.1-0.2,0.1-0.4,0.1c-0.1-0.1,0,0-0.1-0.1
		c0-0.1,0-0.2,0-0.2C80.8,59.4,80.7,59.5,80.8,59.4z"/>
	<path class="st1" d="M33.7,59.7L33.7,59.7C33.7,59.8,33.5,59.7,33.7,59.7z"/>
	<path class="st1" d="M31,59.8C31,59.9,31,59.9,31,59.8l0.1,0.1C31.1,59.9,31.1,59.9,31,59.8L31,59.8z"/>
	<path class="st1" d="M30.1,60c0.1,0.1,0.1,0.1,0.1,0.2c-0.1,0-0.1,0-0.1,0c-0.1-0.1-0.1,0-0.2,0c0-0.1,0-0.1,0-0.1
		C30,60.1,30,60.1,30.1,60z"/>
	<path class="st1" d="M29.3,60.1c0.1,0,0.2,0,0.2,0c0,0.1,0,0.1,0,0.1c-0.1,0.1-0.1,0.2-0.2,0.2C29.3,60.3,29.3,60.3,29.3,60.1z"/>
	<path class="st1" d="M28.8,60.3l0.1,0.1C28.8,60.4,28.7,60.3,28.8,60.3z"/>
	<path class="st1" d="M29.2,60.7c0.1,0,0.2,0,0.2,0l0.1,0.1c-0.1,0.1,0,0.1-0.1,0.1V61c-0.1,0-0.1,0-0.1,0
		C29.3,60.8,29.3,60.8,29.2,60.7z"/>
	<path class="st1" d="M28.7,60.7c0.2,0,0.4,0.1,0.4,0.1c0.1,0.1,0.1,0,0.1,0.1h-0.1C29,61,28.9,61,28.7,61l-0.1-0.1
		C28.7,60.8,28.7,60.8,28.7,60.7z"/>
	<path class="st1" d="M80.8,60.9c0,0.1,0,0.2,0,0.2c-0.1,0.1-0.1,0.1-0.3,0.1c-0.1-0.1-0.1-0.2-0.1-0.3c0.1,0,0.1,0,0.1,0
		C80.7,60.9,80.7,60.9,80.8,60.9z"/>
	<path class="st1" d="M28.5,61.2c0,0.1,0,0.1,0,0.2c-0.1,0-0.1,0-0.2,0c0-0.1-0.1-0.2-0.1-0.2h0.1C28.4,61.1,28.3,61.1,28.5,61.2z"
		/>
	<path class="st1" d="M27.3,61.7c0.1,0,0.2,0,0.2,0c0,0.1,0,0.1,0,0.1l0.1,0.1c-0.1,0-0.1,0-0.1,0C27.4,62,27.4,62,27.3,62
		C27.3,61.9,27.3,61.7,27.3,61.7z"/>
	<path class="st1" d="M81.6,61.9c0-0.1,0-0.1,0.1-0.2c0.1-0.1,0.2-0.1,0.4-0.1c0,0.1,0,0.1,0,0.1C81.8,61.9,81.8,61.9,81.6,61.9z"/>
	<path class="st1" d="M28.7,62c-0.1,0-0.2,0-0.2,0c0-0.1,0-0.1,0-0.2c0.1,0,0.2-0.1,0.2-0.1C28.7,61.9,28.7,62,28.7,62z"/>
	<path class="st1" d="M29,61.8c0.2,0.1,0.1-0.1,0.2,0.1C29,61.9,29.1,61.9,29,61.8z"/>
	<path class="st1" d="M28.2,61.9c0.1,0,0.2,0,0.2,0V62h-0.1C28.2,62,28.3,62,28.2,61.9z"/>
	<path class="st1" d="M29.3,62c0.1,0,0.1,0,0.1,0c0,0.1,0,0.1,0,0.1C29.3,62.1,29.3,62.1,29.3,62L29.3,62z"/>
	<path class="st1" d="M28.3,62.1c0.2,0.1,0.1,0,0.2,0.1l0.1,0.1c-0.1,0-0.1,0-0.1,0C28.4,62.2,28.4,62.2,28.3,62.1z"/>
	<path class="st1" d="M78.8,62.1C78.9,62.1,78.9,62.1,78.8,62.1C78.9,62.2,78.9,62.2,78.8,62.1C78.8,62.2,78.8,62.2,78.8,62.1
		C78.8,62.2,78.8,62.2,78.8,62.1z"/>
	<path class="st1" d="M79.2,62.3C79.4,62.4,79.3,62.3,79.2,62.3L79.2,62.3c-0.1,0.2,0,0.1-0.1,0.2C79.2,62.4,79.2,62.4,79.2,62.3z"
		/>
	<path class="st1" d="M80.1,62.3c0,0.1,0.1,0.1,0.1,0.2c0.2,0,0.3-0.1,0.4-0.1v-0.1l-0.1-0.1C80.4,62.3,80.2,62.3,80.1,62.3z"/>
	<path class="st1" d="M34,62.5C34.1,62.6,34,62.5,34,62.5C34.1,62.5,34.1,62.6,34,62.5z"/>
	<path class="st1" d="M82.1,62.6c0.2,0.1,0.1-0.1,0.2,0.1l-0.1,0.1L82.1,62.6C82.1,62.6,82.1,62.7,82.1,62.6z"/>
	<path class="st1" d="M77.3,63.8c0-0.2-0.1-0.2,0-0.3s0.1-0.1,0.2-0.1c0.1,0.1,0.1,0.1,0.2,0.2h-0.1C77.6,63.8,77.6,63.8,77.3,63.8z
		"/>
	<path class="st1" d="M80.9,63.4c0.1,0,0.2,0,0.2,0c0,0.1,0,0.1,0,0.1C81,63.5,80.9,63.5,80.9,63.4C80.9,63.5,80.9,63.5,80.9,63.4z"
		/>
	<path class="st1" d="M82.1,63.4c0.3,0,0.4,0.1,0.6,0.1c0,0.1,0,0.1,0,0.1c-0.1,0-0.2,0-0.2,0C82.3,63.6,82.2,63.5,82.1,63.4z"/>
	<path class="st1" d="M81.3,63.5C81.4,63.5,81.4,63.5,81.3,63.5L81.3,63.5C81.3,63.6,81.3,63.6,81.3,63.5z"/>
	<path class="st1" d="M81.7,63.5C81.8,63.5,81.8,63.5,81.7,63.5L81.7,63.5L81.7,63.5C81.7,63.6,81.7,63.6,81.7,63.5z"/>
	<path class="st1" d="M29.7,63.6c0.1,0,0.1,0,0.1,0v0.1C29.7,63.6,29.8,63.6,29.7,63.6z"/>
	<path class="st1" d="M78.4,63.6c-0.1,0.2-0.1,0.1-0.1,0.2c0.1,0,0.1,0,0.2,0c0.1-0.1,0.1-0.1,0.1-0.2
		C78.5,63.6,78.4,63.6,78.4,63.6z"/>
	<path class="st1" d="M29.9,63.8c0.2,0.1,0.1-0.1,0.2,0.1l-0.1,0l0,0C30,63.8,30,63.9,29.9,63.8z"/>
	<path class="st1" d="M83.1,63.8C83.2,63.8,83.2,63.8,83.1,63.8L83.1,63.8C83.1,63.8,83.1,63.9,83.1,63.8z"/>
	<path class="st1" d="M29.8,63.9c0.1,0,0.1,0,0.1,0V64C29.8,63.9,29.8,64,29.8,63.9z"/>
	<path class="st1" d="M34.4,63.9c0.1,0.1,0.1,0.1,0.2,0.1l0,0C34.5,64,34.4,63.9,34.4,63.9z"/>
	<path class="st1" d="M83.6,64.3c0.2,0.1,0.3,0.1,0.4,0.3c-0.1,0.1-0.2,0.1-0.3,0.1C83.6,64.6,83.6,64.5,83.6,64.3z"/>
	<path class="st1" d="M29.2,64.6c-0.1,0-0.1,0-0.2,0c0-0.2,0.1-0.2,0.1-0.2L29.2,64.6C29.2,64.5,29.2,64.5,29.2,64.6z"/>
	<path class="st1" d="M27.9,64.5c0.2,0.1,0.1-0.1,0.2,0.1C27.9,64.6,27.9,64.6,27.9,64.5z"/>
	<path class="st1" d="M34.4,64.5C34.5,64.5,34.5,64.5,34.4,64.5C34.5,64.6,34.5,64.6,34.4,64.5C34.4,64.6,34.4,64.6,34.4,64.5
		C34.4,64.5,34.4,64.5,34.4,64.5z"/>
	<path class="st1" d="M33.4,64.5c0.1,0.1,0.1,0.1,0.2,0C33.6,64.5,33.6,64.5,33.4,64.5z"/>
	<path class="st1" d="M81.4,65.3c0.1-0.2,0.1-0.2,0.2-0.3c-0.2-0.1-0.2-0.1-0.3-0.2l-0.1,0.1c-0.1,0-0.2,0-0.2,0.1
		c0.1,0.1,0.1,0.2,0.1,0.3C81.2,65.3,81.2,65.3,81.4,65.3z"/>
	<path class="st1" d="M83.6,64.8C83.7,64.9,83.7,64.9,83.6,64.8L83.6,64.8z"/>
	<path class="st1" d="M30,64.9C30,65,30,65,30,64.9l0.1,0.1C30.1,64.9,30.1,64.9,30,64.9L30,64.9z"/>
	<path class="st1" d="M35,65c0.2,0,0.2,0.1,0.2,0.1v0.1C35,65.1,35,65.2,35,65z"/>
	<path class="st1" d="M28.3,65.1c0.1,0,0.1,0,0.1,0c0,0.1,0,0.1,0,0.1C28.3,65.2,28.4,65.3,28.3,65.1z"/>
	<path class="st1" d="M80.8,65.3c0.1,0.1,0.1,0.1,0.1,0.2c-0.1,0.1-0.1,0.1-0.1,0.1c0.1,0,0.1,0,0.2,0c0.1-0.1,0.1-0.1,0.2-0.3
		c-0.1,0-0.1,0-0.1,0C80.9,65.3,80.9,65.3,80.8,65.3z"/>
	<path class="st1" d="M33.4,65.3C33.4,65.4,33.4,65.4,33.4,65.3L33.4,65.3C33.4,65.4,33.4,65.4,33.4,65.3L33.4,65.3z"/>
	<path class="st1" d="M79.7,65.5c-0.1,0.1-0.1,0.2-0.2,0.2l0.1,0.1c0.1,0.1,0.2,0.1,0.4,0.1c0-0.1,0-0.1,0-0.1
		C79.9,65.7,79.8,65.5,79.7,65.5z"/>
	<path class="st1" d="M82,65.7c0.2,0.1,0.1-0.1,0.2,0.1C82.1,65.8,82.1,65.8,82,65.7C82,65.8,82,65.8,82,65.7z"/>
	<path class="st1" d="M28.5,65.8c0.1,0,0.1,0,0.2,0.1c-0.1,0.1,0,0-0.1,0.1C28.4,65.9,28.5,66,28.5,65.8z"/>
	<path class="st1" d="M34.1,66c0-0.1,0-0.1-0.1-0.2c-0.1,0.1,0,0-0.1,0.1c0,0.1,0,0.1,0,0.1C34,66,34.1,66,34.1,66z"/>
	<path class="st1" d="M82.4,65.9C82.5,65.9,82.5,65.9,82.4,65.9L82.4,65.9C82.4,65.9,82.4,65.9,82.4,65.9z"/>
	<path class="st1" d="M79.3,65.9C79.3,66.1,79.2,66,79.3,65.9h0.2v-0.1C79.4,65.9,79.3,65.9,79.3,65.9z"/>
	<path class="st1" d="M28.8,66c0.1,0,0.2,0,0.2,0l0,0h-0.1c-0.1,0.1-0.1,0.1-0.2,0.1C28.7,66.1,28.8,66,28.8,66z"/>
	<path class="st1" d="M78.9,66C79,66.1,78.9,66,78.9,66C79,66,79,66,78.9,66z"/>
	<path class="st1" d="M35.5,66L35.5,66C35.5,66.1,35.4,66,35.5,66z"/>
	<path class="st1" d="M37.9,66c0.1,0,0.2,0,0.2,0c0,0.1,0,0.1,0,0.1C38,66.1,37.9,66.1,37.9,66C37.9,66.1,37.9,66.1,37.9,66z"/>
	<path class="st1" d="M29.8,66.1c0.1,0,0.1,0,0.1,0v0.1C29.9,66.2,29.9,66.2,29.8,66.1z"/>
	<path class="st1" d="M80.2,66.2C80.2,66.3,80.2,66.3,80.2,66.2L80.2,66.2C80.3,66.2,80.3,66.2,80.2,66.2L80.2,66.2z"/>
	<path class="st1" d="M83,66.2c0.2,0,0.2,0.1,0.2,0.1c0,0.1,0,0.1,0,0.1c-0.1,0-0.2,0-0.2,0C83,66.3,83,66.2,83,66.2z"/>
	<path class="st1" d="M78.7,66.2c0,0.1,0.1,0.1,0.1,0.2c0.1-0.1,0.1,0,0.1-0.1c0.2-0.1,0.1,0,0.1-0.1C78.9,66.2,78.8,66.2,78.7,66.2
		z"/>
	<path class="st1" d="M79.3,66.4C79.3,66.5,79.3,66.5,79.3,66.4C79.4,66.5,79.4,66.5,79.3,66.4C79.4,66.4,79.4,66.4,79.3,66.4
		C79.4,66.4,79.4,66.4,79.3,66.4z"/>
	<path class="st1" d="M80.3,66.4c0,0.1,0,0.2,0.1,0.4c0.1,0,0.1,0,0.1,0c0-0.1,0-0.1,0-0.2C80.4,66.5,80.4,66.5,80.3,66.4z"/>
	<path class="st1" d="M45,66.5C45.2,66.6,45.1,66.5,45,66.5v0.2l0,0C45,66.6,45,66.5,45,66.5z"/>
	<path class="st1" d="M77.7,66.5c0.2,0.1,0.2,0,0.4,0.1c0,0.1-0.1,0.1-0.1,0.1c-0.1,0.1-0.2,0.1-0.4,0.1c0-0.1-0.1-0.1-0.1-0.2
		C77.6,66.5,77.6,66.5,77.7,66.5z"/>
	<path class="st1" d="M36.6,66.5C36.7,66.5,36.7,66.5,36.6,66.5C36.7,66.6,36.7,66.6,36.6,66.5C36.6,66.6,36.6,66.6,36.6,66.5
		C36.6,66.6,36.6,66.6,36.6,66.5z"/>
	<path class="st1" d="M35.9,66.6c0.1,0.1,0.1,0.1,0.2,0.2c0-0.1,0-0.1,0-0.1C36.1,66.7,36,66.7,35.9,66.6z"/>
	<path class="st1" d="M38.7,66.7c0.1,0.1,0.2,0.1,0.2,0C38.9,66.7,38.8,66.7,38.7,66.7z"/>
	<path class="st1" d="M45,66.7C45.1,66.8,45,66.7,45,66.7L45,66.7C45,66.8,45,66.7,45,66.7z"/>
	<path class="st1" d="M47.5,66.8C47.5,66.9,47.5,66.9,47.5,66.8L47.5,66.8L47.5,66.8C47.5,66.8,47.6,66.8,47.5,66.8z"/>
	<path class="st1" d="M45.1,66.8c0.1,0,0.2,0.1,0.3,0.1L45.3,67C45.2,67,45.2,67,45.1,66.8z"/>
	<path class="st1" d="M74.6,66.8c0.2,0.1,0.2,0,0.2,0.2c-0.1,0.1-0.2,0.1-0.4,0.1c-0.1-0.2-0.1-0.2-0.1-0.3
		C74.5,66.9,74.5,66.9,74.6,66.8z"/>
	<path class="st1" d="M38.2,66.9c-0.1,0.1-0.1,0.2-0.2,0.3c0.1,0,0.2,0,0.3,0c0-0.1,0.1-0.1,0.1-0.2h0.1l-0.1,0
		C38.3,66.9,38.3,66.9,38.2,66.9z"/>
	<path class="st1" d="M56.9,67.1c0.1-0.2-0.1-0.1,0.1-0.2c0,0.1,0.1,0.1,0.1,0.2C57,67.1,57,67.1,56.9,67.1z"/>
	<path class="st1" d="M60.7,66.9c0,0.1,0,0.2,0,0.4c-0.2,0-0.3-0.1-0.4-0.1h0.1C60.4,67,60.4,66.9,60.7,66.9z"/>
	<path class="st1" d="M47.9,67.1c0.1,0.1,0.1,0.1,0.2,0C48,67.1,48,67.1,47.9,67.1z"/>
	<path class="st1" d="M45.8,67.2c0,0.1,0.1,0.1,0.1,0.2c0.1,0,0.1-0.1,0.2-0.1v-0.1H46C45.9,67.2,45.9,67.2,45.8,67.2z"/>
	<path class="st1" d="M59.5,67.2c0.2,0,0.3,0,0.4,0.1l-0.1,0.1C59.6,67.5,59.5,67.4,59.5,67.2z"/>
	<path class="st1" d="M48,67.4C48,67.5,48,67.5,48,67.4c0.1,0.1,0.1,0.1,0.2,0.1c0-0.1,0-0.1,0-0.1C48.1,67.4,48.1,67.4,48,67.4z"/>
	<path class="st1" d="M48.4,67.4c0.1,0.1,0.1,0.1,0.2,0.1l0.1-0.1v-0.1C48.6,67.4,48.5,67.4,48.4,67.4z"/>
	<path class="st1" d="M59.3,67.5c0.2,0.1,0.2,0.1,0.2,0.2c-0.2,0-0.9,0.3-1,0.3c-0.1-0.1,0,0-0.1-0.1C59,67.3,58.9,67.7,59.3,67.5z"
		/>
	<path class="st1" d="M82.6,67.6c0.2,0.1,0.1-0.1,0.2,0.1C82.7,67.7,82.7,67.7,82.6,67.6L82.6,67.6z"/>
	<path class="st1" d="M57.9,67.6c0.1,0,0.2,0.1,0.4,0.1v0.1h-0.1c-0.1,0.1-0.1,0.1-0.4,0.1c0-0.1-0.1-0.1-0.1-0.2
		C57.9,67.7,57.8,67.7,57.9,67.6z"/>
	<path class="st1" d="M64.1,67.7c0.1,0.1,0.2,0.1,0.2,0C64.3,67.7,64.2,67.7,64.1,67.7z"/>
	<path class="st1" d="M67.2,67.7c0,0.1-0.1,0.2-0.1,0.2c0.1,0,0.2,0,0.2,0L67.2,67.7C67.4,67.8,67.3,67.7,67.2,67.7z"/>
	<path class="st1" d="M71.4,68.2c0-0.1,0-0.1-0.1-0.2s-0.1-0.1-0.2-0.1c0,0.1,0,0.1-0.1,0.2c0-0.2,0.1-0.1,0-0.2
		c-0.2,0.1-0.2,0.2-0.4,0.2c-0.1-0.3-0.9-0.4-1-0.4c-0.2,0.1-0.5,0.1-0.7,0.2c-0.1,0.1-0.1,0.1-0.1,0.2h0.1c0.2,0.2,0.6,0,0.9,0.1
		c0.8,0.2,2.1,0.4,3,0.2v-0.1c-0.1,0-0.1-0.1-0.2-0.1C72.3,68.1,71.8,68.2,71.4,68.2z"/>
	<path class="st1" d="M65,67.7C65,67.9,64.9,67.8,65,67.7h0.2v-0.1C65.1,67.7,65,67.7,65,67.7z"/>
	<path class="st1" d="M52.9,67.8C52.9,67.9,52.9,67.9,52.9,67.8c0.2,0.1,0.2,0,0.2,0v-0.1C53.1,67.8,53,67.8,52.9,67.8z"/>
	<path class="st1" d="M68.2,67.8c0.1,0.2-0.1,0.1,0.1,0.2C68.3,67.9,68.3,67.9,68.2,67.8C68.3,67.8,68.2,67.8,68.2,67.8z"/>
	<path class="st1" d="M67.6,67.9C67.7,68,67.7,68,68,68l0,0C67.9,68,67.7,67.9,67.6,67.9z"/>
	<path class="st1" d="M68.5,67.9C68.5,68,68.5,68,68.5,67.9C68.6,68,68.6,68,68.5,67.9C68.6,67.9,68.6,67.9,68.5,67.9
		C68.6,67.9,68.6,67.9,68.5,67.9z"/>
	<path class="st1" d="M50.4,68C50.4,68.1,50.4,68.1,50.4,68c0.1,0.1,0.1,0.1,0.2,0.1c0-0.1,0-0.1,0-0.1C50.5,68,50.5,68,50.4,68z"/>
	<path class="st1" d="M73.6,68.2c0-0.1,0-0.1,0-0.2c-0.2,0-0.3,0-0.4,0.1c0.2,0,0.2-0.1,0.2,0.1c-0.1,0-0.1,0-0.1,0
		c-0.3,0.2-0.5-0.1-0.6,0.3c0.1,0,0.1,0,0.1,0c0.3,0.2,1.2,0.1,1.4-0.2c-0.1,0-0.1,0-0.1,0S73.9,68.2,73.6,68.2z"/>
	<path class="st1" d="M34.1,68C34.2,68.1,34.1,68,34.1,68L34.1,68C34.1,68.1,34.1,68.1,34.1,68z"/>
	<path class="st1" d="M43.1,68.1C43.2,68.1,43.2,68.1,43.1,68.1L43.1,68.1C43.2,68.2,43.2,68.2,43.1,68.1z"/>
	<path class="st1" d="M43.9,68.1c0.1,0,0.1,0,0.2,0.1c0.1,0.1,0.1,0.1,0.1,0.2c-0.1,0-0.1,0-0.1,0c-0.1,0,0,0.1-0.1,0
		C43.8,68.2,43.8,68.3,43.9,68.1z"/>
	<path class="st1" d="M34.4,68.2c0.2,0.1,0.1-0.1,0.2,0.1C34.5,68.3,34.5,68.3,34.4,68.2C34.4,68.3,34.4,68.2,34.4,68.2z"/>
	<path class="st1" d="M36.2,68.2c0.1,0,0.2,0,0.3,0c0.1,0.1,0.1,0.1,0.1,0.2c-0.1,0-0.1,0-0.1,0c-0.1,0,0,0.1-0.1,0
		C36.3,68.4,36.3,68.3,36.2,68.2C36.2,68.3,36.2,68.2,36.2,68.2z"/>
	<path class="st1" d="M56.1,68.2c0.1,0,0.2,0,0.2,0c0,0.1,0,0.1-0.1,0.2v0.1c-0.1,0-0.1,0-0.2,0C56.1,68.3,56.1,68.3,56.1,68.2z"/>
	<path class="st1" d="M33.6,68.2c0.2,0.1,0.1-0.1,0.2,0.1C33.6,68.3,33.6,68.4,33.6,68.2z"/>
	<path class="st1" d="M52.2,68.3c0,0.1,0.1,0.1,0.1,0.2c0.1,0,0.1,0,0.1,0c0-0.1,0-0.1,0-0.1L52.2,68.3
		C52.2,68.3,52.3,68.3,52.2,68.3z"/>
	<path class="st1" d="M64,68.4C64.1,68.5,64,68.4,64,68.4L64,68.4C64,68.4,64,68.4,64,68.4z"/>
	<path class="st1" d="M74.7,68.4c-0.1,0.1-0.1,0.1-0.2,0.1L74.7,68.4c0,0.2,0,0.2,0.1,0.2c0.1-0.1,0.1-0.1,0.1-0.2
		C74.8,68.4,74.8,68.4,74.7,68.4z"/>
	<path class="st1" d="M34.2,68.4c0.2,0.1,0.1,0,0.1,0.2c-0.1,0-0.1,0-0.1,0C34.2,68.5,34.2,68.5,34.2,68.4z"/>
	<path class="st1" d="M31.5,68.5c0.1,0,0.2,0,0.2,0v0.1h-0.1C31.6,68.5,31.6,68.6,31.5,68.5z"/>
	<path class="st1" d="M40.4,68.5C40.5,68.5,40.5,68.5,40.4,68.5L40.4,68.5C40.4,68.5,40.4,68.5,40.4,68.5z"/>
	<path class="st1" d="M32.3,68.6c0.1,0.1,0.1,0.4,0.1,0.5c-0.1,0.2-0.1,0.2-0.3,0.2c-0.1-0.1-0.2-0.1-0.2-0.2C32,69,32,69,32,68.9
		C32.1,68.8,32.2,68.7,32.3,68.6z"/>
	<path class="st1" d="M33.7,68.6c0.1,0.1,0.1,0,0.2,0.1C33.7,68.7,33.8,68.7,33.7,68.6z"/>
	<path class="st1" d="M76.1,68.6C76.1,68.7,76.1,68.7,76.1,68.6L76.1,68.6L76.1,68.6C76.1,68.6,76.2,68.7,76.1,68.6z"/>
	<path class="st1" d="M29,68.7c0.2,0.1,0.1,0,0.1,0.2c0,0-0.1,0-0.1,0.1c-0.1,0,0,0.1-0.1,0l-0.1-0.1C28.9,68.9,29,68.8,29,68.7z"/>
	<path class="st1" d="M35.7,68.7C35.8,68.8,35.8,68.8,35.7,68.7C35.7,68.9,35.6,68.8,35.7,68.7z"/>
	<path class="st1" d="M40.3,68.8c0.1,0,0.2,0,0.2,0c0.1,0.1,0.1,0.1,0.1,0.2c-0.2,0-0.3,0-0.4,0c-0.1-0.1-0.1-0.1-0.1-0.2
		C40.2,68.9,40.2,68.8,40.3,68.8z"/>
	<path class="st1" d="M39,68.9C39.1,68.9,39.1,68.9,39,68.9L39,68.9C39,68.9,39,69,39,68.9z"/>
	<path class="st1" d="M81.1,69c0.2,0,0.2,0.1,0.2,0.1v0.1c-0.1,0-0.2,0-0.2,0C81.1,69,81.1,69,81.1,69z"/>
	<path class="st1" d="M45.6,69C45.7,69,45.7,69,45.6,69L45.6,69C45.6,69,45.6,69.1,45.6,69z"/>
	<path class="st1" d="M37.7,69.1c0.1,0.1,0.1,0.1,0.1,0.2c-0.1,0-0.1,0-0.2,0C37.7,69.2,37.7,69.1,37.7,69.1z"/>
	<path class="st1" d="M39.6,69.1c0.1,0,0.1,0.1,0.2,0.1c-0.1,0.1,0,0.1-0.1,0.1v0.1c-0.1-0.1-0.1,0-0.1-0.1
		C39.5,69.1,39.6,69.2,39.6,69.1z"/>
	<path class="st1" d="M33.6,69.1c0.2,0.1,0.1-0.1,0.2,0.1c-0.1,0.1-0.1,0.1-0.1,0.2l-0.1-0.1C33.4,69.2,33.5,69.3,33.6,69.1z"/>
	<path class="st1" d="M84.4,69.1c0.1,0,0.2,0,0.2,0c0,0.1,0,0.1,0,0.1L84.4,69.1c0,0.2,0,0.2-0.1,0.2C84.4,69.2,84.4,69.2,84.4,69.1
		z"/>
	<path class="st1" d="M39,69.2c0.1,0,0.2,0.1,0.2,0.1C39,69.5,38.9,69.4,39,69.2z"/>
	<path class="st1" d="M80.6,69.2C80.7,69.3,80.6,69.2,80.6,69.2L80.6,69.2C80.6,69.3,80.6,69.3,80.6,69.2z"/>
	<path class="st1" d="M32.4,69.3c0.1,0,0.2,0,0.2,0v0.1h-0.1C32.4,69.4,32.5,69.5,32.4,69.3z"/>
	<path class="st1" d="M44.2,69.3C44.3,69.3,44.3,69.3,44.2,69.3C44.3,69.4,44.3,69.4,44.2,69.3C44.2,69.4,44.2,69.4,44.2,69.3
		L44.2,69.3z"/>
	<path class="st1" d="M82.5,69.5c0.2,0.1,0.3,0.1,0.4,0.2c-0.1,0-0.1,0-0.1,0c-0.1,0.1,0,0-0.2,0C82.6,69.6,82.6,69.5,82.5,69.5z"/>
	<path class="st1" d="M61.5,69.9c0-0.1,0-0.1,0-0.2c0.2-0.1,0.2-0.2,0.5-0.2c0.1,0.2,0.1,0.2,0.1,0.4c-0.1,0-0.1,0-0.1,0
		C61.8,70,61.7,69.9,61.5,69.9z"/>
	<path class="st1" d="M83,69.5c0.1,0,0.2,0,0.2,0c0.1,0.1,0.2,0.2,0.2,0.2l-0.1,0.1C83.2,70,83.1,70,82.9,70v-0.1
		c0.2-0.1,0.2,0,0.2-0.2C83.1,69.7,83.1,69.6,83,69.5z"/>
	<path class="st1" d="M75.8,69.9c-0.1,0-0.2,0-0.3,0c-0.1-0.1-0.1-0.1-0.1-0.2c0.1-0.1,0.1-0.1,0.2-0.1c0.1,0.1,0.1,0,0.1,0.1
		C75.8,69.7,75.8,69.8,75.8,69.9z"/>
	<path class="st1" d="M78.9,69.7c0,0.1,0,0.2,0,0.2h-0.1C78.8,69.8,78.8,69.8,78.9,69.7c-0.2,0-0.2,0-0.2,0
		C78.8,69.7,78.9,69.7,78.9,69.7z"/>
	<path class="st1" d="M78.9,70.1C79,70.1,79,70.1,78.9,70.1C79,70.2,79,70.2,78.9,70.1C78.9,70.2,78.9,70.2,78.9,70.1
		C78.9,70.1,78.9,70.1,78.9,70.1z"/>
	<path class="st1" d="M62.7,70.2c0.1,0,0.2,0,0.3,0c0,0.1,0,0.1,0,0.1C62.9,70.3,62.8,70.3,62.7,70.2C62.7,70.3,62.7,70.2,62.7,70.2
		z"/>
	<path class="st1" d="M76.6,70.2c0.1,0,0.1,0,0.2,0.1L76.6,70.2c0,0.2,0.1,0.1,0,0.2C76.6,70.3,76.6,70.3,76.6,70.2z"/>
	<path class="st1" d="M79.5,70.3C79.6,70.4,79.6,70.4,79.5,70.3L79.5,70.3z"/>
	<path class="st1" d="M79,70.5c0.2,0.1,0.1-0.1,0.2,0.1C79.1,70.6,79.1,70.7,79,70.5z"/>
	<path class="st1" d="M67.2,71C67.3,71,67.3,71,67.2,71C67.3,71.1,67.3,71.1,67.2,71C67.2,71.1,67.2,71.1,67.2,71
		C67.2,71.1,67.2,71.1,67.2,71z"/>
</g>
</svg>
