<?xml version="1.0" encoding="utf-8"?>
<!-- Generator: Adobe Illustrator 25.2.1, SVG Export Plug-In . SVG Version: 6.00 Build 0)  -->
<svg version="1.1" id="Layer_1" xmlns="http://www.w3.org/2000/svg" xmlns:xlink="http://www.w3.org/1999/xlink" x="0px" y="0px"
	 viewBox="0 0 200 200" style="enable-background:new 0 0 200 200;" xml:space="preserve">
<style type="text/css">
	.st0{fill:#231F20;}
	.st1{fill:#FFFFFF;}
</style>
<g>
	<path class="st0" d="M150.1,25.5c-1.1-0.4-2.8-0.1-4.1-0.2c-0.2,0.2-0.1,0.1-0.5,0.2c0,0.1,0,0.2,0,0.2c1.5,0,3,0,4.5,0
		C150.1,25.7,150.1,25.6,150.1,25.5z"/>
	<path class="st0" d="M198.5,127.4c0.1,0,0.2,0,0.2,0c-0.4-1.1-1-0.8-1.8-1.4c-0.1-0.2,0-0.8-0.2-1.2c-0.7-0.5-1.1-0.4-2-0.5
		c-0.1-1-0.2-2.1-0.2-3.1c0.1-0.4,0.6-0.8,0.5-1.7c-0.2-1.1-1.3-1.9-1.6-2.9c-0.3-0.8-0.2-1.1-0.5-1.7c-3.2-0.1-5.6-0.4-8.8-0.5
		c-0.2-1-0.5-1.2-1.1-1.7c0.1-1.6,1.1-1.8,2.7-1.7c0.1-0.1,0.2-0.2,0.2-0.2c-0.4-1.9-1.2-0.8-1.8-1.7c-0.2-0.3-0.2-1.5-0.2-1.7
		c-0.4-0.2-0.9-0.2-1.6-0.2c-0.1-0.1-0.2-0.2-0.2-0.2c0.1-3.4,0.9-5.2-0.9-6.9c0.1-0.5,0.1-0.5,0.2-0.7c1-0.8,2.9-0.6,3.8-1.4
		c0.1,0,0.2,0,0.2,0c-0.3-1-1.2-1.3-2-1.7c0.1-0.5,0.1-0.5,0.2-0.7c2-1.4,5.9,0.2,7.7-1c0.2,0,0.3,0,0.5,0c0-0.2,0-0.3,0-0.5
		c-0.5-0.3-1.2-0.6-1.6-1c-0.1,0-0.2,0-0.2,0c0.3-0.6,1.1-0.5,1.6-1c0.1-0.1,0.2-0.2,0.2-0.2c-0.4-0.3-3.7-2.6-3.8-2.9
		c-0.2-0.2-0.1-0.1-0.2-0.5c0.2-0.2,0.3-0.4,0.5-0.7c0.8,0.1,1.5,0.2,2.3,0.2c0.1,0.5,0.1,0.5,0.2,0.7c0,0.2,0,0.3,0,0.5
		c0.5-0.1,0.6,0,0.9-0.2c0.2-0.2,0.1-0.1,0.2-0.5c-0.5-0.5-0.8-1.6-1.4-1.9c-0.7-0.5-1.8-0.6-2.5-1c-0.1-0.4,0-0.2-0.2-0.5
		c0.2-1.7,1.2-0.8,2-1.7c0.2-0.3,0.1-0.3-0.2-0.7c0-0.2,0-0.3,0-0.5c1.4,0.1,1.7,0.7,2.3,1.7c0.6,0,1-0.1,1.4-0.2
		c-0.2-1.8-0.6-1-1.8-1.7c-0.5-0.3-0.7-1.2-1.4-1.4c-1.1-0.4-1.8,0.1-2.5-0.5c-0.1,0-0.2,0-0.2,0c0.3-0.9,0.7-1,1.6-1.2
		c-0.2-2-1.4-2.1-2.5-3.1c-0.2-0.2-0.1-0.1-0.2-0.5c0.1-0.1,0.2-0.2,0.2-0.2c1.9,0.1,2.7,0.6,3.6,1.7c0.6,0,1,0,1.4-0.2
		c0.1-0.1,0.2-0.2,0.2-0.2c-0.1,0-0.2,0-0.2,0c-0.7-1-4.2-3.2-5.6-3.3c0.2-0.7,0.4-0.8,0.9-1.2c-0.2-0.6-0.3-0.8-0.7-1.2
		c0.1-0.9,0.2-0.9,0.5-1.4c0.7,0.1,1,0.3,1.6,0c0.2-0.2,0.1-0.1,0.2-0.5c-1.7-0.8-1.5-1.5-2.7-2.4c0-0.2,0-0.3,0-0.5
		c0.1-0.1,0.2-0.2,0.2-0.2c1,0,1.4,0.2,2,0.5c0.1-0.1,0.2-0.2,0.2-0.2c-0.2-1-0.6-1.1-1.4-1.4c0.1-1.2,0.4-1.2,0.9-1.9
		c-0.5-0.2-1.1-0.5-1.6-0.7c0.1-0.5,0.1-0.5,0.2-0.7c0.4-0.9,1.6-1.2,2.7-1.4c-0.5-1.5-1.6-1.3-3.2-1.2c0.5-0.9,2.6-0.7,3.4-1.2
		c0.1-0.1,0.2-0.2,0.2-0.2c-0.5-0.3-1.1-0.8-1.6-1.2c-0.1-0.1-0.2-0.2-0.2-0.2c0.4-0.1,0.7-0.2,1.4-0.2c-0.4-2.1-2.3-2.1-3.8-2.9
		c0-1,0.2-1.1,0.5-1.7c1.8,0.1,1.8,0.9,2.9,1.4c0.1-0.1,0.2-0.2,0.2-0.2c-0.3-2.9-3.2-1.7-4.1-3.8c-0.2-0.2-0.1-0.1-0.2-0.5
		c0.5-0.4,0.8-0.5,1.8-0.5c0.1-0.1,0.2-0.2,0.2-0.2c-0.2-0.9-0.3-0.8-0.7-1.4c0.1-0.1,0.2-0.2,0.2-0.2c1.7-0.1,1.6,0.2,2,1.4
		c1,0,1.2-0.1,1.8-0.5c-0.2-0.8-2.5-2.1-3.2-2.4c-0.8-0.3-1.9,0.1-2.5-0.2c-0.2,0-0.3,0-0.5,0c0.1-1.2,0.4-1.2,1.4-1.4
		c-0.2-1.5-1.5-2.3-2.9-2.6c0-0.2,0-0.5,0-0.7c2.1,0,3,0.2,4.1,1.2c0.5-0.1,0.6-0.1,0.9-0.2c-0.2-0.8-3.4-2.9-4.1-3.1
		c-0.8-0.3-1.7,0.1-2.3-0.2c-0.2-0.2-0.1-0.1-0.2-0.5c0.5-0.2,0.9-0.4,1.6-0.5c-0.2-1.2-1-1.5-2-1.7c0.4-1.2,1.9-1,3.2-1.2
		c-0.1-0.5-0.1-0.5-0.2-0.7c-1-0.7-5.2-1.9-7-1.9c-1.1,0.1-2.3,0.2-3.4,0.2c-1.3-0.3-3.5-0.8-5.4-0.5c-2,0.3-6.3,1.5-7.9,0.2
		c-0.2-0.1-0.5-0.2-0.7-0.2c0.1-0.5,0.1-0.5,0.2-0.7c0-0.2,0-0.3,0-0.5c4.9,0.4,10.8,0.2,16,0.2c1.8,0,6.2,0.6,7.5-0.2
		c0.1-0.1,0.2-0.2,0.2-0.2c-2.9-1.2-9.2-0.1-10.8-2.6c-0.5,0.1-0.6,0-0.9,0.2c-0.2,0.3-0.2,0.6-0.2,1.2c-0.1,0.1-0.2,0.2-0.2,0.2
		c-0.9,0-5.5-0.3-5.9-0.5c-1-0.1-0.9-0.1-1.1-1c-1.9-0.1-2.9-0.7-3.8,0.2c-0.9-0.2-1-0.5-1.4-1.2c-0.4,0-0.8,0-1.1,0
		c0.2,1.2,0.7,1,0.9,2.1c-1-0.1-1.8-0.6-2.5-0.7c-1.2-0.2-2.9,0.5-4.5,0.5c-2.9,0-5.9,0.1-8.4-0.5c-1-0.2-2.5,0.1-3.2,0.2
		c-1.4,0.3-4.8-0.2-6.1-0.5c-1.6-0.4-2.6,0.5-3.4,0.7c-0.6,0.1-1-0.4-1.4-0.5c-2.2,0.1-4.4,0.2-6.6,0.2c-1.4-0.3-4,0.3-5.6-0.2
		c-0.5-0.2-1-0.6-2-0.5c-0.9,0.2-1.8,0.3-2.7,0.5c-0.6-0.1-1.5-0.8-2-1c-1.5-0.4-2.5,0.5-3.2,0.7c-0.4,0.1-5.2-0.1-5.6-0.2
		c-3.9-0.9-7.7,0.8-11.1,0.7c-7.7-0.3-16,1.5-23.5-0.2c-2.2-0.5-4.5-0.1-6.3-0.5c-3.7-0.1-7.4-0.2-11.1-0.2
		c-3.4-0.8-7.8-0.5-11.8-0.5c-1.4,0-2.9,0-4.3,0c-1.9,0.4-9.7,1.1-10.8,0.2c-0.5,0.1-0.6,0.1-0.9,0.2c0.1,1.1,0.4,1.1,1.1,1.4
		c-0.1,0.7-0.1,0.8-0.5,1.2c0.2,1.3,2,2.1,2.9,2.6c0,0.2,0,0.3,0,0.5c-0.5-0.1-0.8-0.2-1.1-0.5c-0.5,0.1-0.4,0.1-0.7,0.2
		c-0.2,0.2-0.3,1-0.5,1.2c-0.4,0.9-2,1.5-2.9,1.7c0.1,1.1,0.4,1,0.7,1.9c0.6,1.6-2.4,4-0.7,5.5c-0.3,1.6-1.9,2.4-2.7,3.6
		c0.4,0.4,0.6,0.7,1.1,1c-0.2,2-1.2,1-2.7,1.7c-0.5,0.5-0.9,1-1.4,1.4c-1.7,0.8-3.9-1.1-5.4-0.2c-0.2,0-0.3,0-0.5,0
		c0.2,1.1,1.4,1.3,2.3,1.7c-0.1,0.6-0.1,0.6-0.2,1c-2.3,0.6-5.6,1.1-8.4,1.4c-0.1,0.1-0.2,0.2-0.2,0.2c0.5,0.7,1.3,0.7,2,1.2
		c0.1,0,0.2,0,0.2,0c-0.3,0.6-1.1,0.6-1.8,0.7c0.5,1.7,2.5,2.3,4.3,2.6c0.1,0.4,0,0.2,0.2,0.5C6,59.2,6,59.1,5.7,59.6
		C4.2,59.7,3.1,60,3,58.4c-0.2-0.1-0.5-0.2-0.7-0.2c-0.2,0.2-0.3,0.5-0.5,0.7c0.4,0.5,0.8,1.6,1.4,1.9C4,60.9,4.7,61,5.5,61
		c0.4,0.1,0.8,0.7,1.1,1c0,0.7-0.1,1-0.2,1.4c-0.5,0-1.1,0-1.6,0c0.1,0.7,0,0.6,0.5,1c-0.1,0.2-0.2,0.5-0.2,0.7
		c-1.7,0-2-0.5-2.7-1.4c-0.8,0.1-0.8,0.2-1.4,0.5c0.2,1,2.6,2.3,3.4,2.6c1.1,0.4,2-0.4,2.7,0c0.2,0,0.3,0,0.5,0
		C7.4,68,7,67.9,6.2,68.2c0.2,2,1.7,2.3,3.2,2.9c0,0.2,0,0.3,0,0.5c-1.7,0.4-3.4,0.2-4.3-1c-0.6,0-1,0.1-1.4,0.2
		c0.2,0.6,3.7,2.7,4.3,2.9c0.9,0.3,1.9-0.1,2.5,0.2c0.2,0.3,0.1,0.2,0.2,0.7c-0.5,0.1-0.9,0.2-1.4,0.2C9.2,75,9.2,75,9.1,75.1
		c0.3,0.9,1.1,1.2,2,1.4C11,77,11.1,77,10.9,77.3c-0.7,0.6-1.4,0.3-2.7,0.2C8.1,77.6,8,77.7,8,77.7c0.9,2.4,5.7,1.6,7.7,2.9
		c0.1,0,0.2,0,0.2,0c-0.1,0.2-0.2,0.3-0.2,0.5c-1,0.2-3.6,0.9-4.5,0.2c-0.9,0-1.9,0-2.5,0.2c0,0.2,0,0.3,0,0.5c1,0.2,1.9,0.7,2.7,1
		c1.3,0.4,3.3-0.4,4.3,0.2c0.2,0,0.3,0,0.5,0c-0.1,0.4,0,0.2-0.2,0.5c-0.5,0.4-1.1,0.5-2,0.5c-0.1,0.1-0.2,0.2-0.2,0.2
		c0.4,1.8,1,0.9,1.6,1.7c0.2,0.3,0.2,1.5,0.2,1.7C16,87.9,16.9,88,17,88c1.4,1-0.3,4,0.2,5.7c0.2,0.5,0.9,1.1,1.1,1.7
		c0.2,0.6,0,1.1,0.2,1.4c1.5,2,6.4,1.3,9.5,1.2c0.3,0.3,0.6,0.5,0.9,0.7c-0.1,0.5-0.1,0.5-0.2,0.7c-1.5,1.3-4.6,0.2-6.6,0.5
		c-0.8,0.1-0.7,1-1.8,0.7c-0.2,0-0.8-0.6-0.9-0.7c-1.4,0-2.6,0-3.4,0.5c0.3,0.8,1.6,1.3,2.3,1.7c-0.1,0.2-0.2,0.5-0.2,0.7
		c-2.1,0.5-5.3,1.1-7.9,1.4c-0.1,0.1-0.2,0.2-0.2,0.2c0.3,0.9,1.1,1,2,1.2c-0.3,0.6-1.2,0.7-1.8,1c1,1.5,2.7,1.8,4.3,2.6
		c-0.1,0.9-0.2,0.9-0.5,1.4c-1.7,0.1-2,0-2.5-1.2c-0.5,0.1-0.6,0.1-0.9,0.2c0.6,2.9,4.3,2,4.3,4.1c-0.3,0.7-0.9,0.7-1.6,1
		c0.1,0.5,0.2,1,0.2,1.4c-0.5,0.1-0.4,0.1-0.7,0.2c-1-0.2-1.2-0.7-1.6-1.4c-0.7,0-0.6-0.2-0.9,0c-0.2,0.1-0.5,0.2-0.7,0.2
		c0.2,2.6,4.5,2.2,6.1,2.9c-0.1,0.6-0.1,0.6-0.2,1c-0.4,0.1-0.8,0.2-1.1,0.2c0.2,2,1.5,2.3,2.9,2.9c-0.1,0.2-0.2,0.5-0.2,0.7
		c-2.3,0-2.8-0.8-4.5-1.2c-0.2,0.2-0.4,0.3-0.7,0.5c0.2,0.2,3.8,2.5,4.1,2.6c0.8,0.3,1.7-0.1,2.3,0.2c0.2,0.1,0.5,0.2,0.7,0.2
		c-0.1,0.4,0,0.2-0.2,0.5c-0.3,0.2-1.3,0.3-1.6,0.5c-0.2,0.1-0.5,0.2-0.7,0.2c0.2,1,0.4,1.2,1.4,1.4c-0.2,1.1-0.7,0.9-1.6,1.2
		c0.5,1.3,1.5,1,2.5,1.7c0.2,0,0.3,0,0.5,0c-0.4,2-2.3,3.6-3.8,4.5c0.2,0.9,0.2,0.8,0.9,1.2c-0.1,2.1-1.8,4.9-0.5,6
		c-0.2,1.4-1.5,2.9-2.5,3.6c0.4,0.5,0.8,0.9,1.4,1.2c0,0.2,0,0.3,0,0.5c-0.8,0.7-1.6,1.1-2.9,1.2c-0.1,0.1-0.2,0.2-0.2,0.2
		c0.2,0.6,0.4,0.7,0.7,1.2c0.4,0.1,0.8,0.2,1.1,0.2c0,0.6,0,0.9,0.2,1.2c0.3,0.8,1.4,0.9,2,1.2c-0.1,0.7-0.6,4.5-0.2,5.5
		c0.2,0.4,1,1,1.1,1.4c0.2,0.8-0.4,0.9,0.2,1.7c2.6,2.1,7.6-0.2,11.3,1c1.1,0.3,1.2,1.4,2.5,1.7c0.1-0.5,0.1-0.5,0.2-0.7
		c0.4-0.6,1.2-0.8,2-1c0.2,0.2,0.1,0.1,0.5,0.2c0,0.2,0,0.5,0,0.7c-0.8,0.1-1,0.1-1.4,0.5c-0.2,0.1-0.5,0.2-0.7,0.2
		c0.1,0.2,0.2,0.5,0.2,0.7c0.7,0.2,1.9,0.9,2.7,0.2c0.6,0,1,0.1,1.4,0.2c-0.3,0.8-0.7,0.9-1.4,1.2c0.3,0.9,1.1,1,2,1.2
		c-0.2,1.6-1.1,1-2,1.7c-0.2,0.3-0.1,0.2-0.2,0.7c2.1,0,3.7,1.2,5.9,0.7c3.3-0.8,10.8-2.3,13.1-4.1c1,0.1,1.2,0.3,1.8,0.7
		c-0.1,0.4,0,0.2-0.2,0.5c-0.7,0.5-1.9,0.2-2.7,0.5c-3.2,1.2-7.2,2.3-10.6,3.3c-2.1,0.6-4.3,0.2-5.6,1.2c-0.2,0.1-0.3,0.2-0.5,0.2
		c0,0.2,0,0.3,0,0.5c1.1,0.1,2.3,0.2,3.4,0.2c1.8-0.4,5.5-2.1,6.8-0.5c0.5,0,0.9,0,1.4,0c-0.2-0.3-0.2-0.5-0.5-0.7
		c0.1-0.8,0.2-0.7,0.5-1.2c1.4,0.1,2.6,0.2,3.2-0.7c1.4,0,1.8,0.1,2.3,1c1.7-0.1,2.5-1.2,3.4,0c0.2,0,0.5,0,0.7,0
		c-0.3-0.9-0.6-0.8-0.7-1.9c2.3,0.1,3.3-0.3,5.2-0.7c3.6-0.9,7.4,0.3,10.8-0.5c1.8-0.4,3.4,1.2,4.7,0.5c0,0,0.7-0.9,0.9-1
		c0.4-0.1,1.7,0.4,2,0.5c2.7,0.2,6.3-0.3,9.3,0.5c1.8,0.5,2.4-1,3.6-0.7c0.7,0.2,1.3,1.2,2,1.4c1.9,0.5,4.7-1.2,7-0.7
		c2.2,0.5,5.4,0.2,7.5-0.2c1.4-0.3,3,0.4,4.1,0.2c3.3-0.5,6.8-0.7,10.4-0.7c3.1,0,6.3-0.1,8.8,0.5c1.8,0.4,4.3-0.1,5.9,0.2
		c2.2,0.5,7.1,0,9-0.5c2.6-0.1,5.1-0.2,7.7-0.2c4.5-1.1,8.8-1.8,12.7-3.1c2.1-0.7,4.4-0.5,6.1-1.7c0.2-0.1,0.3-0.2,0.5-0.2
		c-0.3-0.9-1.1-1.3-1.8-1.7c0.2-1.3,0.8-1.5,1.4-2.4c1.1,0,2.7,0.2,3.4,0.7c1,0,1.2-0.1,1.8-0.5c-0.2-1.1-1.2-1.3-2-1.7
		c0.1-0.5,0.1-0.5,0.2-0.7c1.8-1.4,6-0.4,7.7-1.9c0.4-0.9-0.4-2.4-0.9-3.3c3.1-1.2,8.2-1.6,11.5-1.4c-0.2-2.1-1-1.1-1.4-2.1
		c-0.1-0.4,0.2-1.4,0-1.9c-0.9-0.2-1.9-0.4-2.5-1c-0.1,0-0.2,0-0.2,0c0.4-0.8,0.8-0.4,1.6-0.2c0.2-0.4,0.2-1.5,0.5-1.9
		c0.6-1,2.1-0.7,2.7-1.9c0.2-0.8-0.7-0.9-0.7-2.4c0-3.2,1.5-2.4,0-5.2c0.8-0.8,1.7-2.5,2.3-3.6c-0.4-0.2-0.8-0.5-1.1-0.7
		C196.2,127.5,197.4,128.3,198.5,127.4z M161.2,26.7c0.2,0.1,0.3,0.2,0.5,0.2c0,0.2,0,0.3,0,0.5c-0.2,0-0.5,0-0.7,0
		C161,27.2,161.1,26.9,161.2,26.7z M49.3,27.6c0.2,0,0.5,0,0.7,0C49.6,27.9,49.7,27.9,49.3,27.6z M54.5,28.6c0-0.1,0-0.2,0-0.2
		c0.3-0.2,0.5-0.3,0.7-0.5c0.7,0,1.6-0.1,2,0.2c0.2,0.3,0.1,0.2,0.2,0.7C56.5,28.8,55.5,28.7,54.5,28.6z M95.4,167.2
		c-0.2,0-0.5,0-0.7,0c0-0.2,0-0.3,0-0.5c0.2,0,0.5,0,0.7,0C95.4,166.9,95.4,167.1,95.4,167.2z M107.4,28.6c-0.2-0.3-0.1-0.2-0.2-0.7
		c0.6,0,0.8,0,1.1,0.2c0.2,0.3,0.1,0.2,0.2,0.7C108,28.8,107.7,28.8,107.4,28.6z M141.3,167.2c-0.7,0-1.6,0.1-2-0.2
		c-0.4-0.3,0-0.1,0.2-0.5c0.6,0,1.2,0,1.8,0c0.1,0.1,0.2,0.2,0.2,0.2C141.4,166.9,141.4,167.1,141.3,167.2z M146.9,167
		c-1.4,0-2.7,0-4.1,0c0.4-0.3,1.6-0.2,2-0.5c0.6,0,1.2,0,1.8,0c0.1,0.1,0.2,0.2,0.2,0.2C146.9,166.8,146.9,166.9,146.9,167z"/>
	<path class="st0" d="M168.9,25.5c0,0.2,0,0.3,0,0.5c0.2,0,0.5,0,0.7,0C169.2,25.4,169.6,25.7,168.9,25.5z"/>
	<path class="st0" d="M184.2,30.3c0-0.2,0-0.5,0-0.7c-0.4-0.1-0.8-0.2-1.1-0.2C182.7,30.3,183,30.7,184.2,30.3z"/>
	<path class="st0" d="M188.5,66.3c-0.2,0.2-0.1,0.1-0.5,0.2c0.1,0.2,0.2,0.5,0.2,0.7c0.5-0.1,0.6,0,0.9-0.2c0.1-0.1,0.2-0.2,0.2-0.2
		c-0.1,0-0.2,0-0.2,0C188.9,66.4,189.1,66.5,188.5,66.3z"/>
	<path class="st0" d="M7.1,80.1c-0.2,0.2-0.1,0.1-0.5,0.2c0.1,0.2,0.2,0.5,0.2,0.7c0.3,0,0.6,0,0.9,0C7.5,80.5,7.5,80.5,7.1,80.1z"
		/>
	<path class="st0" d="M15.9,132.6c0.2,0,0.5,0,0.7,0c-0.3-0.8-0.5-0.9-1.1-1.2c-0.1,0.6-0.1,0.4,0,1
		C15.8,132.5,15.6,132.4,15.9,132.6z"/>
</g>
<g>
	<path class="st1" d="M66.4,74.8c1.2,0.5,4,1.4,5.7,1c0.4,0,0.7,0,1.1,0c1.2-0.3,2.3-0.3,3.4-0.7c3.5-1.4,6.4-3.7,7.9-7.2
		c0.4-1,0.7-2.1,1-3.3c0.6-2.6-0.3-6.1-1.1-7.8c-2.3-4.7-6.3-8-13.4-7.9c-0.3,0.2-0.9,0-1.2,0.1c-1,0.2-2,0.4-2.9,0.7
		c-3.8,1.5-6.5,4.2-8,8c-0.3,0.8-0.5,1.7-0.7,2.6c-0.4,1.9,0,4.5,0.5,5.9C60.1,70.6,62.3,73,66.4,74.8z M63.7,60.9
		c0.1-0.4,0.2-1,0.4-1.4c0.9-2.2,2.4-3.9,4.6-4.8c0.5-0.1,1-0.3,1.5-0.4c0.4-0.1,0.8,0,1.1-0.1c4.3,0,6.8,2.2,8,5.4
		c0.4,1.1,0.8,2.9,0.4,4.4c-0.2,0.6-0.4,1.2-0.6,1.9c-1.2,2.7-3.4,4.1-6.5,4.8c-1.4,0.3-3.1-0.3-4-0.6c-2.6-1.1-3.9-2.7-4.7-5.5
		C63.6,63.5,63.4,62,63.7,60.9z"/>
	<path class="st1" d="M45.2,75c4.1-1.1,7.3-3,8.8-6.6c0.6-1.3,0.8-2.8,1.1-4.4c0-0.4,0-0.7,0-1.1c0.4-1.8-0.5-4.7-1-6
		c-1.5-3.6-4-5.7-7.8-7c-2.1-0.7-4.7-0.6-7.5-0.6c-2.4,0-4.9,0-7.3,0c0,8.6,0,17.3,0,25.9c2.8,0,5.6,0,8.3,0
		C41.8,75.3,43.7,75.4,45.2,75z M37.3,70c0-5.2,0-10.3,0-15.5c4.6,0,8.7-0.1,10.6,2.5c0.6,0.8,1,1.9,1.3,3c0.2,0.7,0.3,2,0.1,2.8
		c0,0.5,0,0.9-0.1,1.4c-0.2,0.9-0.4,1.9-0.9,2.6C46.5,70.1,42.5,70.1,37.3,70z"/>
	<path class="st1" d="M95.1,66.6c1.3,0,2.5,0,3.8,0c0.2,0.1,1.1,1.9,1.3,2.2c1,1.5,1.8,3,2.8,4.5c0.4,0.6,1.1,1.3,1.2,2
		c2.2,0,4.4,0,6.5,0c-0.3-0.6-0.8-1.2-1.2-1.8c-1-1.6-2-3.2-3-4.7c-0.5-0.8-1-1.6-1.5-2.4c-0.2-0.3-0.3-0.7-0.6-1c0,0,0-0.1,0-0.1
		c2-0.9,3.4-2.5,4.2-4.7c1.3-3.7-0.7-7.8-2.8-9.4c-1.2-0.9-2.6-1.4-4.3-1.8c-1.2-0.3-2.8-0.1-4-0.1c-2.7,0-5.4,0-8.2,0
		c0,8.6,0,17.3,0,25.9c1.9,0,3.8,0,5.7,0C95.1,72.4,95.1,69.5,95.1,66.6z M95.1,54.5c1.6,0,5.1-0.3,6.2,0.2c1.1,0.4,1.7,1.4,2,2.7
		c0.2,0.9-0.2,1.8-0.4,2.3c-1.2,2.3-4.3,1.9-7.8,1.9C95.1,59.2,95.1,56.9,95.1,54.5z"/>
	<ellipse class="st1" cx="116.8" cy="62.3" rx="4" ry="18.3"/>
	<path class="st1" d="M129.9,54.5c0,6.9,0,13.8,0,20.7c1.9,0,3.9,0,5.8,0c0-6.9,0-13.8,0-20.7c2.3,0,4.6,0,6.9,0c0-1.7,0-3.5,0-5.2
		c-6.6,0-13.2,0-19.7,0c0,1.2,0,2.4,0,3.7c0,0.5-0.1,1.2,0.1,1.6C125.3,54.5,127.6,54.5,129.9,54.5z"/>
	<path class="st1" d="M162.1,49.3c-2.1,3.6-4.1,7.1-6.2,10.7c0,0,0,0-0.1,0.1c-0.3-1-1.1-1.9-1.6-2.8c-1.1-1.8-1.9-3.7-3-5.5
		c-0.4-0.7-1.2-1.7-1.4-2.5c-2.1,0-4.1,0-6.2,0c0.1,0.5,0.5,0.8,0.7,1.2c0.5,0.8,1,1.6,1.4,2.4c1.7,2.8,3.1,5.6,4.8,8.3
		c0.6,0.9,1.1,1.9,1.7,2.9c0.3,0.4,0.7,0.9,0.9,1.4c0,3.3,0,6.5,0,9.8c1.9,0,3.9,0,5.8,0c0-3.3,0-6.5,0-9.8c0-0.1,0.3-0.3,0.3-0.4
		c0.5-0.9,1-1.7,1.5-2.6c1.4-2.3,2.7-4.6,4-6.9c0.9-1.4,1.7-2.9,2.6-4.4c0.4-0.6,0.6-1.4,1.1-1.9c0,0,0,0,0-0.1
		C166.2,49.3,164.2,49.3,162.1,49.3z"/>
	<path class="st1" d="M99.9,103.2c-1-3.9-4.2-5.1-7.7-6.5c-1.5-0.6-4.3-1-4.9-2.4c-0.8-1.9,1.4-3.5,3.5-3c1.8,0.4,3.2,0.7,4.1,2
		c0.7-0.3,1.7-1.3,2.4-1.8c0.5-0.3,1.1-0.6,1.4-1.1c0.2-0.2-1.2-1.5-1.5-1.7c-2.1-1.6-3.8-2.7-7.7-2.6c-0.6,0.1-1.3,0.2-1.9,0.2
		c-1.2,0.3-2.3,0.8-3.2,1.4c-2.2,1.6-3.8,5.2-2.4,8.7c0.5,1.2,1.6,2.3,2.6,3c2,1.3,4.8,2,7.1,3c1.2,0.5,2.3,0.9,2.6,2.3
		c0.2,0.6-0.2,1.2-0.4,1.5c-0.2,0.3-0.4,0.6-0.7,0.8c-0.6,0.4-2.5,0.9-3.7,0.6c-2.5-0.5-4.5-1.4-5.5-3.4c-0.5,0.1-0.9,0.6-1.2,0.8
		c-0.9,0.6-2.2,1.2-2.9,2c0,0,0,0-0.1,0.1c0.4,0.4,0.6,1.1,1,1.6c1,1.4,2.6,2.5,4.2,3.2c0.9,0.4,2,0.6,3,0.8
		c0.7,0.2,2.1,0.3,2.7,0.1c0.4,0,0.8,0,1.2,0c0.6-0.1,1.1-0.2,1.7-0.2c3.3-0.9,5.4-2.5,6.3-5.8C100.2,105.8,100.1,104.1,99.9,103.2z
		"/>
	<path class="st1" d="M129.4,112.7c1.1-0.2,2-0.2,2.9-0.6c1.8-0.8,3.3-1.8,4.7-2.9c0.6-0.4,0.9-1.2,1.4-1.6c0-3.5,0-7,0-10.5
		c-4.1,0-8.1,0-12.2,0c0,1.7,0,3.4,0,5c1.6,0,3.1,0,4.7,0c0.7,0,1.6-0.1,2.2,0.1c0,1.1,0,2.3,0,3.4c-0.1,0.3-1.1,0.8-1.5,1
		c-1.6,0.8-4.3,1.5-6.5,0.7c-3.2-1-5-3.1-5.8-6.5c-0.3-1.1-0.1-2.8,0.2-3.7c0.9-2.9,2.9-4.8,5.8-5.6c0.9-0.2,2.2-0.5,3.4-0.2
		c1.4,0.3,2.6,0.6,3.6,1.2c0.5,0.3,0.8,0.9,1.4,1.1c0.6-0.7,1.4-1.3,2.2-1.9c0.6-0.4,1-1.1,1.6-1.4c-0.2-0.6-1.5-1.4-2.1-1.8
		c-1.2-0.8-2.5-1.5-4.1-2c-0.6-0.2-1.1-0.2-1.7-0.3c-0.7-0.2-2-0.3-2.9-0.1c-0.6,0.1-1.2,0-1.7,0.1c-5.2,1.3-8.5,3.7-10.5,8.3
		c-0.4,0.9-0.6,1.9-0.9,3c0,0.4,0,0.9-0.1,1.3c-0.1,0.3-0.2,1-0.1,1.4c0.1,0.6,0.1,1.3,0.2,2c0.3,1,0.5,2,0.9,2.9
		c1.4,3.2,4.1,5.5,7.3,6.8c0.6,0.3,1.2,0.3,1.8,0.5C125.3,112.9,127.7,113.1,129.4,112.7z"/>
	<path class="st1" d="M46.4,87c-1.8-0.5-4-0.5-6.3-0.5c-2.7,0-5.4,0-8.1,0c0,8.6,0,17.3,0,25.9c2.8,0,5.6,0,8.3,0
		c1.9,0,3.7,0.1,5.3-0.3c4-1,7.2-2.9,8.7-6.3c0.6-1.3,0.8-2.6,1.2-4.2c0-0.6,0-1.2,0.1-1.8c0.3-2-0.4-4.3-1-5.7
		C53.1,90.4,50.4,88.2,46.4,87z M49.8,99.7c0,0.4,0,0.8,0,1.2c-0.2,1.1-0.3,2.2-0.8,3c-2,3.5-5.8,3.5-11.3,3.4c0-5.2,0-10.3,0-15.5
		c4.6,0,8.7-0.1,10.6,2.5c0.6,0.8,1,1.9,1.3,3C49.9,97.9,49.9,99.1,49.8,99.7z"/>
	<path class="st1" d="M77.3,91.8c0-1.7,0-3.5,0-5.2c-5.9,0-11.8,0-17.7,0c0,8.6,0,17.3,0,25.9c6,0,12,0,18,0c0-1.7,0-3.5,0-5.2
		c-4.1,0-8.2,0-12.3,0c0-1.8,0-3.7,0-5.5c3.7,0,7.5,0,11.2,0c0-1.7,0-3.4,0-5.1c-3.7,0-7.5,0-11.2,0c0-1.6,0-3.2,0-4.9
		C69.3,91.8,73.3,91.8,77.3,91.8z"/>
	<ellipse class="st1" cx="106.6" cy="99.5" rx="4" ry="18.3"/>
	<path class="st1" d="M148.2,96c0.5,0.4,0.9,1.1,1.3,1.7c0.9,1.2,1.9,2.4,2.8,3.6c2,2.7,4.2,5.3,6.2,8c0.8,1.1,1.8,2,2.5,3.2
		c1.6,0,3.2,0,4.7,0c0-8.6,0-17.3,0-25.9c-1.8,0-3.7,0-5.5,0c0,5.4,0,10.7,0,16.1c-0.5-0.3-0.7-0.9-1.1-1.4
		c-0.9-1.2-1.8-2.3-2.7-3.5c-2-2.7-4.1-5.2-6.1-7.9c-0.8-1.1-1.8-2.1-2.6-3.2c-1.7,0-3.4,0-5.1,0c0,8.6,0,17.3,0,25.9
		c1.8,0,3.7,0,5.5,0C148.2,107,148.2,101.5,148.2,96z"/>
	<path class="st1" d="M79.7,123.3c-0.3,0.2-0.9,0-1.3,0.1c-1,0.2-2.1,0.4-3,0.8c-3.8,1.6-6.4,4.3-8,8.2c-0.3,0.8-0.4,1.7-0.6,2.6
		c-0.4,1.7,0,4.1,0.4,5.4c1.5,4.6,4.1,7.2,8.4,9c1.1,0.5,3.8,1.2,5.4,0.9c0.4,0,0.7,0,1.1,0c1.2-0.3,2.4-0.4,3.5-0.8
		c3.4-1.4,6.3-3.7,7.7-7c0.4-1,0.7-2.1,1-3.2c0.7-2.6-0.1-5.7-0.9-7.5C91.2,126.8,86.8,123.2,79.7,123.3z M88.5,138.5
		c-0.2,0.6-0.4,1.2-0.6,1.7c-1.1,2.6-3.4,4-6.5,4.7c-1.2,0.3-2.9-0.2-3.7-0.5c-2.8-1.1-4.2-2.6-5-5.5c-0.3-0.8-0.5-2.3-0.2-3.4
		c0.1-0.6,0.3-1.3,0.5-1.9c0.9-2.2,2.7-3.9,5-4.7c0.5-0.2,1.8-0.2,2.2-0.4c4.2,0,6.6,2.2,7.8,5.1C88.5,134.8,88.9,136.8,88.5,138.5z
		"/>
	<path class="st1" d="M158.5,134.1c-1.5-0.6-4.3-1.1-5-2.3c-1.2-1.9,1.2-3.8,3.4-3.3c0.6,0.1,1.2,0.1,1.7,0.3c1,0.3,1.6,1,2.3,1.6
		c0.1,0.1,0,0,0.1,0.1c1.2-1,2.5-1.9,3.7-2.9c0.1,0-0.2-0.5-0.3-0.6c-0.5-0.5-0.9-1-1.5-1.4c-2-1.5-3.9-2.4-7.5-2.4
		c-0.3,0.2-1.8,0.2-2.2,0.4c-1.2,0.4-2.3,0.9-3.2,1.6c-1.7,1.3-3.2,4.5-2.2,7.5c0.5,1.6,1.5,2.9,2.7,3.7c1.9,1.3,4.4,1.9,6.7,2.9
		c1.2,0.5,2.4,0.8,3,1.9c0.7,1.4-0.3,2.8-1.3,3.2c-0.5,0.2-0.9,0.2-1.6,0.3c-0.4,0.1-1.2,0.2-1.7,0.1c-1.8-0.4-3-0.8-4.2-1.7
		c-0.6-0.4-0.8-1.2-1.4-1.6c0,0,0,0-0.1-0.1c-0.3,0.4-1,0.7-1.4,1c-0.9,0.6-1.7,1.4-2.7,1.9c0.3,1,1.2,1.8,1.8,2.4
		c0.6,0.6,1.3,1.3,2.1,1.7c2.5,1.5,7.5,2.2,11,1.1c2.5-0.8,4.3-2.4,5.1-4.9c0.2-0.5,0.2-1.1,0.3-1.6c0.3-1.2-0.2-2.9-0.5-3.7
		C164.3,136.4,161.5,135.3,158.5,134.1z"/>
	<path class="st1" d="M60,125.3c-0.4,1.1-0.6,2.2-1,3.2c-0.8,2.4-1.3,4.8-2.1,7.2c-0.2,0.7-0.4,1.5-0.7,2.2c-0.2,0.5-0.5,1-0.5,1.6
		c0,0,0,0-0.1,0c-0.4-1-0.5-2-0.9-3c-0.7-2.1-1.2-4.4-1.9-6.6c-0.5-1.4-0.8-2.8-1.2-4.2c-0.2-0.6-0.5-1.2-0.6-1.9
		c-1.1,0-2.2,0-3.2,0c-0.4,0-1.1-0.1-1.3,0.1c-0.3,0.4-0.3,1-0.4,1.5c-0.3,1-0.6,2.1-0.9,3.2c-0.8,2.3-1.3,4.7-2.1,7
		c-0.3,0.8-0.5,1.7-0.7,2.6c-0.1,0.4-0.4,0.9-0.4,1.4c-0.3-0.2-0.2-0.7-0.4-1c-0.3-0.9-0.5-1.9-0.9-2.9c-0.9-2.7-1.7-5.6-2.6-8.3
		c-0.3-0.8-0.5-1.7-0.7-2.4c-0.1-0.4-0.1-0.8-0.3-1.1c0,0,0-0.1,0-0.1c-1.9,0-3.8,0-5.7,0c0.1,0.8,0.5,1.7,0.7,2.4
		c0.5,1.6,0.9,3.2,1.4,4.7c1.4,4.1,2.3,8.3,3.7,12.4c0.4,1.3,0.8,2.7,1.2,4.1c0.2,0.7,0.6,1.5,0.7,2.2c0,0,0,0,0.1,0.1
		c1.6,0,3.2,0,4.9,0c0.5-1.9,1.1-3.8,1.7-5.6c0.6-1.8,1-3.5,1.6-5.4c0.3-0.9,0.5-1.9,0.9-2.9c0.2-0.5,0.5-1,0.5-1.6c0,0,0,0,0.1,0
		c0.5,1.9,1.1,3.8,1.7,5.6c0.6,1.8,1,3.5,1.6,5.4c0.3,1,0.6,2,0.9,3c0.1,0.4,0.4,0.9,0.4,1.4c1.6,0,3.3,0,4.9,0
		c0.1-0.9,0.5-1.8,0.8-2.6c0.5-1.4,0.8-2.8,1.2-4.1c1.2-3.6,2.1-7.2,3.2-10.7c0.7-2.1,1.2-4.2,1.9-6.2c0.2-0.7,0.3-1.7,0.7-2.3
		c0,0,0,0,0-0.1c-1.9,0-3.8,0-5.7,0C60.4,124.3,60.2,124.8,60,125.3z"/>
	<path class="st1" d="M115.2,142.7c-0.6-1-1.4-1.9-1.9-3c1.8-0.9,3.3-2.3,4-4.2c1.6-3.9-0.4-8.2-2.8-10c-1.1-0.8-2.5-1.3-4.1-1.7
		c-1.2-0.3-2.8-0.1-4-0.1c-2.7,0-5.5,0-8.2,0c0,8.6,0,17.3,0,25.9c1.9,0,3.8,0,5.7,0c0-2.9,0-5.8,0-8.6c1.3,0,2.5,0,3.8,0
		c0.2,0.1,0.3,0.4,0.4,0.6c0.4,0.6,0.7,1.2,1.1,1.8c0.9,1.5,1.9,3,2.8,4.5c0.4,0.6,0.8,1.1,1.1,1.7c2.2,0,4.3,0,6.5,0
		c-0.3-0.9-1.1-1.8-1.6-2.6C117,145.6,116.2,144.2,115.2,142.7z M111.7,134.1c-1.3,2.4-4.3,2-7.8,1.9c0-2.3,0-4.7,0-7
		c1.6,0,5.1-0.3,6.2,0.2c1.2,0.5,1.7,1.5,2.1,2.9C112.3,132.8,112,133.7,111.7,134.1z"/>
	<path class="st1" d="M138.7,140.2c-0.9-1.2-1.7-2.4-2.6-3.6c-0.3-0.4-0.5-1-0.9-1.3c0.1-0.4,0.5-0.5,0.7-0.8c0.7-1,1.6-1.8,2.4-2.7
		c1-1.3,2.2-2.5,3.2-3.8c0.3-0.3,0.5-0.5,0.8-0.8c0.9-1.1,1.8-2.4,2.9-3.4c0,0,0,0,0-0.1c-2.3,0-4.5,0-6.8,0
		c-3.3,3.8-6.6,7.7-10,11.5c0,0,0,0-0.1,0c0-3.8,0-7.7,0-11.5c-1.9,0-3.8,0-5.7,0c0,8.6,0,17.3,0,25.9c1.9,0,3.8,0,5.7,0
		c0-2.4,0-4.7,0-7.1c0.3-0.3,0.5-0.5,0.8-0.8c0.6-0.9,1.5-1.5,2.1-2.4c0,0,0.1,0,0.1,0c0.5,1,1.3,1.8,1.9,2.7
		c1.1,1.6,2.2,3.2,3.4,4.9c0.7,0.9,1.5,1.8,2.1,2.8c2.2,0,4.5,0,6.7,0c-0.6-1.1-1.5-2.1-2.2-3C141.8,144.5,140.2,142.4,138.7,140.2z
		"/>
</g>
</svg>
