<?xml version="1.0" encoding="utf-8"?>
<!-- Generator: Adobe Illustrator 22.1.0, SVG Export Plug-In . SVG Version: 6.00 Build 0)  -->
<svg version="1.1" id="Layer_1" xmlns="http://www.w3.org/2000/svg" xmlns:xlink="http://www.w3.org/1999/xlink" x="0px" y="0px"
	 viewBox="0 0 170.5 109.9" style="enable-background:new 0 0 170.5 109.9;" xml:space="preserve">
<style type="text/css">
	.st0{opacity:0.1;}
	.st1{fill:#FFFFFF;stroke:#000000;stroke-miterlimit:10;}
	.st2{fill:#FFFFFF;}
</style>
<path class="st0" d="M82,9c-18.2,0-38.4,1.4-51.2,7c-11.9,5.2-17.9,11.3-20.1,16.2c-2.9,6.4-1.3,22.1-1.3,22.1
	c2,5.1,8.1,10.6,15.3,14.7c18.3,10.6,42,13.4,52.4,13.3v17.2L110.2,74L77.1,48.5v18.2C65.3,66,27.1,62.2,14.4,49.1
	c-2.8-2.9-4.8-9-2.3-11.6c8.7-9.2,47.4-14.4,74-14.4c48.8,0,73.4,10.2,76.4,21.1c3.8,13.6-34.2,16.4-34.2,16.4v20.2
	c0,0,36-4.3,38.1-23.8c0.7-6.1,1.1-19.4-1.5-23.6C154.5,17.1,129.6,9,82,9z"/>
<path class="st0" d="M80,12c-18.2,0-38.4,1.4-51.2,7C16.9,24.2,10.9,30.3,8.7,35.2c-2.9,6.4-1.3,22.1-1.3,22.1
	c2,5.1,8.1,10.6,15.3,14.7c18.3,10.6,42,13.4,52.4,13.3v17.2L108.2,77L75.1,51.5v18.2C63.3,69,25.1,65.2,12.4,52.1
	c-2.8-2.9-4.8-9-2.3-11.6c8.7-9.2,47.4-14.4,74-14.4c48.8,0,73.4,10.2,76.4,21.1c3.8,13.6-34.2,16.4-34.2,16.4v20.2
	c0,0,36-4.3,38.1-23.8c0.7-6.1,1.1-19.4-1.5-23.6C152.5,20.1,127.6,12,80,12z"/>
<path class="st0" d="M79,13c-18.2,0-38.4,1.4-51.2,7C15.9,25.2,9.9,31.3,7.7,36.2c-2.9,6.4-1.3,22.1-1.3,22.1
	c2,5.1,8.1,10.6,15.3,14.7c18.3,10.6,42,13.4,52.4,13.3v17.2L107.2,78L74.1,52.5v18.2C62.3,70,24.1,66.2,11.4,53.1
	c-2.8-2.9-4.8-9-2.3-11.6c8.7-9.2,47.4-14.4,74-14.4c48.8,0,73.4,10.2,76.4,21.1c3.8,13.6-34.2,16.4-34.2,16.4v20.2
	c0,0,36-4.3,38.1-23.8c0.7-6.1,1.1-19.4-1.5-23.6C151.5,21.1,126.6,13,79,13z"/>
<path class="st0" d="M81,16c-18.2,0-38.4,1.4-51.2,7C17.9,28.2,11.9,34.3,9.7,39.2c-2.9,6.4-1.3,22.1-1.3,22.1
	c2,5.1,8.1,10.6,15.3,14.7c18.3,10.6,42,13.4,52.4,13.3v17.2L109.2,81L76.1,55.5v18.2C64.3,73,26.1,69.2,13.4,56.1
	c-2.8-2.9-4.8-9-2.3-11.6c8.7-9.2,47.4-14.4,74-14.4c48.8,0,73.4,10.2,76.4,21.1c3.8,13.6-34.2,16.4-34.2,16.4v20.2
	c0,0,36-4.3,38.1-23.8c0.7-6.1,1.1-19.4-1.5-23.6C153.5,24.1,128.6,16,81,16z"/>
<path class="st1" d="M398.7,113.3v33.5c0,0,7.6,17.1,27.7,21.4c20.1,4.3,17.3,5.2,17.3,5.2l0.1,17.9l37.4-33.8l-37.8-32.5v16.4
	c0,0-11.7,0.1-23.7-7.6C407.9,126.1,398.7,113.3,398.7,113.3z"/>
<path class="st1" d="M537.5,126.1c0,0-18.1-12.8-53.1-12.8c-43.1,0-61,15.8-61,15.8s-14.7-8.3-15.4-15.8s13.9-18.8,43.1-23.2
	c29.2-4.5,60.1,0.6,67.8,2.1c7.7,1.5,34.5,12.2,34.3,21.1s-13,14.3-13,14.3L537.5,126.1z"/>
<path class="st2" d="M80.5,9.9c-18.2,0-38.4,1.4-51.2,7C17.3,22,11.4,28.1,9.1,33c-2.9,6.4-1.3,22.1-1.3,22.1
	c2,5.1,8.1,10.6,15.3,14.7c18.3,10.6,42,13.4,52.4,13.3v17.2l33.1-25.5L75.5,49.4v18.2c-11.8-0.8-49.9-4.5-62.7-17.7
	c-2.8-2.9-4.8-9-2.3-11.6c8.7-9.2,47.4-14.4,74-14.4c48.8,0,73.4,10.2,76.4,21.1c3.8,13.6-34.2,16.4-34.2,16.4v20.2
	c0,0,36-4.3,38.1-23.8c0.7-6.1,1.1-19.4-1.5-23.6C152.9,17.9,128,9.9,80.5,9.9z"/>
</svg>
