<?xml version="1.0" encoding="utf-8"?>
<!-- Generator: Adobe Illustrator 22.1.0, SVG Export Plug-In . SVG Version: 6.00 Build 0)  -->
<svg version="1.1" id="Layer_1" xmlns="http://www.w3.org/2000/svg" xmlns:xlink="http://www.w3.org/1999/xlink" x="0px" y="0px"
	 viewBox="0 0 957 300" style="enable-background:new 0 0 957 300;" xml:space="preserve">
<style type="text/css">
	.st0{fill:#9B9A9A;}
	.st1{fill:#ACABAB;}
	.st2{fill:#FFFFFF;}
	.st3{fill:#4D4D4E;}
</style>
<circle class="st0" cx="-319.6" cy="-552.6" r="224.6"/>
<g id="FV5qYF.tif">
	
		<image style="overflow:visible;" width="800" height="296" id="Layer_0_1_" xlink:href="AE801DAC969F265A.png"  transform="matrix(1 0 0 1 2310.3447 320.9974)">
	</image>
</g>
<g>
	<circle class="st1" cx="475.6" cy="142.6" r="123"/>
	<circle class="st1" cx="475.6" cy="142.6" r="112.7"/>
	<path class="st2" d="M523.5,184.7h-95.7c-4,0-7.2-3.2-7.2-7.2v-69.8c0-4,3.2-7.2,7.2-7.2h95.7c4,0,7.2,3.2,7.2,7.2v69.8
		C530.7,181.4,527.5,184.7,523.5,184.7z"/>
	<path class="st1" d="M426.7,119.6c-0.7,0.6-1.1,1.5-1.1,2.4v6.5l50,37.1l50.1-37.2V122c0-0.9-0.4-1.7-1.2-2.4l-48.9,36.3
		L426.7,119.6z"/>
</g>
<g id="Yhk6tB.tif">
	
		<image style="overflow:visible;" width="1570" height="1509" id="Layer_0_2_" xlink:href="AE801DAC969F265F.png"  transform="matrix(0.7071 0.7071 -0.7071 0.7071 2725.5378 -1406.9268)">
	</image>
</g>
<path class="st2" d="M4616.3-289H3167.4c-29.4,0-53.4-24-53.4-53.4v-196.8c0-29.4,24-53.4,53.4-53.4h1448.9
	c29.4,0,53.4,24,53.4,53.4v196.8C4669.7-313,4645.7-289,4616.3-289z"/>
<path class="st2" d="M4271.4-592.6c0,0,121.8,2,126.3-158.9c4.5-160.8-22.7-357.6-69.1-447.9c-46.5-90.3-49.6-82.7-49.6-82.7
	l16.5-12c0,0,293.1,335.2,314.1,369.8c21,34.6,60.1,88.7,60.1,187.9s0,255.5,0,255.5L4306-532.1L4271.4-592.6z"/>
<path class="st2" d="M4360.1-324.6c0,0,0,45.1,0,88.7c0,150.3-81.2,94.7-81.2,159.3s0,153.3,0,153.3s3,58.6,81.2,58.6s239,0,239,0
	s70.6,13.2,70.6-89.6s0-8.1,0-102.8c0-115.7-84.2-16.5-84.2-177.4c0-169,4.4-147.8,4.4-147.8L4360.1-324.6z"/>
<rect x="2252.5" y="-540.8" class="st2" width="115.7" height="544.3"/>
<circle class="st1" cx="797.6" cy="142.6" r="123"/>
<circle class="st1" cx="797.6" cy="142.6" r="112.7"/>
<g>
	<path class="st2" d="M782.2,138.5l-48,48c-1.7,1.7-1.7,4.5,0,6.2l11.5,11.5c1.7,1.7,4.5,1.7,6.2,0l48-48L782.2,138.5z"/>
	<path class="st2" d="M859.2,136c-6-6-0.5-0.5-6-6c-6-6-6,1.7-12.4-2.9c-0.8-0.6-1.8-1.4-2.9-2.5c-1.2-1.2-2.3-2.3-3.2-3.2l1.8-1.8
		c1.7-1.7,1.7-4.5,0-6.2l-8.1-8.1l-3.4-3.4c-3.2-3.2-8-8-11.5-11.5c-5.8-5.8-11.2-6.7-14.5-7.5c-2.8-0.7-29.8-2.6-37.7-3.1
		c-1.4-0.1-2.2-0.1-2.2-0.1l1.1,1c1.2-0.2-0.5,0.3,6.3,2.6c7.9,2.7,21.1,12.5,30.2,22.1c8.8,9.3,2.4,16.2,1.9,16.6l-10.1,10.1
		l17.7,17.7l15.2-15.2c0.9,0.9,2,2,3.1,3.1c8.8,8.8,0.8,10.3,4.6,14c3.8,3.8,9,9,9,9s3.6,3.2,8.2-1.3c4.6-4.6,14-14,14-14
		S865.2,142,859.2,136z"/>
</g>
<g>
	<circle class="st1" cx="155.4" cy="142.6" r="123"/>
	<g>
		<circle class="st1" cx="155.4" cy="142.6" r="112.7"/>
		<g>
			<circle class="st1" cx="155.4" cy="142.6" r="112.7"/>
			<g>
				<rect x="139.6" y="192.7" class="st2" width="34.4" height="7.2"/>
				<polygon class="st2" points="170.4,213.1 143.9,213.1 139.6,205.9 174.1,205.9 				"/>
				<path class="st2" d="M187.3,136.8c0-17.6-14.3-31.9-31.9-31.9c-17.6,0-31.9,14.3-31.9,31.9c0,3.5,0.6,6.8,1.6,9.9h0l12.9,37.1
					l2.4,2.8h32.1l2.4-2.4l10.5-36.5C186.6,144.4,187.3,140.7,187.3,136.8z"/>
				<path class="st2" d="M92.6,129.1c0,0.3,0,0.6,0,0.9c0,2.3,0.1,4.6,0.4,6.9h22.2c0-0.8-0.1-1.6-0.1-2.4c0-1.8,0.1-3.6,0.4-5.4
					H92.6z"/>
				<path class="st2" d="M124.7,108.3c1.7-1.9,3.5-3.7,5.5-5.3l0.1-0.1L112,84.5c-1.9,1.8-3.7,3.7-5.3,5.7L124.7,108.3z"/>
				<path class="st2" d="M195.7,134.5c0,0.8,0,1.6-0.1,2.4h22.2c0.2-2.3,0.4-4.6,0.4-6.9c0-0.3,0-0.6,0-0.9h-22.9
					C195.6,130.8,195.7,132.6,195.7,134.5z"/>
				<path class="st2" d="M199.2,84.9l-18.3,18.3c2,1.7,3.9,3.5,5.6,5.5l18-18C202.8,88.7,201.1,86.7,199.2,84.9z"/>
				<path class="st2" d="M155.4,67.1c-0.8,0-1.6,0-2.3,0v27c0.8,0,1.5-0.1,2.3-0.1c1.9,0,3.7,0.1,5.5,0.4V67.4
					C159.1,67.2,157.2,67.1,155.4,67.1z"/>
			</g>
		</g>
	</g>
</g>
<circle class="st1" cx="1175.8" cy="526.2" r="112.7"/>
<g>
	<path class="st2" d="M1160.5,514.6l-48,48c-1.7,1.7-1.7,4.5,0,6.2l11.5,11.5c1.7,1.7,4.5,1.7,6.2,0l48-48L1160.5,514.6z"/>
	<path class="st2" d="M1237.4,512.2c-6-6-0.5-0.5-6-6c-6-6-6,1.7-12.4-2.9c-0.8-0.6-1.8-1.4-2.9-2.5c-1.2-1.2-2.3-2.3-3.2-3.2
		l1.8-1.8c1.7-1.7,1.7-4.5,0-6.2l-8.1-8.1l-3.4-3.4c-3.2-3.2-8-8-11.5-11.5c-5.8-5.8-11.2-6.7-14.5-7.5c-2.8-0.7-29.8-2.6-37.7-3.1
		c-1.4-0.1-2.2-0.1-2.2-0.1l1.1,1c1.2-0.2-0.5,0.3,6.3,2.6c7.9,2.7,21.1,12.5,30.2,22.1c8.8,9.3,2.4,16.2,1.9,16.6l-10.1,10.1
		l17.7,17.7l15.2-15.2c0.9,0.9,2,2,3.1,3.1c8.8,8.8,0.8,10.3,4.6,14c3.8,3.8,9,9,9,9s3.6,3.2,8.2-1.3c4.6-4.6,14-14,14-14
		S1243.4,518.2,1237.4,512.2z"/>
</g>
<g>
	<rect x="1160.1" y="-63.6" class="st2" width="34.4" height="7.2"/>
	<polygon class="st2" points="1190.8,-43.3 1164.3,-43.3 1160.1,-50.4 1194.5,-50.4 	"/>
	<path class="st2" d="M1207.7-119.5c0-17.6-14.3-31.9-31.9-31.9s-31.9,14.3-31.9,31.9c0,3.5,0.6,6.8,1.6,9.9l0,0l12.9,37.1l2.4,2.8
		h32l2.4-2.4l10.5-36.5C1207-111.9,1207.7-115.7,1207.7-119.5z"/>
	<path class="st2" d="M1113-127.3c0,0.3,0,0.6,0,0.9c0,2.3,0.1,4.6,0.4,6.9h22.2c0-0.8-0.1-1.6-0.1-2.4c0-1.8,0.1-3.6,0.4-5.4H1113z
		"/>
	<path class="st2" d="M1145.1-148.1c1.7-1.9,3.5-3.7,5.5-5.3l0.1-0.1l-18.3-18.3c-1.9,1.7-3.6,3.7-5.3,5.7L1145.1-148.1z"/>
	<path class="st2" d="M1216.1-121.9c0,0.8,0,1.6-0.1,2.4h22.2c0.2-2.3,0.4-4.6,0.4-6.9c0-0.3,0-0.6,0-0.9h-22.8
		C1216-125.5,1216.1-123.7,1216.1-121.9z"/>
	<path class="st2" d="M1219.6-171.4l-18.3,18.3c2,1.7,3.9,3.5,5.6,5.5l18-18C1223.2-167.7,1221.5-169.6,1219.6-171.4z"/>
	<path class="st2" d="M1175.8-189.2c-0.8,0-1.6,0-2.3,0v27c0.8,0,1.5-0.1,2.3-0.1c1.9,0,3.7,0.1,5.5,0.4V-189
		C1179.5-189.1,1177.7-189.2,1175.8-189.2z"/>
</g>
<circle class="st1" cx="1175.8" cy="206.2" r="112.7"/>
<path class="st2" d="M1223.7,250.9h-95.8c-4,0-7.2-3.2-7.2-7.2v-69.8c0-4,3.2-7.2,7.2-7.2h95.7c4,0,7.2,3.2,7.2,7.2v69.8
	C1230.9,247.7,1227.6,250.9,1223.7,250.9z"/>
<path class="st1" d="M1126.9,172.5c-0.7,0.6-1.1,1.5-1.1,2.4v6.5l50,37.1l50.1-37.2v-6.4c0-0.9-0.4-1.7-1.2-2.4l-48.9,36.3
	L1126.9,172.5z"/>
<g>
	<path class="st3" d="M1172.3,90.9l-42.1-42.1c-1.3-1.3-1.3-3.3,0-4.6h88.8c1.3,1.3,1.3,3.3,0,4.6l-42.1,42.1
		C1175.7,92.2,1173.6,92.2,1172.3,90.9z"/>
	<g>
		<rect x="1159.9" y="1.6" class="st3" width="29.5" height="50.6"/>
	</g>
</g>
<g>
	<path class="st3" d="M1172.3,409.5l-42.1-42.1c-1.3-1.3-1.3-3.3,0-4.6h88.8c1.3,1.3,1.3,3.3,0,4.6l-42.1,42.1
		C1175.7,410.8,1173.6,410.8,1172.3,409.5z"/>
	<g>
		<rect x="1159.9" y="320.2" class="st3" width="29.5" height="50.6"/>
	</g>
</g>
<g>
	<path class="st3" d="M360,147.1l-42.1,42.1c-1.3,1.3-3.3,1.3-4.6,0v-88.8c1.3-1.3,3.3-1.3,4.6,0l42.1,42.1
		C361.3,143.7,361.3,145.8,360,147.1z"/>
	<g>
		<rect x="270.7" y="130" class="st3" width="50.6" height="29.5"/>
	</g>
</g>
<g>
	<path class="st3" d="M683.5,147.1l-42.1,42.1c-1.3,1.3-3.3,1.3-4.6,0v-88.8c1.3-1.3,3.3-1.3,4.6,0l42.1,42.1
		C684.7,143.7,684.7,145.8,683.5,147.1z"/>
	<g>
		<rect x="594.1" y="130" class="st3" width="50.6" height="29.5"/>
	</g>
</g>
</svg>
