<?xml version="1.0" encoding="utf-8"?>
<!-- Generator: Adobe Illustrator 22.1.0, SVG Export Plug-In . SVG Version: 6.00 Build 0)  -->
<svg version="1.1" id="Layer_1" xmlns="http://www.w3.org/2000/svg" xmlns:xlink="http://www.w3.org/1999/xlink" x="0px" y="0px"
	 viewBox="0 0 294 1120" style="enable-background:new 0 0 294 1120;" xml:space="preserve">
<style type="text/css">
	.st0{fill:#AAAAAA;}
	.st1{fill:#FFFFFF;}
	.st2{fill:#9B9A9A;}
	.st3{fill:#4C4C4D;}
</style>
<circle class="st0" cx="147" cy="765.3" r="123"/>
<circle class="st0" cx="147" cy="765.3" r="112.7"/>
<g>
	<path class="st1" d="M131.7,753.7l-48,48c-1.7,1.7-1.7,4.5,0,6.2l11.5,11.5c1.7,1.7,4.5,1.7,6.2,0l48-48L131.7,753.7z"/>
	<path class="st1" d="M208.6,751.3c-6-6-0.5-0.5-6-6c-6-6-6,1.7-12.4-2.9c-0.8-0.6-1.8-1.4-2.9-2.5c-1.2-1.2-2.3-2.3-3.2-3.2
		l1.8-1.8c1.7-1.7,1.7-4.5,0-6.2l-8.1-8.1l-3.4-3.4c-3.2-3.2-8-8-11.5-11.5c-5.8-5.8-11.2-6.7-14.5-7.5c-2.8-0.7-29.8-2.6-37.7-3.1
		c-1.4-0.1-2.2-0.1-2.2-0.1l1.1,1c1.2-0.2-0.5,0.3,6.3,2.6c7.9,2.7,21.1,12.5,30.2,22.1c8.8,9.3,2.4,16.2,1.9,16.6l-10.1,10.1
		l17.7,17.7l15.2-15.2c0.9,0.9,2,2,3.1,3.1c8.8,8.8,0.8,10.3,4.6,14c3.8,3.8,9,9,9,9s3.6,3.2,8.2-1.3c4.6-4.6,14-14,14-14
		S214.6,757.3,208.6,751.3z"/>
</g>
<circle class="st0" cx="147" cy="125.3" r="123"/>
<circle class="st2" cx="-319.6" cy="-566.6" r="224.6"/>
<g id="FV5qYF.tif">
	
		<image style="overflow:visible;enable-background:new    ;" width="801" height="297" id="Layer_0_1_" xlink:href="A5A423A34C46DC8.png"  transform="matrix(0.9985 0 0 0.9985 2310.4473 306.7208)">
	</image>
</g>
<g id="Yhk6tB.tif">
	
		<image style="overflow:visible;enable-background:new    ;" width="1570" height="1509" id="Layer_0_2_" xlink:href="A5A423A34C46DCF.png"  transform="matrix(0.7071 0.7071 -0.7071 0.7071 2725.5378 -1420.9268)">
	</image>
</g>
<path class="st1" d="M4616.3-303H3167.4c-29.4,0-53.4-24-53.4-53.4v-196.8c0-29.4,24-53.4,53.4-53.4h1448.9
	c29.4,0,53.4,24,53.4,53.4v196.8C4669.7-327,4645.7-303,4616.3-303z"/>
<path class="st1" d="M4271.4-606.6c0,0,121.8,2,126.3-158.9c4.5-160.8-22.7-357.6-69.1-447.9c-46.5-90.3-49.6-82.7-49.6-82.7
	l16.5-12c0,0,293.1,335.2,314.1,369.8s60.1,88.7,60.1,187.9s0,255.5,0,255.5L4306-546.1L4271.4-606.6z"/>
<path class="st1" d="M4360.1-338.6c0,0,0,45.1,0,88.7c0,150.3-81.2,94.7-81.2,159.3s0,153.3,0,153.3s3,58.6,81.2,58.6s239,0,239,0
	s70.6,13.2,70.6-89.6s0-8.1,0-102.8c0-115.7-84.2-16.5-84.2-177.4c0-169,4.4-147.8,4.4-147.8L4360.1-338.6z"/>
<rect x="2252.5" y="-554.8" class="st1" width="115.7" height="544.3"/>
<circle class="st0" cx="147" cy="125.3" r="112.7"/>
<g>
	<rect x="131.3" y="175.5" class="st1" width="34.4" height="7.2"/>
	<polygon class="st1" points="162,195.8 135.5,195.8 131.3,188.7 165.7,188.7 	"/>
	<path class="st1" d="M178.9,119.6c0-17.6-14.3-31.9-31.9-31.9s-31.9,14.3-31.9,31.9c0,3.5,0.6,6.8,1.6,9.9l0,0l12.9,37.1l2.4,2.8
		h32l2.4-2.4l10.5-36.5C178.2,127.2,178.9,123.4,178.9,119.6z"/>
	<path class="st1" d="M84.2,111.8c0,0.3,0,0.6,0,0.9c0,2.3,0.1,4.6,0.4,6.9h22.2c0-0.8-0.1-1.6-0.1-2.4c0-1.8,0.1-3.6,0.4-5.4H84.2z
		"/>
	<path class="st1" d="M116.3,91c1.7-1.9,3.5-3.7,5.5-5.3l0.1-0.1l-18.3-18.3C101.7,69,100,71,98.3,73L116.3,91z"/>
	<path class="st1" d="M187.3,117.2c0,0.8,0,1.6-0.1,2.4h22.2c0.2-2.3,0.4-4.6,0.4-6.9c0-0.3,0-0.6,0-0.9H187
		C187.2,113.6,187.3,115.4,187.3,117.2z"/>
	<path class="st1" d="M190.8,67.7L172.5,86c2,1.7,3.9,3.5,5.6,5.5l18-18C194.4,71.4,192.7,69.5,190.8,67.7z"/>
	<path class="st1" d="M147,49.9c-0.8,0-1.6,0-2.3,0v27c0.8,0,1.5-0.1,2.3-0.1c1.9,0,3.7,0.1,5.5,0.4V50.1
		C150.7,50,148.9,49.9,147,49.9z"/>
</g>
<circle class="st0" cx="147" cy="445.3" r="123"/>
<circle class="st0" cx="147" cy="445.3" r="112.7"/>
<path class="st1" d="M194.9,490H99.1c-4,0-7.2-3.2-7.2-7.2V413c0-4,3.2-7.2,7.2-7.2h95.7c4,0,7.2,3.2,7.2,7.2v69.8
	C202.1,486.8,198.8,490,194.9,490z"/>
<path class="st0" d="M98.1,411.6c-0.7,0.6-1.1,1.5-1.1,2.4v6.5l50,37.1l50.1-37.2V414c0-0.9-0.4-1.7-1.2-2.4L147,447.9L98.1,411.6z"
	/>
<g>
	<path class="st3" d="M143.6,330l-42.1-42.1c-1.3-1.3-1.3-3.3,0-4.6h88.8c1.3,1.3,1.3,3.3,0,4.6L148.2,330
		C146.9,331.3,144.8,331.3,143.6,330z"/>
	<g>
		<rect x="131.1" y="240.7" class="st3" width="29.5" height="50.6"/>
	</g>
</g>
<g>
	<path class="st3" d="M143.6,648.6l-42.1-42.1c-1.3-1.3-1.3-3.3,0-4.6h88.8c1.3,1.3,1.3,3.3,0,4.6l-42.1,42.1
		C146.9,649.9,144.8,649.9,143.6,648.6z"/>
	<g>
		<rect x="131.1" y="559.3" class="st3" width="29.5" height="50.6"/>
	</g>
</g>
</svg>
