<?xml version="1.0" encoding="utf-8"?>
<!-- Generator: Adobe Illustrator 22.1.0, SVG Export Plug-In . SVG Version: 6.00 Build 0)  -->
<svg version="1.1" id="Layer_1" xmlns="http://www.w3.org/2000/svg" xmlns:xlink="http://www.w3.org/1999/xlink" x="0px" y="0px"
	 viewBox="0 0 280.2 140" style="enable-background:new 0 0 280.2 140;" xml:space="preserve">
<style type="text/css">
	.st0{fill:#4040B5;}
	.st1{opacity:5.000000e-02;}
	.st2{stroke:#000000;stroke-miterlimit:10;}
</style>
<rect x="356.2" y="-48.5" class="st0" width="327.5" height="173.2"/>
<g id="FN6eti.tif">
	
		<image style="overflow:visible;" width="384" height="366" id="Layer_0_1_" xlink:href="7028E848A1B29B0A.png"  transform="matrix(0.5 0 0 0.5 303 -108.75)">
	</image>
</g>
<path class="st1" d="M134.7,132.2h-61c-6.6,0-12-5.4-12-12V56.8c0-6.6,5.4-12,12-12h61c6.6,0,12,5.4,12,12v63.4
	C146.7,126.8,141.3,132.2,134.7,132.2z"/>
<g>
	<path class="st2" d="M183.7,63.2c0,3.3-0.7,5.8-2.1,7.7s-3.5,2.7-6.2,2.7H170V52.7h5.3c2.7,0,4.8,0.9,6.2,2.7
		C182.9,57.3,183.7,59.9,183.7,63.2z M180,63.2c0-1.2-0.1-2.3-0.3-3.2c-0.2-0.9-0.5-1.6-0.9-2.3c-0.4-0.6-0.9-1.1-1.6-1.4
		c-0.5-0.3-1.2-0.5-1.9-0.5h-1.7v14.6h1.7c0.6,0,1.4-0.1,1.9-0.5c0.5-0.3,1.1-0.7,1.6-1.4c0.5-0.6,0.7-1.4,0.9-2.2
		C179.9,65.5,180,64.4,180,63.2z"/>
	<path class="st2" d="M201.2,63.1c0,1.6-0.2,3.1-0.5,4.5c-0.4,1.4-0.9,2.5-1.6,3.5c-0.6,0.9-1.5,1.7-2.4,2.2c-0.9,0.5-2,0.7-3.2,0.7
		c-1.2,0-2.3-0.3-3.2-0.7c-0.9-0.5-1.7-1.3-2.4-2.2c-0.6-0.9-1.2-2.1-1.6-3.5c-0.4-1.4-0.5-2.8-0.5-4.5c0-1.6,0.2-3.1,0.5-4.5
		c0.3-1.4,0.8-2.5,1.6-3.5c0.7-0.9,1.5-1.6,2.4-2.2c0.9-0.5,2-0.7,3.2-0.7c1.2,0,2.2,0.3,3.2,0.7c0.9,0.5,1.7,1.3,2.4,2.2
		c0.6,0.9,1.2,2.1,1.6,3.5C201.1,60,201.2,61.4,201.2,63.1z M197.5,63.1c0-1.1-0.1-2-0.3-3c-0.2-0.9-0.5-1.7-0.7-2.4
		c-0.3-0.7-0.7-1.2-1.2-1.6c-0.5-0.4-1.1-0.5-1.7-0.5s-1.2,0.2-1.7,0.5c-0.5,0.4-0.9,0.9-1.2,1.6c-0.3,0.6-0.5,1.5-0.7,2.4
		s-0.3,1.9-0.3,3s0.1,2,0.3,3c0.2,0.9,0.5,1.7,0.7,2.4c0.3,0.7,0.7,1.2,1.2,1.6c0.5,0.4,1.1,0.5,1.7,0.5s1.2-0.2,1.7-0.5
		c0.5-0.4,0.9-0.9,1.2-1.6c0.3-0.7,0.5-1.5,0.7-2.4C197.4,65.1,197.5,64.2,197.5,63.1z"/>
	<path class="st2" d="M212.3,73.4l-3.3-8.9h-2v8.9h-3.5V52.7h6c0.9,0,1.7,0.1,2.4,0.3c0.7,0.2,1.4,0.5,1.9,1.1
		c0.5,0.5,0.9,1.1,1.3,1.8c0.3,0.7,0.5,1.6,0.5,2.7c0,0.8-0.1,1.6-0.3,2.1c-0.2,0.6-0.5,1.2-0.8,1.6c-0.3,0.5-0.6,0.7-1.1,1
		c-0.4,0.3-0.7,0.5-1.2,0.5l3.8,9.5L212.3,73.4L212.3,73.4z M212,58.9c0-0.6-0.1-1.2-0.3-1.6c-0.2-0.5-0.5-0.7-0.7-0.9
		s-0.6-0.4-0.9-0.5c-0.4-0.1-0.7-0.1-1.1-0.1h-2v6.4h2c0.9,0,1.6-0.3,2.2-0.8C211.8,60.7,212,59.9,212,58.9z"/>
	<path class="st2" d="M219,73.4V52.7h3.7v20.7C222.6,73.4,219,73.4,219,73.4z"/>
	<path class="st2" d="M232.2,55.7v17.8h-3.6V55.7h-4v-3h11.5v3C236.1,55.7,232.2,55.7,232.2,55.7z"/>
	<path class="st2" d="M246,65.5v8h-3.6v-8l-5.3-12.8h3.8l3.2,9.3l0.1-0.1l3.2-9.2h3.8L246,65.5z"/>
	<path class="st2" d="M183.4,92.3c0,3.3-0.7,5.8-2.1,7.7c-1.4,1.7-3.5,2.7-6.2,2.7h-5.4V81.9h5.3c2.7,0,4.8,0.9,6.2,2.7
		C182.6,86.4,183.4,88.9,183.4,92.3z M179.7,92.3c0-1.2-0.1-2.3-0.3-3.2c-0.2-0.9-0.5-1.6-0.9-2.3c-0.4-0.6-0.9-1.1-1.6-1.4
		c-0.5-0.3-1.2-0.5-1.9-0.5h-1.7v14.6h1.7c0.6,0,1.4-0.1,1.9-0.5c0.5-0.3,1.1-0.7,1.6-1.4c0.5-0.5,0.7-1.4,0.9-2.2
		C179.6,94.5,179.7,93.5,179.7,92.3z"/>
	<path class="st2" d="M186,102.6V81.9h9.5V85h-6v5.6h5.7v2.8h-5.6v6.1h6.4v3.1L186,102.6L186,102.6z"/>
	<path class="st2" d="M207.4,85.9c-0.7-0.9-1.7-1.4-2.9-1.4c-0.3,0-0.6,0.1-1,0.2c-0.3,0.1-0.6,0.3-0.9,0.5
		c-0.3,0.2-0.5,0.5-0.6,0.9c-0.1,0.4-0.2,0.8-0.2,1.4c0,0.9,0.3,1.6,0.8,2c0.5,0.5,1.3,0.9,2.2,1.4c0.5,0.3,1.1,0.5,1.6,0.9
		c0.5,0.3,1,0.7,1.5,1.2c0.5,0.5,0.8,1,1.1,1.6c0.3,0.6,0.5,1.4,0.5,2.3c0,1-0.2,1.9-0.5,2.7s-0.7,1.5-1.4,2c-0.5,0.5-1.2,0.9-2,1.2
		c-0.7,0.3-1.6,0.5-2.4,0.5c-1.2,0-2.3-0.2-3.3-0.6s-1.7-1-2.4-1.7l2-2.6c0.5,0.5,1,0.9,1.6,1.3c0.6,0.3,1.4,0.5,2,0.5
		c0.7,0,1.4-0.3,1.9-0.7c0.5-0.5,0.7-1.2,0.7-2.2c0-0.9-0.3-1.6-0.9-2.2c-0.6-0.5-1.4-1-2.3-1.5c-0.5-0.3-1.1-0.5-1.6-0.9
		c-0.5-0.3-0.9-0.7-1.4-1.2c-0.4-0.5-0.7-1-0.9-1.6c-0.2-0.5-0.3-1.4-0.3-2.2c0-1.1,0.2-2,0.5-2.7s0.8-1.4,1.4-1.9
		c0.5-0.5,1.2-0.9,2-1.1c0.7-0.3,1.5-0.4,2.2-0.4c1.1,0,2,0.2,2.8,0.5c0.9,0.3,1.6,0.8,2.2,1.6L207.4,85.9z"/>
	<path class="st2" d="M212.6,102.6V81.9h3.7v20.7H212.6z"/>
	<path class="st2" d="M230.7,102.6c-0.9,0.3-2,0.5-3.2,0.5c-1.3,0-2.4-0.3-3.4-0.7c-1-0.5-1.8-1.3-2.6-2.2c-0.7-0.9-1.2-2.1-1.6-3.5
		c-0.4-1.4-0.5-2.8-0.5-4.4s0.2-3,0.5-4.4c0.4-1.4,0.9-2.5,1.6-3.5c0.6-0.9,1.6-1.7,2.5-2.2c0.9-0.5,2-0.8,3.2-0.8
		c1.3,0,2.4,0.2,3.3,0.6s1.6,1.1,2.2,1.8l-2.1,2.4c-0.8-1.2-1.9-1.7-3.2-1.7c-0.7,0-1.4,0.2-2,0.6c-0.5,0.5-1,0.9-1.4,1.6
		c-0.4,0.7-0.6,1.6-0.8,2.4c-0.2,0.9-0.3,1.9-0.3,2.8c0,1.1,0.1,2,0.3,3c0.2,0.9,0.5,1.7,0.8,2.4c0.4,0.6,0.8,1.2,1.4,1.6
		c0.5,0.4,1.2,0.5,2,0.5c0.5,0,0.9-0.1,1.4-0.2c0.4-0.1,0.7-0.3,0.9-0.5v-5.3H227v-3h5.9V101C232.3,101.8,231.5,102.3,230.7,102.6z"
		/>
	<path class="st2" d="M245.8,102.6l-6-14.6h-0.1l0.1,14.6h-3.2V81.9h4.1l6,14.8h0.1V81.9h3.1v20.7H245.8z"/>
	<path class="st2" d="M186.4,132.3h-4.1l-2.9-15.6h-0.1l-2.9,15.6h-4.1l-4.1-20.7h3.7l2.7,16.1h0.1l2.8-16.1h3.8l2.9,16.1h0.1
		l2.7-16.1h3.5L186.4,132.3z"/>
	<path class="st2" d="M206.7,121.9c0,1.6-0.2,3.1-0.5,4.5s-0.9,2.5-1.6,3.5c-0.6,0.9-1.5,1.7-2.4,2.2c-0.9,0.5-2,0.7-3.2,0.7
		s-2.3-0.3-3.2-0.7c-0.9-0.5-1.7-1.3-2.4-2.2c-0.6-0.9-1.2-2.1-1.6-3.5c-0.4-1.4-0.5-2.8-0.5-4.5s0.2-3.1,0.5-4.5
		c0.3-1.4,0.8-2.5,1.6-3.5c0.7-0.9,1.5-1.7,2.4-2.2c0.9-0.5,2-0.7,3.2-0.7s2.2,0.3,3.2,0.7c0.9,0.5,1.7,1.3,2.4,2.2
		c0.6,0.9,1.2,2.1,1.6,3.5C206.5,118.7,206.7,120.2,206.7,121.9z M203,121.9c0-1.1-0.1-2-0.3-3c-0.2-0.9-0.5-1.7-0.7-2.4
		c-0.3-0.7-0.7-1.2-1.2-1.6c-0.5-0.4-1.1-0.5-1.7-0.5s-1.2,0.2-1.7,0.5s-0.9,0.9-1.2,1.6c-0.3,0.6-0.5,1.5-0.7,2.4
		c-0.2,0.9-0.3,1.9-0.3,3c0,1.1,0.1,2,0.3,3c0.2,0.9,0.5,1.7,0.7,2.4c0.3,0.7,0.7,1.2,1.2,1.6c0.5,0.4,1.1,0.5,1.7,0.5
		s1.2-0.2,1.7-0.5c0.5-0.4,0.9-0.9,1.2-1.6c0.3-0.7,0.5-1.5,0.7-2.4C202.8,123.9,203,122.9,203,121.9z"/>
	<path class="st2" d="M218.3,132.3l-3.3-8.9h-2v8.9h-3.5v-20.7h6c0.9,0,1.7,0.1,2.4,0.3c0.7,0.2,1.4,0.5,1.9,1.1
		c0.5,0.5,0.9,1.1,1.3,1.8c0.3,0.7,0.5,1.6,0.5,2.7c0,0.8-0.1,1.6-0.3,2.1c-0.2,0.6-0.5,1.2-0.8,1.6c-0.3,0.5-0.6,0.7-1.1,1
		c-0.4,0.3-0.7,0.5-1.2,0.5l3.8,9.5L218.3,132.3L218.3,132.3z M218,117.7c0-0.6-0.1-1.2-0.3-1.6c-0.2-0.5-0.5-0.7-0.7-0.9
		c-0.3-0.2-0.6-0.4-0.9-0.5c-0.4-0.1-0.7-0.1-1.1-0.1h-2v6.4h2c0.9,0,1.6-0.3,2.2-0.8C217.8,119.5,218,118.7,218,117.7z"/>
	<path class="st2" d="M234.4,132.3l-5.7-10.1h-0.1v10.1h-3.7v-20.7h3.7v9h0.1l5.4-9h4.1l-6.2,9.5l6.6,11.2H234.4z"/>
	<path class="st2" d="M249.3,115.6c-0.7-0.9-1.7-1.4-2.9-1.4c-0.3,0-0.6,0.1-1,0.2s-0.6,0.3-0.9,0.5c-0.3,0.3-0.5,0.5-0.6,0.9
		c-0.1,0.4-0.2,0.8-0.2,1.4c0,0.9,0.3,1.6,0.8,2s1.3,0.9,2.2,1.4c0.5,0.3,1.1,0.5,1.6,0.9c0.5,0.3,1,0.7,1.5,1.2s0.8,1,1.1,1.6
		c0.3,0.6,0.5,1.4,0.5,2.3c0,1-0.2,1.9-0.5,2.7c-0.3,0.7-0.7,1.5-1.4,2c-0.5,0.5-1.2,0.9-2,1.2c-0.7,0.3-1.6,0.5-2.4,0.5
		c-1.2,0-2.3-0.2-3.3-0.6c-1-0.5-1.7-1-2.4-1.7l2-2.6c0.5,0.5,1,0.9,1.6,1.3c0.6,0.3,1.4,0.5,2,0.5c0.7,0,1.4-0.3,1.9-0.7
		c0.5-0.5,0.7-1.2,0.7-2.2c0-0.9-0.3-1.6-0.9-2.2c-0.6-0.5-1.4-1-2.3-1.5c-0.5-0.3-1.1-0.5-1.6-0.9c-0.5-0.3-0.9-0.7-1.4-1.2
		c-0.4-0.5-0.7-1-0.9-1.6c-0.2-0.6-0.3-1.4-0.3-2.2c0-1.1,0.2-2,0.5-2.7c0.4-0.7,0.8-1.4,1.4-1.9c0.5-0.5,1.2-0.9,2-1.1
		c0.7-0.3,1.5-0.4,2.2-0.4c1.1,0,2,0.2,2.8,0.5c0.9,0.3,1.6,0.8,2.2,1.6L249.3,115.6z"/>
</g>
<path d="M147.1,13.4c0,0-1.4-2.1-0.8,1.5c0.6,3.7,0.6,10.6,0,15.4c0,0-1.2-2.3-5.1-6.4c-4-4.1-6-5.9-6.3-5.4c0,0,1.3,1.7,2,2.8
	c0.7,1.1,9,10.7,6.9,12.7c-2.1,2-15.4-13.2-16.1-15.6c0,0-1.2-0.2-0.6,1.4c0.4,1.6,8.9,15.1,10.6,17.7c0,0,0.7,15.1-4.7,20.7
	c1-3.7,2-9.6,0-14.7c0,0-1.3-2.2-0.7,0.3c0.5,2.3,1.4,11.4-3.3,17.1c-5.5,3.4-9.1,5.5-11.2,6.4c-2.3,1-4.4,2.5-6.6,4.8
	c-0.4,0.4-0.9,0.8-1.3,1.2c1.1-1.7,3.5-6.6,4.2-8.8c0.8-2.2,0.7-7,0.6-10.5c-0.2-3.5,0.3-4.9,0.5-5.5s0.4-1,0.1-0.9
	c-0.4,0.1-0.6,0.4-1.5,2.1c-0.9,1.7-1,10.8-1.3,13.1c-0.3,2.2-4.2,8.6-6.3,11.4c-0.2,0-0.3-0.1-0.4-0.1c-2.3-0.3-3.8,1.8-4.6,1.9
	c-0.8,0.1-3.3,0.9-3.9,0.2c-1.5-2-3.2-2.2-4.8-1.9c-1.6-1.3-2.4-2.1-3.8-5.3c-1.4-3.4-4-6.9-4.7-9.6s-1.1-5.4-1.7-8.3
	c-0.6-3-1.3-6.7-1.7-5.7s-0.1,2.1,0.3,5.6c0.4,3.5,0.6,6,0.9,7.8c0.3,1.8,1.6,5.9,3,8c1.3,2.1,2.5,3.1,2.8,4.7
	c0.1,0.3,0.2,0.5,0.3,0.8c-1.6-1.4-3.6-3-5.2-3.9c-3.8-2.1-11.9-4.3-13.5-11.4c-1.6-7-1.5-13-2.2-12.4c-0.7,0.5-0.6,4.3-0.4,7.3
	c0.3,3,0.8,7.6,1.8,9.2c0.4,0.7,1.7,2.1,3,3.4c-4-2.2-7.2-4.5-11.7-9.5c-6.1-6.7-4.8-18.4-2-21.2c2.9-2.8,7-15,7.2-16
	s1.3-3.7,0.4-3.1c-0.8,0.4-1.8,3.5-3,4c-1.3,0.5-2.1,1.5-2.1,1.5c-1,4.9-5.9,10.7-6.9,12.2c-1,1.5-2.4,2.5-3.7,2.1
	C48,34.3,48,32.4,48.4,31c0.3-1.4,5.4-9.1,7.3-11.6c2-2.5,1.3-2.6,1.3-2.6C53.7,18.4,46.4,29,46.4,29c-2.1-7.3,1.8-17.3,3-19.4
	C50.6,7.4,49.7,7,49.7,7c-7.6,9-7.2,16.2-6.9,22c0.4,5.7,5.4,15.4,9.1,25.1c3.8,9.7,18.6,15.6,23.9,17.5c4.7,1.8,7.3,2.2,10.4,4.7
	c0.1,0.2,0.2,0.4,0.3,0.5l0.2,1.1c-0.2,0.4-0.3,0.7-0.4,1.2c-0.3-0.1-0.8-0.4-1.7-1.3c-2.1-1.8-8.4-5.7-13.5-6.1L70.3,72
	c0,0,0.1,0.5,0.3,1.3c0.2,0.7,2.4,8.1,5.4,10.4c3,2.3,2.4,1,5.3,1.9c0,0,2.1,1.3,2.7,4c0,0,0.2,0.8,1,1.3c0,0.7,0.2,1.6,0.1,2.5
	c-0.1,1.1-1.4,1.8-2.1,2.7c-0.7,0.9-3.9,4.7-3.1,3.8s1.3-0.6,1.3-0.3c-0.1,0.4-0.4,2-1.6,3.6c-1.3,1.6-3.8,5.7-3.1,5.3
	c0.7-0.4,1.5-0.4,1.5-0.4c-3.3,1.8-4.7,5.5-3.7,4c1.1-1.4,2.7-1.4,2.7-1.4c-1.9,1.4-3.9,8-2.9,5.5c1-2.4,3.6-3.2,3.6-3.2
	s-3.2,4.4-2,3.2c1.3-1.3,0.7,0.1,0.4,0.4c-0.4,0.4-3.7,5.4-2.6,4.3c1-1.1,2.9-1.3,2.5-0.6c-0.4,0.7-1.8,3.1-1.3,2.4
	c0.4-0.7,2-0.9,2-0.9s1.3,0.8-0.7,3.1c-1.9,2.3-2,3.9-2,3.9c1.5-2.1,3-2,3-2c-1.7,2-2,6.7-2,6.7h52.4c0,0,1.6-6.4,0.7-7
	c-0.9-0.4-1.3-1.3-3.2-1.5s-2.3-0.8-3.8-1.6c-1.5-0.8-2.1-3.1-2.1-3.1c0.8,1,1.7,0.7,1.7,0.7c-0.4-0.2-1.9-3-1.9-3
	c-1.9-3.5-1.5-5.9-1.5-5.9c1.9,0.5,3,3.8,3,3.8s0.4-0.4-0.2-2c-0.6-1.6-1.6-2.1-1.4-2.3c0.2-0.3,1.5,0.8,1.5,0.8l-0.6-1.2
	c-1-1.3-2.2-5.3-3.8-10.2c-1.6-4.8-3.3-7.5-3.3-7.5s-0.1,0-0.3-0.1c0-0.3,0-0.4,0-0.5c0-1.3,1.9-2.8,2.9-4.5
	c0.1-0.2,0.2-0.5,0.2-0.9c0.4-0.4,1.2-0.8,2.1-0.9c1.6-0.1,6-1.9,7.2-3.8s4-7.1,3.9-8.9c-0.2-1.8-1.3-1.3-2-1.1
	c-0.7,0.2-3.3-0.2-7.4,2c-4,2.1-5.6,2.8-6.5,3.8c0,0-0.5,0.3-1,0.3c-0.1-0.2-0.1-0.3-0.1-0.4c-0.1-0.2-0.2-0.4-0.3-0.6
	c0.6-0.7,1.7-1.7,3-2.9c3.8-2.2,9.6-5.6,13.6-7.8c6.6-3.5,16.4-8.2,18.2-17.6s3.2-15.1,4.1-18.2C150.4,28.5,149.1,15.6,147.1,13.4z
	 M82.7,85l-0.2-0.4c0,0-0.3-0.4-1.6-0.4c-0.3,0-0.5,0-0.8,0.1c-0.1,0-0.3,0-0.4,0c-1.9,0-3.4-1.6-4.3-2.5c-0.2-0.2-0.3-0.4-0.4-0.4
	c-0.9-0.8-2.9-5.6-3.4-6.9v-0.1l0.1-0.1c0,0,0.1-0.2,0.3-0.2c0.1,0,0.2,0,0.3,0.1c0,0,0.1,0.1,0.4,0.4c0.9,1.2,3.8,4.7,5.5,6.1
	c2,1.7,5.4,2.2,5.4,2.2h0.3L82.7,85z M94,83.7c0.3-0.4,0.8-0.9,1.3-0.9c0.1,0,0.3,0,0.4,0.1c0.3,0.2,0.5,0.4,0.8,0.8
	c0.3,0.4,0.5,0.7,0.8,0.8s0.6,0.1,1.1,0.1c0.5,0,1-0.1,1.2-0.3c0.1-0.1,0.2-0.2,0.3-0.3c0.5-0.4,1.3-1.1,1.9-1.1
	c0.3,0,0.4,0.1,0.6,0.3c0.4,0.4,0.4,0.7,0.4,1c0,0.2-0.1,0.3-0.2,0.3l-0.2,0.1l-0.1-0.1c0,0-0.2-0.3-0.4-0.3c-0.1,0-0.2,0-0.3,0.1
	c-0.2,0.1-0.5,0.4-0.8,0.7c-0.3,0.3-0.5,0.5-0.7,0.7v0.9l-1.6,1.8l-1.6-1.8v-0.8c-0.4-0.3-0.8-0.7-0.9-1.1c-0.1-0.3-0.4-0.8-0.6-0.8
	c0,0,0,0-0.1,0c-0.4,0.3-0.9,0.3-1,0.3h-0.2L94,83.7L94,83.7z M99.6,105.7c0.4-0.4,0.6-0.7,1.2-0.7c1,0,1.3,1.3,1.3,1.7
	c0.1,0.1,0.2,0.3,0.1,0.4c0,0.2-0.2,0.3-0.4,0.4c-0.1,0-0.1,0-0.2,0c-0.4,0-0.4-0.4-0.5-0.5c0-0.1-0.1-0.2-0.1-0.3
	c-0.1,0-0.1,0-0.2,0.3c-0.1,0.2-0.2,0.4-0.5,0.7c0,0.4-0.4,0.4-0.9,0.4c-0.4,0-0.8-0.1-0.9-0.1c-0.2,0-0.5,0.1-0.9,0.1
	c-0.4,0-0.8-0.1-1.1-0.4s-0.4-0.5-0.5-0.7s-0.1-0.2-0.2-0.3c0,0,0,0.2-0.1,0.2c-0.1,0.2-0.2,0.5-0.5,0.5c-0.1,0-0.1,0-0.2,0
	c-0.3-0.1-0.4-0.2-0.4-0.4s0-0.4,0.1-0.4c0-0.3,0.3-1.6,1.3-1.7c0.5,0,0.8,0.4,1.2,0.7c0.4,0.4,0.7,0.7,1.3,0.7
	C98.9,106.4,99.3,106.1,99.6,105.7z M89.5,111c0,0-1.3-1.3-2.7-3c-1.7-2.1-2.8-3.9-3-5.5c-0.2-1.3,0.7-3.5,1.3-5.2
	c0.4-0.9,0.7-1.7,0.7-2.1l0.1-0.4l0.3,0.4c0,0.1,0.4,0.5,0.2,1.5c-0.1,0.4-0.3,1.1-0.4,1.7c-0.4,1.3-0.7,2.7-0.8,3.9
	c-0.2,2,2,4.7,3.4,6.3l0.4,0.4c0.8,1,0.9,1.7,0.9,1.7l0.1,0.6L89.5,111z M90,92c0,0-0.1,0.3-0.4,0.4c-0.4,0.1-1.1,0.4-1.6,0.4
	c-0.2,0-0.3,0-0.4-0.1c-0.6-0.2-1.3-1.5-1.5-2c-0.1-0.2,0-0.3,0-0.4c0.1-0.1,0.1-0.1,0.2-0.1c0.1,0,0.3,0.1,0.6,0.5
	c0.6,0.8,1.5,1,2.2,1c0.4,0,0.7-0.1,0.7-0.1l0.4-0.1L90,92z M90.4,90.1c-0.2-1.3-0.7-1.5-0.8-1.5c0,0-0.8-0.7-2.1-1.5
	c-0.6-0.4-1.4-0.5-2.1-0.5c-0.4,0-0.6,0-0.6,0l-0.4,0.1l0.4-0.9h0.1c0.2-0.1,3.3-1.7,4.3-1.7c0.2,0,0.4,0.1,0.4,0.2
	c0.1,0.1,0.1,0.3,0,0.4c-0.5,1.2,0.7,2.5,0.7,2.5s0.3,0.4,1.1,1.3c0.6,0.7,0.8,2.4,0.9,4.1c0.1,0.7,0.1,1.3,0.2,1.9
	c0.2,1.3,0.8,1.4,1,1.4h0.1l0.2,0.4L92,97.4l-0.2,0.1c0,0-0.3-0.4-0.5-1c-0.1-0.4-0.3-2-0.5-4.2C90.6,91.4,90.5,90.6,90.4,90.1z
	 M92,113.8L92,113.8c0-0.1-0.1,0-0.2,0c-0.1,0-0.2,0-0.4-0.2c-0.3-0.4-0.7-2.2-0.7-3.1c0.1-1,0.5-2.8,1.3-4.3
	c0.4-0.8,0.5-1.4,0.7-1.8c0-0.1,0.1-0.2,0.1-0.3c0-0.1,0.1-0.2,0.2-0.3c0.2-0.3,0.4-0.7,0.4-1.3c0-0.4-0.1-0.8-0.2-1.1
	c-0.1-0.2-0.2-0.4-0.2-0.5c0-0.4,0.4-0.9,0.6-0.9c0.1,0,0.1,0,0.2,0.1c0.1,0.1,0.2,0.3,0.3,1.1c0.1,0.4,0.1,1.1,0.2,1.3
	c0.1,0.4,0.2,0.4,0.4,0.4h0.1c0,0,0.1,0,0.2,0c0.3,0,0.9-0.1,2.3-0.4h0.2v0.2c0.1,0.3-0.7,1-1.3,1.3c-0.3,0.1-0.6,0.2-0.9,0.3
	c-0.5,0.1-1.2,0.3-1.4,0.6c-0.5,0.6-1.5,2.8-1.7,3.7c-0.2,1-0.4,3.8-0.1,4.3C92.2,113.2,92.2,113.5,92,113.8L92,113.8z M101.1,117.5
	c-0.1,0.2-0.2,0.3-0.4,0.4c-0.5,0.7-1.6,2-1.6,4.7l-0.4,4.3h-0.4l-0.4-4.3c0-2.7-1.1-3.9-1.6-4.7c-0.2-0.2-0.3-0.4-0.4-0.4l-0.1-0.2
	l0.4-0.2h0.1c0.4,0,0.8,0.2,1.1,0.4c0.4,0.2,0.6,0.4,1.2,0.4c0.4,0,0.8-0.2,1.2-0.4c0.4-0.2,0.6-0.4,1.1-0.4h0.1l0.4,0.2
	L101.1,117.5z M101,114.9c-0.9,0-1.8-0.4-2.6-1.3c-0.8,0.9-1.7,1.3-2.6,1.3c-1.6,0-2.7-1.3-2.8-1.3l0.3-0.3c0,0,1.3,0.6,2.2,0.6
	c0.1,0,0.2,0,0.2,0c0.5-0.1,1-0.3,1.4-0.5c0.2-0.1,0.4-0.2,0.5-0.3c-0.1-0.1-0.2-0.2-0.3-0.3l-0.1-0.1l0.1-0.1
	c0.6-0.7,0.8-0.8,0.9-0.9h0.1c0.1,0,0.3,0.2,0.9,0.8l0.1,0.1l-0.1,0.1c-0.1,0.1-0.2,0.2-0.3,0.3c0.2,0.1,0.4,0.2,0.5,0.2
	c0.4,0.3,1.1,0.4,1.6,0.5c0.1,0,0.1,0,0.2,0c1,0,2.2-0.6,2.2-0.6l0.3,0.3C103.7,113.6,102.5,114.9,101,114.9z M105.3,113.4
	c-0.1,0.3-0.2,0.4-0.3,0.4c-0.1,0-0.2-0.1-0.3-0.2c-0.2-0.2-0.1-0.5,0-1c0.2-0.5,0.1-3.3-0.1-4.3c-0.2-0.9-1.1-3-1.7-3.7
	c-0.4-0.4-0.9-0.5-1.4-0.6c-0.3-0.1-0.6-0.2-0.9-0.3c-0.6-0.3-1.4-1-1.3-1.3v-0.2h0.2c1.4,0.3,2.1,0.4,2.3,0.4s0.2,0,0.2,0h0.1
	c0.2,0,0.3-0.1,0.4-0.4c0.1-0.2,0.2-0.8,0.2-1.3c0.1-0.8,0.1-1,0.3-1.1c0,0,0.1-0.1,0.2-0.1c0.3,0,0.6,0.4,0.6,0.9
	c0,0.2-0.1,0.4-0.2,0.5c-0.1,0.3-0.3,0.6-0.2,1.1c0,0.5,0.3,1,0.4,1.3c0.1,0.1,0.1,0.2,0.2,0.3c0,0.1,0.1,0.2,0.1,0.3
	c0.2,0.4,0.4,1,0.7,1.8c0.6,1.5,1.2,3.3,1.3,4.3C106.1,111.3,105.6,113.1,105.3,113.4z M106.4,92l-0.2-0.4l0.4,0.1
	c0,0,0.4,0.1,0.7,0.1c0.6,0,1.6-0.2,2.2-1c0.4-0.4,0.5-0.5,0.6-0.5c0.1,0,0.2,0,0.2,0.1c0.1,0.1,0.1,0.3,0,0.4
	c-0.2,0.5-0.9,1.8-1.5,2c0,0.2-0.1,0.2-0.3,0.2c-0.5,0-1.3-0.2-1.7-0.4C106.5,92.2,106.4,92,106.4,92z M112.3,97.3
	c0.7,1.8,1.5,4,1.3,5.2c-0.3,1.6-1.3,3.5-3,5.5c-1.4,1.7-2.7,3-2.7,3l-0.4,0.4l0.1-0.6c0,0,0.1-0.7,0.9-1.7l0.4-0.4
	c1.4-1.7,3.5-4.3,3.4-6.3c-0.1-1.3-0.4-2.7-0.8-3.9c-0.2-0.6-0.4-1.3-0.4-1.7c-0.2-1.1,0.2-1.5,0.2-1.5l0.3-0.4l0.1,0.4
	C111.6,95.6,111.9,96.4,112.3,97.3z M112.2,81.2c0,0,0.4-0.1,0.9-0.8c0.1-0.1,0.1-0.2,0.2-0.3c0.5-1,1.6-2.8,10.2-5.1l0.5-0.2
	l-0.4,0.4c0,0.1-0.4,0.4-1.9,1.1c-2.3,1.1-7.6,3.5-7.4,6l-0.5,1.8l-1.1-0.1l-0.7-2.9H112.2z M111.5,86L111.5,86l0.4,0.9l-0.4-0.1
	c0,0-0.3,0-0.6,0c-0.5,0-1.3,0.1-2.1,0.5c-1.3,0.8-2.1,1.5-2.1,1.5h-0.1c0,0-0.6,0.2-0.7,1.5c-0.1,0.5-0.2,1.3-0.3,2.2
	c-0.3,2.2-0.4,3.8-0.5,4.2c-0.3,0.3-0.5,0.7-0.5,0.7l-0.1,0.2l-1.8-1.2l0.1-0.4c0,0,0,0,0.1,0c0.2,0,0.7-0.1,1-1.4
	c0.1-0.5,0.1-1.3,0.2-1.9c0.1-1.7,0.3-3.5,0.9-4.1c0.8-0.9,1.1-1.3,1.1-1.3s1.3-1.3,0.7-2.5c-0.1-0.2-0.1-0.4,0-0.4
	c0.1-0.1,0.2-0.2,0.4-0.2C108.1,84.3,111.4,85.9,111.5,86z"/>
<g>
	<path d="M100.5,43.2c0-0.2,0-0.4,0-0.6c0.1,0,0.1,0,0.2,0c0,0.3,0,0.4,0.1,0.5c1.3-0.1,2.5,0.1,3.7,0.1c0.2,0.4,0.2,0.4,0.6,0.5
		c0.4-0.6,0.7-0.6,1.1-1.4c0.6-0.1,1,0,1.6,0.1c0,0.3,0.1,0.5,0.1,0.8c-0.3,0.2-0.4,0.4-0.7,0.6v0.1c0.1,0,0.3,0,0.4,0
		c0.4-0.2,0.8,0,1.2,0.1v-0.1c-0.2-0.2-0.4-0.4-0.5-0.7c0.5-0.1,0.5-0.3,1.1-0.3c0.1,0.2,0.2,0.2,0.4,0.3c-0.1,0.4-0.1,0.4,0,0.8
		c0.1,0,0.3,0,0.4,0c0.3-0.1,0.6,0.1,0.9,0c0.4-0.2,0.4-0.6,0.8-0.8c0.4,0,0.6-0.1,1-0.1c0.1-0.1,0.2-0.3,0.3-0.4
		c0.5-0.4,1.2-0.1,1.7,0v-0.1c-0.1-0.1-0.1-0.1-0.1-0.3c0.3,0,0.5,0.1,0.7,0.2c0.1,0.1,0.1,0.1,0.1,0.3c-0.1,0.1,0,0-0.1,0.2
		c-0.1,0.1-0.4,0.1-0.5,0.2c0.1,0.2,0,0.1,0,0.4c0.1,0,0.1,0,0.2,0c0.2-0.2,0.5-0.4,0.6-0.3c0.2,0.1,0.1,0.1,0.3,0.2
		c0.3-0.4,1-0.3,1.5-0.1c-0.1,0.1,0,0-0.2,0.1c-0.1,0.1-0.4,0.1-0.4,0.2c0.1,0,0.1,0,0.2,0c0.2,0.1,0.6,0.1,0.9,0.1
		c0,0.2,0,0.4,0,0.5c-0.1,0.1,0,0-0.1,0.2c-0.9,0-1.8,0-2.7,0c-0.1,0.1-1.5,0.4-1.8,0.4c0-0.4,0.2-0.1-0.1-0.3
		c-0.2,0.1-0.6,0.1-1,0.1c-0.1,0.3-0.1,0.3-0.3,0.4c-0.2-0.3-0.2-0.4-0.5-0.5c0,0.1,0,0.2,0,0.3c-0.4,0-0.6-0.1-0.8,0
		c-0.4,0.2-0.4,0.1-0.4,0.6c-0.7,0-0.6-0.3-1.1-0.4c-0.2,0.2-0.5,0.3-0.9,0.3l-0.1-0.1c0-0.1,0.1-0.2,0.1-0.3
		c-0.4-0.1-0.4-0.2-0.8-0.3c0.1,0.4,0.1,0.4,0.2,0.7c-0.5-0.1-1.1-0.4-1.6-0.3c-0.3,0.1-0.4,0.3-0.7,0.3c0-0.1,0-0.2,0-0.3
		c-0.1-0.1-0.2-0.2-0.3-0.3c-1,0.7-2.4,0-3.3-0.3c-0.9-0.4-2,0.3-2.3-0.3c0.3-0.1,0.3-0.1,0.4-0.3c-0.1,0-0.2,0-0.3,0
		c-0.2,0.3-0.5,0.2-0.8,0.3c0,0.1,0,0.2,0,0.3c-0.9,0-4.1,0.3-4.7-0.1c0.3-0.2,0.1-0.2,0-0.5l0.1-0.1c0.8,0,0.9-0.1,1.5-0.3
		c0.2,0.2,0.4,0.4,0.6,0.6c0.2-0.3,0.4-0.4,0.7-0.4c0,0.1,0,0.2,0,0.3c-0.3,0-0.2-0.1-0.3,0s0,0-0.1,0.2c0.1,0,0.2,0,0.3,0
		c1.2-1,2.1-1.8,3-3c0.3-0.3,0.6-0.4,0.9-0.7c0.6-0.8,1.3-2,2.3-2.3v0.1c-0.5,0.4-0.9,1.1-1.3,1.6c-0.2,0.1-0.4,0.3-0.6,0.4
		c-0.1,0.4-0.4,1-0.8,1.3c-0.1,0-0.3,0.1-0.4,0.1c-0.1,0.1-0.1,0.4-0.2,0.5c-0.5,0.6-1.3,1.4-2,2c0,0.1,0,0.1,0,0.2
		c0.1,0,0.1,0,0.2,0c0.3-0.4,0.7-1,1.5-1c0.3,0.3,0.4,0.3,0.7,0.3C100.2,43.3,99.9,43.3,100.5,43.2z"/>
	<path d="M82.9,38.7c0.2,0,0.4,0,0.6,0c0.2,0.3,0.3,0.3,0.4,0.6h-0.1c-0.2,0.3-0.4,0.4-0.7,0.6c-0.2-0.1-0.4-0.1-0.5-0.2
		c-0.1-0.1,0,0-0.1-0.2C82.7,39.3,82.8,38.9,82.9,38.7z"/>
	<path d="M87.4,38.7c0.1,0,0.1,0,0.2,0c0,0.1,0,0.1,0,0.2c-0.1,0-0.1,0-0.2,0C87.4,38.8,87.4,38.8,87.4,38.7z"/>
	<path d="M87.2,39.1c0.1,0,0.1,0,0.2,0v0.1C87.2,39.2,87.3,39.2,87.2,39.1z"/>
	<path d="M93,39.2c0.1,0,0.1,0,0.2,0c0,0.1,0,0.1,0,0.2c-0.1,0-0.1,0-0.2,0C93,39.4,93,39.3,93,39.2z"/>
	<path d="M89.1,39.5c0.1,0,0.3,0,0.4,0c0.1,0.2,0.1,0.4,0.1,0.6c-0.1,0.1,0,0-0.1,0.2c-0.2,0.1-0.1,0-0.2,0.1
		c-0.3-0.1-0.4-0.2-0.7-0.3c0-0.1,0.1-0.2,0.1-0.3C88.8,39.6,89,39.6,89.1,39.5z"/>
	<path d="M84.6,39.6c0.3,0.1,0.3,0,0.3,0.4c-0.2,0.1-0.1,0-0.2,0.1c-0.2-0.1-0.1,0-0.2-0.1C84.4,39.8,84.5,39.9,84.6,39.6z"/>
	<path d="M77.1,39.7c0.4,0.1,0.2-0.1,0.3,0.2c-0.1,0-0.2,0-0.3,0C77.1,39.9,77.1,39.8,77.1,39.7z"/>
	<path d="M92.7,39.7c0.1,0,0.3,0,0.4,0c0,0.1,0,0.1,0,0.2h-0.1C92.9,40,92.9,40,92.7,40C92.7,39.9,92.7,39.8,92.7,39.7z"/>
	<path d="M79.6,39.9c0.4,0.1,0.2-0.1,0.3,0.2c-0.1,0-0.2,0-0.3,0C79.6,40.1,79.6,40,79.6,39.9z"/>
	<path d="M76.5,40.3c0.4,0.1,0.2-0.1,0.3,0.2c-0.1,0-0.2,0-0.3,0C76.5,40.4,76.5,40.3,76.5,40.3z"/>
	<path d="M93.3,40.3c0.1,0,0.2,0,0.3,0c0,0.1,0,0.2,0,0.3c-0.1,0-0.2,0-0.3,0C93.3,40.4,93.3,40.4,93.3,40.3z"/>
	<path d="M96.5,40.3c0.4,0.1,0.2-0.1,0.3,0.2c-0.1,0-0.2,0-0.3,0C96.5,40.4,96.5,40.3,96.5,40.3z"/>
	<path d="M66.4,40.4c0.3,0,0.3,0.1,0.4,0.1c0,0.1,0,0.1,0,0.2c-0.2,0-0.4,0-0.5,0C66.4,40.6,66.4,40.5,66.4,40.4z"/>
	<path d="M81.9,40.4c0.1,0,0.1,0,0.2,0H81.9l0.1,0.2C81.9,40.5,81.9,40.6,81.9,40.4z"/>
	<path d="M99.8,40.4c0,0.2,0,0.2-0.1,0.3c-0.1,0.1-0.2,0.1-0.4,0.1c0-0.1,0-0.1,0-0.2C99.6,40.5,99.6,40.4,99.8,40.4z"/>
	<path d="M94.5,40.5c0.2,0.1,0.2,0.1,0.3,0.3c-0.3,0.2-0.4,0.3-0.8,0.3c0-0.1,0-0.1,0-0.2C94.2,40.8,94.4,40.7,94.5,40.5z"/>
	<path d="M102.9,40.6c0.2,0.3,0.2,0.2-0.1,0.3C102.8,40.8,102.8,40.7,102.9,40.6z"/>
	<path d="M69.2,40.9c0,0.3-0.1,0.3-0.1,0.4c-0.2-0.1-0.1,0-0.2-0.1c-0.3-0.1-0.1,0-0.2-0.2C68.9,41,69,41,69.2,40.9z"/>
	<path d="M86.1,40.9c0,0.1,0,0.3,0,0.4L86,41.3c-0.4,0-0.5,0.2-1,0.2c-0.2-0.2-0.4-0.3-0.6-0.5c0.2-0.1,0.2-0.1,0.4-0.2
		C85,41.3,85.5,41,86.1,40.9z"/>
	<path d="M78.1,41.2c0.3,0.2,0.1,0,0.2,0.3l-0.1,0.1l-0.1-0.1C78,41.3,78,41.4,78.1,41.2z"/>
	<path d="M92.7,41.2c0.1,0,0.1,0,0.2,0c0,0.1,0,0.1,0,0.2c-0.1,0-0.1,0-0.2,0C92.7,41.3,92.7,41.2,92.7,41.2z"/>
	<path d="M81.9,41.3c0.1,0,0.2,0,0.3,0c0.1,0.1,0.1,0.1,0.2,0.2c0,0.1,0,0.1,0,0.2c-0.1,0-0.1,0-0.2,0c-0.1,0.1-0.2,0.1-0.4,0.1
		C81.8,41.5,81.8,41.6,81.9,41.3z"/>
	<path d="M61,41.4c0.1,0.2,0.2,0.1,0,0.2C61,41.5,61,41.5,61,41.4z"/>
	<path d="M68,41.4c0.4,0.1,0.2-0.1,0.3,0.2C68.1,41.5,68.2,41.6,68,41.4z"/>
	<path d="M81.9,42.6c0,0.2,0,0.2,0.1,0.3s0,0,0.2,0.1c0.1,0.1,0.3,0.1,0.5,0.1c0,0.1,0,0.3,0,0.4c-0.4,0.1-0.4,0.1-0.5,0.5h0.1
		L82.2,44c0.3,0.3,0.6,0.3,1.2,0.3c0-0.2-0.1-0.4-0.1-0.5c0.6-0.2,0.7-0.5,1.4-0.6c0.1,0.1,0,0,0.2,0.1c0,0.1,0,0.2,0,0.3
		c-0.3,0.1-0.4,0.3-0.6,0.5c0.1,0.1,0.1,0.1,0.2,0.2h-0.1c-0.4,0.4-1.7,0.5-2.3,0.8c-0.2,0,0-0.3-0.3-0.2v0.1
		c-0.3,0.1-0.6,0.1-1,0.2c-0.1,0.1-0.1,0.2-0.2,0.3c-0.5,0.2-2.1-0.3-2.5-0.4c-0.4-0.1-1.3,0.3-1.5,0.3c-1.1,0.2-2-0.4-2.9-0.3
		c-0.1,0-0.4,0.3-0.5,0.3c-0.6,0.2-1-0.4-1.7-0.2c-0.3,0.1-0.7,0.4-0.9,0.4c-0.4,0-0.6-0.1-1-0.1c-0.2,0.1-0.3,0.4-0.4,0.5
		c-0.8,0.4-1.9-0.3-2.4-0.1c-0.2,0.1-0.3,0.4-0.4,0.5c-0.2,0-0.4,0-0.5,0c-0.1,0.1-0.2,0.3-0.3,0.4c-0.2,0-0.4,0-0.5,0
		c-0.4,0.2-0.3,0.7-0.8,1c0.1,0.4,0.2,0.4,0.3,0.9c-0.1,0-0.2,0-0.3,0c0,0.1,0,0.2,0,0.3c0.4,0.1,0.6,0.4,0.8,0.8
		c-0.2,0-0.4,0-0.6,0c-0.1,0.1-0.1,0-0.4,0c0,0.1,0,0.2,0,0.3c0.1,0,0.3,0,0.4,0l0.1,0.1c0,0.1,0,0.1,0,0.2c-0.1,0-0.2,0-0.3,0
		c-0.1-0.1,0,0-0.2-0.1c0,0.2,0,0.4,0,0.5c-0.1,0.1,0.4,1.6,0.5,1.7c0.1,0.1,0.2,0.1,0.3,0.2c-0.1,0.2-0.2,0.1-0.3,0.2
		c-0.1,0.1,0.2,0.3,0.2,0.3c0,0.1-0.2,0.4-0.2,0.4c-0.1,0.1-0.1,0.1-0.3,0.1c0,0.8-0.3,1-0.4,1.7c-0.1,0-0.2,0-0.3,0
		c-0.1,0.4-0.3,0.3-0.4,0.5c0.2,0.2,0.1,0.1,0.2,0.3c-0.2,0-0.2,0-0.3,0.1c0.5,0.7,0,0.7,0.1,1.2c0.3,0.3,0.2,0.3,0.2,0.7
		c-0.1,0-0.2,0-0.3,0c-0.5,2.4-0.3,6.1-0.3,9C62.9,67,62.9,67,62.7,67c-0.1-0.1,0,0-0.2-0.1c0.1-0.4-0.3-0.6-0.2-1.1
		c0.1-0.6,0.3-0.6,0.3-1.5l-0.1-0.1c-0.4,0-0.4,0.2-0.8,0c-0.1-0.1-0.1-0.2-0.2-0.3c-0.3-0.1-0.6,0.3-1,0.3C60.3,64,60.1,64,60,63.5
		c0.1-0.1,0.2-0.3,0.2-0.4c1-0.1,1.3,0.4,2.1,0.5c0.1-0.1,0.2-0.3,0.3-0.4c-0.4-0.1-0.7-0.3-1.1-0.4c0-0.2-0.1-0.4-0.1-0.5
		c0.3-0.1,0.1,0,0.2-0.2c-0.4-0.1-0.4-0.1-0.6-0.4c0.4-0.3,0.7-0.6,1.3-0.9l-0.1-0.1c-0.2-0.3-0.3-0.2-0.7-0.2
		c-0.3,0.3-0.7,0.4-1.2,0.4c0-0.1,0-0.1,0-0.2c0.3-0.1,0.5-0.3,0.7-0.5c-0.1,0-0.1,0-0.2,0c-0.2,0.2-0.2,0.2-0.4,0.1
		c-0.1-0.1,0,0-0.1-0.2c0.4-0.1,0.8-0.3,1-0.6c-0.1,0-0.2,0-0.3,0c-0.2,0.1-0.5,0-0.9,0.1s-1,0.4-1.4,0.5c-0.1-0.2-0.2-0.2-0.2-0.5
		c0.7,0,1.3-0.3,1.9-0.5c0-0.1,0.1-0.2,0.1-0.3c-0.4,0-0.7,0-0.9,0c-0.1-0.1-0.1-0.2-0.2-0.3c0.1-0.1,0.2-0.1,0.3-0.2
		c-0.3-0.2-0.8-0.3-1.1-0.5c0.5,0,2.3,0.3,2.4,0.2s0,0,0.1-0.2c-0.3-0.2-0.1-0.1-0.2-0.3c-0.2-0.2-0.4-0.2-0.5-0.4
		c0.5-0.4,0-0.9,0.2-1.6c0.1,0,0.1-0.1,0.2-0.1c-0.1-0.4-0.6-0.8-0.8-1.4c-0.2-0.1,0.1-0.1,0.1-0.3c0.1-0.4-0.1-0.3-0.2-0.4
		c0.1-0.3,0.2-0.5,0.2-1c-0.2,0-0.4,0-0.6,0c0-0.1,0-0.1,0-0.2l0.1-0.1c0.3,0,0.3,0.1,0.5,0v-0.1c-0.4,0-0.8-0.1-1.2-0.1
		c-0.3,0.1-0.3,0.4-0.7,0.3c-0.4-0.1-0.9-0.3-1.8-0.2c0,0.3-0.1,0.3-0.1,0.4c-0.1,0-0.1,0-0.2,0c-0.2-0.4-1.1-0.4-1.7-0.5
		c0-0.1,0-0.1,0-0.2c1.3,0,1.6-0.1,2.5-0.4c0.2,0.3,0.1,0.2,0.4,0.3c0.2-0.4,0.4-0.5,0.9-0.6c0,0.1,0,0.1,0,0.2
		c-0.1,0.1-0.3,0.1-0.4,0.2l0.1,0.1v0.1c0.7,0,1.4,0,2.1,0c0.1-0.2,0.1-0.5,0.1-0.9c-0.1-0.2,0-0.4,0-0.7c-0.4-0.2-1.3-0.1-1.9-0.1
		c-0.1-0.1-0.1-0.1-0.3-0.1L57.9,50c0,0.3,0,0.1,0,0.4c-0.1,0-0.3,0-0.4,0c0-0.1,0-0.1,0-0.2c0.2-0.2,0.1-0.1,0.2-0.3
		c-0.2,0-0.4,0-0.5,0c-0.2,0.4-0.3,0.4-0.8,0.4c-0.4-0.8-0.8-0.3-1.3-0.8c0.4,0,0.9,0,1.3,0c0.5,0.4,2.5,0.3,3.4,0.3
		c0.1-0.1,0.1-0.2,0.2-0.3c-0.3-0.1-0.3-0.1-0.4-0.4c0.4,0,0.3,0.2,0.5-0.1c-0.3,0-0.1,0-0.4-0.1c-0.2,0.2-0.1,0.1-0.3,0.2
		c0-0.1,0-0.2,0-0.3c0.1-0.1,0.1-0.2,0.2-0.3c0.4,0,0.4-0.2,1-0.2c0-0.3-0.5-1.7-0.6-1.8c-1.4,0-2.8,0-4.2,0
		c-0.4-0.2-1.6-0.3-2.1-0.3c0-0.1,0-0.1,0-0.2c2.2,0.1,4.1,0.2,6.4,0.2c0-0.1,0.1-0.2,0.1-0.3s0.1-0.3,0.1-0.5c-0.3,0-0.6,0-0.9,0
		c-0.5-0.3-1.6,0-2.3-0.1c-0.7-0.1-1.8-0.3-2.7-0.3c0-0.1,0-0.1,0-0.2c1.6-0.2,4,0.3,5.5,0c0.8-0.2,2,0.1,2.3-0.5
		c-1.1,0-2.1,0-3.1,0c-0.5-0.4-2.1,0-2.4-0.2c-0.1-0.1,0,0-0.1-0.2c0.1,0,0.1,0,0.2,0c0.4-0.3,1.4,0.1,2,0c1.4-0.3,3.2,0,4.9,0V44
		c-0.3-0.1-1.2-0.8-1.2-1.1l0.1-0.1c0.6,0.3,0.3-0.2,0.7,0c0.5,0.2,1.1,0.8,1.4,1.2c0.4-0.2,1.3,0.1,1.8-0.1
		c1.5-0.4,3.6-0.6,5.5-0.6c0-0.1,0-0.1,0-0.2c-0.3-0.2-0.4-0.4-0.5-0.7c0.2-0.1,0.2-0.1,0.4-0.1c0.3,0.4,0.8,0.7,0.9,1.3
		c0.6,0.1,0.9,0.3,1.6,0.3c0.3-0.4,0.4-0.7,1.2-0.7c0.2-0.1,0.2-0.1,0.5,0c0.1,0.3,0.1,0.6,0.3,0.8c0.1-0.1,0.1-0.3,0.2-0.4
		c0.4,0.3,1,0.4,1.6,0.4c0-0.1,0-0.3,0-0.4c0.4,0,0.7,0.2,0.9,0.1c0.4-0.2,0.8-0.5,1.3-0.7c0.1,0.4,0.7,0.8,1.1,0.9
		c0.1-0.1,0.4-0.1,0.5-0.2c0.1-0.1,0,0,0.1-0.2c-0.3-0.3-0.2-0.4-0.6-0.5c-0.2,0.3-0.1,0.2-0.4,0.3c-0.1-0.6-0.3-0.7-0.4-1.3
		c0.3-0.2,0.4-0.4,0.7-0.5v0.1c0.1,0.2,0.1,0.4,0.1,0.6c-0.1,0.2-0.1,0.2-0.1,0.3c0,0.1,0.1,0.2,0.1,0.3
		C81.6,42.7,81.7,42.7,81.9,42.6z"/>
	<path d="M101,42.6c0-0.4,0.1-0.7,0.4-0.9c0.1,0,0-0.1,0.1,0c0.1,0.2,0.1,0.4,0.1,0.7C101.3,42.5,101.3,42.6,101,42.6z"/>
	<path d="M103,41.6c0.1,0,0.2,0.1,0.3,0.1c0,0.1,0,0.1,0,0.2c-0.2,0.1-0.1,0-0.2,0.1c-0.2-0.1-0.1,0-0.2-0.1c-0.1-0.1,0,0-0.1-0.2
		C103,41.7,102.9,41.7,103,41.6z"/>
	<path d="M105.7,41.7c0,0.1,0,0.3,0,0.4c-0.4,0-0.3,0-0.6,0c0-0.1-0.1-0.2-0.1-0.3c0.1,0,0.2-0.1,0.3-0.1
		C105.5,41.6,105.5,41.7,105.7,41.7z"/>
	<path d="M61.5,41.7c0.1,0,0.2,0,0.3,0c0.2,0.2,0.4,0.4,0.5,0.6c0,0.1,0,0.1,0,0.2c-0.1,0-0.1,0-0.2,0
		C61.7,42.2,61.5,42.3,61.5,41.7z"/>
	<path d="M110.7,42.5c0,0.1,0,0.3,0,0.4c-0.2,0.1-0.3,0.2-0.4,0.3c-0.1,0-0.2-0.1-0.3-0.1c-0.1-0.2,0-0.1-0.1-0.2
		c0.1-0.3,0.1-0.3,0.2-0.5c-0.1,0-0.3,0-0.4,0c-0.2,0.2-0.1,0.2-0.4,0.2c0-0.1,0-0.1,0-0.2c0.4-0.3,0.6-0.6,1.2-0.7
		c0.4,0.3,0.4,0.3,0.9,0.2c0,0.1,0,0.1,0,0.2c-0.1,0-0.1,0-0.2,0c-0.3,0.3-0.6,0.1-1,0.2l0.1,0.1C110.5,42.5,110.5,42.5,110.7,42.5z
		"/>
	<path d="M98.8,41.8c0.1,0.1,0.1,0.1,0.1,0.3c-0.1,0-0.1,0-0.2,0C98.8,42.1,98.8,42,98.8,41.8z"/>
	<path d="M79.9,42c0.1,0,0.2,0,0.3,0c0.2,0.3,0.3,0.3,0.3,0.7c-0.3,0.2-0.4,0.3-0.6,0.2s-0.3,0-0.4-0.3C79.6,42.4,79.7,42.1,79.9,42
		z"/>
	<path d="M88.3,42.1c0.1,0,0.1,0,0.2,0v0.1C88.4,42.1,88.4,42.2,88.3,42.1z"/>
	<path d="M93.4,42.1c0.1,0,0.3,0,0.4,0v0.1l-0.1,0.1c-0.1,0-0.2,0.1-0.3,0.1C93.4,42.3,93.4,42.2,93.4,42.1z"/>
	<path d="M75.1,42.3c0.3,0,0.3,0.1,0.4,0.1l-0.1,0.1c-0.1,0.1-0.1,0.1-0.3,0.1C75.1,42.5,75.1,42.4,75.1,42.3z"/>
	<path d="M86.2,42.3c0.4,0.1,0.2-0.1,0.3,0.2c-0.1,0-0.2,0-0.3,0C86.2,42.4,86.2,42.4,86.2,42.3z"/>
	<path d="M91.5,42.3c0.2,0,0.4,0,0.5,0c0,0.1,0,0.1,0,0.2L92,42.6C91.7,42.5,91.6,42.5,91.5,42.3z"/>
	<path d="M73.2,42.4c0.1,0.1,0,0,0.1,0.2h-0.1C73.2,42.6,73.2,42.5,73.2,42.4z"/>
	<path d="M85.2,42.4c0.1,0,0.1,0,0.2,0C85.3,42.6,85.3,42.5,85.2,42.4z"/>
	<path d="M120.9,43.9c0-0.3,0.1-0.3,0.1-0.4l0.1,0.1c0.1,0.2,0.1,0.4,0.2,0.8c-0.2,0-0.4,0-0.5,0c-0.4,0.3-2.1,0.1-2.7,0
		c-0.1-0.2,0-0.1-0.1-0.2c0.3-0.4,0.5-0.5,0.7-1.1c-0.1,0-0.2,0-0.3,0c-0.2,0.1-0.4,0.1-0.6,0.1v-0.1h0.1c0.3-0.2,0.8,0,1.1-0.2
		c0.3-0.2,0.2-0.4,0.5-0.5c0,0.1,0,0.1,0,0.2c-0.2,0.3-0.1,0.5-0.3,0.9c-0.2,0.3-0.4,0.2-0.6,0.6c0.1,0,0.1,0,0.2,0
		c0.3-0.4,0.4-0.3,0.8-0.3c0.1-0.2,0-0.3,0.1-0.4C120.1,43.7,120.6,43.8,120.9,43.9z"/>
	<path d="M103.2,42.5c0.1,0.1,0.4,0.2,0.1,0.3C103.1,42.9,103.2,42.6,103.2,42.5z"/>
	<path d="M89.7,42.6c0.1,0,0.3,0,0.4,0l0.1,0.1c0,0.1,0,0.1,0,0.2c-0.2,0-0.4,0-0.5,0C89.7,42.9,89.7,42.7,89.7,42.6z"/>
	<path d="M76.6,42.7c0.2,0.2,0.1,0.1,0.2,0.3c-0.1,0-0.2,0-0.3,0C76.5,42.9,76.6,42.9,76.6,42.7z"/>
	<path d="M85.6,42.9c0.3,0,0.3,0.1,0.4,0.1c0,0.1,0,0.1,0,0.2c-0.1,0-0.2,0-0.3,0V43C85.6,42.9,85.7,42.9,85.6,42.9z"/>
	<path d="M104.8,42.9c0.1,0,0.2,0.1,0.3,0.1l-0.1,0.1c-0.1,0-0.2,0.2-0.4,0.1C104.7,43.1,104.7,43,104.8,42.9z"/>
	<path d="M122.3,43c0.1,0,0.1,0,0.2,0c0,0.1,0,0.1,0,0.2c-0.1,0-0.1,0-0.2,0C122.3,43.1,122.3,43,122.3,43z"/>
	<path d="M90.4,43.1c0.1,0,0.1,0,0.2,0v0.1C90.4,43.1,90.5,43.2,90.4,43.1z"/>
	<path d="M92.8,43.1c0.4,0.1,0.2-0.1,0.3,0.2c-0.1,0-0.2,0-0.3,0C92.8,43.2,92.8,43.2,92.8,43.1z"/>
	<path d="M120.5,43.1c0.1,0,0.2,0.1,0.3,0.1v0.1C120.6,43.2,120.6,43.3,120.5,43.1z"/>
	<path d="M145.3,43.1c0.1,0,0.2,0,0.3,0c0.1,0.2,0.2,0.2,0.2,0.5c-0.1,0-0.2,0-0.3,0C145.4,43.4,145.4,43.4,145.3,43.1z"/>
	<path d="M144.4,43.2c0.1,0,0.3,0,0.4,0c0.1,0.2,0.2,0.2,0.2,0.5c-0.2,0.1-0.2,0.1-0.4,0.1c-0.1-0.1,0,0-0.2-0.1
		c-0.1-0.2,0-0.1-0.1-0.2C144.3,43.4,144.4,43.3,144.4,43.2z"/>
	<path d="M63.3,43.3c0.2,0.2,0.1,0.2,0.4,0.2v-0.1C63.6,43.4,63.4,43.3,63.3,43.3z"/>
	<path d="M99.6,43.3c0.1,0,0.1,0,0.2,0v0.1C99.7,43.4,99.7,43.4,99.6,43.3z"/>
	<path d="M100.5,43.3c0.1,0.2,0.4,0.3,0.2,0.1C100.5,43.3,100.6,43.4,100.5,43.3z"/>
	<path d="M77.4,43.4c0.1,0,0.1,0,0.2,0C77.5,43.6,77.6,43.6,77.4,43.4z"/>
	<path d="M92.3,43.4c0.1,0,0.1,0,0.2,0H92.3l0.1,0.2C92.3,43.5,92.4,43.6,92.3,43.4z"/>
	<path d="M120.5,43.4c0.2,0,0.2,0,0.3,0.1C120.6,43.5,120.6,43.5,120.5,43.4z"/>
	<path d="M122.1,43.4c0.1,0,0.1,0,0.2,0c0,0.1,0,0.1,0,0.2c-0.1,0-0.1,0-0.2,0C122.1,43.6,122.1,43.5,122.1,43.4z"/>
	<path d="M93.9,43.5c0.4,0.1,0.2-0.1,0.3,0.2l-0.1,0.1L94,43.7C93.9,43.6,93.9,43.7,93.9,43.5z"/>
	<path d="M132.7,45.5c0,0.2,0,0.4,0,0.5l0.1,0.1c0.6,0,0.6,0.1,1,0.2l-0.1,0.1c-0.3,0.3-0.7,0.2-1.1,0c0,0.1,0,0.1,0,0.2h0.1
		c0.2,0.2,0.3,0.1,0.4,0.3c-0.4,0.1-0.4,0.2-0.7,0.3c0-0.3-0.1-0.3-0.1-0.4c-0.3,0.2-0.3,0.3-0.6,0.4c-0.1-0.3-0.2-0.2-0.4-0.4
		c0.1-0.1,0.2-0.1,0.3-0.2c-0.4,0-1.3-0.2-1.4-0.2c-0.3-0.1-0.1,0-0.2-0.2c0.4-0.2,0-0.1,0.2-0.3c0.2,0.1,0.4,0.1,0.6-0.1
		c-0.2-0.1-0.4-0.1-0.8-0.2c0-0.1-0.1-0.2-0.1-0.3c-0.3-0.2-0.4,0.3-0.5,0.2c-0.4-0.2-0.4-0.4-1.2-0.5c0,0.1,0,0.3,0,0.4
		c-0.6-0.1-0.7-0.4-1.4-0.5c0-0.2,0-0.4,0-0.5c-0.3-0.1-0.4-0.2-0.6-0.4l0.1-0.1c0.4,0.1,0.5,0.2,1,0.1c0-0.3,0-0.4,0.1-0.5
		c0.1,0.1,0.2,0.3,0.2,0.3c0.5,0.3,1.2-0.1,1.6,0c0.3,0,0.7,0.4,1,0.3c0.1,0,0.4-0.4,0.8-0.2c0.3,0.1,0.4,0.4,0.8,0.4
		c0.2-0.3,0.1-0.2,0.4-0.3c0.2,0.3,0.4,0.6,0.5,0.9c-0.3,0-0.3,0-0.4,0.1c0.2,0.1,0.2,0.2,0.3,0.4c0.2-0.2,0.2-0.2,0.3-0.2
		c0.1,0.1,0.1,0.2,0.2,0.3C133,45.5,132.8,45.5,132.7,45.5z"/>
	<path d="M146.2,43.5c0.3,0.1,0.3,0.1,0.4,0.3h-0.1c-0.1,0.1-0.1,0.1-0.3,0.1C146.2,43.7,146.2,43.8,146.2,43.5z"/>
	<path d="M87.9,43.6c0.1,0.1,0,0,0.1,0.2h-0.1C87.9,43.8,87.9,43.7,87.9,43.6z"/>
	<path d="M92.6,43.8c0.2,0,0.4,0,0.5,0c0,0.1,0,0.1,0,0.2c-0.1,0-0.1,0-0.2,0C92.9,44,92.9,44,92.7,44
		C92.6,43.9,92.6,43.8,92.6,43.8z"/>
	<path d="M120,43.8c0.1,0.1,0,0,0.2,0.1C120,43.8,120.1,43.8,120,43.8z"/>
	<path d="M87.3,43.8c0.1,0,0.3,0,0.4,0v0.1h-0.1C87.4,43.9,87.5,44,87.3,43.8z"/>
	<path d="M56.2,43.9c0.1,0,0.2,0.1,0.3,0.1v0.1c-0.1,0-0.2,0-0.3,0C56.2,44,56.2,44,56.2,43.9z"/>
	<path d="M122.5,44.1c0.4-0.1,0.3-0.1,0.6-0.2l0.1,0.1c-0.3,0.4-0.1,0.4-0.8,0.5v-0.1C122.5,44.3,122.5,44.3,122.5,44.1z"/>
	<path d="M148.5,45.1c-0.1-0.4-0.2-0.4-0.2-0.8l0.1-0.1c0.8,0.4,0.5,0.7,1,1.1c0.1,0,0.3,0,0.4,0c0.2,0.1,0.2,0.5,0.3,0.6
		c0.2,0,0.4,0,0.5,0c0.2,0.2,0,0.3,0.3,0.5c0-0.1,0-0.1,0-0.2c0.2-0.2,0.4-0.5,0.6-0.8c-0.3-0.1-0.1,0-0.2-0.2
		c0.2,0,0.4-0.1,0.5-0.1c0.1,0.2,0,0.6,0.1,0.9c0.3,0.5,0.5,0,0.4,0.9c-0.3,0.1-1.3,0.4-1.3,0.5c0.8,0,1.2,0.3,1.8,0.2
		c0.1,0.4,0.1,0.3,0.2,0.5c-0.4,0-0.9,0-1.2,0.1c0,0.1,0,0.2,0,0.3c0.4,0.1,0.3,0,0.4,0.4l-0.1,0.1c-0.1,0-0.2,0-0.3,0
		c0-0.2-0.1-0.4-0.1-0.5c-0.1,0-0.1,0-0.2,0v0.1c-0.3,0.1-0.3,0.1-0.5,0.2c0.1,0.1,0,0,0.2,0.1c0.2,0.2,0.4,0.1,0.5,0.3h-0.1
		c-0.3,0.2-0.6,0.3-1,0.3c-0.1-0.3-0.2-0.5-0.3-0.8v0.1c-0.1,0.2-0.3,0.5-0.3,1.1c0.4-0.1,0.7-0.1,1.1-0.2c0,0.1,0,0.2,0,0.3
		c-0.3,0-0.4,0-0.5,0.1c0.1,0.2,0.1,0.2,0.1,0.4c-0.4,0-0.9,0-1.2,0.2c1,0,1.2,0.3,2,0.1v0.1h-0.1c-0.4,0.3-1.2,0.4-1.4,0.7
		c0.3,0.4,0.2,0.6,0.1,1c0.1,0,0.1,0,0.2,0c0.2-0.3,0-0.1,0.4-0.1c0.1,0.1,0.2,0.1,0.3,0.2c-0.1,0.3-0.1,0.3-0.2,0.6
		c0.1,0,0.2,0,0.3,0c0,0.1,0,0.3,0,0.4c0.2,0,0.4,0,0.5,0c0.2,0.3,0.4,0.4,0.7,0.6c-0.3,0.4-0.4,1.6-0.7,1.8c-0.2,0.1-0.4,0-0.5,0.1
		h0.1c0.2,0.1,0.4,0.1,0.6,0.1c0.4-0.4,1.2-0.3,1.6,0l-0.1,0.1c-0.4,0.3-1-0.1-1.6,0.1c0,0.3,0.2,0.1-0.1,0.3
		c-0.1,0.1-0.2,0.1-0.4,0.1c-0.1-0.3-0.1-0.3-0.4-0.4v0.1h-0.1c0.1,0.3,0.2,0.2,0.2,0.6c0.1,0,0.3,0,0.4,0V57
		c-0.1,0.1-0.1,0-0.1,0.1c0.2,0.2,0.2,0.2,0.6,0.2c-0.1,0.5-0.2,0.5-0.1,1.1c-0.1,0-0.1,0-0.2,0c-0.3,0.2-0.5-0.1-0.6,0
		c-0.2,0.1-0.1,0.3-0.2,0.4c-0.4,0.1-0.7,0.2-1.1,0.3c0.3,0.2-0.1,0.1,0.1,0.3c1.3,1.2,0.4,0.9,0.7,2.1c-0.4,0.1-0.5,0.1-1,0.2
		c0,0.4,0.2,0.2-0.2,0.3c-0.3-0.3-0.4,0-0.8-0.1c-0.2,0.9-0.8,0.4-0.9,1.6c0.1,0.1,0.1,0.2,0.1,0.4c0.3,0,0.1-0.1,0.3,0
		c-0.1,0.5,0,0.6,0.7,0.6c0,0.3-0.1,0.3-0.1,0.4c0.3,0,0.3,0.1,0.4,0.1c0,0.1,0,0.1,0,0.2l-0.9,0.5c-0.1,0.2,0.1,0.5,0.1,0.6
		c-0.3,0.3-0.4,0.4-0.7,0.7c0.1,0,0.2,0,0.3,0c0.2-0.2,0.2-0.2,0.5-0.2c0.2-0.3,0.1-0.3,0.2-0.5c0.7,0,0.8-0.1,1.4-0.1
		c0,0.1,0,0.1,0,0.2h-0.1c-0.5,0.4-1.2,0.5-1.9,0.8c0,0.1,0,0.1,0,0.2c0.3,0,0.1-0.1,0.3,0v0.1c-0.4,0.1-0.3,0.1-0.5,0.2v0.1
		c0.4,0,0.4,0.1,0.6,0.2c0,0.1,0,0.1,0,0.2c-0.4,0.1-0.4,0.3-0.6,0.6c0.1,0,0.1,0,0.2,0c0.1,0.1,0.1,0.1,0.3,0.1c0,0.1,0,0.2,0,0.3
		c-0.4,0-1.1,0-1.2,0.1c-0.1,0.1-0.2,0.1-0.3,0.2c0.2,0.4,0.2,0.4,0.1,0.8c0.2-0.1,0.2-0.1,0.4,0c-0.4,0.3-0.6,0.5-0.7,1.1
		c0.2,0.1,0.3,0.1,0.5,0.1c0,0.4-0.1,1.3-0.1,1.3c-0.2,0.3-0.4,0.4-0.7,0.6c-0.4,0.4-0.3,1.6-0.1,2.1c-0.2,0.1-0.4,0.1-0.6,0.2
		c0-2.9,0-5.6,0-8.5c-0.1-0.2-0.4-0.4-0.5-0.6c-0.4-0.8-0.6-1.8-0.8-2.5c0-0.3,0-0.4,0-0.7c-0.6-1.8-1.4-3.8-1.9-5.9
		c-0.3-1.3,0.4-2.5,0.7-3.5c0.3-1-0.1-2.2-0.1-3.2c-0.4-0.1-0.4-0.3-0.6-0.4c-0.1,0-0.2,0.1-0.3,0.1c-0.5,0-1-0.6-1.3-0.9
		c0-0.1,0.1-0.2,0.1-0.3c0.2-0.1,0.2-0.1,0.4-0.1l0.1,0.1c0,0.1,0,0.1,0,0.2c-0.1,0-0.2,0.1-0.3,0.1v0.1c0.2,0.1,0.1,0,0.2,0.1
		c0.2-0.1,0.7-0.2,0.9-0.3c-0.4-0.2-0.7-0.4-0.8-0.8c0.3-0.2,0.2,0,0.2-0.4c-0.2-0.1-0.3-0.3-0.4-0.5c0.2-0.2,0.1-0.1,0.2-0.3
		c-0.3-0.1-0.5-0.2-0.7-0.4c0.2-0.2,0.1-0.1,0.2-0.3c-0.3-0.1-0.3-0.2-0.7-0.2l-0.1,0.1c0.1,0.1,0.1,0.1,0.2,0.2c-0.2,0-0.4,0-0.6,0
		c-0.7-0.9-1.5,0.9-2.9,0.5c-0.7-0.3-0.6-0.8-1.8-0.8c-0.2,0.2-0.5,0.3-0.7,0.2c-0.1-0.1,0,0-0.1-0.2c0.2-0.1,0.4-0.3,0.6-0.4
		c-0.2-0.2-0.2-0.1-0.1-0.4c-0.4,0-0.3,0.1-0.4-0.2c0-0.2,0.1-0.1-0.1-0.2c-0.3,0.2-0.6,0.2-1,0.2v-0.1h0.1c0.4-0.3,0.6-0.3,1.1-0.2
		c0.4-0.2,0.3-0.4,0.7-0.5c0,0.3-0.1,0.2,0,0.4c0.4-0.2,0.4-0.4,0.8-0.5c0,0.1,0,0.3,0,0.4c0.4,0,0.7-0.3,0.9-0.2
		c0.1,0.1,0.1,0.2,0.2,0.3c0.4,0,0.7,0,1.1,0l0.1-0.1c0-0.1,0-0.2,0-0.3c0.1,0,0.2,0,0.3,0c0,0.1,0,0.3,0,0.4c0.1,0,0.1,0,0.2,0
		c0.4,0.2,0.3-0.1,0.5-0.2c0.2,0.1,0.4,0.1,0.6,0.2c0.3-0.1,0.8-0.5,1.3-0.7c0.3,0.2,0.6,0.4,0.9,0.4c0-0.3,0.1-0.3,0.1-0.4
		c0.3,0.1,0.3,0.3,0.6,0.2c0.1,0,0.1-0.3,0.4-0.2c0.3,0.1,0.3,0.4,0.4,0.5c0.2,0.1,0.9,0.2,1,0.2c0.3-0.4,0.5,0,1-0.3
		c0.1-0.2,0.1-0.4,0.1-0.6l-0.1-0.1c-0.1,0-0.2,0-0.3,0c0-0.1,0-0.2,0-0.3c0.3-0.2,0.3-0.3,0.7-0.3c0.3,0.4,0.7,0.4,1.2,0.2
		c0,0.5-0.2,0.6,0.3,0.8C147.2,45,148.1,45.1,148.5,45.1z"/>
	<path d="M150.2,43.9c0.2,0,0.4,0,0.5,0l0.1,0.1c-0.1,0.2,0,0.1-0.1,0.2C150.3,44.5,150.1,44.2,150.2,43.9z"/>
	<path d="M120.2,44.1c0.1,0.1,0,0,0.2,0.1C120.3,44.1,120.3,44.2,120.2,44.1z"/>
	<path d="M121.8,44.1c0.1,0,0.1,0,0.2,0v0.1C121.9,44.1,122,44.2,121.8,44.1z"/>
	<path d="M123.9,44.1c0.1,0,0.3,0,0.4,0v0.1l-0.1,0.1c-0.1,0-0.2,0.1-0.3,0.1C123.9,44.3,123.9,44.2,123.9,44.1z"/>
	<path d="M129.3,44.1c0.2,0.1,0.1,0.1,0.3,0C129.4,44.1,129.3,44.1,129.3,44.1z"/>
	<path d="M92.2,44.2c0.4,0.1,0.2-0.1,0.3,0.2h-0.1c-0.1,0.1-0.1,0.1-0.3,0.1C92.1,44.4,92.1,44.3,92.2,44.2z"/>
	<path d="M123.2,44.2c0.1,0,0.2,0.1,0.3,0.1c0,0.1,0,0.1,0,0.2h-0.1C123.3,44.4,123.3,44.5,123.2,44.2z"/>
	<path d="M85.3,44.3c0.1,0,0.1,0,0.2,0c0,0.1,0,0.1,0,0.2c-0.1,0-0.1,0-0.2,0C85.3,44.5,85.3,44.4,85.3,44.3z"/>
	<path d="M87.1,44.4c0.4,0,0.7,0,0.9,0.1C87.7,44.6,87.3,44.6,87.1,44.4z"/>
	<path d="M122.1,44.4c0.1,0,0.1,0,0.2,0v0.1C122.1,44.5,122.2,44.5,122.1,44.4z"/>
	<path d="M126.1,44.4c0.1,0,0.1,0,0.2,0C126.2,44.6,126.3,44.6,126.1,44.4z"/>
	<path d="M143.3,44.5c0.3,0,0.3,0.1,0.4,0.1c0,0.1,0,0.1,0,0.2c-0.1,0-0.2,0-0.3,0C143.2,44.6,143.3,44.8,143.3,44.5z"/>
	<path d="M51.8,44.6c0.7,0,2-0.2,2.1,0.3c-0.7,0-1.4,0-2.1,0C51.8,44.8,51.8,44.7,51.8,44.6z"/>
	<path d="M144.3,44.7c0.3,0,0.4,0,0.5,0.1c0,0.1-0.1,0.1-0.1,0.2c-0.2,0.1-0.2,0.1-0.4,0.1C144.3,44.8,144.2,44.9,144.3,44.7z"/>
	<path d="M145.5,44.7c0,0.1,0,0.3,0,0.4l0.1,0.1c0.4,0,0.5,0.1,0.9,0.2c0-0.1,0-0.1,0-0.2h-0.1c-0.1-0.3-0.2-0.3-0.3-0.5
		C146,44.7,145.8,44.7,145.5,44.7z"/>
	<path d="M129.4,44.8c0.1,0.4-0.1,0.2,0.2,0.3c0-0.1,0-0.1,0-0.2C129.6,44.9,129.5,44.8,129.4,44.8z"/>
	<path d="M150.6,45.5c-0.2,0-0.4,0-0.6,0c0-0.1-0.1-0.2-0.1-0.3c0.2-0.1,0.2-0.2,0.4-0.3v0.1c0.3,0.1,0.1,0,0.2,0.2
		C150.6,45.3,150.6,45.3,150.6,45.5z"/>
	<path d="M134,45c0.1,0,0.2,0.1,0.3,0.1v0.1c-0.1,0-0.2,0-0.3,0C134,45.2,134,45.1,134,45z"/>
	<path d="M105,45.1c0.2,0,0.2,0,0.3,0.1h-0.1c-0.2,0.1-0.2,0.2-0.4,0.2c0-0.1,0-0.1,0-0.2C105,45.2,104.9,45.2,105,45.1z"/>
	<path d="M110.7,45.2c0.1,0,0.1,0,0.2,0c0,0.1,0,0.1,0,0.2c-0.1,0-0.1,0-0.2,0C110.7,45.4,110.7,45.3,110.7,45.2z"/>
	<path d="M152.3,45.9c0.1,0,0.1,0,0.2,0H152.3l0.1,0.2C152.3,46,152.4,46.1,152.3,45.9z"/>
	<path d="M131.8,46.1c0.2,0.1,0.1,0.1,0.3,0C132,46.1,131.9,46.1,131.8,46.1z"/>
	<path d="M129.7,46.6c0.2,0,0.2,0,0.3,0.1C129.8,46.7,129.9,46.7,129.7,46.6z"/>
	<path d="M141,47.1c0.1,0.1,0,0,0.2,0.1C141.1,47.2,141.1,47.2,141,47.1z"/>
	<path d="M58.8,47.3c0.1,0,0.1,0,0.2,0v0.1C58.8,47.3,58.9,47.4,58.8,47.3z"/>
	<path d="M137.2,47.3c0,0.2,0,0.2,0.1,0.3c0.1-0.1,0.1-0.1,0.2-0.2v-0.1C137.4,47.3,137.3,47.3,137.2,47.3z"/>
	<path d="M151.4,47.7c0,0.3-0.1,0.2,0.4,0.2v-0.1C151.6,47.8,151.6,47.8,151.4,47.7z"/>
	<path d="M140.7,47.8c0.1,0,0.2,0.1,0.3,0.1c0,0.1,0,0.1,0,0.2c-0.1,0-0.1,0-0.2,0V48C140.7,47.9,140.8,48,140.7,47.8z"/>
	<path d="M142.7,48.1c-0.1,0.1-0.2,0.1-0.4,0.1c0,0.1,0,0.1,0,0.2c0.1,0,0.2,0,0.3,0c0.1-0.1,0,0,0.2-0.1
		C142.8,48.2,142.8,48.2,142.7,48.1C142.8,48.1,142.8,48.1,142.7,48.1z"/>
	<path d="M137.4,48.2c0.1,0,0.1,0,0.2,0c0,0.1,0,0.1,0,0.2c-0.1,0-0.1,0-0.2,0C137.4,48.3,137.4,48.2,137.4,48.2z"/>
	<path d="M141,48.6c0,0.1,0,0.2,0,0.3c-0.1,0-0.1,0-0.2,0c-0.1,0-0.2,0-0.4-0.1h0.1C140.6,48.7,140.7,48.7,141,48.6z"/>
	<path d="M56.7,49.2c0.1-0.4-0.1-0.2,0.2-0.3c0,0.1,0.1,0.2,0.1,0.3C57,49.2,56.9,49.2,56.7,49.2z"/>
	<path d="M64.9,48.9c0.1,0,0.1,0,0.2,0c0,0.1,0,0.1,0,0.2c-0.1,0-0.1,0-0.2,0C64.9,49,64.9,48.9,64.9,48.9z"/>
	<path d="M58.8,49.2c0.4,0,0.4,0.1,0.6,0.2l-0.1,0.1c-0.1,0.1-0.3,0.1-0.5,0.1C58.7,49.4,58.7,49.5,58.8,49.2z"/>
	<path d="M139.8,49.7c-0.2,0-0.2,0-0.3-0.1s0,0-0.1-0.2l0.1-0.1c0.2,0.1,0.1,0,0.2,0.1C139.8,49.6,139.7,49.6,139.8,49.7z"/>
	<path d="M152.9,49.7c0.2,0,0.2,0,0.3,0.1C153,49.8,153,49.8,152.9,49.7z"/>
	<path d="M149.6,50.2c-0.1-0.4,0.1-0.2-0.2-0.3c0,0.1-0.1,0.2-0.1,0.3C149.4,50.2,149.5,50.2,149.6,50.2z"/>
	<path d="M151.4,50c0.2,0.2,0.1,0.1,0.2,0.3c-0.1,0-0.1,0-0.2,0C151.4,50.2,151.4,50.1,151.4,50z"/>
	<path d="M142.6,50.1c-0.2,0.2-0.5,0.2-0.7,0.3c0.1,0.1,0,0,0.1,0.2c0.4,0,0.6,0.2,0.8,0.1c0.1-0.1,0.1-0.2,0.1-0.4
		C142.8,50.2,142.7,50.2,142.6,50.1z"/>
	<path d="M139.8,50.3c0.1,0,0.2,0.1,0.3,0.1v0.1c-0.1,0-0.2,0-0.3,0C139.8,50.5,139.8,50.4,139.8,50.3z"/>
	<path d="M58.9,51.3c0-0.2,0-0.4,0-0.5c0.1,0,0.2-0.1,0.3-0.1s0.4,0,0.7,0c0,0.1,0,0.1,0,0.2h-0.1C59.5,51.1,59.2,51.3,58.9,51.3z"
		/>
	<path d="M141.4,50.6c0.1,0,0.2,0.1,0.3,0.1l-0.1,0.1c-0.1,0.1,0,0-0.2,0.1C141.4,50.9,141.4,50.8,141.4,50.6z"/>
	<path d="M141.8,50.9c0.1,0,0.1,0,0.2,0c0,0.1,0,0.1,0,0.2c-0.1,0-0.1,0-0.2,0C141.8,51,141.8,50.9,141.8,50.9z"/>
	<path d="M148.2,50.9L148.2,50.9c-0.1,0.2-0.2,0.1-0.1,0.2c0.2,0.1,0.2,0.2,0.4,0.2c0-0.1,0-0.2,0-0.3
		C148.5,50.9,148.4,50.9,148.2,50.9z"/>
	<path d="M141,51.1c0.4,0.1,0.2-0.1,0.3,0.2l-0.1,0.1C140.9,51.3,141,51.4,141,51.1z"/>
	<path d="M59.9,51.2c0,0.1,0,0.2,0,0.3c-0.2,0-0.4,0-0.5,0c0-0.1,0-0.1,0-0.2C59.6,51.3,59.7,51.2,59.9,51.2z"/>
	<path d="M148.6,51.4c-0.1,0.1-0.1,0.1-0.2,0.2h0.1c0.2,0.3,0.4,0.4,0.7,0.5c0.1-0.1,0.2-0.1,0.3-0.2c0.1-0.1,0,0,0.1-0.2
		C149.1,51.7,149,51.5,148.6,51.4z"/>
	<path d="M140.6,51.8c0.3,0.1,0.2,0.1,0.2,0.2c-0.1,0.1,0,0-0.2,0.1C140.6,52,140.6,51.9,140.6,51.8z"/>
	<path d="M53.6,51.9c0.1,0,0.1,0,0.2,0c0,0.1,0,0.1,0,0.2C53.5,52,53.6,52.2,53.6,51.9z"/>
	<path d="M142.2,52.2c0.1,0,0.2,0.1,0.3,0.1v0.1c-0.1,0-0.2,0-0.3,0C142.2,52.3,142.2,52.3,142.2,52.2z"/>
	<path d="M147.9,52.2c0,0.3-0.1,0.2,0.3,0.3c0-0.1,0-0.1,0-0.2H148C147.9,52.2,148,52.3,147.9,52.2z"/>
	<path d="M58,52.7c0.3,0.1,0.2,0.1,0.4,0.2c-0.2,0.4-0.2,0.3-0.1,0.7c-0.3,0-0.4,0-0.7,0c-0.1-0.2,0-0.1-0.1-0.2
		C57.6,53.1,57.8,53,58,52.7z"/>
	<path d="M151.4,53.4c0.1,0,0.1,0,0.2,0c0,0.1,0,0.1,0,0.2c-0.1,0-0.1,0-0.2,0C151.4,53.5,151.4,53.4,151.4,53.4z"/>
	<path d="M59,53.5c0.3,0,0.3,0.1,0.4,0.1c0,0.1,0,0.1,0,0.2c-0.1,0-0.2,0-0.3,0v-0.1C59,53.6,59,53.7,59,53.5z"/>
	<path d="M58.2,54.4c0-0.1,0-0.3,0-0.4c0.2-0.1,0.3-0.1,0.5-0.1c0.2,0.2,0.4,0.3,0.5,0.5l-0.1,0.1C58.7,54.3,58.7,54.3,58.2,54.4z"
		/>
	<path d="M55.6,54.3c0.2,0.2,0.2,0.2,0.2,0.5c-0.1,0-0.1,0-0.2,0C55.6,54.6,55.6,54.4,55.6,54.3z"/>
	<path d="M56.4,54.3c0.1,0,0.3,0,0.4,0c0,0.1,0,0.1,0,0.2c0.2,0.3,0.4,0.7,0.4,1.1c-0.3,0.1-0.3,0.2-0.6,0.2c-0.3-0.3-0.7-0.3-1-0.5
		c-0.1-0.1,0,0-0.1-0.2c0.1,0,0.1,0,0.2,0c0.1-0.1,0.4,0.1,0.8,0.1c0-0.1,0.1-0.2,0.1-0.3C56.5,54.7,56.4,54.6,56.4,54.3z"/>
	<path d="M58.2,54.6c0.2,0,0.4,0,0.5,0v0.1h-0.1c-0.1,0.1-0.2,0.1-0.4,0.1C58.2,54.7,58.2,54.7,58.2,54.6z"/>
	<path d="M58.1,55.3c0.1,0,0.1,0,0.2,0v0.1C58.1,55.3,58.2,55.4,58.1,55.3z"/>
	<path d="M57.3,55.6c0.3,0.1,0.2,0.1,0.2,0.2c-0.1,0.1-0.1,0.1-0.3,0.1C57.2,55.7,57.3,55.6,57.3,55.6z"/>
	<path d="M58,55.7c0.2,0,0.4,0.1,0.5,0.1c0,0.1,0,0.1,0,0.2h-0.1c-0.1,0.1-0.2,0.1-0.4,0.1C57.9,55.9,57.9,56,58,55.7z"/>
	<path d="M59.1,55.8c0.3,0,0.4,0,0.7,0c0,0.1,0,0.1,0,0.2c-0.3,0-0.4,0-0.7,0C59.1,56,59.1,55.9,59.1,55.8z"/>
	<path d="M56.9,56.1c0.1,0,0.3,0,0.4,0c0,0.1,0,0.1,0,0.2c-0.1,0-0.3,0-0.4,0C56.9,56.2,56.9,56.1,56.9,56.1z"/>
	<path d="M56.4,56.4c0.1,0,0.4,0.2,0.4,0.2C56.5,56.8,56.3,56.6,56.4,56.4z"/>
	<path d="M59.6,56.8c-0.3,0-0.5,0-0.8,0c0-0.1,0-0.2,0-0.3c0.3-0.1,0.3-0.2,0.7-0.2C59.5,56.5,59.5,56.6,59.6,56.8z"/>
	<path d="M58.1,57.3c0.4,0.1,0.2-0.1,0.3,0.2c-0.1,0-0.2,0-0.3,0C58.1,57.5,58.1,57.4,58.1,57.3z"/>
	<path d="M58.4,57.5c0.6,0,1.2,0,1.8,0c0,0.1,0,0.1,0,0.2h-0.1c-0.4,0.4-1.3,0.2-1.7,0.1C58.4,57.8,58.4,57.6,58.4,57.5z"/>
	<path d="M57.4,58.5c0.1,0,0.2,0.1,0.3,0.1c0,0.1,0,0.1,0,0.2c-0.1,0-0.3,0-0.4,0C57.3,58.8,57.4,58.7,57.4,58.5z"/>
	<path d="M58.2,58.8c0.1,0,0.3,0,0.4,0c0,0.1,0,0.1,0,0.2h-0.1C58.3,59,58.2,59,57.9,59c0-0.1-0.1-0.1-0.1-0.2
		C58.1,58.9,58.2,58.9,58.2,58.8z"/>
	<path d="M55.8,59c0.2,0,0.4,0,0.5,0c0,0.1,0,0.1,0,0.2c-0.1,0-0.1,0-0.2,0c-0.1,0.1-0.2,0.1-0.4,0.1C55.8,59.1,55.8,59,55.8,59z"/>
	<path d="M59,60.8c0.3,0,0.4,0,0.5,0.1c0,0.1-0.1,0.2-0.1,0.3c-0.4,0.1-0.4,0.1-0.7,0C58.8,61.1,58.9,61,59,60.8z"/>
	<path d="M58.2,61c0.1,0.1,0,0,0.1,0.2h-0.1C58.2,61.2,58.2,61.1,58.2,61z"/>
	<path d="M59.8,61c0.1,0,0.1,0,0.2,0c0,0.1,0,0.1,0,0.2c-0.1,0-0.1,0-0.2,0C59.8,61.2,59.8,61.1,59.8,61z"/>
	<path d="M57.8,62.1c0.4,0,0.7,0.1,0.9,0.3c0.1,0.1,0.1,0.2,0.1,0.4c-0.2,0.2-0.2,0.4-0.4,0.5c0,0-3.3-0.4-3.8-0.5
		c-0.4-0.1-1.1,0.1-1.4-0.1c1.3-0.2,2.8,0,4.2,0C57.4,62.4,57.5,62.4,57.8,62.1z"/>
	<path d="M59.6,63.1c0.1,0,0.1,0,0.2,0c0,0.1,0,0.1,0,0.2c-0.1,0-0.1,0-0.2,0C59.6,63.2,59.6,63.1,59.6,63.1z"/>
	<path d="M58.2,63.5c0.4,0.1,0.2-0.1,0.3,0.2c-0.1,0-0.2,0-0.3,0C58.2,63.7,58.2,63.6,58.2,63.5z"/>
	<path d="M148.5,64.2c0.3,0,0.3,0.1,0.4,0.1l-0.1,0.1c-0.1,0.1-0.1,0.1-0.3,0.1C148.5,64.4,148.5,64.3,148.5,64.2z"/>
	<path d="M147.2,66.3c-0.1,0.1-0.2,0.1-0.4,0.1c0,0.1,0,0.1,0,0.2c0.1,0.1,0.1,0.1,0.2,0.2c0.3-0.1,0.4-0.2,0.5-0.4h-0.1
		C147.3,66.3,147.4,66.4,147.2,66.3z"/>
	<path d="M62.4,67.5c0.3,0.1,0.4,0.2,0.6,0.4c0,0.1,0,0.5,0,0.9c-0.1,0-0.2,0.1-0.3,0.1C62.6,69,62.5,69,62.4,69
		c-0.1-0.3-0.1-0.2-0.2-0.4c0.3-0.2,0.3-0.2,0.3-0.5c-0.1-0.1-0.2-0.3-0.3-0.4C62.2,67.6,62.3,67.6,62.4,67.5z"/>
	<path d="M147.6,68.3c0,0.1,0,0.1,0,0.2h0.1C147.7,68.4,147.7,68.4,147.6,68.3C147.6,68.3,147.6,68.3,147.6,68.3z"/>
	<path d="M62.7,69.7c0.1,0,0.1,0,0.2,0c0,0.1,0,0.1,0,0.2c-0.1,0-0.1,0-0.2,0C62.7,69.9,62.7,69.8,62.7,69.7z"/>
	<path d="M147.5,70.1c0.1,0,0.1,0,0.2,0c0,0.1,0,0.3,0,0.4h-0.1c0-0.1,0-0.1,0-0.2C147.5,70.2,147.5,70.2,147.5,70.1z"/>
	<path d="M62.9,70.3c0,0.4,0,0.3,0,0.6c-0.1,0-0.2,0-0.3,0c0.1-0.3,0.1-0.2-0.1-0.5l0.1-0.1C62.7,70.3,62.8,70.3,62.9,70.3z"/>
	<path d="M147.2,70.9c0.1,0,0.2,0.1,0.3,0.1c-0.1,0.2,0,0.1-0.1,0.2c-0.1,0.3,0,0.1-0.2,0.2c-0.1-0.2,0-0.1-0.1-0.2
		C147.2,71.1,147.2,71,147.2,70.9z"/>
	<path d="M62.7,71.7c0.1,0,0.1,0,0.2,0c0,0.2,0,0.4,0,0.6l-0.1,0.1l-0.1-0.1c-0.2-0.2-0.2-0.2-0.2-0.5
		C62.7,71.7,62.6,71.7,62.7,71.7z"/>
	<path d="M146,75c0.1,0,0.1,0,0.2,0c0,0.1,0,0.1,0,0.2c-0.1,0-0.1,0-0.2,0C146,75.1,146,75.1,146,75z"/>
	<path d="M145.4,76.4c0.1-0.4-0.1-0.2,0.2-0.3c0.1,0.1,0,0,0.2,0.1l-0.1,0.1C145.5,76.3,145.5,76.3,145.4,76.4z"/>
	<path d="M146,76.6c0.3,0.1,0.6,0.2,0.9,0.3c0,0.1,0,0.1,0,0.2c-0.3,0-0.4,0-0.7,0C146.1,76.8,146.1,76.8,146,76.6z"/>
	<path d="M62.7,76.7c0,0,0.2,0.2,0.1,0.3C62.6,76.8,62.8,76.8,62.7,76.7z"/>
	<path d="M145.8,76.8c0,0.1,0,0.2,0,0.3c0.3,0.1,0.7,0.3,0.9,0.4c-0.1,0-0.1,0-0.2,0c-0.2,0.2-0.4,0.1-0.7,0.2
		c-0.1-0.3-0.2-0.3-0.3-0.5c0.1-0.2,0-0.1,0-0.4C145.5,76.8,145.7,76.8,145.8,76.8z"/>
	<path d="M145.4,77.6c0.1,0,0.1,0,0.2,0C145.4,77.7,145.5,77.7,145.4,77.6z"/>
	<path d="M62.9,81.8c-0.4-0.1-0.4-0.3-0.8-0.1c0.4,0.1,0.2-0.1,0.3,0.2c-0.1,0-0.2,0-0.3,0c-0.1-0.1,0,0-0.2-0.1
		c-0.2-0.6,0-0.3-0.4-0.7h0.1c0.2-0.2,0.4-0.1,0.5-0.3c-0.1-0.1-0.2-0.2-0.3-0.3c0.3-0.1,0.2-0.2,0.4-0.4c0.2,0.1,0.4,0,0.7,0
		c0,0.1,0,0.1,0,0.2C62.8,80.4,62.9,81.2,62.9,81.8z"/>
	<path d="M61.5,80.7c0.1,0,0.1,0,0.2,0v0.1C61.5,80.7,61.5,80.7,61.5,80.7z"/>
	<path d="M62.4,94c-0.1,0-0.2,0-0.3,0c0,0.1,0,0.3,0,0.4c-0.1,0-0.1,0-0.2,0c-0.1-0.1-0.3-0.3-0.4-0.4c0.2-0.2,0.1-0.1,0.2-0.3
		c-0.3-0.1-0.4-0.1-0.6-0.3l0.1-0.1c0.3,0,0.3,0,0.4-0.1c-0.4-0.1-0.5-0.2-0.7-0.5c0.1-0.1,0.2-0.1,0.3-0.2c-0.4-0.2-0.4,0-0.4-0.4
		c0.3-0.4,0.1-0.4,0-0.7c0.2-0.2,0.2-0.3,0.4-0.4c0.1,0.1,0,0.2,0.2,0.1v-0.1c0.2-0.2,0.2-0.4,0.4-0.6c0.3,0.1,0.5,0.3,0.6,0.2h0.1
		c-0.1-0.1-0.2-0.2-0.3-0.3c0.2-0.2,0.2-0.1,0.2-0.4c-0.4-0.3-0.5-0.8-0.8-1c0,0,0,0.4-0.1,0.2v-0.1c-0.1-0.2-0.2-0.5-0.3-0.7
		c-0.4,0.2-0.7-0.4-0.9-0.7c0.1,0,0.1,0,0.2,0c0.1-0.2,0.2-0.3,0.3-0.5l0.1-0.1h-0.1c-0.2,0.2-0.8,0.4-1,0.3c-0.1-0.1,0,0-0.1-0.2
		c0.4,0,0.6-0.1,0.9-0.2c-0.1-0.2-0.1-0.1-0.2-0.3c0.1,0,0.1,0,0.2,0c0.2,0.2,0.4,0.3,0.8,0.3v-0.1c-0.3-0.2-0.4-0.3-0.6-0.5
		c0.1-0.3,0.1-0.4,0.2-0.7c0-0.2-0.4-0.1-0.3-0.4c0-0.2,0.3-0.4,0.3-0.8c0.5-0.1,0.8-0.4,1.3-0.6v-0.1c-0.1-0.1-0.1-0.1-0.2-0.2
		c0.5-0.2,0.6-0.3,0.9-0.6c0.4,2.7,0.1,6.3,0.1,9.5c0,1.3-0.2,1.8,0,2.4c0,0.8,0,1.7,0,2.5c-0.1,0-0.1,0-0.2,0
		c-0.1-0.3-0.3-0.2-0.3-0.3c-0.2-0.3,0.2-0.4,0-0.7c-0.1-0.2-0.3-0.1-0.4-0.4c0.2-0.1,0.3-0.2,0.5-0.3c-0.1-0.2-0.1-0.1-0.2-0.4
		c0.2-0.1,0.3-0.1,0.4-0.2l-0.1-0.1c-0.2,0.1-0.2,0.1-0.4,0L62.2,95c0.3-0.1,0.3-0.1,0.4-0.3C62.4,94.3,62.4,94.4,62.4,94z"/>
	<path d="M60.8,84.2c0.1,0,0.1,0,0.2,0c0,0.1,0,0.1,0,0.2c-0.1,0-0.1,0-0.2,0C60.8,84.3,60.8,84.2,60.8,84.2z"/>
	<path d="M58.1,86.6c0.3,0,0.3,0.1,0.4,0.1c0,0.1,0,0.1,0,0.2c-0.1,0-0.2,0-0.3,0v-0.1C58.1,86.7,58.2,86.8,58.1,86.6z"/>
	<path d="M61,87.4L61,87.4c-0.3,0.2,0.1,0.2,0.1,0.2l0.1-0.1C61.1,87.4,61.2,87.5,61,87.4z"/>
	<path d="M61.8,89.3c0.1,0.1,0,0,0.2,0.1C61.9,89.4,62,89.4,61.8,89.3z"/>
	<path d="M145.4,89.9c0.4,0,0.6,0.1,1,0.2c0.3,0.3,0.5,0.5,0.7,0.9H147c-0.4,0.5-0.7,0.7-1.6,0.7C145.4,91.1,145.4,90.5,145.4,89.9z
		"/>
	<path d="M62.2,90.8c0,0.1-0.2,0.2,0,0.3c0,0.1,0.2-0.3,0.2-0.3C62.3,90.8,62.2,90.8,62.2,90.8z"/>
	<path d="M61,91.3c0,0.1,0,0.3,0,0.4h0.1v-0.1c0.1-0.1,0,0,0.1-0.2C61.2,91.3,61.1,91.3,61,91.3z"/>
	<path d="M148.8,91.7c0.3,0,0.4,0,0.5,0.1c0,0.1-0.1,0.1-0.1,0.2c-0.3,0-0.1,0.1-0.3,0C148.8,91.9,148.8,92,148.8,91.7
		C148.8,91.8,148.8,91.8,148.8,91.7z"/>
	<path d="M146.8,91.9c0.4,0.1,0.2-0.1,0.3,0.2l-0.1,0.1l-0.1-0.1C146.8,92,146.9,92,146.8,91.9z"/>
	<path d="M147.8,91.9c0.2,0,0.4,0,0.5,0l0.1,0.1c-0.1,0.2,0,0.1-0.1,0.2c-0.1,0.1-0.3,0.1-0.5,0.1C147.8,92,147.7,92.1,147.8,91.9z"
		/>
	<path d="M147.1,92.4c0.3,0,0.3,0.1,0.4,0.1c-0.1,0.2,0,0.1-0.1,0.2C147.1,92.9,147,92.8,147.1,92.4z"/>
	<path d="M147.7,92.9c0.4,0.1,0.2-0.1,0.3,0.2c-0.1,0-0.1,0-0.2,0l-0.1,0.1C147.7,93.1,147.7,93,147.7,92.9z"/>
	<path d="M60.1,93.6c0.1,0,0.3,0.1,0.4,0.1c0,0.1,0,0.1,0,0.2c-0.1,0-0.2,0-0.3,0C60.1,93.7,60.1,93.8,60.1,93.6z"/>
	<path d="M62.4,93.7c0.1,0.1,0,0,0.2,0.1C62.4,93.7,62.5,93.7,62.4,93.7z"/>
	<path d="M150.2,95.3c0.1,0,0.1,0,0.2,0c0,0.1,0,0.1,0,0.2c-0.1,0-0.1,0-0.2,0C150.2,95.4,150.2,95.4,150.2,95.3z"/>
	<path d="M149.9,95.8c0.1,0,0.3,0,0.4,0c0,0.1,0,0.1,0,0.2c-0.1,0-0.3,0-0.4,0C149.9,95.9,149.9,95.9,149.9,95.8z"/>
	<path d="M59.2,97.5c0.3,0,0.6,0,0.8,0.1C59.7,97.6,59.5,97.8,59.2,97.5z"/>
	<path d="M62.7,97.5c0.1,0,0.1,0,0.2,0c0,0.1-0.1,0.1-0.1,0.2c-0.1,0-0.2,0.1-0.3,0.1c0-0.1,0-0.1,0-0.2
		C62.7,97.5,62.6,97.6,62.7,97.5z"/>
	<path d="M158.8,97.7c0,0.1,0,0.2,0,0.3c-0.5,0-1.2,0.2-1.7,0.3c0-0.1,0-0.1,0-0.2c0.3-0.2,0.4-0.3,0.9-0.3
		C158.3,97.5,158.4,97.6,158.8,97.7z"/>
	<path d="M62.6,97.9c0.3,0.1,0.3,0,0.3,0.4c-0.3,0.1-0.3,0.2-0.6,0.2c0-0.1,0-0.1,0-0.2C62.5,98.1,62.5,98,62.6,97.9z"/>
	<path d="M149.7,98.3c0.5,0,1.1,0,1.6,0c0,0.1,0,0.1,0,0.2C150.7,98.6,149.8,98.9,149.7,98.3z"/>
	<path d="M62.8,98.6c0.4,0.1,0.2-0.1,0.3,0.2c-0.1,0.1,0,0.8,0,0.9c0.1,0.2,0.2,0.4,0.3,0.5h0.1c0-0.4-0.1-0.3,0.2-0.4
		c0,0.1,0,0.1,0,0.2c0.1,0.1,0.4,1.2,0.2,1.4c-0.2,0.3-0.3,0.3-0.4,0.7c0.1,0.2,0.1,0.2,0,0.5c0.1,0,0.2,0,0.3,0
		c0.2-0.2,0.2-0.2,0.4-0.1c0.3,0.1,0.3,0.1,0.4,0.4c-0.6,0-1,0.1-1.1,0.4c0.4,0.3,0.6,0.4,0.7,1.1c-0.1,0-0.3,0-0.4,0
		c0,0.1,0,0.1,0,0.2c0.2,0.2,0.1,0.3,0.3,0.4v-0.1c0.1-0.1,0.1-0.4,0.2-0.5l0.1,0.1c0.2,0.4,0.2,1.4,0.1,1.6v0.1
		c-0.2-0.1-0.2-0.2-0.5-0.2c0,0.4-0.1,0.4,0,0.6c0.2,0.2,0.2,0.1,0.3,0.3c-0.4,0.4-0.4,1.2-0.2,1.4c0.1,0.1,0.3,0.3,0.4,0.4
		c0-0.2,0-0.4,0-0.6c-0.1-0.1-0.1-0.1-0.2-0.2l0.1-0.1c0.1,0,0.1,0.1,0.2,0.1c0.2,0.3,0.3,1.3,0.4,1.3c0.3,0.2,0.4,0.1,0.6,0.4
		c-0.4,0-0.4,0-0.8,0.1c0,0.1,0,0.2,0,0.3c-0.3,0-0.3-0.1-0.4,0c-0.1,0.1-0.2,0-0.1,0.2h0.1c0.2,0.3,0,0.1,0.3,0.2
		c0.2-0.2,0.3-0.2,0.5-0.3c0.1,0.3,0.1,0.3,0.2,0.5c-0.4-0.1-0.7-0.1-1.1,0.1v0.1c0.4,0,0.3-0.1,0.4,0.2c0,0.2,0.2,0.1,0.3,0.4
		c-0.2,0-0.4,0-0.5,0c-0.2-0.1-0.4-0.1-0.8-0.1c0,0.1,0,0.1,0,0.2c0.4,0.1,0.4,0.1,0.7,0.2v0.1c-0.4,0-0.4-0.1-0.5,0.2
		c0.3,0.1,0.1,0,0.2,0.2c-0.4,0-0.6,0-0.8,0.1c0.2,0.3,0.2,0.4,0.6,0.4c0,0.1,0,0.3,0,0.4c0.4,0,1,0.4,1.2,0.6
		c0,0.1,0.1,0.2,0.1,0.3c0.4,0.2,0.4-0.3,0.7,0.2c-0.4,0-0.5-0.1-0.7,0.2c0.2,0.2,0.2,0.1,0.2,0.4c-0.3,0.1-0.4,0.1-0.5,0.3
		c0.2,0.4-0.2,0.4-0.4,0.7c0,0,0.3,0.4,0.3,0.5c0.3,0,0.4,0,0.5-0.1c0,0.1,0,0.1,0,0.2c-0.1,0.1-0.2,0.2-0.3,0.3
		c0.3,0.2,0.2,0.3,0.5,0.4c0.2,0.2,0.4,0.1,0.5,0.3c-0.1,0.1-0.1,0.1-0.2,0.2h0.1c0.1,0.2,0.1,0.1,0.2,0.4c-0.3,0-0.3,0.1-0.4,0.1
		c0.3,0.4,0.3,0.6,0.3,1.3l-0.1,0.1c-0.4-0.1-0.3-0.2-0.6-0.1c0.1,0.1,0.3,0.5,0.4,0.6c0.3,0.2,0.2-0.1,0.4,0.2
		c-0.4,0.1-0.2-0.1-0.3,0.2c0.3,0.2,0.2,0.2,0.1,0.6c0.4,0.4,1.9,1.3,2,1.9c-0.1,0-0.2,0-0.3,0c0,0.1-0.1,0.1-0.1,0.2l-0.1,0.1
		c0.2,0,0.4,0.1,0.5,0.1c0,0.1,0,0.1,0,0.2c-0.4,0-0.4,0.1-0.6,0.4h-0.1l0.1,0.1c0.3,0.4,0.9,0.5,1.1,0.9c0.1,0.2,0.2,0.6,0.3,0.8
		c-0.3,0-0.4,0-0.7,0c-0.2-0.2-0.2-0.2-0.5-0.2c0,0.2,0,0.4,0,0.5c-0.1,0-0.3,0-0.4,0c0,0.1,0,0.1,0,0.2c0.4,0.1,0.5,0.2,1.1,0.2
		c0,0.2,0.1,0.4,0.1,0.6c-0.1,0-0.3,0-0.4,0c-0.1-0.1-0.2-0.1-0.4-0.1v0.1h0.1c0.4,0.4,0.6,0.6,1.2,0.9c0,0.1,0,0.1,0,0.2
		c-0.1,0-0.2,0-0.3,0c-0.2-0.1-0.5-0.1-0.9,0c0,0.1,0,0.1,0,0.2c1.2,0.3,1,1.1,2.1,1.3l0.1-0.1v-0.1c-0.4-0.1-0.2,0.1-0.3-0.2
		c0.3-0.1,0.4-0.1,0.8-0.1c0.2,0.4,1.8,1.1,2.5,1.1c-0.1-0.4,0-0.3,0.2-0.6c0.1,0,0.1,0,0.2,0c-0.1,0.5,0.1,0.7,0.8,0.7
		c0-0.1,0-0.2,0-0.3c0.2-0.1,0.3-0.2,0.4-0.3c0.9,0.2,1.1-0.4,2.4-0.4c0,0.1,0,0.1,0,0.2c-0.1,0.1,0,0-0.1,0.2c0.2,0,0.4,0,0.5,0
		l0.1-0.1c0,0.1,0,0.1,0,0.2c-0.1,0.1,0,0-0.1,0.2c0.7,0.1,1.2,0.3,1.7,0.1c0,0.3,0,0.4,0.1,0.6c0.4,0,0.4,0.1,0.8,0.2
		c0,0.4-0.1,0.3,0.5,0.3v-0.1c-0.3,0-0.3-0.1-0.4-0.1c0-0.1,0-0.1,0-0.2c0.2,0,0.4,0,0.5,0c0.2,0.2,0.4,0.4,0.7,0.4
		c0-0.2-0.1-0.4-0.1-0.5c0.1,0,0.3,0,0.4,0c0.1,0.4-0.1,0.2,0.2,0.3c0.2-0.1,0.2-0.2,0.4-0.2c0-0.4-0.1-0.4,0.2-0.5
		c0.3,0.4,1.3,1,1.9,1c0-0.3-0.1-0.3-0.1-0.4c0.2,0,0.4,0,0.5,0c0.2,0.2,0.4,0.4,0.7,0.3c0.2-0.3-0.2-0.3,0.4-0.4l0.1,0.1
		c0,0.1,0,0.2,0,0.3c0.1,0,0.2,0,0.3,0c0.1-0.1,0.2-0.2,0.3-0.3c0-0.1,0-0.2,0-0.3c-0.3,0-0.4,0.1-0.7,0.1c0-0.1,0-0.1,0-0.2
		c0.7-0.1,0.8,0.1,1.5,0.2c0,0.3,0.1,0.3,0.1,0.4c0.1,0,0.1,0,0.2,0c0.1-0.2,0.1-0.2,0.2-0.4c0,0-0.4,0-0.2-0.1h0.1
		c0.1-0.2,0.1-0.1,0.2-0.4c0.3,0,0.6,0,0.9,0c-0.1-0.4-0.1-0.3-0.2-0.6c0.1,0,0.1,0,0.2,0c0.4,0.3,0.9,0.1,1-0.2
		c-0.1-0.1,0,0-0.1-0.2c0.1,0,0.3,0,0.4,0c0.2,0.2,0.4,0.4,0.6,0.6c0.1,0,0.3-0.1,0.4-0.1c0,0.1,0,0.1,0,0.2c0.1,0.2,0,0.4,0.1,0.6
		l0.1-0.1c0.1-0.3-0.1-0.3,0.2-0.5c0.4,0.5,1.3,1.3,2.1,1.3c0-0.4-0.2-0.1,0.1-0.3c0.3-0.3,0.6-0.2,0.7-0.2c0.1-0.1,0.4-0.4,0.4-0.5
		c0.3-0.1,0.6,0.6,0.9,0.7c0-0.3,0.1-0.3,0.1-0.4l0.1,0.1c0.2,0.2,0.1,0.4,0.3,0.5c0.2-0.2,0.1-0.2,0.4-0.2c0,0.2,0,0.2,0.1,0.3
		c0.2,0.1,1.1,0.4,1.3,0.3c1.3-0.4,4.3,0.1,5.5-0.4c0-0.4-0.2-0.3,0.2-0.4c0.3,0.4,0.5,0.6,1.2,0.6c0-0.1,0-0.1,0-0.2
		c0.4,0,0.6,0.1,1,0.1c0-0.1,0.1-0.2,0.1-0.3c0.1,0,0.7,0.2,1,0.1v-0.1c-0.2-0.2-0.1-0.1-0.2-0.3c0.1,0,0.1,0,0.2,0
		c0.4,0.4,0.7,0.5,1.3,0.5c0,0.1,0,0.2,0,0.3c-0.2,0-0.4,0-0.6,0c-0.1,0.1-0.1,0.2-0.2,0.3c0.3,0,0.5,0.1,0.8,0.2l-0.1,0.1
		c-0.2,0.1-0.4,0.1-0.8,0.1c-0.5-0.6-1.3,0-2.1,0.1c-0.4,0-0.5,0.3-0.8,0.3c-0.6,0.2-1.5-0.2-1.9-0.1c-0.4,0-0.7-0.1-1.1-0.1
		c-0.3,0.1-0.3,0.4-0.8,0.4c-0.1-0.2-0.1-0.3-0.1-0.5c-0.2,0-0.4,0-0.5,0c0,0.1,0,0.1,0,0.2c0.2,0,0.2,0,0.3,0.1c-0.1,0-0.1,0-0.2,0
		c-0.2,0.4-0.4,0.4-0.7,0.7c0.2,0.1,0.4,0.3,0.3,0.4c-0.1,0.1-0.2,0.1-0.4,0.1c-0.1-0.2-0.1-0.4-0.2-0.5c-0.1,0-0.1,0-0.2,0
		c-0.2,0.4-0.3,0.6-0.9,0.7c-0.2-0.4-0.4-0.3-0.5-0.4c-0.4-0.5,0.2-0.6-0.7-0.7c-0.2,0.1-0.2,0.1-0.5,0c0-0.4,0.2-0.3-0.2-0.4
		c-0.2,0.4-0.3,0.4-0.8,0.5c-0.2-0.4-0.4-0.5-0.9-0.6l-0.1,0.1c0.1,0.3,0.2,0.4,0.1,0.6c-0.2,0.2-0.1,0.2-0.4,0.2
		c-0.3-0.3-0.6-0.4-1.2-0.3c0-0.2-0.3-0.9-0.3-0.9c-0.2-0.1-1.2-0.4-1.4-0.4v0.1c0.3,0.3,0.1,0,0.1,0.4c-0.3-0.1-0.5,0.1-0.8,0
		l-0.8-0.4c0-0.1-0.1-0.2-0.1-0.3c-0.3-0.2-0.9,0.1-1,0.1c-0.5-0.3-2.3,0.1-3,0.2c-0.5,0-1.1,0-1.6,0c-0.1,0.1-0.2,0.2-0.3,0.3
		c-0.4,0.1-0.9-0.2-1.5,0c-0.5,0.2-0.9,0.4-1.6,0.3v0.1c0.2,0.2,0.4,0.4,0.5,0.6h-0.1c-0.6-0.4-0.7,0.2-1.3,0.3
		c-0.3,0.1-0.5-0.2-0.8-0.2c-0.1-0.2-0.1-0.3-0.1-0.5c-1.4-0.3-2.8,0.1-4.5-0.2c0,0.1,0.1,0.2,0.1,0.3c-0.7,0.2-0.8,0.4-1.8,0.5
		c-0.1-0.1,0,0-0.2-0.1c-0.1-0.4-0.1-0.6,0-1c-0.1,0-0.2-0.1-0.3-0.1c-0.4-0.3-1.2,0.1-1.8,0.1c-0.1,0.4-0.2,0.5-0.5,0.7
		c0.2,0.2,0.2,0.1,0.2,0.5c-0.1,0-0.1,0-0.2,0c-0.3-0.3-0.9-0.1-1.2-0.3l-0.1-0.1c0.6-0.2,0.9-0.6,1.5-0.9v-0.1c-0.1,0-0.3,0-0.4,0
		c-0.2-0.1-0.4,0.2-0.7-0.2c-0.4,0.2-0.9,0-1.1,0.1c-0.1,0-0.4,0.4-0.5,0.4c-0.2,0-0.4-0.1-0.5-0.1c0,0.1-0.1,0.2-0.1,0.3
		c-0.3,0.1-0.7,0-0.9,0.1h0.1c0.2,0.2,0.2-0.1,0.3,0.3c-0.1,0-0.1,0-0.2,0c-0.2-0.1-0.1,0-0.4,0c0-0.1,0-0.3,0-0.4
		c-1.3,0-1.6,0.5-2.3,0.2c-0.2,0.1-0.1,0.4-0.5,0.3c-0.8-0.2-1.1-0.9-2-0.9c0,0.1-0.1,0.4-0.2,0.2l-0.1-0.1c0.3-0.2,0.4-0.5,0.6-0.9
		c-0.2-0.4-0.1-0.9-0.3-1.3c0.2-0.1,0.1,0,0.2-0.1c-0.2-0.1-0.2-0.1-0.3-0.3c0.4,0,0.4,0.1,0.5-0.2l0.1-0.1c-0.3,0-0.4,0-0.5-0.1
		v-0.1c0.2-0.2,0.1-0.1,0.2-0.3c-0.5-0.2-0.3-0.2-0.4-0.5c-0.3,0.1-0.1,0.2-0.3-0.1c0.1-0.1,0.1-0.1,0.2-0.2c-0.2,0-0.4,0-0.6,0
		c0,0.1,0,0.2,0,0.3c-0.3,0.1-0.3,0.2-0.6,0.2c-0.1,0.1,0,0-0.2,0.1v-0.1c0.1-0.1,0.1-0.3,0.1-0.5c0.3-0.1,0.6-0.3,0.8-0.5
		c0.2,0,0.4,0,0.6,0c0,0.3,0,0.3,0.1,0.4c0-0.2,0-0.4,0-0.6l-0.1-0.1c-0.4,0.1-0.7,0.1-1.3,0.1v-0.1c0.2-0.2,0.4-0.4,0.5-0.5
		c-0.3-0.2-0.2-0.3-0.2-0.6c0.4-0.2,0.8-0.4,1.2-0.5c0,0.1,0,0.2,0,0.3c-0.1,0.1,0,0-0.1,0.2c-0.2,0-0.4,0.1-0.5,0.1v0.1
		c0.2,0,0.4,0,0.5,0c0-0.1,0.1-0.2,0.1-0.3c0.7,0.8,0.7,0.8,0.7,0.6c0.3,0,0.3,0.1,0.4,0s0,0,0.1-0.2c-0.4,0-0.4,0.1-0.5-0.2
		c0.4,0,0.4,0,0.5-0.3c-0.4-0.2-0.9-0.4-1.1-0.5c0.3-0.2,0.1,0,0.2-0.3c-0.2,0-0.4,0.1-0.6,0.1c-0.1-0.2,0-0.1-0.1-0.2
		c0.1-0.2,0.1-0.4,0.1-0.8c-0.2,0-0.2,0-0.3-0.1c0.4-0.2,0-0.3,0.3-0.4c0.2,0.3,0,0.1,0.3,0.2l0.1-0.1c-0.1-0.2-0.2-0.4-0.3-0.6
		c0.4-0.1,0.4-0.3,0.5-0.6c-0.4-0.3-0.4-0.5-0.5-1c0.1-0.1,0.2-0.1,0.3-0.2c-0.2-0.1-0.2-0.1-0.4-0.1c0,0.3,0.1,0.3-0.4,0.3
		c-0.2-0.4-0.5-0.3-0.6-0.5c0.2-0.1,0.2-0.1,0.4-0.1c0.2,0.2,0.3,0.2,0.6,0.2c0-0.1,0-0.2,0-0.3c0.4,0.1,0.4,0.3,0.7,0.4
		c0-0.1,0-0.3,0-0.4c-0.2-0.1-0.2-0.2-0.3-0.4c0.1,0,0.3,0,0.4,0c-0.1-0.4-0.1-0.3-0.2-0.6c0.3-0.1,0.4-0.2,0.8-0.3
		c-0.2-0.3-0.1,0-0.1-0.5c0.4,0.1,0.3,0.1,0.5,0.2c0-0.3,0-0.3,0.1-0.4c0.2,0.1,0.1,0.1,0.3,0c0.1-0.1,0,0,0.1-0.2
		c-0.4-0.1-0.2,0.1-0.3-0.2c0.5,0,0.5,0,0.7-0.4c0-0.1,0-0.3,0-0.6c-0.4-0.3-1.3-0.6-1.5-1c0.2-0.1,0.1,0,0.2-0.1
		c-0.2,0-0.4,0.1-0.6,0.1c-0.2-0.4-0.4-0.4-0.6-0.8c0.3-0.2,0.4-0.6,0.5-0.9c0.1,0,0.2,0.1,0.3,0.1c0-0.2-0.1-0.4-0.1-0.5
		c0.4,0,0.8,0,1.2,0c0-0.4,0-0.3,0.1-0.6c-0.2-0.1-0.1,0-0.2-0.1c0.1,0,0.2,0,0.3,0c0-0.6,0.1-0.8-0.2-1.2c-0.2-0.1-0.4-0.1-0.6-0.1
		c-0.2,0.2-0.2,0.2-0.5,0.2c0.1-0.4,0.4-0.4,0.5-0.9c-0.1,0-0.1,0-0.2,0c0,0.1,0,0.2,0,0.3c-0.2,0-0.4-0.1-0.5-0.1
		c0-0.1-0.1-0.1-0.1-0.2c0.2-0.1,0.3-0.2,0.4-0.3c-0.4,0-0.5,0.1-0.7-0.2c0.2-0.1,0.4-0.1,0.6-0.1c0.2-0.1,0.4-0.1,0.7-0.1v0.1h-0.1
		c-0.2,0.1-0.2,0.2-0.4,0.2c0.1,0.1,0,0,0.2,0.1c0.1,0.3,0,0.1,0.2,0.2c0.2-0.2,0.4-0.2,0.7-0.3v-0.1c-0.3,0-0.3-0.1-0.4-0.1
		c0-0.3,0.1-0.3,0-0.4c-0.2-0.1-0.4-0.2-0.6-0.3c0.2-0.2,0.5-0.5,0.6-0.7h0.1l-0.1-0.1c-0.3-0.2-0.3-0.1-0.4-0.5
		c0.3-0.1,0.3-0.1,0.4-0.3c-0.1-0.1-0.1-0.1-0.2-0.2c-0.6,0.2-1.3,0.5-2.1,0.6c0,0.2,0,0.2-0.1,0.3c-0.2,0.1-0.3,0.2-0.6,0.2
		c0-0.1,0-0.1,0-0.2c0.1-0.2,0.1-0.5,0.1-1l-0.1-0.1c-0.3,0-0.4,0-0.5-0.1c0.1,0,0.1,0,0.2,0c0.2-0.2,0.3-0.4,0.6-0.4
		c0,0.3,0,0.5,0,0.8c0.2,0.1,0.2,0.1,0.4,0.2v-0.1c0.2-0.3,0.2-0.6,0.5-1.1c-0.6,0-0.6,0-1-0.3l0.1-0.1c0.4-0.5,1.5-0.3,1.8-1
		c-0.1-0.1-0.1-0.1-0.2-0.2c0.1,0,0.1,0,0.2,0c0.1-0.1,0.3-0.1,0.5-0.1c0-0.1,0-0.3,0-0.4c0.1,0,0.2,0,0.3,0
		c0.1,0.1,0.1,0.1,0.2,0.2c-0.1,0.3-0.2,0.2-0.3,0.5c0.3,0.2,0.4,0.2,0.8,0.2c0-0.1,0.1-0.1,0.1-0.2c-0.2-0.2-0.2-0.1-0.2-0.4
		c0.3-0.2,0.8-0.2,1-0.5c-0.1-0.1-0.3-0.1-0.4-0.2c0.2-0.2,0.1-0.1,0.2-0.3l-0.1-0.1c-0.4,0.3-0.4,0.4-1,0.5c0-0.4,0.1-0.4,0.2-0.7
		l-0.1-0.1c-0.3,0-0.4,0-0.6-0.1c0.1,0,0.1,0,0.2,0c0.3-0.2,0.6,0,0.9-0.1c0.3-0.2,0.3-0.2,0.4-0.5c-0.3-0.3-0.5-0.6-0.7-1
		c0.5-0.1,0.6-0.4,0.8-0.9c0.4,0.2,0.4,0.3,0.7,0.5c0-0.3,0.1-0.5,0.1-0.8c-0.2-0.1-0.2-0.1-0.4-0.2c0,0.3,0,0.4-0.1,0.5
		c-0.5-0.3-1.9-0.1-2-1c0.4-0.4,0.6-0.8,1.2-1l-0.1,0.1c-0.2,0.1,0.2,0.1,0.2,0.1c0.1,0.1,0.1,0.1,0.3,0.1
		C62.8,98.9,62.8,98.8,62.8,98.6z"/>
	<path d="M63.5,98.6c0.1,0,0.1,0,0.2,0c0,0.3,0,0.4,0,0.7c-0.1,0-0.1,0-0.2,0C63.5,99,63.5,98.8,63.5,98.6z"/>
	<path d="M147.9,98.7c0.3,0.1,0.2,0.1,0.2,0.2C147.9,99,147.9,98.8,147.9,98.7z"/>
	<path d="M59.2,99.3c0.4,0.1,0.2-0.1,0.3,0.2c-0.1,0-0.2,0-0.3,0C59.2,99.4,59.2,99.3,59.2,99.3z"/>
	<path d="M147.5,99.3c0.1,0,0.2,0.1,0.3,0.1l-0.1,0.1c-0.1,0.1,0,0-0.2,0.1C147.5,99.5,147.5,99.4,147.5,99.3z"/>
	<path d="M157.2,99.3c0.1,0,0.1,0,0.2,0c0,0.1,0,0.1,0,0.2c-0.1,0-0.1,0-0.2,0C157.2,99.4,157.2,99.3,157.2,99.3z"/>
	<path d="M145.4,101c0-0.2,0-0.2,0.1-0.3c0.2-0.1,0.5-0.1,0.9-0.1l0.1,0.1c-0.1,0.2,0,0.1-0.1,0.2C146.2,101,145.8,101,145.4,101z"
		/>
	<path d="M155,100.5c0.3,0.1,0.1,0,0.2,0.2l-0.1,0.1H155C155,100.7,155,100.6,155,100.5z"/>
	<path d="M149.9,101.4c0,0.1,0,0.2,0,0.3c-0.2,0-0.2,0-0.3-0.1c-0.1-0.1,0,0-0.1-0.2C149.6,101.4,149.8,101.4,149.9,101.4z"/>
	<path d="M63.1,101.4c0,0.1-0.1,0.2-0.1,0.3c0.1,0,0.2,0,0.3,0c0-0.1,0-0.1,0-0.2C63.2,101.5,63.1,101.5,63.1,101.4z"/>
	<path d="M64,101.6c0.3,0.2,0.1,0,0.2,0.3c-0.1,0-0.1,0-0.2,0C64,101.9,64,101.8,64,101.6z"/>
	<path d="M62.9,102.2c0,0.2,0,0.2,0.1,0.3v-0.1c0.1-0.1,0,0,0.1-0.2C63.1,102.2,63,102.2,62.9,102.2z"/>
	<path d="M149,102.5c0.3,0,0.5,0,0.7,0.1l-0.1,0.1c-0.3,0.2-0.8,0.1-1.2,0.1c0-0.1,0-0.1,0-0.2C148.8,102.7,148.8,102.8,149,102.5z"
		/>
	<path d="M61.8,102.7c0.1,0,0.2,0.1,0.3,0.1c0,0.1,0,0.1,0,0.2c-0.4,0-0.7,0-1.1,0v-0.1h0.1C61.3,102.8,61.7,102.8,61.8,102.7z"/>
	<path d="M62.6,103.4c0,0.1,0,0.1,0,0.2V103.4l0.2,0.1C62.7,103.5,62.8,103.5,62.6,103.4z"/>
	<path d="M145.8,103.4c0.2,0,0.4,0,0.5,0v0.1h-0.1C145.8,103.8,145.8,103.7,145.8,103.4z"/>
	<path d="M156.7,103.6c0.3,0,0.3,0.1,0.4,0.1c-0.1,0.1,0,0-0.2,0.1v0.1l-0.1-0.1C156.7,103.7,156.8,103.8,156.7,103.6z"/>
	<path d="M145.5,104.1c0.4,0,0.4,0,0.6,0.3c-0.1,0-0.3,0-0.4,0C145.6,104.3,145.6,104.4,145.5,104.1z"/>
	<path d="M60.2,104.5c0.3,0,0.3,0.1,0.4,0.1c0,0.1-0.1,0.2-0.1,0.3c-0.1,0-0.1-0.1-0.2-0.1C60.3,104.7,60.3,104.6,60.2,104.5z"/>
	<path d="M61.8,104.6c0.1,0,0.1,0,0.2,0c0,0.1,0,0.1,0,0.2c-0.1,0-0.1,0-0.2,0C61.8,104.7,61.8,104.6,61.8,104.6z"/>
	<path d="M146.7,104.7c0,0,0.2,0.1,0.1,0.2C146.7,104.9,146.4,104.7,146.7,104.7z"/>
	<path d="M153.5,104.9c0.2,0.1,0.2,0,0.3,0.1C153.6,105.2,153.7,105.1,153.5,104.9z"/>
	<path d="M62.7,105.3c0,0.1,0,0.1,0,0.2c0.1,0,0.1,0,0.2,0c0-0.1,0-0.1,0-0.2C62.9,105.3,62.8,105.3,62.7,105.3z"/>
	<path d="M146.2,105.6c0.3,0,0.4,0,0.5,0.1l-0.1,0.1c-0.2,0.1-0.4,0.1-0.7,0.1c0-0.1,0-0.1,0-0.2
		C146.1,105.6,146.1,105.6,146.2,105.6z"/>
	<path d="M61.3,106.4c0-0.2,0-0.4,0-0.6h-0.1l-0.1,0.1c-0.1,0.3-0.2,0.3-0.1,0.4C61,106.4,61,106.4,61.3,106.4z"/>
	<path d="M145.4,106.3c0.4,0,1.1-0.1,1.3,0.1c0.4,0.1,0.4,0.2,0.5,0.6c-0.4,0.4-0.7,0.5-1.7,0.5
		C145.4,107.2,145.4,106.6,145.4,106.3z"/>
	<path d="M148.9,106.4c0.4,0.1,0.9,0.1,1.4,0.1c0.1,0.1,0.1,0.1,0.2,0.2c0,0.1,0,0.1,0,0.2c-0.1,0-0.1,0-0.2,0
		c-0.3,0.2-1.3,0-1.6-0.2l-0.1-0.1C148.8,106.5,148.8,106.5,148.9,106.4z"/>
	<path d="M148,106.5c0,0.1,0,0.2,0,0.3c-0.2,0-0.4,0-0.5,0c0-0.1-0.1-0.2-0.1-0.3C147.7,106.5,147.9,106.5,148,106.5z"/>
	<path d="M158.1,106.5c0.3,0.1,0.1,0,0.2,0.2h-0.1c-0.1,0.1,0,0-0.2,0.1C158,106.7,158,106.6,158.1,106.5z"/>
	<path d="M62.9,107.1c0.2,0,0.2,0,0.3-0.1c-0.1-0.1-0.1-0.2-0.2-0.3h-0.1C62.9,106.8,62.9,106.9,62.9,107.1z"/>
	<path d="M152.2,106.9c0.4,0.1,0.2-0.1,0.3,0.2c-0.1,0-0.2,0-0.3,0C152.2,107.1,152.2,107,152.2,106.9z"/>
	<path d="M55.4,107.3c0.6,0,1.1,0,1.5,0.2c0.1,0.2,0.1,0.2,0.2,0.4c-0.1,0-0.1,0.1-0.2,0.1c-0.5,0.4-1.5,0.5-2.1,0.1
		c-0.1-0.1,0,0-0.1-0.2C54.9,107.6,55.1,107.4,55.4,107.3z"/>
	<path d="M58,107.3c0.1,0,0.1,0,0.2,0v0.1C58,107.3,58.1,107.4,58,107.3z"/>
	<path d="M60.3,107.3c-0.2,0-0.2,0-0.3,0.1l0.1,0.1c0.1,0,0.1,0.1,0.2,0.1C60.3,107.5,60.3,107.4,60.3,107.3z"/>
	<path d="M147.2,107.4c0.2,0,0.2,0,0.3,0.1C147.3,107.5,147.4,107.5,147.2,107.4z"/>
	<path d="M150.6,107.5c0.3,0,0.4,0,0.6,0.1v0.1c-0.4,0-0.4,0.1-0.5,0C150.6,107.6,150.7,107.7,150.6,107.5z"/>
	<path d="M158.8,107.6c0.3,0,0.3,0.1,0.4,0.1c0,0.1,0,0.1,0,0.2c-0.1,0-0.2,0-0.3,0v-0.1C158.9,107.7,158.9,107.8,158.8,107.6z"/>
	<path d="M58.2,107.7c0,0,0.2,0.1,0.1,0.2C58.2,107.9,58,107.8,58.2,107.7z"/>
	<path d="M149.6,107.8c0.4,0,0.8,0.1,1.2,0.1c0,0.1,0,0.1,0,0.2c-0.3,0-0.6,0-0.9,0C149.8,108,149.7,108.1,149.6,107.8z"/>
	<path d="M60,108.4c0.1,0.1,0,0,0.1,0.2H60C60,108.6,60,108.5,60,108.4z"/>
	<path d="M65.4,108.6c0.1,0,0.1,0,0.2,0v0.1C65.5,108.7,65.5,108.7,65.4,108.6z"/>
	<path d="M62.2,108.9c0,0.3-0.1,0.2,0.3,0.3c0.1-0.1,0,0,0.2-0.1V109C62.4,109,62.3,108.9,62.2,108.9z"/>
	<path d="M147.7,108.9c0.4,0.1,0.2-0.1,0.3,0.2C147.7,109,147.8,109,147.7,108.9z"/>
	<path d="M148.6,108.9c0.1,0,0.1,0,0.2,0H148.6l0.1,0.2C148.6,109,148.7,109,148.6,108.9z"/>
	<path d="M63.5,109.3c0.1,0.1,0,0,0.2,0.1C63.6,109.3,63.7,109.4,63.5,109.3z"/>
	<path d="M145.8,109.3c0.1,0,0.2,0.1,0.3,0.1c-0.1,0.2,0,0.1-0.1,0.2v0.1c-0.1,0-0.1,0-0.2,0C145.7,109.4,145.7,109.6,145.8,109.3z"
		/>
	<path d="M148.5,109.9c0.5,0,1.3,0.2,1.5,0.5c-0.1,0-0.1,0-0.2,0C149.2,110.1,148.5,110.5,148.5,109.9z"/>
	<path d="M146.7,110.9c0.2,0,0.4,0.1,0.6,0.1c0,0.6,0.2,0.7,0.4,1.1c-0.1,0-1.1,0.4-1.1,0.5c0.1,0.1,0.1,0.2,0.2,0.3
		c0.1,0,0.1,0,0.2,0c0.1-0.4,0.3-0.4,0.7-0.5c0-0.1,0-0.2,0-0.3c0.4,0.1,0.9,0.4,1.3,0.6c0,0.3,0,0.4,0.1,0.6c0.3,0,0.2-0.1,0.3,0
		c0.1,0.1,0,0,0.1,0.2c-0.6-0.3-1.4,0.1-1.8,0.4c0.3,0,0.4,0,0.7,0c0.1,0.6,0.1,1,0.2,1.8c-0.2,0.1-0.3,0.2-0.5,0.2
		c0-0.1,0-0.2,0-0.3c0.1-0.1,0.1-0.1,0.2-0.2c-0.1,0-0.1,0-0.2,0c-0.4,0.5-1.3,0.4-1.4,1.4c0.3,0.2,0.4,0.2,0.5,0.5H147
		c-0.3,0.3-0.3,0-0.4,0.3c0.1,0.1,0.1,0.1,0.1,0.3c0.3,0,0.5,0,0.8,0c0.2,0.3,0.3,0.3,0.3,0.8c-0.5,0.4-1.5,1.2-1.6,2h0.1
		c0.3-0.2,0.4-0.2,0.6-0.1c0,0.1-0.1,0.1-0.1,0.2c-0.2,0.1-0.3,0.1-0.5,0.1c0.2,1.3,1.2,0.7,1.6,1.4h-0.1c-0.2,0.3-0.6,0.4-0.9,0.6
		c0-0.3,0-0.3-0.5-0.3c0,0.2,0,0.4,0,0.5c0.4,0.4,0.5,0.6,1.2,0.9c0,0.1-0.1,0.1-0.1,0.2c-0.2,0.1-0.3,0.1-0.5,0.1
		c-0.2-0.2-0.2-0.2-0.5-0.2c0,0.1,0,0.1,0,0.2c0.1,0.2,0,0.4,0.1,0.8c0.1,0.1,0.2,0.2,0.3,0.3c0,0.3-0.1,0.5-0.1,0.8
		c0.1,0.2,0.4,0.5,0.5,0.7c0.1,0,0.1,0,0.2,0c0-0.3-0.2-0.2,0.1-0.4c0.2-0.1,0.4-0.1,0.7-0.1c0-0.1,0-0.2,0-0.3c0.1,0,0.1,0,0.2,0
		c0.4-0.2,0.9,0,1.3,0c0,0.2-0.1,0.4-0.1,0.6c-0.6,0.2-1,0.8-1,1.6c-0.4,0-0.7,0-1,0c0,0.1,0,0.1,0,0.2h0.1c0.5,0.3,1,0,1.1,0.8
		c-0.1,0.2-0.1,0.4,0.2,0.6c0.3-0.2,0.8,0.1,1.1,0.3c0.1,0.2,0.1,0.2,0,0.4c1,0.1,2.5,0.1,3,0.7l0.1,0.1c-0.3,0-0.5,0-0.8,0
		c-0.2-0.2-0.2-0.1-0.7-0.1c0-0.2,0-0.2-0.1-0.3c-0.1-0.1-0.2-0.1-0.4-0.1c-0.3,0.2-2.5,0-2.8-0.1c-0.3-0.4-0.3-0.8-1-0.8
		c-0.1,0.1-0.2,0.1-0.3,0.2c0.1,0.2,0.2,0.4,0.2,0.5c0.4,0.3,0.5,0.1,0.6,0.6c-0.2,0.1-0.4,0.2-0.6,0.4c0.4,0.1,0.4,0.1,0.6,0.4
		c0.1,0.2-0.1,0.2,0,0.4c0.4,0.4,0.6,0.5,1.1,0.7c-0.1,0.2,0,0.3-0.1,0.4c-0.1,0.1-0.1,0.1-0.3,0.1c-0.6-0.7-0.4-0.2-1.1-0.5
		c-0.7-0.4-0.2-1.3-1.4-1.4c-0.2,0.4-0.6,0.4-1,0.6c0.1,0.2,0,0.1,0.1,0.2v0.1c0.3-0.1,0.3-0.1,0.6,0c0,0.1,0,0.2,0,0.3
		c-0.2,0.2-0.1,0.1-0.2,0.3l0.1,0.1c0.2-0.1,0.2-0.3,0.3-0.1c0.4,0.1,0.4,0.1,0.5,0.5c-0.1,0.1-0.3,0.1-0.4,0.2v0.1
		c0.1,0,0.2,0,0.3,0c0.1-0.1,0.1-0.1,0.3-0.1l0.1,0.1c0,0.1,0,0.1,0,0.2c-0.6,0.1-0.7,0.3-1.4,0.2c0-0.1,0-0.1,0-0.2
		c0.4-0.1,0.3,0,0.4-0.4c-0.1-0.1-0.2-0.1-0.3-0.2c-0.3,0.1-0.3,0.4-0.4,0.4c-0.4,0.2-1.2-0.1-1.7,0.2c-0.5,0.3-1.1,0.9-1.7,1.1
		c-0.7,0.2-1.3-0.2-1.9-0.2c0,0.4,0.1,0.5,0.1,0.8c-0.2,0.1-0.1,0-0.2,0.1c-0.2-0.1-0.1,0-0.2-0.1c-0.1,0-0.2-0.1-0.3-0.1
		c0.2-0.4,0.3-0.8,0.3-1.4c-0.7-0.4-1.7-0.3-2.6-0.5c-0.7-0.2-2-0.4-2.8-0.7c-1.2-0.3-2.1,0.3-3.3,0c-0.5-0.1-2.1-0.4-2.9-0.2
		c-0.4,0.2-0.8,0.5-1.6,0.7c-1,0.2-2.5-0.1-3.3-0.3c-0.5-0.1-1.1,0.2-1.4,0.2c-0.4,0.1-0.4-0.2-0.5-0.2c-0.9,0-1.9,0.1-2.8,0.1
		c-0.1-0.1-0.1-0.2-0.2-0.3c0-0.1,0-0.1,0-0.2c0.1,0,0.1-0.1,0.2-0.1c0.5-0.4,1.3,0.1,2.1,0.1c2.1,0,4.1,0.3,5.9-0.1
		c0-0.1,0-0.1,0-0.2c-0.1,0-0.2-0.1-0.3-0.1c-1-0.9-2.4,0.3-2.9,0.1c-0.1-0.1-0.3-0.3-0.4-0.4c-0.4,0-0.6,0.1-1,0.1l-0.2-0.3
		c-0.5,0-1,0.1-1.5,0.1c0,0.1,0,0.3,0,0.4c-0.6,0-0.5-0.3-0.9-0.4c-0.6,0.1-1.3,0.1-1.9,0.2c0,0.4,0,0.3,0.1,0.7
		c-0.2,0.1-0.1,0-0.2,0.1c-0.2-0.1-0.1,0-0.2-0.1c-0.2-0.4,0.1-0.4-0.6-0.5c-0.4-0.3-0.6,0.1-1,0.2c-0.1-0.2-0.2-0.2-0.4-0.3
		c0-0.2,0.1,0,0-0.2c-0.1-0.1-0.1-0.1-0.3-0.1c-0.4,0.3-2.6,0.4-3.1,0.1c-0.1-0.1,0,0-0.1-0.2c0.2-0.1,0.4-0.2,0.6-0.3v-0.1
		c-0.3,0-0.4,0-0.6-0.1c-0.1-0.1-0.1-0.3-0.1-0.5c0.9-0.2,0.9-0.4,1.8-0.5c0,0.1,0,0.1,0,0.2c-0.1,0.1-0.1,0.1-0.2,0.2
		c0.3,0,0.5,0,0.8,0c0.2-0.1,3.8,0.1,4.7,0.1c4.1,0,8.1,0,12.3,0l0.1-0.1c0-0.1,0-0.2,0-0.3c0.3,0,0.5,0.1,0.8,0.1
		c0-0.2,0-0.2,0.1-0.3c0.1-0.1,0.2-0.1,0.4-0.1c0.1,0.3,0.8,0.5,0.9,0.5c0.1-0.1,0,0,0.1-0.2c-0.3-0.2-0.2-0.3-0.2-0.7
		c0.2-0.1,0.2-0.1,0.4-0.2c0,0.3,0,0.4,0.1,0.6c0.4,0.2,1,0.2,1.4,0.3c0,0.1,0,0.1,0,0.2c-0.4,0-0.3-0.1-0.4,0.2c0.1,0,0.2,0,0.3,0
		c0.1-0.2,0.3-0.4,0.5-0.5c0.2,0.3,0.7,0.7,1,0.2c-0.3-0.1-0.2,0-0.3-0.3c0.1,0,0.2,0,0.3,0c0.2,0.1,0.4,0.2,0.7,0.2
		c0.4-0.4,0.8-1,1.3-1.3c0,0.4-0.2,0.4,0.1,0.5c0.2,0.2,0.2,0.1,0.3,0.3c0,0.1,0,0.1,0.4,0.1c0.1-0.1,0.3-0.1,0.5-0.1
		c0,0.1,0,0.1,0,0.2c-0.2,0-0.2,0-0.3,0.1c0.4,0.1,0.6,0.1,1,0.2l-0.1,0.1c-0.1,0.1-0.4,0.1-0.4,0.2c0.1,0,0.1,0,0.2,0
		c0.3,0.2,1,0.1,1.3,0c0-0.2,0.1-0.4,0.2-0.8c1,0,1.8-0.3,2-1c-0.3-0.1-0.1,0-0.2-0.2c0.4-0.1,0.9-0.7,1-1c0-0.1-0.1-0.1-0.2-0.3
		c0.3-0.1,0.4,0,0.8,0c0-0.1,0-0.1,0-0.2c-0.1-0.1,0,0-0.1-0.2c0.2,0,0.2,0,0.3-0.1c-0.3,0-0.5,0.1-0.8,0.1v-0.1
		c0.3-0.4,0.2-0.7,0-1c0.4-0.3,0.4-0.4,0.6-0.8c-0.2-0.1-0.2-0.1-0.4-0.2c0,0.4,0.2,0.3-0.2,0.4c-0.5-0.4-1,0.3-1.2,0.5
		c0-0.6-0.2-0.8-0.4-1.4c0.3-0.2,0.5-0.4,0.7-0.8c-0.4,0-0.5,0.1-0.7-0.2c0.4-0.2,0.6-0.2,0.8-0.7c-0.3,0-0.5,0-0.7-0.1
		c0.5-0.1,0.5-0.3,1.1-0.4l0.1,0.1c0,0.1,0,0.1,0,0.2c-0.1,0-0.3,0.1-0.4,0.1c0.2,0.2,0.1,0.2,0.2,0.4c0.2,0.1,0.4,0.1,0.7,0.1
		c0.1-0.1,0.1-0.2,0.2-0.3l-0.1-0.1c-0.3,0.1-0.3,0.2-0.4,0.1c-0.1-0.1-0.1-0.2-0.1-0.4c0.6,0,0.5,0.2,1.1,0.3
		c-0.1-0.4-0.2-0.3-0.3-0.5c0.4-0.2,0.3-0.7,0.2-1.2c-0.1,0-0.3,0-0.4,0v-0.1h0.1c0.1-0.1,0.2-0.2,0.3-0.3c-0.1-0.1-0.2-0.1-0.3-0.2
		c0.1-0.1,0.1-0.1,0.2-0.2c-0.3,0-0.4,0-0.5-0.1h0.1c0.1-0.1,0.3-0.1,0.5-0.1c-0.1-0.4-0.2-0.3-0.3-0.5l0.1-0.1c0.1,0,0.2,0,0.3,0
		c0-1.2,0-2.4,0-3.6c0.3,0,0.4,0,0.5,0.1c-0.1,0.2-0.3,0.4-0.2,0.5c0.1,0.3,0.1,0.3,0.3,0.4c0.2,0.1,0.2,0.1,0.5,0
		c0-0.1,0-0.2,0-0.3c-0.4-0.4,0.1-0.4-0.1-0.9c-0.1-0.2-0.5-0.3-0.6-0.4c0-0.2-0.1-0.4-0.1-0.6c0-0.1-0.3-0.2-0.3-0.2
		c-0.2-0.4,0-4.1,0.1-4.5C145.9,110.7,146.2,110.7,146.7,110.9C146.7,110.7,146.7,110.8,146.7,110.9z"/>
	<path d="M63.8,110.4c0,0.1,0.1,0.2,0.1,0.3c0.1,0,0.2,0,0.3,0v-0.1c-0.1-0.1,0,0-0.1-0.2C64.1,110.4,64,110.4,63.8,110.4z"/>
	<path d="M65.9,110.4c0.1,0.1,0,0,0.1,0.2h-0.1C65.9,110.6,65.9,110.5,65.9,110.4z"/>
	<path d="M147.9,111.2c0.1,0,0.2,0.1,0.3,0.1c0,0.1,0,0.1,0,0.2C147.8,111.5,147.9,111.5,147.9,111.2z"/>
	<path d="M63.3,111.6c0,0.1,0,0.1,0,0.2c0.1,0,0.1,0,0.2,0c0-0.1,0-0.1,0-0.2C63.4,111.6,63.4,111.6,63.3,111.6z"/>
	<path d="M148.8,111.8c0.2,0.2,0.1,0.1,0.2,0.3c-0.1,0-0.2,0-0.3,0C148.7,112,148.8,111.9,148.8,111.8z"/>
	<path d="M153,111.8c0.1,0,0.3,0.1,0.4,0.1c0,0.1,0,0.1,0,0.2c-0.2,0-0.4,0-0.6,0c0-0.1,0-0.1,0-0.2
		C153,111.8,152.9,111.9,153,111.8z"/>
	<path d="M59.3,111.9c0.1,0,0.2,0.1,0.3,0.1l-0.1,0.1c-0.1,0.1-0.1,0.1-0.3,0.1C59.3,112.1,59.3,112,59.3,111.9z"/>
	<path d="M64.3,112c0.2,0,0.2,0,0.3,0.1h-0.1c-0.1,0.1,0,0-0.2,0.1C64.3,112.2,64.3,112.1,64.3,112z"/>
	<path d="M148.8,112.2c0.1,0,0.2,0.1,0.3,0.1v0.1C148.7,112.4,148.8,112.4,148.8,112.2z"/>
	<path d="M61.3,112.8c0.3,0.2,0.1,0,0.2,0.3c-0.1,0-0.1,0-0.2,0C61.3,113,61.3,112.9,61.3,112.8z"/>
	<path d="M146.7,113c0,0.3-0.1,0.2,0,0.3c0.1,0.1,0,0,0.2,0.1c0-0.1,0-0.2,0-0.3C146.8,113.1,146.7,113.1,146.7,113z"/>
	<path d="M64.5,113.9c0,0.1,0,0.1,0,0.2c0.1,0,0.3,0,0.4,0V114l-0.1-0.1C64.7,113.9,64.6,113.9,64.5,113.9z"/>
	<path d="M65.8,114.4c0.4,0.1,0.2-0.1,0.3,0.2c-0.1,0-0.2,0-0.3,0C65.8,114.5,65.8,114.5,65.8,114.4z"/>
	<path d="M152,115c0.4,0.1,0.2-0.1,0.3,0.2C151.9,115.2,152,115.4,152,115z"/>
	<path d="M61.7,115.4c0,0.2,0.2,0.4,0.5,0.5c0-0.1,0-0.1,0-0.2C62.1,115.6,61.9,115.5,61.7,115.4z"/>
	<path d="M147.2,116.2c0.4,0,0.5-0.1,0.9,0.1c-0.1,0.1-0.4,0.1-0.4,0.2c0,0.1,0.1,0.3,0.1,0.4c-0.2,0-0.4,0-0.5,0
		C147.4,116.6,147.3,116.6,147.2,116.2z"/>
	<path d="M56.5,116.3c0.5,0.1,1.3,0.2,1.9,0.3c0.2,0.4,0.4,0.6,0.5,1.1c0.4-0.2,0.4-0.2,0.8-0.1c0,0.1,0,0.3,0,0.4
		c-0.3,0.1-0.3,0.2-0.6,0.2c-0.1-0.2-0.2-0.4-0.3-0.5c-0.4,0.4-0.8,0.9-1.6,1c-0.1-0.3-0.2-0.5-0.3-0.7c-0.1,0.1-0.1,0.1-0.2,0.2
		c0,0-0.9-0.4-0.9-0.5c0.1-0.1,0.1-0.5,0.1-1C56.2,116.6,56.4,116.5,56.5,116.3z"/>
	<path d="M64.5,116.8c0.1,0.3,0,0.2,0.3,0.3c0.1,0.1,0.1,0.1,0.3,0.1v-0.1c-0.1-0.1-0.1-0.2-0.2-0.3
		C64.8,116.8,64.7,116.8,64.5,116.8z"/>
	<path d="M60.5,117.1c0.2,0.2,0.1,0.1,0.2,0.3C60.3,117.3,60.5,117.4,60.5,117.1z"/>
	<path d="M147.8,117.1c0.2,0,0.4,0,0.5,0c0.1,0.2,0.1,0.4,0.1,0.6c-0.2,0.1-0.4,0.1-0.7,0.1c-0.1-0.1,0,0-0.2-0.1c0-0.1,0-0.3,0-0.4
		C147.7,117.2,147.6,117.3,147.8,117.1z"/>
	<path d="M66.7,117.7c0,0,0.2,0.1,0.1,0.2C66.7,117.8,66.5,117.7,66.7,117.7z"/>
	<path d="M62.2,117.9c0,0.1,0,0.1,0,0.2h0.1C62.3,118,62.3,118,62.2,117.9L62.2,117.9z"/>
	<path d="M60.7,118.2c0.2,0.2,0.2,0.1,0.2,0.4c-0.1,0-0.1,0-0.2,0c-0.2-0.1-0.1,0-0.4,0c0-0.1,0-0.1,0-0.2
		C60.5,118.3,60.5,118.3,60.7,118.2z"/>
	<path d="M59.3,118.3c0.1,0,0.3,0,0.4,0c0,0.1,0,0.1,0,0.2c-0.2,0.2-0.1,0.3-0.3,0.4C59.3,118.7,59.2,118.7,59.3,118.3z"/>
	<path d="M58.3,118.7c0,0,0.2,0.1,0.1,0.2C58.3,118.9,58.2,118.7,58.3,118.7z"/>
	<path d="M59.1,119.3c0.1,0,0.3,0,0.4,0l0.1,0.1c-0.1,0.2,0,0.1-0.1,0.2v0.1c-0.1,0-0.1,0-0.2,0C59.2,119.5,59.2,119.5,59.1,119.3z"
		/>
	<path d="M58.2,119.4c0.3,0,0.6,0.1,0.7,0.1c0.1,0.1,0.2,0,0.1,0.2h-0.1c-0.2,0.1-0.4,0.1-0.6,0.1l-0.1-0.1
		C58.2,119.6,58.2,119.5,58.2,119.4z"/>
	<path d="M147.8,119.7c0,0.1,0,0.3,0,0.4c-0.2,0.1-0.2,0.2-0.5,0.2c-0.1-0.2-0.1-0.3-0.1-0.5c0.1,0,0.1,0,0.2,0
		C147.5,119.7,147.5,119.7,147.8,119.7z"/>
	<path d="M57.9,120.2c0,0.1,0,0.2,0,0.3c-0.1,0-0.2,0-0.3,0c0-0.1-0.1-0.3-0.1-0.4h0.1C57.7,120.1,57.6,120.1,57.9,120.2z"/>
	<path d="M55.7,121.1c0.1,0,0.3,0,0.4,0c0,0.1,0,0.1,0,0.2l0.1,0.1c-0.1,0-0.1,0-0.2,0c-0.1,0.1-0.1,0.1-0.3,0.1
		C55.7,121.4,55.7,121.2,55.7,121.1z"/>
	<path d="M149,121.5c0-0.2,0-0.2,0.1-0.3c0.2-0.1,0.4-0.1,0.6-0.1c0,0.1,0,0.1,0,0.2C149.5,121.4,149.5,121.5,149,121.5z"/>
	<path d="M58.2,121.7c-0.1,0-0.3,0-0.4,0c0-0.1,0-0.2,0-0.3c0.1,0,0.3-0.1,0.4-0.1C58.2,121.4,58.2,121.6,58.2,121.7z"/>
	<path d="M58.8,121.3c0.4,0.1,0.2-0.1,0.3,0.2C58.8,121.4,58.9,121.5,58.8,121.3z"/>
	<path d="M57.3,121.4c0.1,0,0.3,0,0.4,0v0.1h-0.1C57.4,121.6,57.5,121.7,57.3,121.4z"/>
	<path d="M59.3,121.6c0.1,0,0.1,0,0.2,0c0,0.1,0,0.1,0,0.2c-0.1,0-0.1,0-0.2,0C59.3,121.7,59.3,121.7,59.3,121.6z"/>
	<path d="M57.6,121.7c0.3,0.1,0.2,0,0.3,0.2L58,122c-0.1,0-0.1,0-0.2,0C57.7,121.9,57.7,122,57.6,121.7z"/>
	<path d="M144.3,121.8c0.1,0,0.1,0,0.2,0c0,0.1,0,0.1,0,0.2c-0.1,0-0.1,0-0.2,0C144.3,122,144.3,121.9,144.3,121.8z"/>
	<path d="M145,122.2c0.3,0.1,0.1,0,0.2,0.2h-0.1c-0.1,0.1,0,0-0.2,0.1C144.9,122.4,144.9,122.3,145,122.2z"/>
	<path d="M146.4,122.2c0,0.1,0.1,0.2,0.1,0.3c0.3,0,0.4-0.1,0.7-0.1v-0.1l-0.1-0.1C147,122.2,146.7,122.2,146.4,122.2z"/>
	<path d="M67.3,122.5c0.1,0.1,0,0,0.2,0.1C67.5,122.5,67.5,122.6,67.3,122.5z"/>
	<path d="M149.9,122.6c0.4,0.1,0.2-0.1,0.3,0.2l-0.1,0.1l-0.1-0.1C150,122.7,150,122.8,149.9,122.6z"/>
	<path d="M141.8,124.8c0-0.3-0.1-0.4,0-0.5c0.2-0.1,0.2-0.2,0.3-0.1c0.2,0.1,0.2,0.1,0.3,0.3h-0.1
		C142.1,124.7,142.1,124.7,141.8,124.8z"/>
	<path d="M147.9,124.1c0.1,0,0.3,0,0.4,0c0,0.1,0,0.1,0,0.2c-0.1,0-0.3,0-0.4,0C147.9,124.2,147.9,124.2,147.9,124.1z"/>
	<path d="M149.9,124.1c0.4,0,0.6,0.1,1,0.2c0,0.1,0,0.1,0,0.2c-0.1,0-0.3,0-0.4,0C150.4,124.3,150.1,124.2,149.9,124.1z"/>
	<path d="M148.5,124.2c0.1,0,0.1,0,0.2,0v0.1C148.5,124.3,148.6,124.3,148.5,124.2z"/>
	<path d="M149.3,124.2c0.1,0,0.1,0,0.2,0H149.3l0.1,0.2C149.3,124.3,149.3,124.4,149.3,124.2z"/>
	<path d="M59.9,124.3c0.1,0,0.1,0,0.2,0v0.1C59.9,124.4,60,124.4,59.9,124.3z"/>
	<path d="M143.6,124.4c-0.1,0.3-0.1,0.2-0.2,0.4c0.1,0,0.2,0,0.3,0c0.1-0.2,0.1-0.2,0.2-0.4C143.7,124.4,143.7,124.4,143.6,124.4z"
		/>
	<path d="M60.3,124.7c0.4,0.1,0.2-0.1,0.3,0.2l-0.1,0.1l-0.1-0.1C60.4,124.8,60.4,124.9,60.3,124.7z"/>
	<path d="M151.6,124.8c0.1,0,0.1,0,0.2,0v0.1C151.7,124.8,151.7,124.9,151.6,124.8z"/>
	<path d="M60,125c0.1,0,0.1,0,0.2,0v0.1C60,125,60.1,125.1,60,125z"/>
	<path d="M68,125c0.2,0.2,0.1,0.1,0.3,0.2v-0.1C68.2,125.1,68.1,125,68,125z"/>
	<path d="M152.5,125.7c0.4,0.1,0.5,0.1,0.6,0.5c-0.2,0.1-0.3,0.1-0.5,0.1C152.6,126.1,152.5,125.9,152.5,125.7z"/>
	<path d="M59.1,126.1c-0.1,0-0.2,0-0.3,0c0-0.3,0.1-0.3,0.1-0.4l0.1,0.1C59.1,125.9,59.1,125.9,59.1,126.1z"/>
	<path d="M56.9,125.9c0.4,0.1,0.2-0.1,0.3,0.2C56.8,126,56.9,126.1,56.9,125.9z"/>
	<path d="M68,125.9c0.1,0,0.1,0,0.2,0c0,0.1,0,0.1,0,0.2c-0.1,0-0.1,0-0.2,0C68,125.9,68,125.9,68,125.9z"/>
	<path d="M66.4,125.9c0.2,0.1,0.1,0.1,0.3,0C66.6,125.9,66.6,125.9,66.4,125.9z"/>
	<path d="M148.7,127.4c0.1-0.4,0.2-0.3,0.3-0.5c-0.3-0.1-0.4-0.2-0.5-0.4l-0.1,0.1c-0.1,0.1-0.2,0.1-0.3,0.2
		c0.1,0.2,0.1,0.4,0.2,0.5C148.4,127.3,148.4,127.3,148.7,127.4z"/>
	<path d="M152.5,126.5c0.1,0.2,0.2,0.1,0,0.2C152.5,126.6,152.5,126.5,152.5,126.5z"/>
	<path d="M60.5,126.6c0,0.1,0,0.1,0,0.2h0.1C60.6,126.7,60.6,126.7,60.5,126.6L60.5,126.6z"/>
	<path d="M69,126.8c0.3,0,0.3,0.1,0.4,0.1v0.1C69,127,69.1,127.1,69,126.8z"/>
	<path d="M57.6,127c0.1,0,0.1,0,0.2,0c0,0.1,0,0.1,0,0.2C57.6,127.2,57.7,127.3,57.6,127z"/>
	<path d="M147.8,127.3c0.1,0.2,0.1,0.2,0.1,0.4c-0.1,0.1-0.1,0.1-0.2,0.2c0.1,0,0.2,0,0.3,0c0.2-0.2,0.2-0.1,0.3-0.5
		c-0.1,0-0.1,0-0.2,0C147.9,127.3,147.9,127.3,147.8,127.3z"/>
	<path d="M66.3,127.4c0,0.1,0,0.1,0,0.2h0.1C66.4,127.5,66.4,127.5,66.3,127.4C66.4,127.4,66.4,127.4,66.3,127.4z"/>
	<path d="M145.9,127.6c-0.1,0.2-0.2,0.3-0.3,0.4l0.1,0.1c0.2,0.1,0.4,0.1,0.6,0.1c0-0.1,0-0.1,0-0.2
		C146.2,127.9,146,127.7,145.9,127.6z"/>
	<path d="M149.7,128c0.4,0.1,0.2-0.1,0.3,0.2c-0.1,0-0.2,0-0.3,0C149.7,128.2,149.7,128.1,149.7,128z"/>
	<path d="M57.9,128.2c0.2,0,0.2,0,0.3,0.1c-0.1,0.1,0,0-0.1,0.2C57.7,128.3,57.9,128.5,57.9,128.2z"/>
	<path d="M67.5,128.5c0-0.2,0-0.2-0.1-0.3c-0.1,0.1,0,0-0.2,0.1c0,0.1,0,0.1,0,0.2C67.3,128.5,67.5,128.5,67.5,128.5z"/>
	<path d="M150.4,128.3c0.1,0,0.1,0,0.2,0v0.1C150.4,128.3,150.5,128.4,150.4,128.3z"/>
	<path d="M145.1,128.4c0,0.3-0.1,0.1,0.2,0.2l0.1-0.1v-0.1C145.3,128.4,145.2,128.4,145.1,128.4z"/>
	<path d="M58.3,128.5c0.1,0,0.3,0,0.4,0v0.1h-0.1c-0.2,0.1-0.2,0.2-0.4,0.2C58.2,128.6,58.3,128.5,58.3,128.5z"/>
	<path d="M144.5,128.5c0.1,0.1,0,0,0.2,0.1C144.5,128.5,144.6,128.5,144.5,128.5z"/>
	<path d="M69.9,128.5c0,0,0.2,0.1,0.1,0.2C69.9,128.7,69.7,128.5,69.9,128.5z"/>
	<path d="M74,128.5c0.1,0,0.3,0,0.4,0c0,0.1,0,0.1,0,0.2c-0.1,0-0.3,0-0.4,0C74,128.7,74,128.6,74,128.5z"/>
	<path d="M60.1,128.7c0.1,0,0.1,0,0.2,0v0.1C60.2,128.8,60.2,128.8,60.1,128.7z"/>
	<path d="M146.7,128.8c0,0.1,0,0.1,0,0.2h0.1C146.8,128.9,146.8,128.9,146.7,128.8C146.7,128.8,146.7,128.8,146.7,128.8z"/>
	<path d="M151.4,128.8c0.3,0,0.3,0.1,0.4,0.1c0,0.1,0,0.1,0,0.2c-0.1,0-0.3,0-0.4,0C151.4,129.1,151.4,128.9,151.4,128.8z"/>
	<path d="M144.1,128.9c0,0.1,0.1,0.2,0.1,0.3c0.2-0.1,0.1,0,0.2-0.1c0.3-0.1,0.1,0,0.2-0.2C144.4,128.9,144.3,128.9,144.1,128.9z"/>
	<path d="M145.2,129.3c0,0.1,0,0.1,0,0.2c0.1,0,0.1,0,0.2,0c0-0.1,0-0.1,0-0.2C145.3,129.3,145.3,129.3,145.2,129.3z"/>
	<path d="M146.9,129.3c0,0.2,0,0.4,0.1,0.6c0.1,0,0.1,0,0.2,0c0-0.1,0-0.2,0-0.3C147.1,129.4,147,129.3,146.9,129.3z"/>
	<path d="M86.2,129.3c0.3,0.1,0.1,0,0.2,0.2l-0.1,0.1h-0.1C86.2,129.5,86.2,129.4,86.2,129.3z"/>
	<path d="M142.3,129.3c0.3,0.1,0.4,0,0.6,0.1c0,0.1-0.1,0.1-0.1,0.2c-0.2,0.1-0.4,0.1-0.6,0.1c0-0.1-0.1-0.2-0.1-0.3
		C142.2,129.3,142.2,129.4,142.3,129.3z"/>
	<path d="M71.8,129.4c0.1,0,0.1,0,0.2,0c0,0.1,0,0.1,0,0.2c-0.1,0-0.1,0-0.2,0C71.8,129.6,71.8,129.5,71.8,129.4z"/>
	<path d="M70.6,129.6c0.1,0.2,0.2,0.2,0.4,0.3c0-0.1,0-0.1,0-0.2C70.9,129.7,70.8,129.7,70.6,129.6z"/>
	<path d="M75.4,129.7c0.2,0.1,0.3,0.1,0.4,0C75.7,129.7,75.5,129.7,75.4,129.7z"/>
	<path d="M86.2,129.7c0.1,0.1,0,0,0.1,0.2h-0.1C86.2,129.9,86.2,129.8,86.2,129.7z"/>
	<path d="M90.4,129.9c0,0.1,0,0.1,0,0.2V129.9l0.2,0.1C90.5,129.9,90.6,129.9,90.4,129.9z"/>
	<path d="M86.3,130c0.2,0,0.4,0.1,0.5,0.1l-0.1,0.1C86.5,130.1,86.5,130.2,86.3,130z"/>
	<path d="M137,130c0.4,0.1,0.3,0,0.4,0.4c-0.2,0.1-0.4,0.1-0.6,0.2c-0.1-0.3-0.1-0.3-0.2-0.5C136.9,130.1,136.9,130.1,137,130z"/>
	<path d="M74.6,130.1c-0.1,0.2-0.2,0.3-0.3,0.5c0.2,0,0.4,0,0.5,0c0-0.1,0.1-0.2,0.1-0.3h0.1l-0.1-0.1
		C74.8,130.1,74.8,130.1,74.6,130.1z"/>
	<path d="M106.7,130.3c0.1-0.4-0.1-0.2,0.2-0.3c0,0.1,0.1,0.2,0.1,0.3C106.9,130.3,106.8,130.3,106.7,130.3z"/>
	<path d="M113.2,130.1c0,0.2,0,0.4,0,0.6c-0.4,0-0.5-0.1-0.7-0.2h0.1C112.7,130.1,112.7,130.1,113.2,130.1z"/>
	<path d="M91.2,130.4c0.2,0.1,0.1,0.1,0.3,0C91.4,130.4,91.3,130.4,91.2,130.4z"/>
	<path d="M87.7,130.6c0,0.1,0.1,0.2,0.1,0.3c0.1,0,0.2-0.1,0.3-0.1v-0.1l-0.1-0.1C87.8,130.6,87.8,130.6,87.7,130.6z"/>
	<path d="M111.2,130.6c0.3,0,0.4,0,0.6,0.1l-0.1,0.1C111.4,131,111.2,130.9,111.2,130.6z"/>
	<path d="M91.4,130.9c0,0.1,0,0.1,0,0.2c0.1,0,0.2,0,0.3,0c0-0.1,0-0.1,0-0.2C91.6,130.9,91.5,130.9,91.4,130.9z"/>
	<path d="M92.1,131c0.2,0.2,0.1,0.1,0.3,0.2l0.1-0.1V131C92.4,131,92.2,131,92.1,131z"/>
	<path d="M110.8,131c0.3,0.1,0.3,0.1,0.4,0.3c-0.4,0-1.6,0.5-1.7,0.5c-0.1-0.1,0,0-0.1-0.2C110.2,130.8,110.1,131.5,110.8,131z"/>
	<path d="M150.7,131.2c0.4,0.1,0.2-0.1,0.3,0.2c-0.1,0-0.2,0-0.3,0C150.7,131.4,150.7,131.3,150.7,131.2z"/>
	<path d="M108.3,131.3c0.2,0,0.4,0.1,0.6,0.1v0.1h-0.1c-0.2,0.2-0.2,0.2-0.6,0.2c0-0.1-0.1-0.2-0.1-0.3
		C108.3,131.4,108.2,131.4,108.3,131.3z"/>
	<path d="M119.1,131.4c0.2,0.1,0.3,0.1,0.4,0C119.3,131.4,119.2,131.4,119.1,131.4z"/>
	<path d="M124.4,131.4c0,0.1-0.1,0.3-0.1,0.4c0.1,0,0.3,0,0.4,0v-0.1C124.7,131.7,124.6,131.5,124.4,131.4z"/>
	<path d="M131.5,132.2c0-0.2,0-0.2-0.1-0.3c-0.1-0.1-0.1-0.1-0.3-0.1c-0.1,0.2-0.1,0.2-0.3,0.3c0-0.4,0.1-0.2,0-0.4
		c-0.3,0.2-0.3,0.3-0.6,0.4c-0.2-0.4-1.5-0.7-1.8-0.6c-0.4,0.1-0.8,0.2-1.2,0.3c-0.1,0.2-0.1,0.2-0.2,0.4h0.1c0.4,0.3,1.1,0,1.6,0.1
		c1.3,0.4,3.6,0.6,5.1,0.3v-0.1c-0.1,0-0.2-0.1-0.3-0.1C133.1,132.1,132.2,132.2,131.5,132.2z"/>
	<path d="M120.5,131.5c0,0.3-0.1,0.1,0.2,0.2l0.1-0.1v-0.1C120.7,131.5,120.6,131.5,120.5,131.5z"/>
	<path d="M99.8,131.7c0,0.1,0,0.1,0,0.2c0.3,0,0.3-0.1,0.4-0.1v-0.1C100.1,131.7,100,131.7,99.8,131.7z"/>
	<path d="M126,131.7c0.1,0.4-0.1,0.2,0.2,0.3c0-0.1,0-0.2,0-0.3C126.2,131.7,126.1,131.7,126,131.7z"/>
	<path d="M125,131.8c0.2,0.2,0.2,0.2,0.6,0.2v-0.1C125.5,131.9,125.2,131.8,125,131.8z"/>
	<path d="M126.7,131.8c0,0.1,0,0.1,0,0.2c0.1,0,0.1,0,0.2,0c0-0.1,0-0.1,0-0.2C126.7,131.8,126.7,131.8,126.7,131.8z"/>
	<path d="M95.4,131.9c0,0.1,0,0.1,0,0.2c0.1,0,0.2,0,0.3,0c0-0.1,0-0.1,0-0.2C95.7,131.9,95.6,131.9,95.4,131.9z"/>
	<path d="M135.4,132.2c0-0.1,0-0.2,0-0.3c-0.3,0-0.5,0-0.7,0.1c0.4,0,0.3-0.1,0.4,0.2c-0.1,0-0.1,0-0.2,0c-0.4,0.4-0.8-0.1-1,0.5
		c0.1,0,0.1,0,0.2,0c0.5,0.4,2.1,0.2,2.4-0.3c-0.1,0-0.1,0-0.2,0C136.1,132.4,135.9,132.2,135.4,132.2z"/>
	<path d="M67.5,132c0.1,0.1,0,0,0.1,0.2h-0.1C67.5,132.1,67.5,132.1,67.5,132z"/>
	<path d="M83,132.1c0.1,0,0.1,0,0.2,0v0.1C83.1,132.2,83.1,132.2,83,132.1z"/>
	<path d="M84.3,132.1c0.2,0,0.2,0,0.3,0.1c0.1,0.1,0.1,0.1,0.1,0.3c-0.1,0-0.1,0-0.2,0s0,0.1-0.1,0
		C84.1,132.3,84.2,132.4,84.3,132.1z"/>
	<path d="M68.1,132.2c0.4,0.1,0.2-0.1,0.3,0.2c-0.1,0-0.2,0-0.3,0C68.1,132.4,68.1,132.3,68.1,132.2z"/>
	<path d="M71.1,132.2c0.2,0,0.4,0,0.5,0c0.1,0.2,0.1,0.2,0.1,0.4c-0.1,0-0.1,0-0.2,0s0,0.1-0.1,0c-0.1,0-0.2-0.1-0.3-0.1
		C71.1,132.4,71.1,132.3,71.1,132.2z"/>
	<path d="M105.3,132.2c0.1,0,0.3,0,0.4,0c0,0.2,0,0.2-0.1,0.3v0.1c-0.1,0-0.2,0-0.3,0C105.3,132.5,105.3,132.4,105.3,132.2z"/>
	<path d="M66.6,132.3c0.4,0.1,0.2-0.1,0.3,0.2C66.6,132.5,66.6,132.6,66.6,132.3z"/>
	<path d="M98.6,132.4c0,0.1,0.1,0.2,0.1,0.3c0.1,0,0.1,0,0.2,0c0-0.1,0-0.1,0-0.2h-0.1C98.7,132.5,98.8,132.5,98.6,132.4z"/>
	<path d="M118.8,132.6c0.1,0.1,0,0,0.1,0.2h-0.1C118.8,132.7,118.8,132.6,118.8,132.6z"/>
	<path d="M137.3,132.6c-0.1,0.1-0.2,0.1-0.3,0.2h0.1c0.1,0.1,0.1,0.1,0.3,0.1c0.1-0.2,0.1-0.1,0.2-0.3
		C137.5,132.6,137.4,132.6,137.3,132.6z"/>
	<path d="M67.7,132.7c0.3,0.2,0.1,0,0.2,0.3c-0.1,0-0.1,0-0.2,0C67.7,132.8,67.7,132.7,67.7,132.7z"/>
	<path d="M63.1,132.7c0.1,0,0.3,0,0.4,0v0.1h-0.1C63.2,132.8,63.2,132.9,63.1,132.7z"/>
	<path d="M78.3,132.7c0.1,0,0.1,0,0.2,0v0.1C78.3,132.7,78.4,132.8,78.3,132.7z"/>
	<path d="M64.4,132.9c0.1,0.1,0.2,0.7,0.1,0.9c-0.2,0.3-0.2,0.3-0.5,0.3c-0.1-0.1-0.3-0.2-0.4-0.3c0.1-0.2,0.1-0.2,0.1-0.4
		C64.1,133.4,64.2,133.2,64.4,132.9z"/>
	<path d="M66.8,132.9c0.2,0.1,0.2,0,0.3,0.1C66.8,133.2,67,133.1,66.8,132.9z"/>
	<path d="M139.6,133c0,0.1,0,0.1,0,0.2V133l0.2,0.1C139.7,133,139.8,133.1,139.6,133z"/>
	<path d="M58.8,133.1c0.3,0.2,0.1,0,0.2,0.3c-0.1,0.1-0.2,0.2-0.3,0.3c-0.1,0,0,0.1-0.1,0l-0.1-0.1
		C58.6,133.5,58.7,133.4,58.8,133.1z"/>
	<path d="M70.3,133.2c0.1,0.1,0.1,0.1,0.2,0.2C70.2,133.5,70.1,133.4,70.3,133.2z"/>
	<path d="M78.1,133.3c0.1,0,0.3,0,0.4,0c0.1,0.2,0.1,0.2,0.1,0.4c-0.2,0.1-0.4,0.1-0.6,0.1c-0.1-0.1-0.1-0.2-0.2-0.3
		C77.9,133.5,78,133.4,78.1,133.3z"/>
	<path d="M75.9,133.5c0.1,0,0.1,0,0.2,0v0.1C75.9,133.5,75.9,133.6,75.9,133.5z"/>
	<path d="M148.2,133.6c0.3,0,0.3,0.1,0.4,0.1v0.1c-0.1,0-0.3,0-0.4,0C148.2,133.7,148.2,133.7,148.2,133.6z"/>
	<path d="M87.2,133.7c0.1,0,0.1,0,0.2,0v0.1C87.2,133.7,87.3,133.8,87.2,133.7z"/>
	<path d="M73.7,133.8c0.2,0.2,0.1,0.1,0.2,0.3c-0.1,0-0.2,0-0.3,0C73.6,134,73.6,133.9,73.7,133.8z"/>
	<path d="M76.9,133.8c0.1,0,0.2,0.1,0.3,0.1c-0.1,0.2,0,0.1-0.1,0.2v0.1c-0.2-0.1-0.1,0-0.2-0.1C76.8,133.9,76.9,134.1,76.9,133.8z"
		/>
	<path d="M66.6,133.9c0.4,0.1,0.2-0.1,0.3,0.2c-0.1,0.1-0.1,0.2-0.2,0.3l-0.1-0.1C66.4,134.1,66.5,134.2,66.6,133.9z"/>
	<path d="M153.9,133.9c0.1,0,0.3,0,0.4,0c0,0.1,0,0.1,0,0.2h-0.1c-0.1,0.1-0.1,0.1-0.3,0.1C153.9,134.1,153.9,134,153.9,133.9z"/>
	<path d="M75.9,134c0.1,0,0.4,0.2,0.4,0.2C75.9,134.5,75.8,134.4,75.9,134z"/>
	<path d="M147.3,134.1c0.1,0.1,0,0,0.1,0.2h-0.1C147.3,134.3,147.3,134.2,147.3,134.1z"/>
	<path d="M64.5,134.2c0.1,0,0.3,0,0.4,0v0.1h-0.1C64.6,134.4,64.7,134.4,64.5,134.2z"/>
	<path d="M84.9,134.2c0.1,0,0.1,0,0.2,0c0,0.1,0,0.1,0,0.2c-0.1,0-0.1,0-0.2,0C84.9,134.4,84.9,134.3,84.9,134.2z"/>
	<path d="M150.6,134.4c0.3,0.1,0.4,0.1,0.6,0.3c-0.1,0-0.1,0-0.2,0c-0.2,0.1,0,0-0.3,0C150.7,134.6,150.7,134.5,150.6,134.4z"/>
	<path d="M114.5,135.2c0-0.1,0-0.2,0-0.3c0.4-0.2,0.4-0.4,0.9-0.4c0.1,0.3,0.2,0.3,0.2,0.6c-0.1,0-0.1,0-0.2,0
		C115.1,135.3,114.9,135.2,114.5,135.2z"/>
	<path d="M151.5,134.5c0.1,0,0.3,0,0.4,0c0.1,0.1,0.3,0.3,0.4,0.4l-0.1,0.1c-0.2,0.3-0.3,0.3-0.7,0.3v-0.1c0.4-0.1,0.3,0,0.4-0.3
		C151.7,134.8,151.6,134.7,151.5,134.5z"/>
	<path d="M139.1,135.2c-0.2,0-0.4,0-0.5,0c-0.1-0.2-0.1-0.2-0.1-0.4c0.1-0.1,0.2-0.1,0.3-0.2c0.2,0.1,0.1,0,0.2,0.1
		C139.1,134.8,139.1,135,139.1,135.2z"/>
	<path d="M144.5,134.9c0,0.1,0,0.3,0,0.4h-0.1c0-0.1,0-0.1,0-0.2c-0.1-0.1-0.1-0.1-0.2-0.2C144.3,134.9,144.4,134.9,144.5,134.9z"/>
	<path d="M144.5,135.5c0.1,0,0.1,0,0.2,0c0,0.1,0,0.1,0,0.2c-0.1,0-0.1,0-0.2,0C144.5,135.6,144.5,135.6,144.5,135.5z"/>
	<path d="M116.6,135.7c0.2,0,0.4,0,0.5,0c0,0.1,0,0.1,0,0.2c-0.2,0-0.4,0-0.5,0C116.6,135.9,116.6,135.8,116.6,135.7z"/>
	<path d="M140.4,135.8c0.2,0,0.2,0,0.3,0.1h-0.1c-0.1,0.1,0,0-0.2,0.1C140.4,136,140.4,135.9,140.4,135.8z"/>
	<path d="M145.5,135.9c0.1,0.2,0.2,0.1,0,0.2C145.5,136.1,145.5,136,145.5,135.9z"/>
	<path d="M144.6,136.3c0.4,0.1,0.2-0.1,0.3,0.2C144.7,136.4,144.8,136.5,144.6,136.3z"/>
	<path d="M124.3,137.1c0.1,0,0.1,0,0.2,0c0,0.1,0,0.1,0,0.2c-0.1,0-0.1,0-0.2,0C124.3,137.2,124.3,137.2,124.3,137.1z"/>
</g>
</svg>
