<?xml version="1.0" encoding="utf-8"?>
<!-- Generator: Adobe Illustrator 22.1.0, SVG Export Plug-In . SVG Version: 6.00 Build 0)  -->
<svg version="1.1" id="Layer_1" xmlns="http://www.w3.org/2000/svg" xmlns:xlink="http://www.w3.org/1999/xlink" x="0px" y="0px"
	 viewBox="0 0 100 100" style="enable-background:new 0 0 100 100;" xml:space="preserve">
<style type="text/css">
	.st0{opacity:0.6;fill:#FFFFFF;}
</style>
<path class="st0" d="M177.4,30.8c-26,0-47.1,21.1-47.1,47.1c0,26,21.1,47.1,47.1,47.1s47.1-21.1,47.1-47.1
	C224.4,51.9,203.4,30.8,177.4,30.8z M177.4,116.4c-21.3,0-38.5-17.2-38.5-38.5c0-21.3,17.2-38.5,38.5-38.5s38.5,17.2,38.5,38.5
	C215.9,99.2,198.6,116.4,177.4,116.4z"/>
<polygon class="st0" points="10.4,21.7 86.7,21.7 88.7,25.7 51.8,83.6 47.2,83.3 8.3,25 "/>
</svg>
