<?xml version="1.0" encoding="utf-8"?>
<!-- Generator: Adobe Illustrator 22.1.0, SVG Export Plug-In . SVG Version: 6.00 Build 0)  -->
<svg version="1.1" id="Layer_1" xmlns="http://www.w3.org/2000/svg" xmlns:xlink="http://www.w3.org/1999/xlink" x="0px" y="0px"
	 viewBox="0 0 50 50" style="enable-background:new 0 0 50 50;" xml:space="preserve">
<style type="text/css">
	.st0{opacity:0.48;}
</style>
<polygon class="st0" points="39.6,5.3 39.6,5.3 24.6,5.3 24.6,10.4 36,10.4 19.3,27.1 23,30.7 39.6,14.1 39.6,25.4 44.7,25.4 
	44.7,5.3 "/>
<g class="st0">
	<path d="M35.3,31.3v7.2c0,2.5,0.2,3.5-2.3,3.5l-21.5-0.1c-2.4-0.1-3.1-0.9-3.1-3.3L8.2,18c0-2.4,0.9-3.3,3.3-3.3h5.7v-3.8h-6.9
		c-3.3,0-6,2.7-6,6v22.9c0,3.3,2.7,6,6,6h22.9c3.3,0,6-2.7,6-6v-8.4h-3.9V31.3z"/>
</g>
</svg>
