<?xml version="1.0" encoding="utf-8"?>
<!-- Generator: Adobe Illustrator 22.1.0, SVG Export Plug-In . SVG Version: 6.00 Build 0)  -->
<svg version="1.1" id="Layer_1" xmlns="http://www.w3.org/2000/svg" xmlns:xlink="http://www.w3.org/1999/xlink" x="0px" y="0px"
	 viewBox="0 0 233.2 239.2" style="enable-background:new 0 0 233.2 239.2;" xml:space="preserve">
<style type="text/css">
	.st0{opacity:0.1;}
	.st1{fill:#FFFFFF;}
</style>
<circle class="st0" cx="115.8" cy="115.5" r="111.2"/>
<path class="st0" d="M226.3,102.8l-50.7-50.7l-22,13.9l-20.1-9.8l-72.7,5.1l-8.9,112.3l81.9,51.1c30-5.6,56.1-22.5,73.6-46.2
	c12.4-17.9,19.7-39.7,19.7-63.1C227,111.2,226.8,106.9,226.3,102.8z"/>
<polygon class="st1" points="88.9,144.5 90.7,128.2 161,39.3 175.6,52.1 105.6,140.6 "/>
<polygon class="st1" points="118.4,71.3 133.5,56.2 51.9,56.2 51.9,173.7 164.6,173.7 164.6,83.4 150,98 150,155.9 70.8,155.9 
	70.8,72 "/>
</svg>
