<?xml version="1.0" encoding="utf-8"?>
<!-- Generator: Adobe Illustrator 21.1.0, SVG Export Plug-In . SVG Version: 6.00 Build 0)  -->
<svg version="1.1" id="Layer_1" xmlns="http://www.w3.org/2000/svg" xmlns:xlink="http://www.w3.org/1999/xlink" x="0px" y="0px"
	 viewBox="0 0 200 80" style="enable-background:new 0 0 200 80;" xml:space="preserve">
<style type="text/css">
	.st0{fill:#00DE39;}
	.st1{fill:#CAE5CD;}
</style>
<path class="st0" d="M196.8,59.5H6.8c-1.6,0-3-1.3-3-3V12.7c0-1.6,1.3-3,3-3h190c1.6,0,3,1.3,3,3v43.8
	C199.8,58.1,198.4,59.5,196.8,59.5z"/>
<path class="st0" d="M72.4,93.6l-23.6,29.2c0,0-1.6,2.4-1.3,3c0.3,0.6,2.7-0.1,2.7-0.1L97,110.8l-4.5-2.6L75.3,91.6L72.4,93.6z"/>
<path class="st1" d="M193.6,56.7H10.4c-1.6,0-3-1.3-3-3V15.1c0-1.6,1.3-3,3-3h183.1c1.6,0,3,1.3,3,3v38.6
	C196.6,55.4,195.2,56.7,193.6,56.7z"/>
</svg>
