<?xml version="1.0" encoding="utf-8"?>
<!-- Generator: Adobe Illustrator 22.1.0, SVG Export Plug-In . SVG Version: 6.00 Build 0)  -->
<svg version="1.1" id="Layer_1" xmlns="http://www.w3.org/2000/svg" xmlns:xlink="http://www.w3.org/1999/xlink" x="0px" y="0px"
	 viewBox="0 0 50 50" style="enable-background:new 0 0 50 50;" xml:space="preserve">
<style type="text/css">
	.st0{fill:#FFFFFF;}
</style>
<g>
	<path class="st0" d="M25.1,19.5c-3.4,0-6.1,2.7-6.1,6.1s2.8,6.1,6.1,6.1s6.1-2.7,6.1-6.1S28.4,19.5,25.1,19.5z"/>
	<path class="st0" d="M39.7,18c0-3.9-3.2-7.1-7.1-7.1H17.4c-3.9,0-7.1,3.2-7.1,7.1v15.2c0,3.9,3.2,7.1,7.1,7.1h15.3
		c3.9,0,7.1-3.2,7.1-7.1h-0.1V18z M25.1,35c-5.2,0-9.4-4.2-9.4-9.4s4.2-9.4,9.4-9.4c5.1,0,9.4,4.2,9.4,9.4S30.3,35,25.1,35z
		 M34.8,18c-1.2,0-2.1-0.9-2.1-2.1s0.9-2.1,2.1-2.1c1.2,0,2.1,0.9,2.1,2.1C36.9,17.1,36,18,34.8,18z"/>
	<path class="st0" d="M25,1.3C11.7,1.3,1,12,1,25.3s10.8,24,24,24s24-10.8,24-24S38.3,1.3,25,1.3z M32.6,43.6H17.4
		C11.7,43.6,7,38.9,7,33.2V18c0-5.7,4.7-10.4,10.4-10.4h15.3c5.7,0,10.4,4.7,10.3,10.4v15.2C43,38.9,38.3,43.6,32.6,43.6z"/>
</g>
</svg>
