<?xml version="1.0" encoding="utf-8"?>
<!-- Generator: Adobe Illustrator 22.1.0, SVG Export Plug-In . SVG Version: 6.00 Build 0)  -->
<svg version="1.1" id="Layer_1" xmlns="http://www.w3.org/2000/svg" xmlns:xlink="http://www.w3.org/1999/xlink" x="0px" y="0px"
	 viewBox="0 0 50 50" style="enable-background:new 0 0 50 50;" xml:space="preserve">
<style type="text/css">
	.st0{fill:#FFFFFF;}
</style>
<path class="st0" d="M24.9,1.3c-13.3,0-24,10.8-24,24s10.8,24,24,24s24-10.8,24-24S38.2,1.3,24.9,1.3z M38.5,19.8c0,0.3,0,0.5,0,0.8
	c0,9.1-7,19.7-19.7,19.7c-4,0-7.6-1.1-10.6-3.1c0.6,0.1,1.2,0.1,1.7,0.1c3.2,0,6.1-1.1,8.5-2.9c-3,0-5.6-2-6.4-4.8
	c0.5,0.1,0.8,0.1,1.3,0.1c0.7,0,1.3-0.1,1.8-0.3C12,28.9,9.6,26,9.6,22.7v-0.1c0.9,0.4,2,0.8,3.1,0.8c-1.8-1.2-3-3.3-3-5.7
	c0-1.3,0.4-2.5,0.9-3.5c3.4,4.2,8.5,6.9,14.2,7.2c-0.1-0.7-0.2-1.2-0.2-1.7c0-3.9,3.1-6.9,6.9-6.9c2.1,0,3.9,0.9,5.1,2.2
	c1.5-0.4,3-1,4.3-1.7c-0.4,1.7-1.5,3-2.9,3.9c1.3-0.1,2.7-0.5,3.9-1C41,17.5,39.8,18.8,38.5,19.8z"/>
</svg>
