<?xml version="1.0" encoding="utf-8"?>
<!-- Generator: Adobe Illustrator 22.1.0, SVG Export Plug-In . SVG Version: 6.00 Build 0)  -->
<svg version="1.1" id="Layer_1" xmlns="http://www.w3.org/2000/svg" xmlns:xlink="http://www.w3.org/1999/xlink" x="0px" y="0px"
	 viewBox="0 0 50 50" style="enable-background:new 0 0 50 50;" xml:space="preserve">
<style type="text/css">
	.st0{fill:#FFFFFF;}
</style>
<g>
	<path class="st0" d="M31,24.6l-7.3-5.3c-0.4-0.1-0.5-0.1-0.9,0c-0.4,0.3-0.5,0.4-0.5,0.8v10.7c0,0.3,0.1,0.6,0.5,0.8
		c0.1,0.1,0.4,0.1,0.5,0.1s0.4,0,0.5-0.1l7.3-5.3c0.2-0.3,0.4-0.4,0.3-0.9C31.4,25.1,31.1,24.7,31,24.6z"/>
	<path class="st0" d="M25,1C11.7,1,1,11.7,1,25s10.8,24,24,24s24-10.8,24-24S38.3,1,25,1z M43,34.5L43,34.5
		c-0.5,1.5-1.7,2.4-3.3,2.4h0.4c0,0-6.2,0.9-14.3,0.9c-8.2,0-14.3-0.9-14.3-0.9h0.4c-1.7,0-2.9-0.9-3.4-2.3v-0.1
		c-0.1-0.1-0.1-0.4-0.1-0.5c0-1.5-0.5-4.8-0.5-8.5s0.4-7,0.6-8.5c0.1-0.1,0.1-0.4,0.1-0.5v-0.1c0.5-1.4,1.7-2.3,3.3-2.3h-0.4
		c0,0,6.2-0.9,14.3-0.9c8.2,0,14.3,0.9,14.3,0.9h-0.4c1.7,0,2.9,0.9,3.4,2.3v0.1c0.1,0.1,0.1,0.4,0.1,0.5c0.2,1.5,0.4,4.8,0.4,8.5
		s-0.4,6.9-0.5,8.5C43,34.1,43,34.4,43,34.5z"/>
</g>
</svg>
